<svg version="1.2" xmlns="http://www.w3.org/2000/svg" viewBox="0 0 900 900" width="900" height="900">
	<title>45724-ai</title>
	<style>
		.s0 { fill: #f2d811 } 
		.s1 { fill: #ff7900 } 
		.s2 { fill: #d6d4bf } 
		.s3 { fill: #b2b09b } 
		.s4 { fill: #e1eeef } 
		.s5 { fill: #dd6400 } 
		.s6 { fill: #f2db2c } 
		.s7 { fill: #f2db2e } 
		.s8 { fill: #ff891f } 
		.s9 { fill: #ffb16b } 
	</style>
	<g id="_Artboards_">
	</g>
	<g id="layer">
		<g id="&lt;Group&gt;">
			<g id="&lt;Group&gt;">
				<path id="&lt;Path&gt;" class="s0" d="m177.1 174.7c0 0-19.1-35.8-31.7-40.1-9.6-3.3-40 8.7-40 8.7 0 0 23.6-16.4 29.2-26.4 0.9-1.8-0.8-3.4-9-7.3 9.3 1.4 13.4 0.3 13.5-2.1 0.8-14.1-5.5-33.9-5.5-33.9 0 0 11.5 18.8 24 23.1 9.6 3.3 38.7-11.4 38.7-11.4 0 0-19.4 19.3-27.9 31.3-2 2.9 10.5 6.7 21.5 10.9-0.4 1.5-20.1 0.1-20.1 2.1 0.5 16.5 7.3 45.1 7.3 45.1z"/>
			</g>
		</g>
		<g id="&lt;Group&gt;">
			<path id="&lt;Path&gt;" class="s1" d="m445 117.4c11.4-6.3 61.5-15.9 61.5-15.9 0 0-46.5 4.1-57.8 1.4-3.1-0.8 1.8-13 11.4-24.6-17.4 17.4-24.5 13.9-26.3 9.4-3-7.5-7.8-27-7.8-27 0 0 2 25.1-3 35.6q-0.3 0.4-0.8 0.8c-5.8 0.9-21.7-13.8-21.7-13.8 0 0 10.2 11.5 12.4 14.5-3.2-0.5-21.5-7.6-24.9-9.6 8.1 7.7 28.4 17.7 26.7 18.9-8.3 5.8-50.7 10.1-50.7 10.1 0 0 36.4 1.1 47.6 4.8 2.5 0.9-9.8 23.2-24.4 37.5 12.8-9.5 32.4-32.1 33.3-30.4 6.7 12.1 9 39.1 9 39.1 0 0 4-26.5 9.4-39.9q0.1-0.3 0.3-0.4c5.8 0.2 21.7 20.8 21.7 20.8 0 0-10.9-16.6-12.6-19.8 3.1 1.2 22.6 8.9 27.6 11.6-10.7-6.4-33.5-21.6-30.9-23.1z"/>
			<path id="&lt;Path&gt;" class="s0" d="m450.5 115.2c12.6-14 39.9-36.6 39.9-36.6 0 0-28.1 21.5-44.1 25-4.4 0.9-3.4-8 1.6-28.7-8.2 15.5-14.6 19.5-16.5 17.9-8.3-7.5-22.8-25.5-22.8-25.5 0 0 9 31.8 5.4 35.7-6.8 4.7-19.1 2.1-19.1 2.1 0 0 3 2 7.8 4.4-4.4 1.4-9.7 2.2-15.3 1.7 15 4.8 31.4 10.7 30 13.2-7 12.5-44.1 29.7-44.1 29.7 0 0 26.1-10.8 42.6-12.9 3.7-0.5 6.7 2.7-3.1 29.9 10.5-19.9 20.9-33.2 22.7-31.1 14.6 16.6 31.7 48.9 31.7 48.9 0 0-14.5-34.3-15.9-54.7 0-0.2 0 0 3.4-2.6 7.5-3.3 18.9 1.1 18.9 1.1 0 0-2.6-2.3-6.7-5.4 4.7-0.5 10.9-0.6 18.9-0.3-17.5-1.5-38.2-8.7-35.3-11.8z"/>
		</g>
		<g id="&lt;Group&gt;">
			<path id="&lt;Path&gt;" class="s1" d="m703 118.4c-19.6 4.6-63.8 12.7-63.8 12.7 0 0 36-0.7 50 10 4 3-4.7 18.1-22.7 36.6 21.6-14.7 59.2-53.4 56.6-28.8l18.1 59.6c0 0-0.4-43.8-1.7-50.1 4.1 2.5 18.4 10.5 32.5 21.9-16.7-24.6-19.7-28.1-16.8-29.2 15-5.4 53.7 8.1 53.7 8.1 0 0-43.4-18.1-56.6-30.6-3-2.8 24.9-22.3 55.7-47.6-30.7 17.6-63.7 34.2-64 30.7-2-24.1 10.7-71.4 10.7-71.4 0 0-9.5 33-24.9 52.9-0.2 0.2-12.2 10.4-12.5 10.6-7.9-3.5-35.9-46.6-35.9-46.6 0 0 8.1 23 23.9 39.8-3.7-3.6-42.3-36-47.6-43.3 11 16.6 49.9 63.7 45.3 64.7z"/>
			<path id="&lt;Path&gt;" class="s0" d="m746.2 110.3c12.7-18.5 41.9-42.7 41.9-42.7 0 0-28 11.9-47.6 13.7-5.5 0.5-10.4 0.7-4.8-26.6-9.7 19.6-24 14.8-30.4 7.6-10.6-12.1-18.2-25.2-18.2-25.2 0 0 7.7 25.2 8.2 47.6q0 0.9-0.6 1.9c-8.3 5.2-23.5-0.6-23.5-0.6 0 0 3.8 3.3 9.7 7.4-5.3 1.1-11.8 1.2-18.7-0.5 18.6 9.3 30.5 13.5 28.9 16.6-8.3 15.8-45.1 39.1-45.1 39.1 0 0 31.8-9.8 52-9.6 4.6 0 8.4 4.9-2.9 40.1 12.3-25.2 19.6-35 22.5-32.4 19.8 18.3 44.9 66.7 44.9 66.7 0 0-14.8-51.3-17.1-79.3q0-0.5 0.1-1c9.2-3.1 23.3 5 23.3 5 0 0-3.2-3.6-8.3-8.5 5.8 0.2 13.4 1.1 23.2 3.1-21.6-5.3-40.4-18.1-37.5-22.4z"/>
			<g id="&lt;Group&gt;">
				<path id="&lt;Path&gt;" class="s2" d="m750 106c0 20.6-16.7 37.3-37.3 37.3-20.6 0-37.2-16.7-37.2-37.3 0-20.6 16.6-37.3 37.2-37.3 20.6 0 37.3 16.7 37.3 37.3z"/>
				<path id="&lt;Path&gt;" class="s2" d="m703.8 128c0 12.6-10.2 22.7-22.7 22.7-12.6 0-22.8-10.1-22.8-22.7 0-12.6 10.2-22.7 22.8-22.7 12.5 0 22.7 10.1 22.7 22.7z"/>
				<path id="&lt;Path&gt;" class="s2" d="m769.4 110.3c0 15.5-12.6 28.1-28.1 28.1-15.6 0-28.2-12.6-28.2-28.1 0-15.6 12.6-28.2 28.2-28.2 15.5 0 28.1 12.6 28.1 28.2z"/>
				<path id="&lt;Path&gt;" class="s2" d="m757.8 149.2c0 14.9-12 26.9-26.8 26.9-14.8 0-26.8-12-26.8-26.9 0-14.8 12-26.8 26.8-26.8 14.8 0 26.8 12 26.8 26.8z"/>
				<path id="&lt;Path&gt;" class="s2" d="m781.3 144c0 11.8-9.5 21.3-21.2 21.3-11.8 0-21.3-9.5-21.3-21.3 0-11.7 9.5-21.2 21.3-21.2 11.7 0 21.2 9.5 21.2 21.2z"/>
				<path id="&lt;Path&gt;" class="s2" d="m801.5 116.3c0 15.1-12.3 27.3-27.4 27.3-15.2 0-27.4-12.2-27.4-27.3 0-15.2 12.2-27.4 27.4-27.4 15.1 0 27.4 12.2 27.4 27.4z"/>
				<path id="&lt;Path&gt;" class="s2" d="m723.2 147.2c0 11.4-9.3 20.7-20.7 20.7-11.4 0-20.7-9.3-20.7-20.7 0-11.4 9.3-20.7 20.7-20.7 11.4 0 20.7 9.3 20.7 20.7z"/>
				<path id="&lt;Path&gt;" class="s3" d="m791.3 129.8c-4.8 5.4-12.3 8.4-21.1 7.9 1.6-1.5 3-3.3 4.2-5.6 1.8-3.2 2.5-6.8 2.3-10.2-0.3 1.9-1 3.8-2 5.6-4.1 7.5-12.7 12.6-23.8 12.9 8.2 2 13.8 1.4 18.1-1.7 2.9 1.1 5.4 1.7 7.8 1.8-0.4 10.1-8.6 18.1-18.7 18.1q-2.3 0-4.4-0.5-0.3-0.1-0.5-0.2c-4.6-1.2-8.4-4.1-10.9-7.9 1.5 4.5 4.7 8.2 8.8 10.5-4.4 4.7-10.7 7.7-17.8 7.7-7.2 0-13.6-3.1-18.1-8.1q-0.3-0.4-0.7-0.8c2.5 0.5 5.2 0.3 8.1-0.4 3.6-0.8 6.8-2.6 9.2-5.1-1.7 1-3.5 1.8-5.6 2.3-8.3 1.9-17.8-1.1-25.4-9.3 3.4 6.4 7 10.1 11.1 11.8q-1.4 0.6-2.9 1-2 0.4-4.2 0.4c-8.2 0-15.1-5.4-17.4-12.8 6.4-2.2 11.4-7.4 13.2-13.9-3.1 4.9-8.1 8.4-13.9 9.3q-0.9 0.2-1.8 0.2-0.8 0.1-1.5 0.1c-11.2 0-20.2-9.1-20.2-20.2q0-2.8 0.7-5.4c-1.9 3.1-3.1 6.8-3.1 10.7 0 11.1 9.1 20.2 20.3 20.2q1.6 0 3.2-0.3c0.4 9.7 8.4 17.5 18.2 17.5 3.1 0 6-0.8 8.6-2.2 4.4 6.3 11.7 10.4 19.9 10.4 9.1 0 17.1-5.1 21.3-12.6 2.3 1.1 5 1.7 7.8 1.7 10.3 0 18.7-8.4 18.7-18.7q0-1.8-0.3-3.5c4.4-0.2 8.1-2.4 11.6-6.3 2.4-2.7 3.9-6 4.5-9.4-0.8 1.8-1.9 3.5-3.3 5z"/>
				<path id="&lt;Compound Path&gt;" fill-rule="evenodd" class="s4" d="m798.9 116.3q0 0.7 0 1.4c-1.8-11.9-12.2-21.1-24.6-21.1-3.2 0-6.3 0.6-9.1 1.7 7.4 1.8 13 7.3 15.1 14.3-3.7-5.8-9.7-10.1-17-11.2-7.4-1.2-14.5 1-19.7 5.4q-0.3 0.1-0.5 0.2c1.9-2.8 4.5-5.2 7.5-6.8-3.8-4.9-9.9-8.4-16.4-7.7-6.9 0.7-11.5 3.1-14 4.8 10 2.8 17.9 10.3 21.3 19.7-6.1-8.5-15.8-14.5-27.1-15.6-11.3-1.1-21.9 2.9-29.7 10.1q-0.3 0.1-0.6 0.3c6.1-10.4 17.8-16.9 30.6-15.6q0.2 0 0.3 0c4.4-6.3 12.2-10 20.3-8.7q0.8 0.2 1.5 0.3-1.3-1.1-2.8-2.1c-5.5-3.7-12.2-5.9-19.4-5.9-16.4 0-30.2 11.5-33.8 26.8q-0.3 1.3-0.5 2.6-0.4 0-0.9 0.1-0.6 0.1-1.2 0.2c-5.1 1-9.4 4-12.1 8q-0.1 0.1-0.3 0.2c1.7-5.4 6.3-9.7 12.2-10.8q0-0.4 0-0.9c0-19.2 15.6-34.8 34.7-34.8 11.2 0 21.1 5.3 27.5 13.5q0.5 0 1.1 0c8.3 0 15.6 3.9 20.3 10 3.7-2.1 7.9-3.3 12.5-3.3 13.7 0 24.8 11.1 24.8 24.9zm-47.7-16.4c1.9-0.9 4-1.6 6.2-1.9q-0.1-0.1-0.1-0.1c-3.6-3.5-8.1-5.9-13.2-6.9q-0.1 0-0.2 0c3.2 2.3 5.7 5.4 7.3 8.9z"/>
			</g>
			<path id="&lt;Path&gt;" class="s1" d="m645.4 82.2c5.9 2.2 14.3 6.8 14.3 6.6 0.1-0.1-9.3-2.1-15.1-4.3-5.9-2.3-6.1-3.4-6-3.7 0.1-0.3 1-0.8 6.8 1.4z"/>
			<path id="&lt;Path&gt;" class="s0" d="m733.8 35.3c-1.3 6.1-4.4 15.2-4.3 15.2 0.2 0 0.7-9.5 1.9-15.6 1.2-6.2 2.3-6.6 2.6-6.5 0.4 0.1 1 0.8-0.2 6.9z"/>
			<path id="&lt;Path&gt;" class="s0" d="m804.5 147.1c-6.2-0.5-15.5-2.5-15.5-2.3-0.1 0.2 9.5-0.6 15.7-0.1 6.2 0.5 6.8 1.5 6.8 1.8-0.1 0.3-0.8 1.1-7 0.6z"/>
			<path id="&lt;Path&gt;" class="s0" d="m725.6 195.6c0.1-6.2 1.4-15.7 1.2-15.7-0.1 0 1.3 9.5 1.2 15.7 0 6.2-1 6.9-1.3 6.9-0.4 0-1.1-0.7-1.1-6.9z"/>
		</g>
		<g id="&lt;Group&gt;">
			<path id="&lt;Path&gt;" class="s5" d="m136.3 397.7c11.6-18.7 39.1-43.1 39.1-43.1 0 0-26.9 12-46.2 13.9-5.4 0.5-19.1 15.2-14.9-12.3l-53.7-24.8c0 0 49.5 47.1 49.1 47.7-27.5-2.6-48.5-5.7-48.5-5.7 0 0 17.6 4.8 23.6 9-5.2 1.1-39.6 2.3-46.4 0.7 24.7 7.3 65.6 12.6 64.1 15.7l-62.9 37.8c0 0 49.2-11 75.9-17.4 4.4-1-23.9 40.7-26 48 0 0 33-31.7 33.3-27.8 0.4 4.2-3.3 41.2-3.3 41.2 0 0 11.1-19.8 24.3-38.6 0.2-0.3-7.1-21-7-21.3 8.9-3.1 23.2 5 23.2 5 0 0-3.3-3.6-8.6-8.6 5.7 0.2 13.2 1.1 23 3.1-21.5-5.3-40.7-18.1-38.1-22.5z"/>
			<path id="&lt;Path&gt;" class="s5" d="m120 344c-9.2 10.2-28.8 22-28.8 22 0 0 17.8-4.4 29.8-3.3 3.4 0.3 6.4 0.8 0.7 17.1 7.5-11.1 15.7-6.5 19-1.3 5.4 8.7 8.9 17.7 8.9 17.7 0 0-2.6-16.5-1-30.6q0.1-0.5 0.5-1.1c5.5-2.3 14.2 3 14.2 3 0 0-2.1-2.4-5.3-5.7 3.3 0 7.2 0.6 11.3 2.4-10.5-7.8 11.8 4.6 11.9 2.5 0.8-21.8 5.3-53.7 5.3-53.7 0 0-19.8 42.8-22.3 42.6-2.8-0.3-7.5-48.8-7.5-48.8-2.3 11.5-8.9 45.2-10.3 43.3-10.5-13.6-27.6-72.2-27.6-72.2 0 0 4.7 33.6 3.7 51.4q0 0.3-0.2 0.6c-5.7 0.9-13.6-5.8-13.6-5.8 0 0 1.7 2.7 4.3 6.3-3.4-0.8-8-2.2-13.7-4.5 12.5 5.7 22.8 15.7 20.7 18.1z"/>
			<path id="&lt;Path&gt;" class="s0" d="m184.5 413.2c-15.9 1.9-42.2-2.9-42.2-2.9 0 0 19 10 28.7 20.1 2.8 2.9 5.1 5.6-12.5 15.6 15.1-4.1 18.8 6.3 17.7 13.4-2 11.8 3.1 46.8 3.1 46.8 0 0 11.9-50.1 13.7-52.1 0.3-0.3 27.6 41 27.6 41 0 0-14.4-50-12-50.6 12.4-2.9 70.9 28.3 70.9 28.3 0 0-48.8-35-57.7-46.4-2-2.6 30.3-9.9 60.9-20.4-19.4 5.3-65.5 8.5-65.3 5.7 1.2-20 52.3-36.4 52.3-36.4 0 0-57.2 12.1-71.7 26.9q-0.2 0.2-0.6 0.4c0.2 1.5 27.7-87.6 27.7-87.6 0 0-38.8 51.8-39.2 57-2.5-3.3-2.4 15.8-5.7 9.4 6.7 14.6 8 31.4 4.3 31.8z"/>
			<path id="&lt;Compound Path&gt;" fill-rule="evenodd" class="s2" d="m237.6 401.1c1.6 4.7 2.5 9.7 2.5 14.9 0 20-13.2 36.9-31.4 42.4-5.6 10.5-16.7 17.6-29.4 17.6-13.3 0-24.8-7.7-30.2-18.9-4.3 2-9.2 3.2-14.4 3.2-17.5 0-31.9-13.6-33.2-30.8-11-2.6-19.1-12.4-19.1-24.2 0-9.4 5.2-17.6 13-21.8-0.8-2.9-1.3-5.9-1.3-8.9 0-17.1 12.8-31.2 29.4-33.2 2.3-11.3 12.3-19.9 24.3-19.9 7.7 0 14.5 3.5 19.1 8.9 4.9-2.3 10.4-3.6 16.3-3.6 17.9 0 32.9 12.4 36.9 29.1 1.2-0.2 2.4-0.3 3.7-0.3 13.7 0 24.8 11.1 24.8 24.8 0 8.7-4.3 16.3-11 20.7zm-54.8-7.3c-0.1-2-3-4.6-7.4-3.8 3.5-3.6 3.5-5.7 2.5-6.9-1.1-1.2-4.9-1.7-8.2 5.1 1.7-7.2-1.8-10.8-4.7-10.6-2.9 0.2-4.4 4.7-3.8 8.4-3-1.4-8.4-1-9.5 1.4-1.3 2.6 2.4 6.8 7.7 6.3-9 3.2-12 8.9-10.8 11 1.2 2.1 6.6 3.6 11.9-2.2-1.5 5.7 0.2 6.7 1.9 7.1 1.8 0.5 6.7-2.2 6.1-7.3 2.1 3.2 5.5 5.1 7.7 3.5 2-1.5 2.8-5 0.3-8 5 0 6.3-2.1 6.3-4z"/>
			<path id="&lt;Path&gt;" class="s3" d="m236.2 363.7c3.6 3.7 5.8 8.7 5.8 14.3 0 7.9-4.4 14.8-10.9 18.3q-0.2 0.1-0.4 0.2c-2.9 1.6-6.2 2.4-9.7 2.4-4.7 0-9-1.5-12.5-4.1 3.9 4 9.3 6.6 15.3 6.6 2.8 0 6.5 8.5 6.2 16.4-0.7 16.9-7.1 24.8-21.9 30.8q0.3-1.7 0.5-3.4-0.5 1.9-1.3 3.7c-1.1 2.4-2.4 4.7-4 6.8-5.4 6.8-11.4 9.2-20.8 9.2-14.4 0-26.5-17.6-25.3-18.9 3.4-4 5.8-9 6.6-14.4-2.1 6.2-6.3 11.4-11.6 15q-1 0.6-2 1.2c-4.2 2.3-9.1 4.1-14.2 3.7-23.5-1.7-25.3-25.5-23.6-25.9 8.8-2.2 15.4-10.1 15.8-19.5-2.7 8.5-10.7 14.7-20 14.7q-0.9 0-1.6-0.1-0.3 0-0.6 0c-10.6-1.1-18.8-10.1-18.8-20.9q0-0.4 0-0.7c-0.6 1.9-0.9 4-0.9 6.2 0 10.9 8.4 19.9 19 20.9q0 0.3 0 0.7c0 16.3 13.2 29.5 29.4 29.5 6.1 0 11.7-1.9 16.4-5 3.7 12 14.9 20.7 28.2 20.7 11.7 0 21.9-7 26.6-17 17.4-4.5 30.3-20.3 30.3-39.1 0-5.9-1.3-11.5-3.6-16.6 7.2-3.3 12.1-10.6 12.1-19 0-6.8-3.3-12.9-8.5-16.7z"/>
			<g id="&lt;Group&gt;">
				<path id="&lt;Path&gt;" class="s4" d="m217.2 364.7c0-18.7-15.2-34-34-34-6.4 0-12.4 1.8-17.5 4.8q1.1 1.8 1.8 3.8c4.5-2.2 9.5-3.4 14.8-3.4 18.7 0 34 15.3 34 34q0 1.7-0.2 3.4c0.7-2.8 1.1-5.6 1.1-8.6z"/>
				<path id="&lt;Path&gt;" class="s4" d="m127.8 352.5q0 0 0 0 0-0.1 0-0.3 0 0-0.1 0 0.1 0.2 0.1 0.3z"/>
				<path id="&lt;Path&gt;" class="s4" d="m129.2 345.2c2.9-8 10.6-13.6 19.5-13.6 5.6 0 10.6 2.1 14.4 5.7q1.3-1 2.6-1.8c-3.7-6-10.3-10-17.9-10-11.1 0-20.2 8.7-20.9 19.6q0.3 0 0.6 0 0.8 0 1.7 0.1z"/>
				<path id="&lt;Path&gt;" class="s4" d="m163.1 337.3q1.4 1.3 2.6 2.9 0.9-0.5 1.8-0.9-0.7-2-1.8-3.8-1.3 0.8-2.6 1.8z"/>
				<path id="&lt;Path&gt;" class="s4" d="m126.9 345.1c-15.9 0.3-28.8 13.4-28.8 29.5 0 4.6 1.1 9.1 3 13q-0.6-2.9-0.6-6c0-15.5 12-28.2 27.2-29.4-0.5-1.8-0.8-3.8-0.8-5.8q0-0.7 0-1.3z"/>
				<path id="&lt;Path&gt;" class="s4" d="m127.5 345.1q-0.3 0-0.6 0 0 0.6 0 1.3c0 2 0.3 4 0.8 5.8q0.1 0 0.1 0c0-2.5 0.5-4.8 1.4-7q-0.9-0.1-1.7-0.1z"/>
			</g>
			<path id="&lt;Path&gt;" class="s4" d="m131.2 354.4c6.5-3 13.2-4.5 19.3-4.5-6.4-4.1-14.8-4.9-22.2-1.4-7.4 3.5-12 10.4-12.9 18 3.9-4.7 9.3-9 15.8-12.1z"/>
			<path id="&lt;Path&gt;" class="s4" d="m167.4 340.4c7.5 1 13.9 4.8 18.4 10.2-3.3-6.8-9.7-11.9-17.8-13-7.5-1-14.6 1.8-19.5 6.9 5.4-3.4 12-5 18.9-4.1z"/>
			<path id="&lt;Compound Path&gt;" fill-rule="evenodd" class="s3" d="m181.5 399.4c2.6 3.1 3.3 11.8-1.3 15.1-2.2 1.6-8.1-3-10.1-6.2 0.6 5.1 0 13.4-7.9 14-1.7 0.2-6-5.8-4.6-12.9-8.5 6.7-16.9 4.3-19.3 0.5-2.7-4.4 8.2-12.2 17.3-15.5-5.4 0.5-13.7-4.6-13.7-7.4 0-7.9 14.7-4 17.7-2.6-0.6-3.7-6-9.8 2-15.1 5.9-3.9 12.6 5.6 11 12.8 2.3-9.9 5.9-7.6 7.3-6.9 4.6 2.3 4 8.2 0.5 11.8 4.4-0.9 7.6 1.6 8 3.6 1.3 6.2-1.8 8.9-6.9 8.8zm-8.9-17.2q0-0.1 0-0.1 0 0 0 0.1zm10.2 11.6c-0.1-2-3-4.6-7.4-3.8 3.5-3.6 3.5-5.7 2.5-6.9-1.1-1.2-4.9-1.7-8.2 5.1 1.7-7.2-1.8-10.8-4.7-10.6-2.9 0.2-4.4 4.7-3.8 8.4-3-1.4-8.4-1-9.5 1.4-1.3 2.6 2.4 6.8 7.7 6.3-9 3.2-12 8.9-10.8 11 1.2 2.1 6.6 3.6 11.9-2.2-1.5 5.7 0.2 6.7 1.9 7.1 1.8 0.5 6.7-2.2 6.1-7.3 2.1 3.2 5.5 5.1 7.7 3.5 2-1.5 2.8-5 0.3-8 5 0 6.3-2.1 6.3-4z"/>
			<path id="&lt;Path&gt;" class="s0" d="m203.5 297.6c-2.5 5.7-7.4 13.8-7.3 13.9 0.2 0 2.6-9.2 5.1-14.8 2.5-5.7 3.6-5.9 3.9-5.7 0.3 0.1 0.8 1-1.7 6.6z"/>
			<path id="&lt;Path&gt;" class="s1" d="m272.2 428.9c-9.9-2.2-24.7-6.8-24.7-6.6-0.1 0.1 15.3 2.1 25.2 4.3 9.9 2.2 10.8 3.3 10.7 3.6-0.1 0.4-1.3 0.9-11.2-1.3z"/>
			<path id="&lt;Path&gt;" class="s1" d="m146.1 493.4c0.8-10.1 3.2-25.4 3.1-25.4-0.2 0 0.1 15.5-0.7 25.6-0.8 10.1-1.8 11.1-2.1 11.1-0.3-0.1-1-1.2-0.3-11.3z"/>
			<path id="&lt;Path&gt;" class="s0" d="m62.1 349.2c7.7 3 23.9 9.1 23.4 10.3 0.1-0.1-14.8-4.4-24.3-8-9.5-3.7-10.1-5-10-5.3 0.1-0.3 1.4-0.6 10.9 3z"/>
		</g>
		<g id="&lt;Group&gt;">
			<g id="&lt;Group&gt;">
				<path id="&lt;Compound Path&gt;" fill-rule="evenodd" class="s5" d="m436.2 270.1c0 0 15.2 34 17.6 37.5 2.3 3.2 15.2-40.7 15.2-40.7 1.8 7.4-2.1 57.7 1.2 54.5 20-18.7 52.1-47.9 52.1-47.9l-36.5 62.7q0 0 0 0c-5.9-4.8-12.3-9.1-18.7-13.1-9.6-6.1-20.6-12.4-32.1-15.1 1.4-20 1.2-37.9 1.2-37.9zm118.9 44.5c-6.8 2-36 20.1-40.1 23.6 7.3 0.7 25-3.9 25-3.9 0 0-16.7 6.6-39 16.4-4.3-5.2-9.3-9.9-14.7-14.2 4.8 1 45.1-16.4 68.8-21.9zm-68.8 21.9q-0.4 0-0.5-0.3 0.3 0.2 0.5 0.3zm19.1 19.9c18.7 5 56 14.2 56 14.2l-44.9 3.8c-3.3-6.3-7-12.3-11.1-18z"/>
			</g>
			<g id="&lt;Group&gt;">
				<path id="&lt;Compound Path&gt;" fill-rule="evenodd" class="s5" d="m466.2 504.1c0 0-20.2-51.3-22.8-53.5-2.4-2-3.6 44.3-3.6 44.3-2.8-5.2-9.4-44.2-11.4-41.2-12 18.2-31.3 46.6-31.3 46.6l16.3-54.8c5.6 2.5 11.4 4.5 17.1 6.3 8.6 2.7 15.3-13.4 24.7-13.5 2.3 27.7 11 65.8 11 65.8zm-52.8-58.6q-0.2-0.1-0.4-0.1 0.3-0.1 0.4 0.1zm-49.7 30c4.8-2.8 24.1-22.4 26.6-25.8-5.8 0.9-18.7 7.9-18.7 7.9 0 0 11.8-8.3 27.2-20.1 4.4 3.1 9.2 5.6 14.2 7.9-3.9 0.2-32 21.3-49.3 30.1zm30.6-41.5c-15.5-0.1-46.3 0.2-46.3 0.2l34.3-11.7c3.7 4.1 7.8 8 12 11.5z"/>
			</g>
			<g id="&lt;Group&gt;">
				<path id="&lt;Compound Path&gt;" class="s0" d="m324.5 350c0 0 49.1 0.1 51.7-1.2 2.4-1.2-36-15.6-36-15.6 5.2-0.5 39.9 6 38 3.7-11.6-14.2-29.5-36.7-29.5-36.7l40.8 28c2.4 0.1-7.6-29.1-9.8-45.4 0.8 4.4 11.3 24.3 13.4 27.2 1-4.6-0.9-16.1-0.9-16.1 0 0 3.3 11 8.5 25.9-8.4 5-15.4 12.1-21.6 19.2-4.9 5.5 6.5 15.1 3.7 22.1-23.8-6.4-58.3-11.1-58.3-11.1z"/>
			</g>
			<g id="&lt;Group&gt;">
				<path id="&lt;Compound Path&gt;" class="s0" d="m580.2 395c0 0-74.9 2.3-78.9 4.3-3.5 1.9 55.8 22.1 55.8 22.1-8 1.1-61.3-7.2-58.2-3.8 18.3 21.1 46.7 54.8 46.7 54.8l-63.7-40.9c-3.7-0.1 13.1 44.1 17.2 68.9-1.5-6.8-18.4-36.7-21.8-40.9-1.3 7 2.1 24.5 2.1 24.5 0 0-5.6-16.7-14.2-39.2 12.6-8 23-19.2 32.2-30.3 7.2-8.7-10.8-22.8-6.8-33.7 36.8 8.7 89.6 14.2 89.6 14.2z"/>
			</g>
			<g id="&lt;Group&gt;">
				<path id="&lt;Compound Path&gt;" fill-rule="evenodd" class="s2" d="m507.5 431.5q0.2 1.8 0.2 3.7c0 17.2-13.9 31.2-31.1 31.2-4.4 0-8.5-0.9-12.3-2.6-7.5 6-17 9.5-27.2 9.5-16.2 0-30.3-8.7-38-21.7q-2.4 0.4-5 0.5c-15 0-27.2-12.2-27.2-27.2 0-3.6 0.7-7 1.9-10.1-14.3-6.8-24.1-21.4-24.1-38.4 0-19.4 13-35.8 30.9-40.8-0.2-1.2-0.3-2.4-0.3-3.6 0-14.8 11.9-26.7 26.7-26.7 3.1 0 6.2 0.6 9 1.6 6.5-9.9 17.8-16.4 30.5-16.4 17.5 0 32.1 12.3 35.7 28.7 2.5-0.7 5.1-1.1 7.8-1.1 16.4 0 29.6 13.3 29.6 29.7 0 3.6-0.6 7-1.8 10.2 15.9 4.4 27.5 19 27.5 36.2 0 19.2-14.3 35-32.8 37.3zm-36.2-61.2c6-7.9 7.8-16.6 4-19.6-3.9-3-12.1 1-18.3 9q-0.3 0.3-0.6 0.6c1-3 1.6-6.6 1.5-10.6-0.2-10.1-4.4-18.2-9.3-18.1-4.9 0.1-8.8 8.4-8.6 18.5 0 0.2 1.7 12.3 1.8 12.5-5.2-11.5-11.9-15.9-14.9-13.4-3.4 2.9-1.5 10.8 7.4 17.5-2.1-0.7-11.5-3.3-14-3.5-10.1-0.7-18.6 3.3-19 9-0.4 5.7 10.3 12.5 20.1 9.7 10.5-3 16.6-6.7 17.4-6.7-3.5 1.9-18.5 10.8-24.8 16.7-7.4 6.9-12.1 12.2-9.5 15 2.5 2.7 10.6-0.5 18.1-7.2 2.2-2 9.5-9.9 11-11.9-5.2 13-3.4 19.1 1.6 20.8 6.2 2.2 14.3-4.9 13.2-23 1.2 2.7 6.9 16.2 9.1 19.2 6 8.1 13.3 12.9 16.4 10.7 3-2.2 0.5-10.6-5.5-18.8-0.7-1-8.1-6.9-8.9-7.8 13.8 7.8 24 0.8 24.6-5.7 0.4-5.6-5-10.9-12.8-12.9z"/>
				<path id="&lt;Path&gt;" class="s3" d="m537.4 394.2q0-1.7-0.2-3.4c-1.5 15.4-13.2 27.8-28.2 30.5 6-5.6 7.5-14.7 3.5-22.1 1.8 7.6-1.4 16-8.7 20.6-7.2 4.6-16.2 4-22.3-0.9 4.6 6.3 12.6 8.8 19.8 6.8q0.5 2.5 0.5 5.1c0 15.5-12.6 28.2-28.2 28.2-3.7 0-7.3-0.8-10.5-2.1 12.6-2.5 21.8-13.5 21.9-26.5-3 11.1-13.3 19.7-26 20.4-11.2 0.7-21.3-4.9-26.5-13.6 7.8-4.2 11.5-13.5 8.7-22 0.5 7.8-4.2 15.5-12.1 18.8-8 3.2-16.7 1.1-21.9-4.8 4.3 8.6 14.5 12.6 23.6 8.8q0.4-0.1 0.7-0.3c3.4 11.7 14.3 20 26.9 19.7-6.2 3.8-13.5 6-21.3 6-14.5 0-27.2-7.5-34.5-18.8q-2.5 0.5-5.1 0.5c-13.3 0-24.2-10.8-24.2-24.2 0-2.5 0.4-4.9 1.1-7.2 6.4 10.8 20 14.8 31 9.3-9.8 2-20.5-2.7-26.1-12.2-5.6-9.6-4.4-21.2 2.2-28.8-8 5.5-11.7 15.2-9.9 24.4-13.5-6.3-23-20-23-35.9q0-1.8 0.2-3.5c-0.8 3-1.2 6.2-1.2 9.4 0 16.8 10.5 31.1 25.2 36.9-1.9 3.4-2.9 7.4-2.9 11.6 0 13.3 10.8 24.2 24.2 24.2 2.2 0 4.4-0.4 6.5-0.9 6.9 13.1 20.6 22.1 36.5 22.1 10.2 0 19.6-3.7 26.8-10 3.8 2 8.1 3.1 12.7 3.1 15.5 0 28.2-12.6 28.2-28.2 0-2.2-0.3-4.3-0.8-6.4 18.5-0.6 33.4-15.9 33.4-34.6z"/>
				<g id="&lt;Group&gt;">
					<path id="&lt;Path&gt;" class="s4" d="m478.8 331.5q-0.7-0.7-1.5-1.4c2.4-0.7 5-1.1 7.7-1.1 13.4 0 24.4 9.9 26.4 22.7 0.1-1.3 0.3-2.6 0.3-3.9 0-14.7-12-26.7-26.7-26.7-3.6 0-7 0.7-10.1 2-2-16.7-16.2-29.7-33.4-29.7-12.6 0-23.5 7-29.3 17.2-3.1-1.5-6.6-2.4-10.2-2.4-13.1 0-23.7 10.7-23.7 23.8q0 2 0.3 3.9c1.9-11.2 11.6-19.7 23.4-19.7 2.3 0 4.5 0.3 6.6 1-6.9 4.1-11.8 11.2-13 19.5 7.2-9.5 18.6-15.6 31.5-15.6 6.7 0 12.9 1.6 18.5 4.5-5-7.4-13.4-12.3-22.9-12.3-2.7 0-5.3 0.4-7.8 1.1 6.2-7.9 15.8-13.1 26.6-13.1 16.2 0 29.8 11.6 32.9 26.9-5.8-3.1-13-2.8-18.5 1.1 7.6-0.8 15.6 1.8 21.3 7.8 2.9 3.1 4.9 6.7 6 10.6 1.3-5.6-0.2-11.7-4.4-16.2z"/>
					<path id="&lt;Path&gt;" class="s4" d="m390.6 338.1c-16.9-1.5-32.1 8.5-37.9 23.6 9.6-11.5 24.5-18.2 40.5-16.7 9.7 0.9 18.3 4.7 25.3 10.4-5.9-9.5-15.9-16.2-27.9-17.3z"/>
					<path id="&lt;Path&gt;" class="s4" d="m518.4 363.6c-12.8-6.1-27.7-2.6-36.6 7.6 10.9-6.3 24.5-7.3 36.6-1.5 7.4 3.5 13.1 8.9 16.9 15.4-1.9-9.1-7.9-17.2-16.9-21.5z"/>
				</g>
				<path id="&lt;Compound Path&gt;" fill-rule="evenodd" class="s3" d="m488.8 384.5c-0.5 6.4-7 11.8-22.3 7.3 0.8 0.8 5.3 5 6 6 6 8.2 6.7 18.9 3.7 21.1-3 2.3-14.3-3.3-20.4-11.4-2.2-3-5.1-10.3-6.3-13-0.5 9.9-7 20.7-17 18.9-5.1-1-5.2-10.8-4.9-17.5-3.1 4-6.3 8.2-7.3 9.3-11.9 12.3-17.2 6.9-19.7 4.1-2.5-2.8 1.5-9 8.9-15.9 6.3-6 11.1-10.1 11.1-10.1-2.2 0.9-4.5 1.7-6.6 2.3-9.8 2.8-18.5-6.5-18.9-12.2-0.8-9.7 12.8-13.4 22.9-12.6 2.5 0.1 8.7 2.3 10.8 2.9-8.9-6.7-10.8-19.4-7.4-22.2 2.5-2.2 11.9 3.9 17.4 12.9 1.1 1.8-1.5-8.3-1.5-8.5-0.2-10.1 4.7-19.1 9.6-19.2 5-0.1 16.4 8.5 13.4 25.5 0 0 12.2-10 18.1-4.8 3.7 3.2 2.7 14-3.3 21.9 11.9 4.1 14.2 9.5 13.7 15.2zm-17.5-14.2c6-7.9 7.8-16.6 4-19.6-3.9-3-12.1 1-18.3 9q-0.3 0.3-0.6 0.6c1-3 1.6-6.6 1.5-10.6-0.2-10.1-4.4-18.2-9.3-18.1-4.9 0.1-8.8 8.4-8.6 18.5 0 0.2 1.7 12.3 1.8 12.5-5.2-11.5-11.9-15.9-14.9-13.4-3.4 2.9-1.5 10.8 7.4 17.5-2.1-0.7-11.5-3.3-14-3.5-10.1-0.7-18.6 3.3-19 9-0.4 5.7 10.3 12.5 20.1 9.7 10.5-3 16.6-6.7 17.4-6.7-3.5 1.9-18.5 10.8-24.8 16.7-7.4 6.9-12.1 12.2-9.5 15 2.5 2.7 10.6-0.5 18.1-7.2 2.2-2 9.5-9.9 11-11.9-5.2 13-3.4 19.1 1.6 20.8 6.2 2.2 14.3-4.9 13.2-23 1.2 2.7 6.9 16.2 9.1 19.2 6 8.1 13.3 12.9 16.4 10.7 3-2.2 0.5-10.6-5.5-18.8-0.7-1-8.1-6.9-8.9-7.8 13.8 7.8 24 0.8 24.6-5.7 0.4-5.6-5-10.9-12.8-12.9z"/>
			</g>
			<path id="&lt;Path&gt;" class="s0" d="m424.3 505.8c1.7-12 6.7-29.7 6.4-29.8-0.3 0-0.3 18.5-2.1 30.4-1.8 12-3.7 12.9-4.3 12.8-0.6-0.1-1.8-1.5 0-13.4z"/>
			<path id="&lt;Path&gt;" class="s0" d="m348.6 468.9c9.5-7.5 25.3-17 25.1-17.3-0.2-0.2-12.9 13.2-22.4 20.7-9.5 7.5-11.5 6.9-11.9 6.4-0.4-0.5-0.3-2.3 9.2-9.8z"/>
			<path id="&lt;Path&gt;" class="s0" d="m544.1 295.7c-11.4 7.1-30 15.9-29.9 16.1 0.2 0.3 16.2-12.7 27.6-19.8 11.5-7 13.6-6.3 13.9-5.8 0.3 0.6-0.1 2.5-11.6 9.5z"/>
			<path id="&lt;Path&gt;" class="s0" d="m549.8 340.6c-10.8 2.9-27.8 5-27.7 5.3 0.1 0.3 15.8-6.6 26.6-9.5 10.7-2.9 12.3-1.5 12.4-0.9 0.2 0.6-0.5 2.3-11.3 5.1z"/>
			<path id="&lt;Path&gt;" class="s1" d="m401.9 277.7c3.2 8.7 5.9 22.8 6.2 22.7 0.3-0.1-7.1-12.5-10.3-21.2-3.2-8.7-1.9-10.2-1.3-10.4 0.6-0.2 2.2 0.2 5.4 8.9z"/>
			<path id="&lt;Path&gt;" class="s1" d="m339.7 313c8.3 4.2 19.8 12.8 19.9 12.5 0.2-0.2-13.6-4.4-21.9-8.6-8.2-4.3-8.3-6.3-8-6.8 0.3-0.6 1.8-1.4 10 2.9z"/>
			<path id="&lt;Path&gt;" class="s1" d="m490.5 288.4c-3.5 8.6-11 20.9-10.7 21 0.2 0.1 3.1-14 6.6-22.6 3.5-8.6 5.5-8.8 6.1-8.6 0.5 0.2 1.5 1.6-2 10.2z"/>
			<path id="&lt;Path&gt;" class="s1" d="m532.6 352.3c-4.7 0.7-12.1-0.6-12.1-0.3 0 0.3 6.8-3.4 11.5-4 4.6-0.7 5.4 1 5.4 1.6 0.1 0.6-0.1 2-4.8 2.7z"/>
			<path id="&lt;Path&gt;" class="s1" d="m541 458.3c-11.3-7.9-27-21.7-27.2-21.5-0.2 0.3 18.5 10 29.7 17.9 11.3 7.8 11.4 10.1 11 10.6-0.3 0.5-2.3 0.8-13.5-7z"/>
			<path id="&lt;Path&gt;" class="s1" d="m381.4 480.5c5.5-8.8 15.8-20.8 15.6-20.9-0.3-0.2-6.4 14.5-11.9 23.2-5.5 8.7-7.6 8.7-8.1 8.3-0.5-0.3-1.1-1.9 4.4-10.6z"/>
			<path id="&lt;Path&gt;" class="s1" d="m343 420.5c7.1-1.9 18.3-3.3 18.2-3.5 0-0.2-10.3 4.6-17.3 6.5-7.1 2-8.2 1-8.3 0.6-0.1-0.5 0.4-1.6 7.4-3.6z"/>
		</g>
		<g id="&lt;Group&gt;">
			<g id="&lt;Group&gt;">
				<g id="&lt;Group&gt;">
					<g id="&lt;Group&gt;">
						<path id="&lt;Path&gt;" class="s2" d="m758.4 320.1c0 16.6-13.4 30-29.9 30-16.6 0-30-13.4-30-30 0-16.5 13.5-29.9 30-29.9 16.5 0 29.9 13.4 29.9 29.9z"/>
						<path id="&lt;Path&gt;" class="s2" d="m722.9 337.8c0 10.1-8.1 18.3-18.2 18.3-10.1 0-18.3-8.2-18.3-18.3 0-10.1 8.2-18.3 18.3-18.3 10.1 0 18.2 8.2 18.2 18.3z"/>
						<path id="&lt;Path&gt;" class="s2" d="m775.7 323.6c0 12.5-10.2 22.6-22.6 22.6-12.5 0-22.6-10.1-22.6-22.6 0-12.5 10.1-22.6 22.6-22.6 12.4 0 22.6 10.1 22.6 22.6z"/>
						<path id="&lt;Path&gt;" class="s2" d="m801.4 328.4c0 12.1-9.9 22-22 22-12.2 0-22-9.9-22-22 0-12.2 9.8-22 22-22 12.1 0 22 9.8 22 22z"/>
						<path id="&lt;Compound Path&gt;" fill-rule="evenodd" class="s4" d="m799.4 328.4q0 0.6-0.1 1.1c-1.4-9.6-9.7-16.9-19.7-16.9-2.6 0-5.1 0.5-7.3 1.4 5.9 1.4 10.4 5.8 12.1 11.4-3-4.6-7.8-8.1-13.7-9-5.9-0.9-11.6 0.9-15.8 4.4q-0.2 0.1-0.4 0.1c1.6-2.3 3.6-4.1 6.1-5.4-3.1-3.9-8-6.8-13.3-6.3-5.5 0.6-9.2 2.6-11.2 3.9 8.1 2.3 14.4 8.3 17.2 15.9-5-6.9-12.7-11.7-21.8-12.6-9.1-0.9-17.7 2.3-23.9 8.1q-0.2 0.1-0.5 0.3c4.9-8.4 14.4-13.6 24.6-12.5q0.1 0 0.2 0c3.6-5.1 9.8-8 16.4-7q0.6 0.1 1.2 0.2-1.1-0.9-2.3-1.7c-4.4-3-9.8-4.7-15.5-4.7-13.2 0-24.3 9.2-27.2 21.5q-0.3 1.1-0.4 2.1-0.4 0-0.7 0.1-0.5 0-1 0.1c-4.1 0.8-7.5 3.2-9.7 6.5q-0.1 0.1-0.2 0.1c1.3-4.3 5-7.7 9.7-8.6q0-0.4 0-0.8c0-15.4 12.5-27.9 27.9-27.9 9 0 16.9 4.2 22.1 10.8q0.4 0 0.9 0c6.6 0 12.5 3.2 16.3 8.1 2.9-1.7 6.3-2.7 10-2.7 11 0 20 8.9 20 20zm-38.4-13.1c1.5-0.8 3.2-1.3 5-1.6q-0.1 0-0.1-0.1c-2.8-2.8-6.5-4.7-10.6-5.5q0 0-0.1 0c2.6 1.8 4.6 4.3 5.8 7.2z"/>
					</g>
				</g>
				<path id="&lt;Path&gt;" class="s2" d="m693.6 352.3c15.1 11.1 29.6 18.1 29.6 18.1-5-11.7-3.9-17.3 0.6-17.3 4.5 0 7.3 22.4 7.3 26.3 1.6-17.4 7.8-29.1 12.3-25.8 4.5 3.4 3.9 12.4 2.8 15.2 4.1-6 8.3-18.7 12.7-15.3 4.5 3.3-2.1 21.4-4.3 24.2 25.8-18.2 42.5-36.3 42.5-36.3 0 0-67.1-23.3-103.5 10.9z"/>
				<path id="&lt;Path&gt;" class="s3" d="m758.9 353.5c4.5 3.3-2.1 21.4-4.3 24.2q2.2-2.6 4.7-5.2c6-10.7 13.5-27.8 4.8-31.8-5.1-2.3-11.8 7.9-15.1 18 1.1-2.8 0-15.1-4.5-18.5-4.5-3.4-11.1 11.4-12.7 27.5 0-3.9-2.2-19.1-6.3-20.8-8.5-3.3-13.5 9-3.7 22.1q0 0 0 0 0.8 0.8 1.4 1.4c-5-11.7-3.9-17.3 0.6-17.3 4.5 0 7.3 22.4 7.3 26.3 1.6-17.4 7.8-29.1 12.3-25.8 4.5 3.4 3.9 12.4 2.8 15.2 4.1-6 8.3-18.7 12.7-15.3z"/>
			</g>
			<g id="&lt;Group&gt;">
				<g id="&lt;Group&gt;">
					<g id="&lt;Group&gt;">
						<path id="&lt;Path&gt;" class="s2" d="m816.9 442c-16-4.4-25.4-20.8-21-36.8 4.4-15.9 20.8-25.3 36.8-21 15.9 4.4 25.3 20.8 21 36.8-4.4 15.9-20.9 25.3-36.8 21z"/>
						<path id="&lt;Path&gt;" class="s2" d="m810.1 382.4c-9.7-2.7-15.5-12.7-12.8-22.5 2.7-9.7 12.7-15.4 22.4-12.8 9.8 2.7 15.5 12.7 12.8 22.5-2.6 9.7-12.7 15.4-22.4 12.8z"/>
						<path id="&lt;Path&gt;" class="s2" d="m819.5 407.8c-12.1-3.3-19.1-15.7-15.9-27.8 3.3-12 15.8-19.1 27.8-15.8 12.1 3.3 19.1 15.7 15.9 27.7-3.3 12.1-15.8 19.2-27.8 15.9z"/>
						<path id="&lt;Path&gt;" class="s2" d="m796.7 460.1c-10-2.7-15.8-13-13.1-22.9 2.7-10 13-15.9 22.9-13.1 10 2.7 15.8 13 13.1 22.9-2.7 10-13 15.8-22.9 13.1z"/>
					</g>
				</g>
				<path id="&lt;Path&gt;" class="s2" d="m800 354.9c-4.4 7.5-16.1 16.5-21.5 19.1 12.7-1.8 17.8 0.8 16.6 5.1-1.1 4.4-23.5 1.1-27.3 0.1 16.3 6.2 26.1 15.3 21.6 18.7-4.4 3.4-12.9 0.5-15.3-1.3 4.7 5.5 15.8 12.9 11.4 16.4-4.5 3.4-20.2-7.7-22.3-10.6 12 17.3 20.4 44.4 20.4 44.4 0 0 39.8-47.8 16.4-91.9z"/>
				<path id="&lt;Path&gt;" class="s3" d="m785.5 413c-4.5 3.4-20.2-7.7-22.3-10.6q2 2.8 3.8 5.9c8.7 8.6 23.3 20.4 29.4 13 3.6-4.3-4.5-13.4-13.3-19.3 2.4 1.8 14.6 4 19 0.5 4.4-3.4-8.1-13.7-23.2-19.5 3.8 1.1 19 2.9 21.7-0.6 5.5-7.2-5.1-15.4-20.3-9.3q0 0 0 0-1 0.5-1.8 0.9c12.7-1.8 17.8 0.8 16.6 5.1-1.1 4.4-23.5 1.1-27.3 0.1 16.3 6.2 26.1 15.3 21.6 18.7-4.4 3.4-12.9 0.5-15.3-1.3 4.7 5.5 15.8 12.9 11.4 16.4z"/>
				<path id="&lt;Path&gt;" class="s4" d="m842.7 376.1c-2.6-4.6-6.9-7.9-12-9.3q-0.2 0-0.4-0.1c0.4-3.3-0.2-6.7-1.9-9.7-2.1-3.6-5.4-6.1-9.4-7.2q-2-0.6-4.1-0.6c-7 0-13.1 4.7-15 11.4-0.5 2.1-0.7 4.2-0.4 6.3q0.2-1.1 0.4-2.2c1.9-6.7 8-11.4 15-11.4q2.1 0 4.1 0.6c4 1.1 7.3 3.6 9.4 7.2 1 1.8 1.6 3.7 1.9 5.6q-2.4-0.6-4.9-0.6c-8.9 0-16.8 6-19.1 14.6-0.7 2.5-0.9 5-0.6 7.4q0.2-1.6 0.6-3.3c2.3-8.6 10.2-14.6 19.1-14.6q2.7 0 5.3 0.7c5.1 1.4 9.4 4.7 12 9.3 1.4 2.5 2.2 5.1 2.5 7.8 0.4-4.1-0.4-8.2-2.5-11.9z"/>
				<path id="&lt;Path&gt;" class="s3" d="m851 415.3c-3.2 11.8-14 20-26.2 20-2.4 0-4.8-0.3-7.2-1-7-1.9-12.8-6.4-16.4-12.7-2-3.5-3.1-7.2-3.5-11-0.5 5.5 0.7 11.1 3.5 16 3.6 6.3 9.4 10.8 16.4 12.7 2.4 0.7 4.8 1 7.2 1 12.2 0 23-8.2 26.2-20 0.9-3.3 1.1-6.5 0.9-9.7-0.2 1.6-0.4 3.1-0.9 4.7z"/>
				<path id="&lt;Path&gt;" class="s3" d="m817 439.9c-1.9 6.9-8.2 11.7-15.4 11.7q-2.1 0-4.2-0.5c-6-1.7-10.2-6.5-11.4-12.2-1.7 8.1 3.2 16.3 11.4 18.6q2.1 0.5 4.2 0.5c7.2 0 13.5-4.8 15.4-11.7 0.7-2.5 0.7-5 0.2-7.4q-0.1 0.5-0.2 1z"/>
				<path id="&lt;Path&gt;" class="s4" d="m814 383.6c6.5-2.3 13.6 0.9 16.5 7.1q-0.1-1.7-0.7-3.4c-2.4-7-10-10.8-17-8.4-7.1 2.4-10.8 10.1-8.4 17.1q0.2 0.7 0.5 1.3c-0.4-5.9 3.1-11.7 9.1-13.7z"/>
			</g>
			<g id="&lt;Group&gt;">
				<path id="&lt;Path&gt;" class="s2" d="m671.3 395c12.7-2.6 24.4 5.7 26.1 18.6 1.8 12.8-7.1 25.4-19.8 28-12.7 2.6-24.4-5.7-26.1-18.6-1.8-12.8 7.1-25.4 19.8-28z"/>
				<path id="&lt;Path&gt;" class="s2" d="m691.9 424.9c10-2.1 19.2 4.5 20.6 14.6 1.4 10.2-5.6 20.1-15.6 22.1-10 2.1-19.2-4.5-20.6-14.6-1.4-10.2 5.6-20.1 15.6-22.1z"/>
				<path id="&lt;Path&gt;" class="s2" d="m656 366c16.5-3.4 31.8 7.5 34.1 24.2 2.2 16.8-9.3 33.1-25.8 36.5-16.5 3.4-31.8-7.4-34-24.2-2.3-16.7 9.2-33.1 25.7-36.5z"/>
				<path id="&lt;Path&gt;" class="s2" d="m663.5 352.6c12-2.4 23.1 5.5 24.8 17.7 1.7 12.2-6.8 24.1-18.8 26.6-12.1 2.5-23.2-5.4-24.8-17.6-1.7-12.3 6.7-24.2 18.8-26.7z"/>
				<path id="&lt;Path&gt;" class="s2" d="m712.6 444.9c0-8.9 5.6-23.1 9-28.3-10.1 8.6-15.7 9.3-16.9 5-1.1-4.3 19.7-14.2 23.5-15.5-17.1 4-30 1.8-27.9-3.6 2.1-5.5 10.8-7.8 13.8-7.6-6.8-2-20-2-17.9-7.4 2.1-5.5 21.1-4.9 24.4-3.6-19-8-39.7-26.2-39.7-26.2 0 0-10.4 63 31.7 87.2z"/>
				<path id="&lt;Path&gt;" class="s3" d="m700.8 387.9c1.3-2.9 16.5-5.3 19.8-4-2.1-0.9-5.5-0.6-7.6-1.6-12-1-21.3-1.7-22.2 2.9-1.1 5.7 7.4 10.6 12.9 10.2-3-0.2-9.4 3.6-11.5 9-2 5.4 8.7 8.3 24.6 4.7-3.8 1.2-15.7 7.1-18.6 17.9-2.4 9 12.2 5.1 22.3-8.7q0 0 0 0.1 0.6-1.1 1.1-1.8c-10.1 8.6-15.7 9.3-16.9 5-1.1-4.3 19.7-14.2 23.5-15.5-17.1 4-30 1.8-27.9-3.6 2.1-5.5 10.8-7.8 13.8-7.6-6.8-2-15.7-1.7-13.3-7z"/>
				<path id="&lt;Path&gt;" class="s4" d="m687.3 390.8c-1.9-14-13.8-23.7-27.7-22.5q-1.6 0.2-3.2 0.5c-2.5 0.5 1-7.6 9.8-9.7 9.6-2.3 18.1 5.9 19.5 15.7q0 0.2 0 0.3 0.2-2.1-0.1-4.3c-1.4-9.8-9.7-16.6-19.5-15.7q-1.1 0.1-2.3 0.3c-8.4 1.7-14.7 8.7-16.2 16.9-9.7 5.7-15.7 16.8-14.7 28.2 0.5-9.8 6-18.9 14.3-24q0.2-0.1 0.5-0.3c2.6-1.6 5.6-2.7 8.8-3.4q1.6-0.3 3.2-0.5c13.9-1.2 25.8 8.5 27.7 22.5 0.1 0.5 0.1 0.9 0.1 1.4q0.2-2.7-0.2-5.4z"/>
				<path id="&lt;Path&gt;" class="s3" d="m711.4 440.4c-0.6 3.1-2 6.1-4.2 8.6-3 3.5-7.2 5.7-11.7 6.2q-1 0.1-2 0c-13.9 0-13-16-11.8-16.6 3.6-1.6 6.7-4.2 9.1-7.5 1.8-2.6 3.1-5.5 3.7-8.5q-1 2.6-2.6 4.9c-3.3 4.7-8.1 7.9-13.6 9q-1.2 0.3-2.4 0.4c-9.2 0.8-17.2-4.9-19.9-13.5q1.5 0.1 3.1 0c10.6-0.9 19.5-8.6 22.9-18.5-5.3 7.3-13.6 12.4-22.9 13.2-9.7 0.9-18.4-3.1-24-9.9 3 8.2 10.3 14.1 19.1 15.1q0 0.2 0 0.4c1.4 10.4 10.3 17.6 20.7 16.7q1.2-0.1 2.4-0.3 0.3-0.1 0.6-0.2c-0.2 1.3-0.4 2.6-0.3 3.9 0.3 8.8 7 15.6 15.6 15.8q0.9 0.1 1.9 0c4.6-0.4 8.7-2.7 11.8-6.2 3.1-3.6 4.7-8.1 4.5-12.8q0-0.1 0-0.2z"/>
				<path id="&lt;Path&gt;" class="s4" d="m661.4 384c6.5-2.9 13.7-0.3 16.7 5.8q-0.2-1.7-0.8-3.4c-2.5-7-10.2-10.2-17.2-7.1-7 3.1-10.6 11.2-8 18.2q0.2 0.7 0.5 1.3c-0.6-6.1 2.9-12.3 8.8-14.8z"/>
			</g>
			<g id="&lt;Group&gt;">
				<path id="&lt;Path&gt;" class="s2" d="m756.6 476.6c-1.3 13.3-13.2 23.1-26.5 21.7-13.4-1.3-23.1-13.2-21.8-26.5 1.3-13.4 13.2-23.1 26.6-21.8 13.3 1.3 23.1 13.2 21.7 26.6z"/>
				<path id="&lt;Path&gt;" class="s2" d="m778.2 472.2c-1 10.2-10.1 17.6-20.3 16.6-10.2-1-17.6-10.1-16.6-20.3 1-10.2 10.1-17.6 20.3-16.6 10.2 1 17.6 10.1 16.6 20.3z"/>
				<g id="&lt;Group&gt;">
					<path id="&lt;Path&gt;" class="s3" d="m730.8 490.7c-10.8-1-19-10.2-19.1-20.9q-0.2 1.1-0.4 2.3c-1.1 11.6 7.4 22 19.1 23.2 9 0.9 17.3-4.1 21.1-11.8q-0.8-0.6-1.6-1.2c-4.3 5.7-11.4 9.2-19.1 8.4z"/>
					<path id="&lt;Path&gt;" class="s3" d="m774.1 464.6q0.1 1.2 0 2.5c-0.8 8.5-8.4 14.8-16.9 13.9q-2.3-0.2-4.3-1-0.6 1.8-1.4 3.5c2 1.2 4.3 2 6.7 2.3 8.5 0.8 16.1-5.4 17-13.9 0.2-2.6-0.2-5.1-1.1-7.3z"/>
					<path id="&lt;Path&gt;" class="s3" d="m744.3 471.4c0.3 4.3 2.4 8.2 5.6 10.9q1-1.4 1.8-2.9c-3.3-1.7-6-4.5-7.4-8z"/>
					<path id="&lt;Path&gt;" class="s3" d="m751.7 479.4q-0.8 1.5-1.8 2.9 0.8 0.6 1.6 1.2 0.8-1.7 1.4-3.5-0.6-0.3-1.2-0.6z"/>
				</g>
				<path id="&lt;Path&gt;" class="s2" d="m712.4 460.9c2.9-5.5 21.3-28.3 27.4-50.8-1.6 12.2-6.2 33.5 0.9 35.7 7.1 2.2 5.2-10.1 4-23.7 2.6 7.3 5.7 16.9 11.2 15 6-2.1 2.8-10.6 0.4-38.4 4.9 23.9 21.1 65.9 21.1 65.9z"/>
				<path id="&lt;Path&gt;" class="s3" d="m737.4 417.2c-8.3 27.5-4.4 38.6 2.3 39.8 9.5 1.7 9-10.6 7.8-24.2 2.6 7.2 7.4 19 12.9 17 5-1.7 3.4-18.8-1-38.3-1.2-4.6-2.3-8.9-3.1-12.8 2.4 27.8 5.6 36.3-0.4 38.4-5.5 1.9-8.6-7.7-11.2-15 1.2 13.6 3.1 25.9-4 23.7-7.1-2.2-2.5-23.5-0.9-35.7q-1 3.6-2.4 7.1z"/>
			</g>
			<path id="&lt;Path&gt;" class="s1" d="m674.7 339.3c7.1 6.6 16.6 18 16.8 17.8 0.2-0.2-12.1-8.6-19.2-15.2-7.1-6.6-6.9-8.3-6.6-8.6 0.4-0.4 1.8-0.6 9 6z"/>
			<path id="&lt;Path&gt;" class="s1" d="m676.6 324c3.5 5.4 7.3 14.7 7.5 14.6 0.2-0.2-6.9-7.2-10.4-12.7-3.6-5.4-2.7-6.7-2.3-7 0.4-0.2 1.7-0.3 5.2 5.1z"/>
			<path id="&lt;Path&gt;" class="s1" d="m682.7 478.4c4.4-4.7 12.5-10.7 12.3-10.9-0.2-0.1-5.3 8.5-9.7 13.3-4.4 4.8-5.9 4.3-6.2 3.9-0.4-0.3-0.8-1.5 3.6-6.3z"/>
			<path id="&lt;Path&gt;" class="s1" d="m645.9 459.4c10-4.1 26-8.4 25.9-8.7-0.1-0.2-14.6 7.9-24.6 11.9-10.1 4-11.6 3.1-11.8 2.7-0.2-0.5 0.4-1.9 10.5-5.9z"/>
			<path id="&lt;Path&gt;" class="s1" d="m808.3 482.4c-7-8.3-16.2-22-16.4-21.9-0.2 0.2 12.1 11.4 19.1 19.6 7 8.3 6.6 10.1 6.2 10.4-0.4 0.3-1.9 0.2-8.9-8.1z"/>
			<path id="&lt;Path&gt;" class="s1" d="m796.3 352.1c-11.9 9.4-30.8 22.6-30.7 22.8 0.1 0.1 17.2-15.4 29.1-24.8 11.8-9.4 13.7-9.5 13.9-9.3 0.3 0.3-0.4 1.9-12.3 11.3z"/>
			<path id="&lt;Path&gt;" class="s1" d="m820.4 323.4c-6.6 7.2-17.9 16.7-17.7 16.9 0.1 0.1 8.6-12.1 15.1-19.3 6.6-7.1 8.3-6.8 8.7-6.5 0.3 0.3 0.5 1.8-6.1 8.9z"/>
			<path id="&lt;Path&gt;" class="s0" d="m640.8 439.5c5.6-1.2 14.5-1.2 14.5-1.5-0.1-0.2-8.1 3.7-13.7 5-5.6 1.2-6.5 0-6.6-0.5-0.1-0.5 0.2-1.7 5.8-3z"/>
			<path id="&lt;Path&gt;" class="s0" d="m652.1 481.6c10.9-8.3 28.6-19.5 28.5-19.7-0.2-0.2-15.5 14.2-26.4 22.5-10.9 8.4-12.9 8.1-13.2 7.7-0.3-0.4 0.1-2.1 11.1-10.5z"/>
			<path id="&lt;Path&gt;" class="s0" d="m668.6 477.5c5.9-5.4 16.2-12.2 16.1-12.4-0.2-0.2-7.8 9.6-13.8 15-5.9 5.5-7.5 5-7.8 4.6-0.3-0.4-0.5-1.8 5.5-7.2z"/>
			<path id="&lt;Path&gt;" class="s0" d="m818.1 314.1c-4.1 6.4-12 15.1-11.8 15.3 0.2 0.1 4.7-10.8 8.9-17.2 4.2-6.4 5.8-6.2 6.2-6 0.4 0.3 0.9 1.6-3.3 7.9z"/>
			<path id="&lt;Path&gt;" class="s0" d="m836 323.4c-8.6 5.7-22.7 12.8-22.6 13 0.2 0.2 12-10.2 20.6-15.9 8.6-5.7 10.3-5.1 10.5-4.7 0.3 0.4 0.1 1.9-8.5 7.6z"/>
			<path id="&lt;Path&gt;" class="s0" d="m653.5 337.9c9.3 4.4 22.6 12.9 22.7 12.7 0.1-0.2-14.9-5.1-24.2-9.5-9.3-4.5-9.6-6.2-9.4-6.7 0.2-0.4 1.6-1 10.9 3.5z"/>
			<path id="&lt;Path&gt;" class="s0" d="m806 499.4c-3.6-5.7-7.4-15.3-7.6-15.2-0.3 0.2 7 7.7 10.6 13.3 3.6 5.7 2.8 7 2.4 7.3-0.5 0.3-1.8 0.3-5.4-5.4z"/>
			<path id="&lt;Path&gt;" class="s0" d="m820.6 472.8c-4.5-2.7-10.3-8.3-10.4-8.1-0.1 0.2 7.7 2.4 12.2 5.1 4.4 2.6 4.1 4.1 3.9 4.5-0.3 0.5-1.3 1.2-5.7-1.5z"/>
			<path id="&lt;Path&gt;" class="s0" d="m757.2 504.7c-0.9-5.1-0.4-13.2-0.6-13.1-0.3 0 3.2 7.4 4.1 12.5 0.9 5.1-0.4 5.8-0.9 5.9-0.4 0.1-1.7-0.2-2.6-5.3z"/>
			<path id="&lt;Path&gt;" class="s1" d="m836.6 454.3c-4.6-3-10.5-9.1-10.6-8.9-0.1 0.2 8 3 12.5 6 4.6 3 4.3 4.5 4 4.9-0.3 0.4-1.4 1-5.9-2z"/>
			<path id="&lt;Path&gt;" class="s1" d="m627.7 361.8c4.6 1.1 11 5.1 11 4.8 0.1-0.3-7.4 0.7-12-0.4-4.6-1.1-4.6-2.9-4.5-3.5 0.2-0.6 1-1.9 5.5-0.9z"/>
			<path id="&lt;Path&gt;" class="s1" d="m778.3 293.6c-1.8 4.2-6.6 9.6-6.3 9.7 0.3 0.2 0.5-7.2 2.3-11.4 1.7-4.2 3.5-4 4.1-3.7 0.5 0.2 1.6 1.2-0.1 5.4z"/>
		</g>
		<g id="&lt;Group&gt;">
			<g id="&lt;Group&gt;">
				<path id="&lt;Path&gt;" class="s2" d="m242.9 673.9c-14.6 13.8-31.8 19.4-51.6 22.7 11.8 3.9 28.8 0.5 25.3 8.3-1.6 3.7-13.2 3.5-29.2 0.3 15.7 6.4 27.4 13.8 40 42.8 4.7-21.3 15.5-74.1 15.5-74.1z"/>
				<path id="&lt;Path&gt;" class="s3" d="m225.2 703c2.1-7.1-21.4-3.2-33.9-6.4 9.7 6.1 28.8 0.5 25.3 8.3-1.6 3.7-16.7 2.8-29.2 0.3 15.3 5.7 34.3 10.1 37.8-2.2z"/>
				<path id="&lt;Path&gt;" class="s2" d="m75 681.3c6.4 3.9 32.7 13.9 49.4 15-13.8 0.3-29.1 1.4-30.6 6-1.4 4.7 26.7 4.7 45.6 1.4-19.6 5.4-41.7 13.6-42 18.6-0.4 4.9 6 4.6 18.5-2.2-14.2 12.5-18.9 23.1-28.1 34.5-7.5-18.8-28.1-41.6-12.8-73.3z"/>
				<path id="&lt;Path&gt;" class="s2" d="m165.4 625.5c0 11.1-9 20.1-20.1 20.1-11.1 0-20.1-9-20.1-20.1 0-11.1 9-20.1 20.1-20.1 11.1 0 20.1 9 20.1 20.1z"/>
				<path id="&lt;Path&gt;" class="s2" d="m199 621.7c0 13.8-11.2 24.9-24.9 24.9-13.8 0-25-11.1-25-24.9 0-13.8 11.2-25 25-25 13.7 0 24.9 11.2 24.9 25z"/>
				<path id="&lt;Path&gt;" class="s2" d="m208.8 628.6c0 9.3-7.5 16.8-16.8 16.8-9.3 0-16.9-7.5-16.9-16.8 0-9.3 7.6-16.8 16.9-16.8 9.3 0 16.8 7.5 16.8 16.8z"/>
				<path id="&lt;Path&gt;" class="s2" d="m69.2 722c11-1.6 21.2 5.9 22.8 16.9 1.7 11-5.9 21.2-16.9 22.8-10.9 1.6-21.1-6-22.8-16.9-1.6-11 6-21.2 16.9-22.8z"/>
				<path id="&lt;Path&gt;" class="s2" d="m54.7 690.4c13.6-2 26.3 7.4 28.3 21.1 2 13.6-7.4 26.3-21 28.3-13.6 2-26.3-7.4-28.4-21-2-13.7 7.4-26.3 21.1-28.4z"/>
				<path id="&lt;Path&gt;" class="s2" d="m58.6 677c11.7-1.8 22.6 6.3 24.4 18 1.7 11.8-6.4 22.7-18.1 24.4-11.7 1.7-22.6-6.4-24.4-18.1-1.7-11.7 6.4-22.6 18.1-24.3z"/>
				<path id="&lt;Path&gt;" class="s3" d="m89.2 739.3q-0.2-1.8-0.9-3.4c0.2 3.9-1 7.7-3.3 10.9-2.8 3.7-6.8 6.1-11.4 6.7q-1.2 0.2-2.5 0.2c-7.3 0-13.7-4.6-16.1-11.2q0 0.9 0.1 1.9c1.3 8.3 8.6 14.7 17.1 14.7q1.2 0 2.5-0.2c4.6-0.7 8.6-3.1 11.3-6.8 2.8-3.7 3.9-8.2 3.2-12.8z"/>
				<path id="&lt;Path&gt;" class="s4" d="m40.9 707.6c3.6-4.7 8.7-7.8 14.6-8.7q1.6-0.2 3.2-0.2c10.6 0 19.7 7.7 21.7 18q0.2-2.4-0.2-4.8c-1.6-10.8-11-18.9-21.8-18.9q-1.7 0-3.3 0.2c-5.8 0.9-11 4-14.5 8.7-3.5 4.8-5 10.6-4.1 16.5q0 0.4 0.1 0.9c0.3-4.2 1.8-8.2 4.3-11.7z"/>
				<path id="&lt;Path&gt;" class="s4" d="m47.2 692.8c2.9-4 7.3-6.6 12.2-7.3q1.4-0.2 2.7-0.2c8.7 0 16.3 6.2 18.2 14.6q0.2-2.2-0.1-4.4c-1.4-9.1-9.3-15.9-18.4-15.9q-1.4 0-2.8 0.2c-4.9 0.7-9.2 3.3-12.2 7.3-2.9 4-4.2 8.9-3.5 13.8q0.2 0.7 0.3 1.3c0.3-3.4 1.5-6.6 3.6-9.4z"/>
				<path id="&lt;Path&gt;" class="s2" d="m251.6 704.6c-9.7-2.1-15.9-11.8-13.8-21.5 2.1-9.8 11.7-16 21.5-13.9 9.7 2.2 15.9 11.8 13.8 21.5-2.1 9.8-11.7 16-21.5 13.9z"/>
				<path id="&lt;Path&gt;" class="s2" d="m247.8 742c-16-3.5-26.2-19.2-22.7-35.3 3.5-16 19.3-26.1 35.3-22.7 16 3.5 26.1 19.3 22.7 35.3-3.5 16-19.3 26.2-35.3 22.7z"/>
				<path id="&lt;Path&gt;" class="s4" d="m259.8 686.8q-2.9-0.6-5.7-0.6c-4.8 0-9.3 1.3-13.2 3.5 1.8-6.4 7.8-10.9 14.5-10.9q1.7 0 3.3 0.3c5.9 1.3 10.2 5.9 11.5 11.4q0.1-0.2 0.1-0.4c1.8-8.2-3.4-16.3-11.6-18.1q-1.6-0.3-3.3-0.3c-7.1 0-13.3 5-14.8 12-0.5 2.1-0.5 4.2-0.1 6.2-6.2 3.8-11 10-12.6 17.4-0.8 3.4-0.8 6.8-0.3 10q0-2.8 0.6-5.7c2.7-12.2 13.7-21.1 26.2-21.1q2.9 0 5.7 0.6c11.1 2.4 19.1 11.4 20.8 21.9 0-12.3-8.6-23.4-21.1-26.2z"/>
				<path id="&lt;Path&gt;" class="s2" d="m239.5 757.1c-9.7-2.1-15.8-11.6-13.7-21.3 2.1-9.7 11.6-15.8 21.3-13.7 9.7 2.1 15.8 11.6 13.7 21.3-2.1 9.7-11.6 15.8-21.3 13.7z"/>
				<path id="&lt;Path&gt;" class="s3" d="m258.9 735.4q-0.6 0-1.2-0.1 0-0.1-0.1-0.3 0 0.2 0 0.3-1.3-0.1-2.6-0.4c-3.5-0.7-6.7-2.4-9.1-4.9q0.1 0.2 0.2 0.4c2.4 3.7 6 6.3 10.3 7.2q0.5 0.1 1 0.1-0.1 0.3-0.1 0.5c-1.5 6.9-7.7 11.9-14.7 11.9q-1.6-0.1-3.2-0.4c-4-0.8-7.3-3.2-9.5-6.6q-1.1-1.7-1.7-3.6c0 2.9 0.8 5.8 2.4 8.3 2.2 3.3 5.6 5.7 9.5 6.5q1.6 0.4 3.2 0.4c7 0 13.2-5 14.7-11.9 0.4-1.6 0.4-3.3 0.2-4.9q0.9 0.1 1.7 0.1c7.6 0 14.3-5.5 16-12.9 0-0.4 0.1-0.8 0.1-1.1-2.8 6.7-9.6 11.4-17.1 11.4z"/>
				<path id="&lt;Path&gt;" class="s2" d="m96.9 630.8c10.1 5.4 13.9 18.1 8.5 28.2-5.5 10.2-18.1 14-28.3 8.6-10.1-5.5-13.9-18.1-8.5-28.3 5.5-10.2 18.1-14 28.3-8.5z"/>
				<path id="&lt;Path&gt;" class="s2" d="m113.7 623.4c6.9 3.6 9.4 12.2 5.8 19-3.7 6.8-12.2 9.4-19.1 5.7-6.8-3.6-9.4-12.2-5.7-19 3.7-6.8 12.2-9.4 19-5.7z"/>
				<path id="&lt;Path&gt;" class="s2" d="m133.2 777.5c3.1 11.1-3.5 22.5-14.6 25.6-11.2 3-22.6-3.6-25.6-14.7-3.1-11.1 3.5-22.6 14.6-25.6 11.2-3 22.6 3.5 25.6 14.7z"/>
				<path id="&lt;Path&gt;" class="s2" d="m150.2 784.6c2 7.5-2.4 15.2-9.9 17.3-7.5 2-15.2-2.4-17.2-9.9-2.1-7.5 2.4-15.3 9.9-17.3 7.5-2 15.2 2.4 17.2 9.9z"/>
				<path id="&lt;Path&gt;" class="s3" d="m147.4 790.3c-1.4 2.6-3.9 4.5-6.8 5.3q-1.4 0.3-2.9 0.3c-3.5 0-6.7-1.6-8.8-4.3q1.4-2.6 1.9-5.3-0.4 1-1 2-0.7 1.3-1.6 2.3-0.9 1.1-1.9 2.1c-2.1 1.9-4.6 3.3-7.4 4.1q-2.4 0.6-4.7 0.6c-8.2 0-15.3-5.5-17.4-13.3-0.8-2.7-0.8-5.4-0.3-8.1-1.6 3.7-1.9 7.7-0.8 11.6 2.1 7.9 9.3 13.4 17.4 13.4q2.4-0.1 4.7-0.7c3.8-1 7-3.1 9.3-6.1 2 3.2 5.6 5.3 9.5 5.3q1.5 0 3-0.4c2.9-0.8 5.3-2.6 6.8-5.2 0.7-1.4 1.2-2.8 1.4-4.3q-0.2 0.4-0.4 0.7z"/>
				<path id="&lt;Path&gt;" class="s4" d="m117.8 632.5c-0.9-2.9-2.8-5.2-5.4-6.6q-2.5-1.4-5.3-1.4c-4.2 0-8 2.3-9.9 5.9q-0.8 1.6-1.1 3.2c-0.2-0.1-0.4-0.2-0.6-0.3-2.6-1.4-5.5-2.2-8.5-2.2-6.6 0-12.7 3.7-15.9 9.5-2.2 4.2-2.7 8.9-1.5 13.4 0-3 0.7-6 2.2-8.7 3.1-5.9 9.2-9.5 15.9-9.5 2.4 0 4.9 0.6 7.1 1.5q-0.1 0-0.3 0.1c-2.4 0.3-4.5 1.6-6 3.5-1.4 2-2 4.4-1.7 6.8q0.1 0.2 0.1 0.4c0.1-1.7 0.7-3.4 1.8-4.8 1.4-2 3.5-3.2 6-3.6q0.6-0.1 1.3-0.1c4.4 0 8.1 3.2 8.9 7.4q0.1-1 0-2c-0.6-4-3.9-7.1-7.9-7.6 0.2-0.8 0.5-1.6 0.9-2.3q0-0.1 0.1-0.2c2-3.5 5.7-5.7 9.7-5.7q2.9 0 5.3 1.3c2.5 1.3 4.3 3.5 5.3 6.1q0.1-2.1-0.5-4.1z"/>
				<path id="&lt;Path&gt;" class="s4" d="m195.1 615c-2.8-8.9-11.2-15.4-21-15.4-8.4 0-15.7 4.6-19.4 11.5-2.7-1.8-5.9-2.8-9.4-2.8-9.5 0-17.2 7.7-17.2 17.2q0 1.8 0.3 3.5c0.3-9.3 7.9-16.7 17.2-16.7 2.8 0 5.4 0.6 7.7 1.8 0.2 0.1 0.4 0.2 0.6 0.3-2.1 0.7-3.9 2.1-5.2 3.9-1.8 2.4-2.5 5.3-2.1 8.2q0.1 0.3 0.1 0.5c0.1-2.1 0.9-4.1 2.2-5.9 1.7-2.3 4.3-3.9 7.3-4.3q0.8-0.1 1.6-0.1c5.3 0 9.9 3.8 10.9 9q0.1-1.2-0.1-2.4c-0.8-5.4-5.5-9.5-11-9.5q-0.6 0-1.3 0.1 0.4-0.5 0.8-1c4-4.9 10.1-8 17-8 7.6 0 14.3 3.9 18.3 9.8q-0.2-0.1-0.4-0.1c-7.7 0-14 6.3-14 14q0 0.4 0 0.8c1.5-6.1 7-10.8 13.6-10.8q1.6 0 3 0.4 0.7 0.1 1.4 0.4c5.3 1.7 9.2 6.6 9.6 12.4q0.3-1.6 0.3-3.2c0-6.6-4.6-12.1-10.8-13.6z"/>
				<path id="&lt;Path&gt;" class="s2" d="m129.4 637.6c4.6 5.7 14.6 19.9 17.1 32-1.1-11 4.6-15.3 7.5-14.6 2.8 0.7 5.9 17.3 5.7 24.2 2.4-11 4.9-29.2 11.7-29.2 6.8 0 5.3 12.5 3.9 16.4 5.7-10.3 21-21 24.9-23.5-7.1-3.9-70.8-5.3-70.8-5.3z"/>
				<path id="&lt;Path&gt;" class="s3" d="m175.3 666.4c8.2-13.2 5.7-27.8-1.1-27.8-6.7 0-12.8 10.7-15.3 21.7 0.3-6.8-1.4-15.6-4.2-16.3-2.9-0.7-13.2 5.7-8.2 25.6-0.7-10.3 4.6-15.3 7.5-14.6 2.8 0.7 5.9 17.3 5.7 24.2 2.4-11 4.9-29.2 11.7-29.2 6.8 0 5.3 12.5 3.9 16.4z"/>
				<path id="&lt;Path&gt;" class="s2" d="m150.4 785.1c-1.4-10.4 0.8-44.3 2.9-59.3-2.8 13.5-13.4 34.6-15.2 33.2-1.8-1.4-0.6-11.9 1.8-20.2-5.3 12.9-11 24.2-15.8 22.9-4.8-1.2 0.2-16 2.4-20.4-7.3 11.3-18 18.7-25.3 24.5 3.9 6 49.2 19.3 49.2 19.3z"/>
				<path id="&lt;Path&gt;" class="s3" d="m126.5 741.3c-10 14.3-12.8 32.3-8 33.6 4.8 1.3 12.5-10.4 17.8-23.3-2.4 8.3-4 19.2-2.2 20.5 1.8 1.4 16.4-21.4 19.2-46.3-2.8 12.6-13.4 34.6-15.2 33.2-1.8-1.4-0.6-11.9 1.8-20.2-5.3 12.9-11 24.2-15.8 22.9-4.8-1.2 0.2-16 2.4-20.4z"/>
				<path id="&lt;Path&gt;" class="s3" d="m97.4 722.3c0.3-5 22.4-13.2 42-18.6-18.9 3.3-47 3.3-45.6-1.4 1.5-4.6 16.8-5.7 30.6-6-2.5-0.2-5.2-0.6-8.1-1.1-30.2-3.1-33.4 2.7-33.5 7.1-0.1 7.4 25.5 6 36.6 4.7-19.5 5.3-32.7 12-33 17-0.4 4.7 7.8 15 26.3-0.9q1.5-1.5 3.2-3c-12.5 6.8-18.9 7.1-18.5 2.2z"/>
				<g id="&lt;Group&gt;">
					<path id="&lt;Path&gt;" class="s2" d="m170.1 772.3c10-4.7 22-0.3 26.6 9.8 4.7 10 0.3 22-9.8 26.6-10.1 4.7-22 0.3-26.6-9.8-4.7-10-0.3-22 9.8-26.6z"/>
					<path id="&lt;Path&gt;" class="s2" d="m194.3 758.3c13-6 28.4-0.3 34.4 12.6 6 13 0.3 28.4-12.6 34.4-13 6-28.4 0.3-34.4-12.6-6-13-0.3-28.4 12.6-34.4z"/>
					<path id="&lt;Path&gt;" class="s3" d="m226.9 774.1c0.7 4 0.4 8-1.1 11.8-2.1 5.8-6.3 10.4-11.9 13q-2.9 1.3-6 1.8c-4.2 0.7-8.3 0.2-12-1.3 5.9-2.4 9.9-8.1 10.1-14.5-2.1 6-7.4 10.7-14.2 11.8-6.7 1.1-13.2-1.7-17.2-6.7 2.2 5.9 7.7 10 13.9 10.5q-1.5 1.3-3.4 2.1-2.1 1-4.4 1.4c-7.6 1.2-15.2-2.8-18.4-9.8q-0.6-1.3-1-2.8c0.1 2.2 0.6 4.3 1.5 6.3 3.3 7 10.8 11 18.4 9.8q2.4-0.4 4.5-1.4c2.6-1.2 4.9-3 6.6-5.3 4.7 3.3 10.6 4.7 16.6 3.7q3.1-0.5 6-1.8c5.6-2.6 9.8-7.2 11.9-12.9 1.9-5.1 1.9-10.6 0.1-15.7z"/>
					<path id="&lt;Path&gt;" class="s2" d="m159.5 783.9c3.8-6.8 14.5-34.1 16.8-50.9-0.8 13.8-1.2 28.9 2.6 29.9 3.9 0.9 6.2-27.1 5-45.6 2.9 18.9 8.1 40 12.3 39.8 4.2-0.1 4.5-6.5-0.3-18.2 9.5 12.9 18.2 16.3 27.1 24.3-16.7 9.5-37.8 32.5-63.5 20.7z"/>
					<path id="&lt;Path&gt;" class="s3" d="m196.2 757.1c-4.2 0.2-9.4-20.9-12.3-39.8 1.2 18.5-1.1 46.5-5 45.6-3.8-1-3.4-16.1-2.6-29.9-0.3 2.5-0.9 5.3-1.6 8.2-5.1 30.5-0.5 33.1 3.3 32.7 6.3-0.7 7.3-26.1 7-37.1 2.9 18.9 7.6 31.3 11.8 31.1 4-0.1 13.4-9.4 1.4-26.1q-1.1-1.3-2.3-2.9c4.8 11.7 4.5 18.1 0.3 18.2z"/>
				</g>
				<path id="&lt;Path&gt;" class="s2" d="m120.8 632.6c2.5 11 13 34.4 21.8 45.4-10.3-4.8-23.1-20.7-27.7-13.6-2.2 3.5 23.4 20.2 36.1 24.3-13.9-2.2-66.3-17.7-72-20.5 15.3-15.4 41.8-35.6 41.8-35.6z"/>
				<path id="&lt;Path&gt;" class="s3" d="m108.2 661c5.5-14.8 25.6 6 34.4 17-10.3-4.8-23.1-20.7-27.7-13.6-2.2 3.5 23.4 20.2 36.1 24.3-13.9-2.2-47.3-15.7-42.8-27.7z"/>
				<g id="&lt;Group&gt;">
					<path id="&lt;Path&gt;" class="s2" d="m216.2 637.2c-1.7 8.9-26.3 38.8-32.7 44.1 19.9-14.2 29.5-21.7 33.1-20.3 3.5 1.5-2.5 6.8-8.9 12.9 7.8-4.3 21.7-9.3 34.5-13.2-7.5-6.8-26-23.5-26-23.5z"/>
					<path id="&lt;Path&gt;" class="s2" d="m244 645.7c-3.4 7.4-12.2 10.6-19.6 7.1-7.4-3.4-10.6-12.2-7.1-19.6 3.4-7.4 12.2-10.6 19.6-7.1 7.4 3.4 10.6 12.2 7.1 19.6z"/>
					<path id="&lt;Path&gt;" class="s2" d="m248.6 655.3c-2.4 5-8.3 7.1-13.2 4.8-5-2.3-7.2-8.3-4.8-13.2 2.3-5 8.2-7.1 13.2-4.8 4.9 2.3 7.1 8.2 4.8 13.2z"/>
					<path id="&lt;Path&gt;" class="s4" d="m246.2 648.7c-0.6-1.8-1.9-3.2-3.6-4q-0.5-0.3-1.1-0.4c2.6-5.9 0.1-12.9-5.8-15.6q-2.4-1.1-5-1.1c-4.6 0-8.9 2.6-10.8 6.8-0.6 1.3-0.9 2.6-1.1 3.9 2-4.2 6.2-6.8 10.8-6.8q2.6 0 5 1.1c4.6 2.1 7.2 6.9 6.8 11.7q-0.9-0.3-1.8-0.3c-2.2 0-4.2 1-5.6 2.7 1.1-0.6 2.2-0.9 3.4-0.9q1.6 0 3 0.6c1.7 0.8 3 2.3 3.7 4 0.6 1.8 0.6 3.8-0.3 5.5q-0.3 0.7-0.9 1.4c1.3-0.7 2.4-1.8 3.1-3.2 0.8-1.7 0.9-3.7 0.2-5.4z"/>
					<path id="&lt;Path&gt;" class="s3" d="m223.5 655.9c-4.8-4.5-33.6 20.1-40 25.4 19.9-14.2 29.5-21.7 33.1-20.3 3.5 1.5-2.5 6.8-8.9 12.9 7.8-4.3 21-13.2 15.8-18z"/>
				</g>
			</g>
			<path id="&lt;Path&gt;" class="s0" d="m271 656.2c-7.1 2.9-18.8 5.2-18.7 5.5 0.1 0.2 10-6.5 17.1-9.4 7.2-2.9 8.5-1.6 8.7-1.1 0.3 0.6 0 2.1-7.1 5z"/>
			<path id="&lt;Path&gt;" class="s0" d="m54.1 659.7c7.1 2.9 17.1 9.4 17.2 9.1 0.1-0.3-11.7-2.3-18.8-5.2-7.2-2.9-7.2-4.8-7-5.3 0.2-0.6 1.4-1.5 8.6 1.4z"/>
			<path id="&lt;Path&gt;" class="s0" d="m71.3 777c11.1-10 29.6-23.6 29.4-23.8-0.2-0.2-15.4 16.9-26.6 26.9-11.2 10.1-13.5 9.8-13.9 9.4-0.3-0.5-0.1-2.5 11.1-12.5z"/>
			<path id="&lt;Path&gt;" class="s0" d="m240.6 787.8c-4-6.6-8.1-17.8-8.3-17.6-0.3 0.1 8 8.8 11.9 15.4 4 6.6 3 8.2 2.4 8.5-0.5 0.3-2 0.3-6-6.3z"/>
			<path id="&lt;Path&gt;" class="s1" d="m105.8 597.2c5.2 7.7 11.2 20.6 11.5 20.5 0.2-0.2-9.8-10.4-15-18.1-5.2-7.7-4.3-9.4-3.8-9.7 0.5-0.4 2.2-0.3 7.3 7.3z"/>
			<path id="&lt;Path&gt;" class="s1" d="m253.1 780c-8.8-7.2-20.7-20-20.9-19.7-0.2 0.2 14.8 9.2 23.6 16.5 8.9 7.2 8.7 9.3 8.3 9.7-0.4 0.5-2.1 0.8-11-6.5z"/>
			<path id="&lt;Path&gt;" class="s1" d="m276.6 772.1c-6.5-3.2-15.5-10.2-15.6-9.9-0.2 0.3 10.9 2.9 17.5 6.1 6.6 3.3 6.5 5.1 6.2 5.7-0.3 0.5-1.5 1.4-8.1-1.9z"/>
			<path id="&lt;Path&gt;" class="s1" d="m231.9 607.7c-4.2 6-12.3 13.9-12.1 14.1 0.3 0.1 4.4-10.5 8.6-16.5 4.1-6 6-5.7 6.4-5.3 0.5 0.3 1.2 1.7-2.9 7.7z"/>
			<path id="&lt;Path&gt;" class="s0" d="m223.2 598.4c-2.8 10.1-9.2 24.9-8.9 24.9 0.3 0.1 2.1-15.9 4.8-26 2.8-10.1 4.8-10.6 5.3-10.5 0.6 0.2 1.6 1.6-1.2 11.6z"/>
			<path id="&lt;Path&gt;" class="s1" d="m148.9 808.7c0.9-4.2 3.8-10.4 3.6-10.4-0.1-0.1 0 6.6-1 10.8-1 4.2-2.1 4.5-2.5 4.4-0.4 0-1.1-0.6-0.1-4.8z"/>
			<path id="&lt;Path&gt;" class="s0" d="m156.2 811.5c-0.8-6.1-0.6-15.5-0.8-15.4-0.2 0 2.7 8.9 3.5 15 0.8 6-0.2 6.8-0.6 6.8-0.3 0.1-1.3-0.4-2.1-6.4z"/>
			<path id="&lt;Path&gt;" class="s0" d="m153.6 587.7c0.5 4.7-1 12-0.7 12 0.3 0-3-6.9-3.5-11.6-0.5-4.7 1.1-5.3 1.7-5.4 0.6 0 2 0.3 2.5 5z"/>
			<path id="&lt;Path&gt;" class="s1" d="m117.5 598.7c1.8 5.5 2.4 14.5 2.7 14.4 0.3-0.1-4.9-7.6-6.7-13-1.8-5.5-0.4-6.6 0.2-6.8 0.5-0.1 2 0 3.8 5.4z"/>
			<path id="&lt;Path&gt;" class="s1" d="m57.1 772.8c6.6-3.1 17.6-5.9 17.5-6.2-0.2-0.2-9.1 6.9-15.7 10.1-6.6 3.1-8 1.9-8.3 1.4-0.3-0.6-0.2-2.1 6.5-5.3z"/>
			<path id="&lt;Path&gt;" class="s1" d="m38.1 664.3c12 2.4 29.6 8.2 29.7 7.9 0-0.2-18.6-1.4-30.5-3.8-11.9-2.4-12.8-4.3-12.7-4.8 0.1-0.6 1.6-1.7 13.5 0.7z"/>
		</g>
		<g id="&lt;Group&gt;">
			<path id="&lt;Path&gt;" class="s2" d="m507.9 645.9c-3.4 5.4-6.7 10.7-17 16.8 9.9-4.7 13 3.4 13.4 5.7 0.5 2.3-5.5 7.1-12.1 9.4 11.4-2.1 20.5-1.2 23.4 3.7 4.5 7.9-4.1 13.1-8.3 13.5 11.9 0.5 20.4 2.8 24.3 4.8 0.8-6.6-23.7-53.9-23.7-53.9z"/>
			<path id="&lt;Path&gt;" class="s2" d="m558.6 696.8c-13.7 9.1-32.1 5.4-41.1-8.3-9.1-13.6-5.4-32 8.3-41.1 13.6-9.1 32-5.3 41.1 8.3 9 13.7 5.3 32.1-8.3 41.1z"/>
			<path id="&lt;Path&gt;" class="s3" d="m564.8 659.8c-1.5-2.3-3.4-4.3-5.5-5.9 0.3 0.4 0.6 0.7 0.8 1.1 7.7 11.6 4.6 27.3-7.1 35-9.3 6.2-21.1 5.4-29.5-1.2 8 10.8 23 13.5 34.2 6.1 11.7-7.8 14.8-23.4 7.1-35.1z"/>
			<g id="&lt;Group&gt;">
				<g id="&lt;Group&gt;">
					<path id="&lt;Path&gt;" class="s2" d="m351.4 729.4c5.9 1 18.6 2 31.3-2.1-10.2 4.3-11.5 8.2-11.2 12 0.3 3.9 7 2.3 20-5.6-12.9 9.7-12.7 15.5-11.5 19.3 1.2 3.8 2.8 7.9 10-0.7-6.9 13.4-4.1 16.3-7.6 27.4-11.1-11.7-33-22.5-31-50.3z"/>
					<path id="&lt;Path&gt;" class="s2" d="m403.4 625.3c4.4 10.2-0.4 22-10.6 26.4-10.1 4.3-21.9-0.4-26.3-10.6-4.4-10.2 0.3-22 10.5-26.3 10.2-4.4 22 0.3 26.4 10.5z"/>
					<path id="&lt;Path&gt;" class="s2" d="m432.8 608.6c5.4 12.6-0.4 27.3-13.1 32.7-12.7 5.5-27.3-0.4-32.8-13.1-5.4-12.6 0.5-27.3 13.1-32.7 12.7-5.5 27.4 0.4 32.8 13.1z"/>
					<path id="&lt;Path&gt;" class="s2" d="m444.5 611.1c3.7 8.5-0.3 18.4-8.8 22.1-8.6 3.6-18.4-0.3-22.1-8.9-3.7-8.5 0.3-18.4 8.8-22.1 8.6-3.6 18.4 0.3 22.1 8.9z"/>
					<path id="&lt;Path&gt;" class="s2" d="m359.1 761.1c7.6-4.5 17.4-1.9 21.8 5.8 4.4 7.6 1.8 17.3-5.8 21.8-7.6 4.4-17.4 1.8-21.8-5.8-4.4-7.7-1.8-17.4 5.8-21.8z"/>
					<path id="&lt;Path&gt;" class="s2" d="m339.1 742c9.5-5.5 21.6-2.2 27.1 7.3 5.5 9.4 2.3 21.6-7.2 27.1-9.5 5.4-21.6 2.2-27.1-7.3-5.5-9.4-2.3-21.6 7.2-27.1z"/>
					<path id="&lt;Path&gt;" class="s2" d="m338.1 730.9c8.1-4.7 18.5-1.9 23.3 6.2 4.7 8.2 1.9 18.6-6.3 23.3-8.1 4.8-18.5 2-23.2-6.2-4.8-8.1-2-18.6 6.2-23.3z"/>
					<path id="&lt;Path&gt;" class="s3" d="m379 768q-0.8-1.2-1.7-2.3c1.2 2.9 1.5 6 0.7 9.1-1 3.5-3.2 6.4-6.4 8.3q-0.9 0.5-1.8 0.9c-5.4 2.1-11.5 0.5-15.2-3.6q0.3 0.7 0.7 1.3c3.3 5.8 10.6 8.4 16.8 5.9q1-0.4 1.9-0.9c3.1-1.8 5.4-4.8 6.3-8.3 1-3.5 0.5-7.2-1.3-10.4z"/>
					<path id="&lt;Path&gt;" class="s4" d="m334 758.8c1.2-4.6 4.1-8.4 8.2-10.7q1.1-0.7 2.3-1.1c7.8-3.1 16.8-0.2 21.3 6.9q-0.6-1.8-1.6-3.5c-4.3-7.5-13.6-10.7-21.6-7.5q-1.2 0.4-2.4 1.1c-4 2.3-6.9 6.1-8.1 10.7-1.2 4.5-0.6 9.2 1.7 13.3q0.2 0.3 0.4 0.6c-1-3.1-1.1-6.5-0.2-9.8z"/>
					<path id="&lt;Path&gt;" class="s4" d="m334.2 746c1.1-3.8 3.5-7 6.9-9q1-0.6 2-1c6.4-2.5 13.8-0.2 17.7 5.5q-0.5-1.7-1.4-3.2c-3.6-6.3-11.5-9.1-18.2-6.4q-1 0.4-2 1c-3.4 2-5.9 5.2-6.9 9-1 3.8-0.5 7.8 1.5 11.2q0.3 0.4 0.6 0.9c-0.8-2.6-0.9-5.4-0.2-8z"/>
					<path id="&lt;Path&gt;" class="s2" d="m534.4 668c-8.3 5.5-19.6 3.2-25.1-5.1-5.5-8.3-3.2-19.5 5.1-25 8.3-5.6 19.5-3.3 25.1 5 5.5 8.4 3.2 19.6-5.1 25.1z"/>
					<path id="&lt;Path&gt;" class="s4" d="m426.6 604c-6.1-7.1-16.4-9.8-25.5-5.9-7.6 3.3-12.5 10.4-13.2 18.2-3.2-0.6-6.6-0.3-9.8 1.1-8.7 3.7-12.7 13.9-9 22.6q0.7 1.7 1.7 3.1c-3.4-8.6 0.6-18.5 9.2-22.2 2.6-1.1 5.2-1.5 7.8-1.3 0.2 0 0.5 0 0.7 0.1-1.6 1.4-2.8 3.4-3.3 5.6-0.7 2.9-0.2 5.8 1.3 8.4q0.2 0.2 0.3 0.4c-0.7-2-0.8-4.2-0.3-6.3 0.7-2.9 2.4-5.3 5-6.9q0.7-0.4 1.4-0.7c4.9-2.1 10.6-0.4 13.6 4q-0.4-1.1-1-2.2c-2.9-4.6-8.8-6.5-13.9-4.4q-0.6 0.3-1.1 0.6 0.1-0.6 0.3-1.2c1.8-6 6.2-11.3 12.4-14 7-3 14.7-2.1 20.7 1.7q-0.2 0.1-0.4 0.2c-7 3-10.3 11.2-7.3 18.3q0.2 0.4 0.4 0.8c-1.1-6.3 2.1-12.7 8.2-15.3q1.4-0.6 2.9-0.9 0.7-0.2 1.4-0.2c5.6-0.5 11.1 2.5 13.7 7.6q-0.3-1.5-0.9-3c-2.6-6.1-9.1-9.4-15.3-8.2z"/>
					<path id="&lt;Path&gt;" class="s2" d="m375.1 650.6c6.5 3.4 12.9 6.6 19.9 16.7-5.3-9.7 4.7-12.6 7.6-13.1 2.9-0.5 8.5 5.5 10.9 11.9-2.1-11.1-0.6-20.1 5.6-22.9 9.9-4.3 15.9 4.1 16.2 8.3 1.1-11.8 4.3-20.1 7-23.9-8.1-0.8-67.2 23-67.2 23z"/>
					<path id="&lt;Path&gt;" class="s3" d="m435.3 651.5c2.3-15.4-10.5-20.6-16.7-18-6.2 2.7-9.5 15.3-7.5 26.4-2.4-6.4-6.9-10-11.1-10.5-6.2-0.8-10 7.9-5 17.9-2.2-7.1 5.4-12.1 9.9-10.2 2.4 1 6.2 2.6 8.6 9-2.1-11.1 1.5-19.3 7.7-22 6.3-2.6 13.8 3.2 14.1 7.4z"/>
					<path id="&lt;Path&gt;" class="s3" d="m380 753c-1.2-3.8-1.4-9.6 11.5-19.3-13 7.9-19.7 9.5-20 5.6-0.3-3.8 1-7.7 11.2-12-1.9 0.6-4.1 1.2-6.3 1.6-12.8 4.9-14.3 10.4-13 13.7 2 5.4 6.5 3.6 14.3-0.7-5.5 4.8-5.6 9.6-4.5 13.4 1.6 5.6 9.8 7.5 15.3 0.1q0.7-1.5 1.5-3.1c-7.2 8.6-8.8 4.5-10 0.7z"/>
					<g id="&lt;Group&gt;">
						<path id="&lt;Path&gt;" class="s2" d="m476.8 769.9c8.3-7.5 21-6.8 28.4 1.4 7.4 8.3 6.8 20.9-1.5 28.4-8.2 7.4-20.9 6.7-28.3-1.5-7.5-8.2-6.8-20.9 1.4-28.3z"/>
						<path id="&lt;Path&gt;" class="s2" d="m495.9 749.3c10.6-9.6 26.9-8.7 36.5 1.9 9.6 10.6 8.8 27-1.9 36.6-10.6 9.5-26.9 8.7-36.5-1.9-9.6-10.7-8.8-27 1.9-36.6z"/>
						<path id="&lt;Path&gt;" class="s3" d="m531.7 754.8c1.8 3.5 2.7 7.5 2.5 11.6-0.4 6.1-3.1 11.8-7.6 15.9q-2.4 2.1-5.2 3.5c-3.8 1.9-7.9 2.6-11.9 2.3 5-4 7.1-10.7 5.4-16.8-0.3 6.3-3.9 12.4-10 15.4-6.2 3.1-13.2 2.3-18.5-1.3 3.9 5 10.3 7.4 16.4 6q-1.1 1.6-2.6 3-1.7 1.6-3.8 2.6c-6.9 3.4-15.3 1.8-20.5-3.9q-1-1.1-1.8-2.3c0.8 2 1.9 3.9 3.4 5.5 5.1 5.7 13.6 7.3 20.4 3.9q2.1-1.1 3.9-2.6c2.2-2 3.8-4.4 4.7-7.1 5.5 1.7 11.6 1.3 17-1.3q2.8-1.4 5.1-3.6c4.6-4.1 7.3-9.7 7.6-15.9 0.3-5.4-1.3-10.6-4.5-14.9z"/>
						<path id="&lt;Path&gt;" class="s2" d="m470.2 784.1c1.6-7.6 2.5-16.9-0.3-33.6 3.3 13.4 8.7 8 12.6 7.7 3.9-0.2 4.8-8.7-1.8-26 8.4 17.2 12.6 16.9 16.6 15.4 4-1.4 2.3-7.5-5.7-17.3 12.9 9.5 22.2 10.2 33.1 15.2-13.1 14-26.5 42.3-54.5 38.6z"/>
						<path id="&lt;Path&gt;" class="s3" d="m480.7 732.2c6.6 17.3-7.5 31.7-10.8 18.3 0.4 2.5 3.3 16.6 13.4 12.8 5.8-2.2 6.5-7.1 3-17.5 3.9 6.9 8.3 7.6 12.3 6.2 3.8-1.4 12.5-7.2-3.9-19.6q-1.5-0.9-3.1-2.1c8 9.8-2.5 19.1-10.9 1.9z"/>
					</g>
				</g>
				<path id="&lt;Path&gt;" class="s6" d="m548.8 763.8c-5.7-5.2-13-14.6-13.2-14.4-0.2 0.2 10.3 6.1 16 11.2 5.8 5.1 5.2 6.9 4.8 7.3-0.4 0.5-1.9 1-7.6-4.1z"/>
				<path id="&lt;Path&gt;" class="s7" d="m452.9 584.7c1.4 10.4 1.3 26.4 1.6 26.4 0.3 0-4.4-15.4-5.8-25.8-1.4-10.4 0.1-11.7 0.7-11.7 0.6-0.1 2.1 0.7 3.5 11.1z"/>
				<g id="&lt;Group&gt;">
					<path id="&lt;Path&gt;" class="s8" d="m509.8 635.2c-3.9 2.9-11.3 5.5-11.1 5.7 0.2 0.2 4.7-6.2 8.6-9.1 3.9-2.9 5.4-1.8 5.7-1.4 0.3 0.5 0.7 1.9-3.2 4.8z"/>
					<path id="&lt;Path&gt;" class="s8" d="m350.5 630c3.8 4.3 7.8 12.4 8.1 12.2 0.2-0.2-7.5-5.1-11.3-9.4-3.8-4.3-2.9-5.8-2.5-6.2 0.5-0.4 1.9-0.9 5.7 3.4z"/>
				</g>
				<g id="&lt;Group&gt;">
					<path id="&lt;Path&gt;" class="s9" d="m456.7 815.5c-1.6-5.4-0.6-15.1-1.1-14.9-0.4 0.1 6 6.9 7.6 12.3 1.6 5.5-0.9 7.1-1.7 7.4-0.9 0.4-3.2 0.7-4.8-4.8z"/>
				</g>
				<path id="&lt;Path&gt;" class="s8" d="m322.4 719.9c12.7-2.3 32.6-3.5 32.5-3.8-0.1-0.3-19 5.9-31.7 8.2-12.8 2.3-14.4 0.8-14.5 0.2-0.1-0.6 0.9-2.3 13.7-4.6z"/>
				<g id="&lt;Group&gt;">
					<path id="&lt;Path&gt;" class="s2" d="m542.3 707.3c-3.4 1.8-11 4.8-19.5 4.7 7 0.7 8.6 2.8 9.1 5.2 0.5 2.4-3.8 2.7-13.3 0.4 9.7 3.5 10.7 7.1 10.7 9.6 0 2.5-0.2 5.4-6.2 1.5 6.7 6.8 5.6 9.1 9.8 15.3 4.6-9.3 15.9-20 9.4-36.7z"/>
					<path id="&lt;Path&gt;" class="s2" d="m543.6 728.2c-5.5-1.3-11 2.1-12.2 7.6-1.3 5.5 2.2 11 7.7 12.2 5.5 1.3 10.9-2.1 12.2-7.6 1.2-5.5-2.2-11-7.7-12.2z"/>
					<path id="&lt;Path&gt;" class="s2" d="m552.2 712.7c-6.8-1.5-13.6 2.8-15.2 9.6-1.5 6.8 2.8 13.6 9.6 15.2 6.8 1.5 13.6-2.8 15.2-9.6 1.5-6.8-2.8-13.6-9.6-15.2z"/>
					<path id="&lt;Path&gt;" class="s2" d="m550.7 705.8c-5.8-1.4-11.7 2.3-13 8.2-1.3 5.8 2.3 11.7 8.2 13 5.9 1.4 11.7-2.3 13.1-8.2 1.3-5.9-2.4-11.7-8.3-13z"/>
					<path id="&lt;Path&gt;" class="s3" d="m532.8 736.2q0.2-0.9 0.6-1.8c-0.2 2 0.2 4 1.3 5.7 1.2 2 3.2 3.4 5.4 3.9q0.7 0.1 1.3 0.2c3.7 0.3 7.1-1.9 8.6-5.1q0 0.5-0.1 0.9c-1 4.2-4.9 7.2-9.2 6.8q-0.7 0-1.3-0.2c-2.3-0.5-4.2-1.9-5.5-3.8-1.2-2-1.6-4.4-1.1-6.6z"/>
					<path id="&lt;Path&gt;" class="s4" d="m558.5 722c-1.6-2.6-4.1-4.3-7-5q-0.8-0.2-1.7-0.2c-5.3-0.4-10.2 3.1-11.6 8.2q0-1.2 0.2-2.4c1.3-5.4 6.3-9.1 11.8-8.7q0.9 0.1 1.7 0.2c2.9 0.7 5.4 2.5 7 5 1.6 2.6 2.1 5.6 1.5 8.5q-0.1 0.2-0.2 0.5c0-2.2-0.5-4.3-1.7-6.1z"/>
					<path id="&lt;Path&gt;" class="s4" d="m555.9 714.2c-1.3-2.1-3.4-3.6-5.9-4.2q-0.7-0.1-1.4-0.2c-4.4-0.3-8.5 2.5-9.7 6.7q0-1.1 0.2-2.2c1-4.6 5.3-7.7 9.9-7.3q0.7 0 1.4 0.2c2.5 0.5 4.6 2 5.9 4.1 1.4 2.2 1.8 4.7 1.2 7.2q0 0.3-0.1 0.6c-0.1-1.7-0.5-3.4-1.5-4.9z"/>
					<path id="&lt;Path&gt;" class="s3" d="m529.3 727.2c0-2.5-1-6.1-10.7-9.6 9.5 2.3 13.8 2 13.3-0.4-0.5-2.4-2.1-4.5-9.1-5.2q1.9 0 4.2-0.2c8.7 0.5 10.6 3.6 10.5 5.9-0.2 3.7-3.3 3.4-8.9 2.3 4.3 1.9 5.2 4.8 5.3 7.3 0.1 3.7-4.6 6.4-9.3 3q-0.7-0.8-1.5-1.6c6 3.9 6.2 1 6.2-1.5z"/>
				</g>
			</g>
			<path id="&lt;Path&gt;" class="s4" d="m516.2 665.7c-0.6 2.3-0.8 4.6-0.8 6.9 1.9-8.4 7.2-16 15.4-20.5q1.6-0.9 3.2-1.5c7.2-3.4 15.3-3.3 22.3-0.3q1.7 0.7 3.3 1.5c-8.9-7.6-22-8.8-32.3-2q-2.4 1.6-4.4 3.6c-3.3 3.4-5.5 7.6-6.7 12-3.2-5.8-2.3-13.3 2.4-18.1q1.1-1.2 2.5-2.1c5-3.3 11.3-3.3 16.2-0.4q-0.1-0.1-0.2-0.3c-4.7-7-14.1-8.9-21.1-4.3q-1.4 0.9-2.6 2.1c-4.9 5.1-5.6 13.1-1.7 19 1.2 1.8 2.7 3.3 4.5 4.4z"/>
			<path id="&lt;Path&gt;" class="s3" d="m507.3 695c15.6 1.3 17.7-9.2 15-14.2-2.8-4.9-12.4-7.3-23.7-5.2 6.5-2.2 10.1-6 10.6-9.5 0.8-5-8-7.8-18.3-3.4 7.3-2 12.5 3.9 10.5 7.7-1 2-2.6 5.1-9.2 7.4 11.4-2.1 19.7 0.5 22.4 5.5 2.8 4.9-3.1 11.3-7.3 11.7z"/>
			<path id="&lt;Path&gt;" class="s2" d="m354.7 667.5c2.3 2.8 4.4 5.5 10.5 8.2-5.8-1.9-7 2.7-7.1 4-0.1 1.3 3.5 3.6 7.3 4.4-6.4-0.4-11.4 0.6-12.7 3.5-2 4.7 3.1 7 5.5 7-6.6 1-11.1 2.8-13.2 4.2-0.8-3.7 9.7-31.3 9.7-31.3z"/>
			<path id="&lt;Path&gt;" class="s2" d="m329.9 698.8c8.2 4.2 18.1 0.9 22.2-7.2 4.2-8.1 1-18-7.1-22.1-8.1-4.2-18.1-1-22.2 7.1-4.2 8.1-1 18.1 7.1 22.2z"/>
			<path id="&lt;Path&gt;" class="s3" d="m324.2 678.8c0.7-1.4 1.6-2.6 2.6-3.7q-0.2 0.4-0.3 0.7c-3.6 6.9-0.8 15.4 6.1 18.9 5.5 2.8 12 1.6 16.2-2.5-3.7 6.4-11.8 8.9-18.5 5.5-6.9-3.6-9.7-12-6.1-18.9z"/>
			<path id="&lt;Path&gt;" class="s2" d="m341.5 681.4c4.9 2.5 11 0.5 13.5-4.4 2.6-4.9 0.6-11-4.3-13.5-5-2.6-11-0.6-13.6 4.3-2.5 5-0.5 11 4.4 13.6z"/>
			<path id="&lt;Path&gt;" class="s4" d="m351.4 679q0.7 1.8 0.9 3.7c-1.6-4.5-5-8.4-9.8-10.3q-0.9-0.4-1.9-0.7c-4.2-1.4-8.6-0.8-12.3 1.3q-0.9 0.4-1.8 1c4.5-4.8 11.7-6.2 17.7-3.1q1.5 0.7 2.7 1.7c2.1 1.7 3.6 3.8 4.5 6.2 1.4-3.4 0.4-7.5-2.5-9.9q-0.7-0.5-1.5-1c-3-1.5-6.4-1.1-8.9 0.8q0 0 0-0.1c2.2-4.2 7.3-5.8 11.4-3.7q0.9 0.4 1.6 1c3 2.5 3.9 6.9 2.1 10.4-0.5 1-1.3 1.9-2.2 2.7z"/>
			<path id="&lt;Path&gt;" class="s3" d="m358.2 694.6c-8.6 1.7-10.4-4-9.2-6.9 1.2-2.9 6.4-4.8 12.8-4.4-3.8-0.8-6-2.7-6.5-4.6-0.8-2.7 3.9-4.8 9.9-3-4.2-0.6-6.7 3-5.3 4.9 0.7 1.1 1.7 2.7 5.5 3.5-6.4-0.4-10.8 1.5-12 4.5-1.2 2.9 2.4 6 4.8 6z"/>
			<path id="&lt;Path&gt;" class="s2" d="m432.5 806.4c3.2 7 0.2 15.2-6.7 18.4-7 3.3-15.2 0.2-18.4-6.7-3.3-7-0.2-15.2 6.7-18.4 7-3.2 15.2-0.2 18.4 6.7z"/>
			<path id="&lt;Path&gt;" class="s2" d="m444.4 809.2c2.2 4.7 0.2 10.3-4.5 12.4-4.7 2.2-10.3 0.2-12.4-4.5-2.2-4.7-0.1-10.3 4.5-12.4 4.7-2.2 10.3-0.2 12.4 4.5z"/>
			<path id="&lt;Path&gt;" class="s3" d="m443.3 813.3c-0.7 1.8-2.1 3.3-3.9 4.2q-0.9 0.4-1.9 0.5c-2.3 0.4-4.6-0.3-6.3-1.8q0.7-1.8 0.7-3.7-0.2 0.7-0.4 1.4-0.4 0.9-0.8 1.7-0.4 0.8-1 1.6c-1.2 1.4-2.7 2.7-4.4 3.5q-1.5 0.6-3.1 0.9c-5.3 0.9-10.6-1.9-12.8-6.8-0.8-1.6-1.2-3.4-1.1-5.2-0.6 2.6-0.4 5.2 0.8 7.7 2.2 4.9 7.5 7.7 12.8 6.8q1.6-0.3 3.1-1c2.3-1.1 4.2-2.8 5.4-5 1.7 1.9 4.2 2.8 6.8 2.4q1-0.2 1.9-0.6c1.8-0.8 3.2-2.3 3.9-4.2q0.5-1.4 0.4-2.9-0.1 0.2-0.1 0.5z"/>
			<path id="&lt;Path&gt;" class="s2" d="m444.6 809.6c-2.1-6.8-4.8-10.5-5.1-20.6-0.3 9.1-4.5 5.5-5.8 4.8-1.4-0.7-1.8-7.7-1.1-13.4-2 9-4.5 17-7.8 16.7-3.3-0.3-1.7-10.5-0.7-13.6-3.5 8.2-9.7 14.2-13.8 18.8 3.1 3.6 34.3 7.3 34.3 7.3z"/>
			<path id="&lt;Path&gt;" class="s3" d="m424.1 783.5c-5 10.5-3.8 17.5-0.5 17.8 3.3 0.3 6-3.1 8.1-12.1-0.7 5.6 0.2 10.8 1.5 11.5 1.3 0.8 7.3 4.9 6.3-11.7-0.4 8.5-4 5-4.9 3.8-0.5-0.7-2.7-6.7-2-12.4-2 9-3.8 13.2-7 13-3.3-0.3-2.5-6.8-1.5-9.9z"/>
			<g id="&lt;Group&gt;">
				<g id="&lt;Group&gt;">
					<path id="&lt;Path&gt;" class="s2" d="m469 606.7c1.3 13.4 1.9 19.5-0.7 25.4 3.7-6.4 8.5-7.2 8.2 3 5.1-7.9 13.5-12.7 19.2-17.9-7.5-2.1-26.7-10.5-26.7-10.5z"/>
					<path id="&lt;Path&gt;" class="s2" d="m491.8 606.2c0.1 6.3-4.9 11.5-11.2 11.6-6.3 0.2-11.5-4.8-11.6-11.1-0.2-6.3 4.8-11.5 11.1-11.6 6.3-0.2 11.5 4.8 11.7 11.1z"/>
					<path id="&lt;Path&gt;" class="s2" d="m498.2 611.3c0.1 4.2-3.3 7.7-7.5 7.8-4.2 0.1-7.7-3.2-7.8-7.5-0.1-4.2 3.2-7.7 7.4-7.8 4.3-0.1 7.8 3.2 7.9 7.5z"/>
					<path id="&lt;Path&gt;" class="s4" d="m494.3 607.5c-1.1-1-2.4-1.6-3.9-1.5q-0.4 0-0.9 0.1c-0.2-5-4.3-9-9.3-8.8q-2.1 0-3.9 0.9c-3.2 1.6-5.2 4.9-5.1 8.5q0 1.6 0.6 3c-0.1-3.5 1.9-6.8 5.1-8.4q1.8-0.9 3.9-1c3.9-0.1 7.3 2.3 8.7 5.8q-0.7 0.1-1.4 0.4c-1.5 0.8-2.6 2.2-2.9 3.8 0.5-0.8 1.2-1.4 2-1.8q1.1-0.5 2.3-0.6c1.5 0 2.9 0.5 3.9 1.5 1.1 1.1 1.7 2.4 1.7 3.9q0 0.6-0.1 1.3c0.7-1 1-2.1 1-3.3 0-1.5-0.6-2.8-1.7-3.8z"/>
				</g>
				<path id="&lt;Path&gt;" class="s3" d="m468.3 632.1c3.7-6.4 8.5-7.2 8.2 3 9-12.7-2-20-8.2-3z"/>
			</g>
		</g>
		<g id="&lt;Group&gt;">
			<g id="&lt;Group&gt;">
				<path id="&lt;Path&gt;" class="s2" d="m843.9 663.9c-10.5 5.3-23.3 1.2-28.7-9.4-5.4-10.5-1.2-23.3 9.3-28.7 10.5-5.3 23.4-1.2 28.8 9.4 5.3 10.5 1.1 23.3-9.4 28.7z"/>
				<path id="&lt;Path&gt;" class="s3" d="m851.5 637.9c-1-1.8-2.1-3.3-3.5-4.7q0.3 0.4 0.5 0.9c4.5 8.9 1 19.9-8 24.4-7.1 3.7-15.6 2.1-21-3.2 4.8 8.3 15.3 11.5 24 7.1 9-4.6 12.5-15.5 8-24.5z"/>
				<g id="&lt;Group&gt;">
					<g id="&lt;Group&gt;">
						<path id="&lt;Path&gt;" class="s2" d="m651.1 745c5.2-2.3 11.3 0.1 13.6 5.4 2.3 5.2-0.1 11.3-5.3 13.6-5.3 2.3-11.4-0.1-13.7-5.4-2.3-5.2 0.1-11.3 5.4-13.6z"/>
						<path id="&lt;Path&gt;" class="s2" d="m639.6 731.2c6.5-2.8 14.1 0.2 16.9 6.7 2.9 6.5-0.1 14.1-6.6 17-6.6 2.8-14.2-0.2-17-6.7-2.8-6.5 0.2-14.1 6.7-17z"/>
						<path id="&lt;Path&gt;" class="s2" d="m639.7 724c5.6-2.4 12.2 0.1 14.6 5.7 2.4 5.6-0.1 12.2-5.7 14.6-5.6 2.5-12.2-0.1-14.6-5.7-2.4-5.6 0.1-12.2 5.7-14.6z"/>
						<path id="&lt;Path&gt;" class="s2" d="m659.7 754.7c3.8-1.7 8.3 0.1 10 3.9 1.6 3.9-0.1 8.3-4 10-3.8 1.7-8.3-0.1-9.9-3.9-1.7-3.9 0.1-8.3 3.9-10z"/>
						<path id="&lt;Path&gt;" class="s3" d="m668.7 759q-0.3-0.6-0.7-1.1c0.5 1.4 0.4 2.9-0.1 4.3-0.7 1.6-1.9 2.9-3.5 3.6q-0.4 0.2-0.9 0.3c-2.6 0.7-5.4-0.4-7-2.5q0.1 0.3 0.3 0.6c1.2 3 4.5 4.6 7.6 3.7q0.5-0.1 0.9-0.3c1.6-0.7 2.8-2 3.5-3.6 0.6-1.6 0.6-3.4-0.1-5z"/>
						<path id="&lt;Path&gt;" class="s4" d="m636.2 733.4c0.9-2.4 2.7-4.2 5.1-5.3q0.6-0.2 1.3-0.4c4.3-1.2 8.9 0.9 11 4.8q-0.2-1.1-0.6-2.2c-1.9-4.3-6.8-6.7-11.3-5.4q-0.7 0.2-1.4 0.4c-2.3 1.1-4.1 2.9-5.1 5.3-0.9 2.4-0.9 5 0.1 7.4q0.2 0.3 0.3 0.6c-0.3-1.7-0.1-3.5 0.6-5.2z"/>
						<path id="&lt;Path&gt;" class="s2" d="m829 641.3c-6.4 3.2-14.2 0.7-17.5-5.7-3.3-6.4-0.7-14.3 5.7-17.5 6.4-3.3 14.2-0.8 17.5 5.6 3.3 6.5 0.7 14.3-5.7 17.6z"/>
						<g id="&lt;Group&gt;">
							<path id="&lt;Path&gt;" class="s2" d="m769.7 783.9c7.1-5 17-3.4 22.1 3.7 5.1 7.1 3.4 17-3.7 22.1-7.1 5.1-17 3.4-22.1-3.7-5-7.1-3.4-17 3.7-22.1z"/>
							<path id="&lt;Path&gt;" class="s2" d="m786.5 769.5c9.1-6.5 21.9-4.4 28.4 4.8 6.6 9.2 4.4 21.9-4.7 28.5-9.2 6.5-22 4.4-28.5-4.8-6.5-9.2-4.4-21.9 4.8-28.5z"/>
							<path id="&lt;Path&gt;" class="s3" d="m814 777c1.1 3 1.4 6.2 0.9 9.4-0.8 4.7-3.4 8.9-7.4 11.7q-2 1.5-4.3 2.3c-3.1 1.2-6.4 1.4-9.5 0.8 4.2-2.7 6.5-7.8 5.7-12.8-0.8 5-4.2 9.4-9.3 11.3-5 1.8-10.5 0.6-14.2-2.7 2.5 4.2 7.3 6.6 12.2 6.1q-1 1.2-2.3 2.1-1.5 1.1-3.2 1.7c-5.7 2.1-12.2 0.1-15.7-4.9q-0.7-0.9-1.2-2c0.4 1.7 1.1 3.3 2.2 4.7 3.5 4.9 9.9 6.9 15.6 4.9q1.8-0.7 3.3-1.7c1.9-1.4 3.3-3.1 4.3-5.1 4.1 1.8 8.9 2.1 13.4 0.4q2.3-0.8 4.4-2.3c3.9-2.8 6.5-7 7.3-11.7 0.7-4.3-0.1-8.5-2.2-12.2z"/>
						</g>
						<g id="&lt;Group&gt;">
							<path id="&lt;Path&gt;" class="s2" d="m804.4 762.9c3-4.9 9.4-6.5 14.3-3.5 5 3 6.6 9.4 3.6 14.4-3 4.9-9.4 6.5-14.4 3.5-4.9-3-6.5-9.4-3.5-14.4z"/>
							<path id="&lt;Path&gt;" class="s2" d="m810.8 749.9c3.9-6.4 12.1-8.4 18.5-4.6 6.4 3.9 8.4 12.1 4.5 18.5-3.8 6.4-12.1 8.4-18.4 4.5-6.4-3.8-8.4-12.1-4.6-18.4z"/>
						</g>
					</g>
					<g id="&lt;Group&gt;">
						<path id="&lt;Path&gt;" class="s2" d="m840.3 700.4c-5.8-0.4-10.9 3.9-11.4 9.8-0.5 5.8 3.9 10.9 9.7 11.4 5.9 0.5 11-3.9 11.4-9.7 0.5-5.9-3.9-11-9.7-11.5z"/>
						<path id="&lt;Path&gt;" class="s2" d="m846.9 683.3c-7.3-0.6-13.7 4.8-14.2 12.1-0.6 7.2 4.8 13.6 12.1 14.2 7.2 0.6 13.6-4.9 14.2-12.1 0.5-7.3-4.9-13.6-12.1-14.2z"/>
						<path id="&lt;Path&gt;" class="s2" d="m844.3 676.3c-6.2-0.5-11.7 4.2-12.2 10.4-0.5 6.3 4.2 11.7 10.4 12.2 6.3 0.5 11.7-4.1 12.2-10.4 0.5-6.2-4.2-11.7-10.4-12.2z"/>
						<path id="&lt;Path&gt;" class="s3" d="m830.4 710.3q0.1-1 0.3-1.9c0.1 2.1 0.9 4.1 2.2 5.7 1.6 1.8 3.8 2.9 6.2 3.1q0.7 0.1 1.4 0c3.8-0.2 7-2.9 8.1-6.5q0 0.5-0.1 1c-0.3 4.5-3.9 8.1-8.4 8.4q-0.7 0-1.4 0c-2.4-0.2-4.6-1.3-6.2-3.2-1.5-1.8-2.3-4.2-2.1-6.6z"/>
						<path id="&lt;Path&gt;" class="s4" d="m850.9 684.3c-1.7-2-4.1-3.3-6.7-3.5q-0.7 0-1.5 0c-4.5 0.3-8.3 3.9-9 8.4q-0.2-1.2-0.1-2.4c0.4-4.8 4.3-8.7 9.1-9q0.8 0 1.5 0c2.6 0.2 5 1.4 6.7 3.4 1.7 2 2.5 4.6 2.3 7.2q0 0.3-0.1 0.7c-0.3-1.8-1-3.5-2.2-4.8z"/>
					</g>
				</g>
				<path id="&lt;Path&gt;" class="s4" d="m816.2 638.1q-0.9 2.4-1.1 4.9c2-5.9 6.4-10.9 12.6-13.4q1.2-0.5 2.5-0.8c5.4-1.8 11.2-1.1 15.9 1.6q1.2 0.6 2.3 1.3c-5.7-6.1-15.1-8.1-22.9-4.1q-1.9 1-3.5 2.3c-2.6 2.2-4.6 4.9-5.8 8-1.8-4.4-0.6-9.7 3.2-12.8q0.9-0.7 2-1.2c3.8-2 8.3-1.5 11.6 1q-0.1-0.1-0.1-0.2c-2.8-5.4-9.4-7.6-14.8-4.8q-1 0.5-2 1.3c-3.9 3.2-5.1 8.9-2.8 13.4 0.7 1.4 1.7 2.6 2.9 3.5z"/>
				<path id="&lt;Path&gt;" class="s2" d="m653.5 621.5c4.7 8.3 15.1 11.2 23.4 6.5 8.2-4.6 11.1-15.1 6.5-23.3-4.7-8.3-15.1-11.2-23.4-6.5-8.2 4.6-11.1 15.1-6.5 23.3z"/>
				<path id="&lt;Path&gt;" class="s2" d="m646.1 636c3.4 6.1 11.1 8.2 17.2 4.8 6.1-3.4 8.2-11.2 4.8-17.3-3.4-6.1-11.2-8.2-17.2-4.8-6.1 3.5-8.3 11.2-4.8 17.3z"/>
				<path id="&lt;Path&gt;" class="s3" d="m650.8 620.7q1.6-0.9 3.3-1.2-0.3 0.1-0.5 0.3c-5.2 2.9-7 9.5-4.1 14.7 2.3 4.1 7 6.1 11.4 5.2-5.1 2.6-11.3 0.7-14.2-4.3-2.9-5.2-1.1-11.8 4.1-14.7z"/>
				<path id="&lt;Path&gt;" class="s2" d="m673.5 613c2.9 5 9.2 6.8 14.3 4 5-2.9 6.8-9.2 3.9-14.3-2.8-5-9.2-6.8-14.2-3.9-5 2.8-6.8 9.2-4 14.2z"/>
				<path id="&lt;Path&gt;" class="s4" d="m683.5 616.6q-0.5 2-1.4 3.8c1.2-4.9 0.5-10.2-2.5-14.6q-0.6-0.9-1.3-1.7c-2.8-3.6-7-5.7-11.4-5.9q-1.1-0.1-2.1-0.1c6.6-1.6 13.7 1.2 17.1 7.4q0.9 1.4 1.4 3c0.8 2.7 0.8 5.4 0.3 7.9 3.2-2.1 4.7-6.2 3.5-9.9q-0.3-0.9-0.7-1.7c-1.7-3.1-5-4.7-8.3-4.5q0.1 0 0.2-0.1c4.2-2.4 9.6-0.9 12 3.4q0.5 0.8 0.8 1.7c1.2 3.9-0.6 8.2-4.1 10.3-1.1 0.6-2.3 0.9-3.5 1z"/>
				<path id="&lt;Path&gt;" class="s2" d="m719.4 799.7c2.5 7.6-1.6 15.8-9.1 18.3-7.6 2.5-15.7-1.7-18.2-9.2-2.5-7.6 1.6-15.7 9.1-18.2 7.6-2.5 15.7 1.6 18.2 9.1z"/>
				<path id="&lt;Path&gt;" class="s2" d="m731.4 804c1.7 5.1-1.1 10.6-6.2 12.3-5.1 1.7-10.5-1.1-12.2-6.2-1.7-5.1 1.1-10.6 6.2-12.2 5-1.7 10.5 1 12.2 6.1z"/>
				<path id="&lt;Path&gt;" class="s3" d="m729.7 808.1c-0.9 1.8-2.5 3.2-4.5 3.8q-1 0.4-2 0.4c-2.4 0.2-4.7-0.9-6.2-2.6q0.8-1.9 1.1-3.8-0.3 0.8-0.6 1.5-0.5 0.8-1 1.6-0.6 0.8-1.2 1.5c-1.4 1.4-3.1 2.5-5 3.1q-1.6 0.5-3.3 0.6c-5.6 0.3-10.7-3.2-12.5-8.5-0.6-1.8-0.7-3.7-0.5-5.6-0.9 2.6-0.9 5.4-0.1 8.1 1.8 5.3 6.9 8.8 12.5 8.5q1.7-0.1 3.3-0.6c2.5-0.9 4.6-2.5 6.2-4.6 1.5 2.2 4 3.5 6.7 3.3q1 0 2-0.4c2-0.6 3.6-2 4.5-3.8q0.7-1.5 0.8-3-0.1 0.2-0.2 0.5z"/>
				<g id="&lt;Group&gt;">
					<g id="&lt;Group&gt;">
						<path id="&lt;Path&gt;" class="s2" d="m779 593.2c-0.6 6.5-6.3 11.3-12.9 10.7-6.5-0.6-11.3-6.4-10.7-12.9 0.6-6.5 6.4-11.3 12.9-10.7 6.5 0.6 11.3 6.3 10.7 12.9z"/>
						<path id="&lt;Path&gt;" class="s2" d="m785.1 599.2c-0.4 4.4-4.3 7.6-8.7 7.2-4.4-0.4-7.6-4.3-7.2-8.7 0.4-4.4 4.3-7.6 8.6-7.2 4.4 0.4 7.7 4.3 7.3 8.7z"/>
						<path id="&lt;Path&gt;" class="s4" d="m781.5 594.8c-1-1.2-2.3-1.9-3.9-2q-0.4-0.1-0.9 0c0.4-5.2-3.4-9.8-8.6-10.2q-2.1-0.2-4.1 0.5c-3.5 1.2-6 4.4-6.3 8.1q-0.1 1.7 0.3 3.2c0.3-3.6 2.8-6.8 6.2-8.1q2-0.7 4.2-0.5c4 0.4 7.2 3.3 8.3 7q-0.8 0-1.5 0.3c-1.6 0.6-2.9 1.9-3.5 3.5 0.7-0.7 1.5-1.3 2.4-1.6q1.1-0.4 2.4-0.3c1.5 0.1 2.9 0.9 3.9 2 0.9 1.2 1.4 2.7 1.3 4.2q-0.1 0.7-0.3 1.3c0.8-0.9 1.3-2 1.4-3.2 0.1-1.6-0.3-3-1.3-4.2z"/>
					</g>
				</g>
			</g>
			<path id="&lt;Path&gt;" class="s4" d="m632.7 663.4c-1.8 5.2-0.5 8.9-2.4 8.3-1.9-0.6-2-5.4-0.3-10.6 1.8-5.2 4.7-8.9 6.6-8.2 1.9 0.6-2.2 5.3-3.9 10.5z"/>
			<path id="&lt;Path&gt;" class="s2" d="m625.3 698.3c0.7 7.2 4.2 10.9 1.6 11.2-2.6 0.2-7.9-4.4-8.6-11.6-0.7-7.1 3.5-14.1 6.1-14.4 2.6-0.2 0.2 7.6 0.9 14.8z"/>
			<path id="&lt;Path&gt;" class="s2" d="m717.3 590.4c-2.9 0.6-4.4 2.2-4.6 1.1-0.2-1.1 1.5-3.4 4.5-4 3-0.6 6.1 0.9 6.3 2 0.2 1-3.2 0.4-6.2 0.9z"/>
			<path id="&lt;Path&gt;" class="s4" d="m813.5 598.9c-3.6-3.6-7.1-4.2-5.8-5.5 1.3-1.3 6.3-1.1 9.8 2.6 3.6 3.6 4.5 9.3 3.1 10.6-1.3 1.3-3.5-4-7.1-7.7z"/>
			<path id="&lt;Path&gt;" class="s2" d="m866.2 660.4c0-3.3-2.2-5.2-0.3-5.2 1.8 0.1 5.2 2.4 5.2 5.7 0 3.3-3.4 6.4-5.3 6.3-1.8 0 0.4-3.4 0.4-6.8z"/>
			<path id="&lt;Path&gt;" class="s2" d="m840.1 774c1.8-2.8 1.1-5.5 2.6-4.5 1.6 1 3.1 4.9 1.2 7.6-1.8 2.8-6.3 3.4-7.9 2.3-1.5-1 2.2-2.7 4.1-5.4z"/>
			<path id="&lt;Path&gt;" class="s4" d="m683.8 812.1c3.4 3.3 6.1 4.2 5.5 5-0.6 0.8-4.3-0.1-7.7-3.4-3.5-3.3-5.5-7.8-4.8-8.6 0.6-0.8 3.5 3.7 7 7z"/>
			<path id="&lt;Path&gt;" class="s2" d="m675.6 791c2.3 1.3 4 0.9 3.7 1.9-0.4 1-2.7 1.8-5 0.5-2.2-1.3-3.7-4.3-3.3-5.2 0.3-1 2.3 1.5 4.6 2.8z"/>
			<path id="&lt;Path&gt;" class="s4" d="m751.7 819.3c2.5-0.9 3.3-2.5 3.8-1.6 0.5 0.9-0.4 3.2-2.9 4.1-2.4 0.9-5.6 0-6.1-0.9-0.5-0.9 2.7-0.7 5.2-1.6z"/>
			<path id="&lt;Path&gt;" class="s4" d="m855.5 745.9c0.9-2.5 0.2-4.1 1.2-3.9 1 0.2 2.2 2.3 1.3 4.8-0.9 2.4-3.6 4.3-4.6 4.1-1-0.2 1.1-2.6 2.1-5z"/>
			<path id="&lt;Path&gt;" class="s4" d="m741.7 574.4c-2.7 0.1-4 1.3-4.1 0.3-0.2-1 1.3-2.9 4-2.9 2.6-0.1 5.3 1.7 5.5 2.7 0.2 1.1-2.8-0.1-5.4-0.1z"/>
		</g>
	</g>
</svg>