<svg version="1.2" xmlns="http://www.w3.org/2000/svg" viewBox="0 0 900 900" width="900" height="900">
	<title>1532-ai</title>
	<defs>
		<radialGradient id="g1" cx="719.1" cy="569" r="9.4" gradientUnits="userSpaceOnUse">
			<stop offset="0" stop-color="#fafafa"/>
			<stop offset="1" stop-color="#d6d6d6"/>
		</radialGradient>
		<radialGradient id="g2" cx="756.3" cy="573.5" r="10.4" gradientUnits="userSpaceOnUse">
			<stop offset="0" stop-color="#fafafa"/>
			<stop offset="1" stop-color="#d6d6d6"/>
		</radialGradient>
		<radialGradient id="g3" cx="736.9" cy="572.8" r="8.9" gradientUnits="userSpaceOnUse">
			<stop offset="0" stop-color="#fafafa"/>
			<stop offset="1" stop-color="#d6d6d6"/>
		</radialGradient>
	</defs>
	<style>
		tspan { white-space:pre } 
		.s0 { fill: #0a8da3 } 
		.s1 { fill: #19abba } 
		.t2 { font-size: 71px;fill: #ffffff;font-weight: 400;font-family: "DelaGothicOne-Regular", "Dela Gothic One" } 
		.s3 { fill: #045a5e } 
		.s4 { fill: #033f39 } 
		.s5 { fill: #d1e5e4 } 
		.s6 { fill: #bdd6d4 } 
		.s7 { fill: #97adab } 
		.s8 { mix-blend-mode: multiply;fill: #bdd6d4 } 
		.s9 { fill: #022123 } 
		.s10 { fill: #e8c1a0 } 
		.s11 { fill: #d8a47d } 
		.s12 { fill: #efd0b4 } 
		.s13 { fill: #ffffff } 
		.s14 { fill: #aaa3a5 } 
		.s15 { fill: #5b5055 } 
		.s16 { fill: #702f04 } 
		.s17 { fill: #9b7007 } 
		.s18 { fill: #f9e9bd } 
		.s19 { opacity: .6;fill: #edd69d } 
		.s20 { fill: #fff4d9 } 
		.s21 { fill: #ad1717 } 
		.s22 { fill: #e54e4e } 
		.s23 { fill: #7f0808 } 
		.s24 { opacity: .5;mix-blend-mode: multiply;fill: #7f0808 } 
		.s25 { opacity: .3;mix-blend-mode: multiply;fill: #7f0808 } 
		.s26 { fill: #c67c06 } 
		.s27 { fill: #065e8e } 
		.s28 { fill: #034968 } 
		.s29 { fill: #043f54 } 
		.s30 { opacity: .3;mix-blend-mode: multiply;fill: #065d84 } 
		.s31 { opacity: .1;mix-blend-mode: multiply;fill: #065d84 } 
		.s32 { fill: #03513e } 
		.s33 { fill: #05634a } 
		.s34 { fill: #137c5e } 
		.s35 { fill: #dd9412 } 
		.s36 { fill: #8e3c04 } 
		.s37 { fill: #f29e19 } 
		.s38 { opacity: .3;mix-blend-mode: multiply;fill: #03513e } 
		.s39 { fill: url(#g1) } 
		.s40 { fill: url(#g2) } 
		.s41 { fill: url(#g3) } 
	</style>
	<g id="_Artboards_">
	</g>
	<g id="321353356351 1">
		<g id="&lt;Group&gt;">
			<path id="&lt;Path&gt;" class="s0" d="m0 0h900v900h-900z"/>
			<g id="&lt;Group&gt;">
			</g>
			<path id="&lt;Path&gt;" class="s1" d="m469.4 688c-144.6 0-261.4-126.7-261.4-283.5 0-156.8 116.8-283.5 261.4-283.5 144.5 0 261.3 126.7 261.3 283.5 0 156.8-116.8 283.5-261.3 283.5z"/>
			<text id="Credits" style="transform: matrix(1,0,0,1,322,832)" >
				<tspan x="0" y="0" class="t2">C</tspan><tspan  y="0" class="t2">r</tspan><tspan  y="0" class="t2">e</tspan><tspan  y="0" class="t2">d</tspan><tspan  y="0" class="t2">i</tspan><tspan  y="0" class="t2">t</tspan><tspan  y="0" class="t2">s
</tspan>
			</text>
			<g id="&lt;Group&gt;">
				<g id="&lt;Group&gt;">
					<path id="&lt;Compound Path&gt;" fill-rule="evenodd" class="s3" d="m397.9 370.4h-0.3v19h-254.1v-23.1h29.1v-12c0-1.3 1-2.4 2.3-2.4h6v-119.3c0-0.1 0.1-0.2 0.1-0.3h-4.1c-1.1 0-2-1-2-2.3v-13.3c0-0.7 0.3-1.3 0.7-1.7h-30.9v-6.9h8.6l119.9-116 108.9 116h12.4v1.6h-0.6v5.3h-26.3c0.4 0.4 0.7 1 0.7 1.7v13.3c0 1.3-0.9 2.3-2.1 2.3h-5.6c0 0.1 0.1 0.2 0.1 0.3v119.3h7.2c1.2 0 2.2 1.1 2.2 2.4v12h27.5v0.6h0.3zm-72.7-140.5v-13.2c0-0.7 0.2-1.3 0.6-1.7h-29.9c0.4 0.4 0.6 1 0.6 1.7v13.2c0 1.3-0.9 2.4-2 2.4h-5.6c0 0.1 0 0.2 0 0.3v119.3h7.3c1.2 0 2.2 1 2.2 2.3v12.1h24.5v-12.1c0-1.3 1-2.3 2.2-2.3h6.1v-119.3c0-0.1 0-0.2 0-0.3h-4c-1.1 0-2-1.1-2-2.4zm-105.3 124.3v12.1h31.3v-12.1c0-1.3 1-2.3 2.2-2.3h6.1v-119.3c0-0.1 0-0.2 0-0.3h-4c-1.2 0-2.1-1.1-2.1-2.4v-13.2c0-0.7 0.3-1.3 0.7-1.7h-36.7c0.3 0.4 0.6 1 0.6 1.7v13.2c0 1.3-0.9 2.4-2 2.4h-5.6c0 0.1 0 0.2 0 0.3v119.3h7.3c1.2 0 2.2 1 2.2 2.3z"/>
					<path id="&lt;Compound Path&gt;" fill-rule="evenodd" class="s4" d="m400.7 392.6h-260.3v-29.5h29.1v-8.8c0-3.1 2.4-5.6 5.4-5.6h2.9v-113.2h-0.9c-2.8 0-5.1-2.5-5.1-5.5v-11.8h-30.2v-13.3h10.5l121.2-117.4 110.2 117.4h14.2v8h-0.6v5.3h-25.7v11.8c0 3-2.3 5.5-5.2 5.5h-2.4v113.2h4.1c3 0 5.4 2.5 5.4 5.6v8.8h27.4v0.6h0.4v9.9h-0.4zm-254-6.4h247.7v-16.6h-27.4v-14.4h-9.5v-122.5l-0.4-3.5h8v-12.2l-4.8-5.2h30.5v-0.5h-10l-107.7-114.7-118.5 114.7h-6.7v0.5h35l-4.8 5.2v12.2h6.4l-0.4 3.8v122.2h-8.3v14.4h-29.1zm179.3-16.7h-30.7v-14.4h-9.5v-122.4l-0.5-3.6h8.1v-12.1l-4.8-5.2h44.5l-4.8 5.2v12.1h6.5l-0.5 3.9v122.1h-8.3zm-24.4-6.4h18.1v-8.8c0-3.1 2.4-5.6 5.4-5.6h2.9v-113.2h-0.8c-2.9 0-5.2-2.5-5.2-5.5v-11.8h-22.3v11.8c0 3-2.3 5.5-5.2 5.5h-2.4v113.2h4.1c3 0 5.4 2.5 5.4 5.6zm-47.3 6.4h-37.6v-14.5h-9.4l-0.1-122.4-0.4-3.6h8.1v-12.1l-4.8-5.2h51.3l-4.8 5.2v12.1h6.5l-0.5 3.9v122.1h-8.3zm-31.3-6.4h25v-8.8c0-3.1 2.4-5.6 5.4-5.6h2.9v-113.2h-0.8c-2.9 0-5.2-2.5-5.2-5.5v-11.8h-29.1v11.8c0 3-2.4 5.5-5.2 5.5h-2.4v113.2h4.1c2.9 0 5.3 2.5 5.3 5.6z"/>
				</g>
				<g id="&lt;Group&gt;">
					<g id="&lt;Group&gt;">
						<path id="&lt;Path&gt;" class="s5" d="m383.5 211l-111.4-118.7-121.9 118 0.6 0.7z"/>
						<path id="&lt;Path&gt;" class="s6" d="m356.6 200.9l-85.4-89.3-93.5 88.8 0.5 0.5z"/>
						<path id="&lt;Path&gt;" class="s6" d="m143.7 208.4h249.1v6.9h-249.1z"/>
					</g>
					<g id="&lt;Group&gt;">
						<path id="&lt;Path&gt;" class="s5" d="m179.9 231.5c0-0.8 0.6-1.4 1.4-1.4h26.7c0.7 0 1.3 0.6 1.3 1.4v127.4c0 0.7-0.6 1.4-1.3 1.4h-26.7c-0.8 0-1.4-0.7-1.4-1.4z"/>
						<path id="&lt;Path&gt;" class="s7" d="m184.9 230.1h3.8v129.5h-3.8z"/>
						<path id="&lt;Path&gt;" class="s7" d="m193.4 230.1h3.9v129.5h-3.9z"/>
						<path id="&lt;Path&gt;" class="s7" d="m202.4 230.4h3.9v129.5h-3.9z"/>
						<path id="&lt;Path&gt;" class="s6" d="m173.8 215.8c0-0.6 0.6-1.2 1.2-1.2h40.8c0.6 0 1.1 0.6 1.1 1.2v15.6c0 0.7-0.5 1.2-1.1 1.2h-40.8c-0.6 0-1.2-0.5-1.2-1.2z"/>
						<path id="&lt;Path&gt;" class="s6" d="m171.6 353.4c0-0.7 0.5-1.2 1.1-1.2h45c0.6 0 1.1 0.5 1.1 1.2v15.6c0 0.6-0.5 1.2-1.1 1.2h-45c-0.6 0-1.1-0.6-1.1-1.2z"/>
					</g>
					<g id="&lt;Group&gt;">
						<path id="&lt;Path&gt;" class="s5" d="m258.4 231.5c0-0.8 0.6-1.4 1.4-1.4h26.7c0.8 0 1.4 0.6 1.4 1.4v127.4c0 0.7-0.6 1.4-1.4 1.4h-26.7c-0.8 0-1.4-0.7-1.4-1.4z"/>
						<path id="&lt;Path&gt;" class="s7" d="m263.4 230.1h3.8v129.5h-3.8z"/>
						<path id="&lt;Path&gt;" class="s7" d="m271.9 230.1h3.9v129.5h-3.9z"/>
						<path id="&lt;Path&gt;" class="s7" d="m280.9 230.4h3.9v129.5h-3.9z"/>
						<path id="&lt;Path&gt;" class="s6" d="m252.4 215.8c0-0.6 0.5-1.2 1.1-1.2h40.8c0.6 0 1.2 0.6 1.2 1.2v15.6c0 0.7-0.6 1.2-1.2 1.2h-40.8c-0.6 0-1.1-0.5-1.1-1.2z"/>
						<path id="&lt;Path&gt;" class="s6" d="m250.1 353.4c0-0.7 0.5-1.2 1.2-1.2h44.9c0.6 0 1.2 0.5 1.2 1.2v15.6c0 0.6-0.6 1.2-1.2 1.2h-44.9c-0.7 0-1.2-0.6-1.2-1.2z"/>
					</g>
					<g id="&lt;Group&gt;">
						<path id="&lt;Path&gt;" class="s5" d="m330.1 231.5c0-0.8 0.6-1.4 1.4-1.4h26.7c0.8 0 1.4 0.6 1.4 1.4v127.4c0 0.7-0.6 1.4-1.4 1.4h-26.7c-0.8 0-1.4-0.7-1.4-1.4z"/>
						<path id="&lt;Path&gt;" class="s7" d="m335.1 230.1h3.9v129.5h-3.9z"/>
						<path id="&lt;Path&gt;" class="s7" d="m343.7 230.1h3.8v129.5h-3.8z"/>
						<path id="&lt;Path&gt;" class="s7" d="m352.7 230.4h3.8v129.5h-3.8z"/>
						<path id="&lt;Path&gt;" class="s6" d="m324.1 215.8c0-0.6 0.5-1.2 1.2-1.2h40.7c0.7 0 1.2 0.6 1.2 1.2v15.6c0 0.7-0.5 1.2-1.2 1.2h-40.7c-0.7 0-1.2-0.5-1.2-1.2z"/>
						<path id="&lt;Path&gt;" class="s6" d="m321.8 353.4c0-0.7 0.5-1.2 1.2-1.2h44.9c0.6 0 1.2 0.5 1.2 1.2v15.6c0 0.6-0.6 1.2-1.2 1.2h-44.9c-0.7 0-1.2-0.6-1.2-1.2z"/>
					</g>
					<path id="&lt;Path&gt;" class="s8" d="m272.1 92.3l-3 115.8h110.4z"/>
					<path id="&lt;Path&gt;" class="s6" d="m142.5 366.6h254v23h-254z"/>
					<path id="&lt;Path&gt;" class="s7" d="m143.2 367.2h253.7v3.5h-253.7z"/>
					<path id="&lt;Path&gt;" class="s7" d="m143.7 208.4h249.8v1.6h-249.8z"/>
				</g>
			</g>
			<g id="&lt;Group&gt;">
				<path id="&lt;Path&gt;" class="s9" d="m643.1 441.5q0-0.3 0-0.6c0-0.6 0-1.2 0-1.8 4.7-48.9-80.9-35-140.5-59-6.8-2.7-37.5 6.9-41.9 8-86.6 23-129.3 8.4-126.4 50.3-0.9 0.9 2.6 12.3 2.9 12.9l53.6 119.9 198-0.5 47.7-113.5c1.3-5.2 6.6-15.7 6.6-15.7z"/>
				<g id="&lt;Group&gt;">
					<path id="&lt;Path&gt;" class="s10" d="m574.6 408.9c0 24.2-37.9 43.8-84.8 43.8-46.8 0-91.7-20.5-84.8-43.8 6.6-22.1 38-43.9 84.8-43.9 46.9 0 84.8 19.7 84.8 43.9z"/>
					<path id="&lt;Path&gt;" class="s11" d="m435.2 314.2h105.3v109.6h-105.3z"/>
					<path id="&lt;Compound Path&gt;" class="s12" d="m570.8 251.9c-3.5-1.6-0.5-3-4.9 1.9 0-54.5-20.3-96.4-79.3-95-54.4 1.4-78.3 40.2-78.6 94.4-3.8-4.6-0.9-3.2-4.4-2-6.2 2.3-7.5 15.1-3 28.7 4.6 13.6 13.3 22.7 19.5 20.5q0.6-0.2 1.1-0.6c11.7 41.8 38.7 79.1 68.3 79.1 29.6 0 53.3-37.1 63.4-78.8 6 0.6 14.1-7.4 19-19.4 5.5-13.2 5-26.1-1.1-28.8z"/>
				</g>
				<path id="&lt;Path&gt;" class="s13" d="m396.8 396.7l37.1-21.1 54.7 40.6 53-42.2 38.5 16.7-69.2 179h-39.8z"/>
				<path id="&lt;Path&gt;" class="s14" d="m406.6 390.3l56.8 85.6 25.2-59.7-23.9 47.6z"/>
				<path id="&lt;Path&gt;" class="s14" d="m486.5 421.1l-12.8 31.7 10.2 17h16.7l9-19.4-16.7-36.6-4.3 2.4 34.2 52 42.8-82.8-44.5 74.7-31.6-51.2z"/>
				<path id="&lt;Path&gt;" class="s14" d="m483.9 474.7l-12.8 95h39.8l-10.3-99.9h-16.7z"/>
				<path id="&lt;Path&gt;" class="s15" d="m410.9 384.6c-1.3 3.6 60.2 185.1 60.2 185.1l-78.2-74.3 11.6-37.7-55.2-50z"/>
				<path id="&lt;Path&gt;" class="s15" d="m571.1 385.8c1.3 3.6-60.2 185.2-60.2 185.2l78.2-74.3-11.6-37.8 55.2-50z"/>
				<path id="&lt;Path&gt;" class="s16" d="m408.3 250.6c-3.8-8.6-9.3-38.6-7.7-53.6 2-18.7 14.5-40.3 30.8-51.2 34.3-23 88.4-14.7 121.8 8.5 16.7 11.6 17.4 35.8 19.2 54.8 1.2 12.8-3.6 51.7-17.6 27.8-7.4-12.7-10.6-38.1-28.5-42.7-20.2-5.1-21.4 25.8-38.8 31.7-26.3 8.8-30.6-30.1-51.1-25.4-15.3 3.6-21.4 38.4-24.2 50.1z"/>
				<g id="&lt;Group&gt;">
					<path id="&lt;Path&gt;" class="s9" d="m403.1 105.1h166.8v91.2h-166.8z"/>
					<path id="&lt;Path&gt;" class="s9" d="m363.9 102.3h231.2v12.5h-231.2z"/>
					<path id="&lt;Path&gt;" class="s9" d="m591.4 109.2h1.7v84.3h-1.7z"/>
					<path id="&lt;Path&gt;" class="s9" d="m604.8 277.8c-0.3-49.3-5.5-88.4-11.8-88.4-6.4 0-11.6 39.1-11.9 88.4z"/>
				</g>
			</g>
			<g id="&lt;Group&gt;">
				<path id="&lt;Path&gt;" class="s17" d="m414 672.5c0 0-47.5 38-91.9 56.5-35.7 14.9-98.4 19.9-98.4 19.9l-105.5-262.7c0 0 64.2-15.9 95.3-29.1 50.9-21.6 95-47.3 95-47.3z"/>
				<path id="&lt;Path&gt;" class="s18" d="m414.8 670.8c0 0-47.3 37.9-91.3 56.2-35.5 14.8-97.8 19.8-97.8 19.8l-105-261.6c0 0 63.7-15.7 94.7-28.9 50.5-21.4 94.4-47 94.4-47z"/>
				<path id="&lt;Path&gt;" class="s19" d="m302.3 418.9c6 60.6 15.9 121.9 5.2 182.9-6.3 35.5-21.1 68.5-41.2 98.1-5.3 7.8-10.8 15.8-18 22-3.8 3.3-13 12.9-17.5 13.6 15.6 1.9 70.3-7.1 82.4-11.9 22.2-8.9 67.2-29 83-48.2 19.8-24.1-91.1-239.2-91.1-254.8 0.1-3.3-2.1-2-2.1-1.9z"/>
				<path id="&lt;Path&gt;" class="s20" d="m127.3 490.7c1.2 11.3 67.9 177 73.5 181.4-7.5-15.4-21.3-70.7-25.1-87.5-4.5-20.2-8.8-44-5.4-64.5 1.8-10.6 5.8-20.8 11.1-30 4.5-7.9 35.6-24.8 40.5-32.5-5.2 4.1-91.8 31.2-96.7 29.7z"/>
				<g id="&lt;Group&gt;">
					<path id="&lt;Path&gt;" class="s21" d="m378 654.9c5.9 14.5-1.2 31.1-15.8 37-14.6 5.8-31.2-1.2-37-15.8-5.9-14.6 1.2-31.2 15.8-37.1 14.6-5.8 31.2 1.3 37 15.9z"/>
					<path id="&lt;Path&gt;" class="s22" d="m371.7 656.7c4.3 10.5-1.1 22.7-12 27-10.9 4.4-23.2-0.6-27.5-11.2-4.2-10.5 1.2-22.6 12.1-27 10.9-4.4 23.2 0.6 27.4 11.2z"/>
					<path id="&lt;Path&gt;" class="s23" d="m367.3 658.1c3.5 8.7-0.7 18.6-9.4 22.1-8.7 3.5-18.6-0.7-22.1-9.4-3.5-8.7 0.7-18.7 9.4-22.2 8.7-3.5 18.6 0.8 22.1 9.5z"/>
					<path id="&lt;Path&gt;" class="s24" d="m336.4 657.5c4.4-7.4 16.1-8.5 21.2-1.3 4.8 6.7 5.1 17.8-3 22.1q-2.1 1.1-4.2 2c2.5 2.2 8.4-0.4 10.8-2 2.8-2 4.9-4.8 6-8.2 2.3-7.2-0.4-17-6.7-21.2-3.8-2.6-9.6-3.4-13.5-1.4-3.2 1.7-9.6 6.4-10.4 9.7z"/>
					<path id="&lt;Path&gt;" class="s25" d="m341.6 652.6c-2.5 1-2.6 7.8-2.1 10.3 0.7 3.7 2 7.9 4.9 10.5 5.3 4.7 13.6 4.5 19.2 0.7-3.3 5-14.4 7.9-19.7 5.4-7-3.3-10.3-11.8-8.4-19.1 0.6-2.3 3.6-8.6 6-8.1z"/>
					<path id="&lt;Path&gt;" class="s25" d="m332.3 656.5c-2.5 1.9-2.1 8.4-1.6 11.1 0.7 3.8 1.9 7.8 4.3 10.9 2.4 2.9 5.8 4.5 9.2 6 1.2 0.6 4.3 1.1 4.5 2.8 0.1 2-3.5 2-5 1.8-17.6-3.3-22.6-32.5-7.7-41.9 1.9-1.2 4.2-2.6 6.5-3.1-0.1 0-0.2 0.5-0.2 0.5 0.2 0 1.1 0.1 1.2 0.2-4.4 2-10.3 7.9-11.5 12.9z"/>
					<path id="&lt;Path&gt;" class="s25" d="m344.5 651.4c-2.2 2.5-5.6 4.4-6.7 8.4-1 3.4-0.2 9.6 3.3 11.5 2.8 1.5 4.1-1.2 5.4-3.3 2.2-3.4 4.7-4.2 8.3-5.4 4.6-1.6 7.4-4.8 4.2-9.1-1.8-2.2-4.6-4.2-7.6-4.3-2.3 0-7.1 1.4-8.2 3.5z"/>
					<path id="&lt;Path&gt;" class="s26" d="m350.6 638.2l-2.6-2.9c-0.2 0.1-0.2 0.3-0.2 0.3 0.2-0.6 0.4-2.5-0.8-9.5l-0.5-3c-0.9-5.7-1.8-11.7-4.2-16.8-3.1-7-7.7-15.1-15-15.9-2.2-0.3-4.2 0.3-5.9 1.7-2.7 2.2-4.6 6.3-5 10.4-0.7 8 3.2 15.7 7.6 23.5 1.3 2.3 2.9 4.7 4.4 7.1 2.1 3.4 4.4 6.9 6.1 10.5l-3.5 1.7c-1.6-3.4-3.8-6.8-5.9-10.1-1.6-2.4-3.1-4.8-4.5-7.3-4.7-8.4-8.9-16.6-8.1-25.7 0.4-4.1 2.2-9.7 6.4-13.1 2.6-2.1 5.6-3 8.9-2.6 9.2 1 14.5 10.3 18.1 18.2 2.6 5.6 3.5 11.8 4.5 17.8l0.5 3c1.4 8.1 1.3 11.3-0.3 12.7z"/>
				</g>
				<path id="&lt;Path&gt;" class="s26" d="m359.7 771.7l-3.9 0.6c-0.4-2.7-1.2-5.4-2.1-8.2-0.8-2.2-1.5-4.6-2-6.9-2.3-10.7-3.3-20.7-2.9-29.9 0.4-10.9 2.3-23.4 5.2-34.2l3.8 1c-2.8 10.5-4.7 22.7-5.1 33.4-0.4 8.8 0.6 18.5 2.8 28.8 0.5 2.2 1.2 4.4 1.9 6.6 0.9 2.9 1.9 5.8 2.3 8.8z"/>
				<path id="&lt;Path&gt;" class="s26" d="m394.6 717.4c-0.6-1-1.7-1.9-2.8-2.9q-0.9-0.7-1.7-1.4c-2.6-2.6-5-5.2-7.3-7.8l-1.6-1.7c-2.6-2.9-5.2-6.3-7.6-9.5-1.6-2-3.1-3.9-4.5-5.6l3-2.5c1.4 1.7 3 3.7 4.6 5.7 2.4 3.2 4.9 6.4 7.4 9.2l1.6 1.7c2.4 2.7 4.6 5.2 7.1 7.6q0.8 0.7 1.5 1.3c1.3 1.1 2.6 2.3 3.6 3.7z"/>
				<path id="&lt;Path&gt;" class="s26" d="m295.9 448.7l-145.7 58.5-0.4-0.9 145.8-58.5z"/>
				<path id="&lt;Path&gt;" class="s26" d="m303.6 467.8l-145.8 58.6-0.3-1 145.8-58.5z"/>
				<path id="&lt;Path&gt;" class="s26" d="m311.3 487l-145.8 58.5-0.3-0.9 145.7-58.6z"/>
				<path id="&lt;Path&gt;" class="s26" d="m319 506.1l-145.8 58.5-0.4-0.9 145.8-58.5z"/>
				<path id="&lt;Path&gt;" class="s26" d="m329.1 528.5l-145.8 58.5-0.4-0.9 145.8-58.5z"/>
				<path id="&lt;Path&gt;" class="s26" d="m336.7 547.6l-145.8 58.6-0.3-0.9 145.8-58.6z"/>
				<path id="&lt;Path&gt;" class="s26" d="m343.9 565.4l-145.8 58.5-0.4-0.9 145.8-58.5z"/>
				<path id="&lt;Path&gt;" class="s26" d="m299.6 605.4l-93.8 37.7-0.4-0.9 93.9-37.7z"/>
				<path id="&lt;Path&gt;" class="s26" d="m306.6 625.4l-93.9 37.6-0.3-0.9 93.8-37.7z"/>
				<path id="&lt;Path&gt;" class="s26" d="m317.4 647.1l-93.8 37.7-0.4-0.9 93.9-37.7z"/>
			</g>
			<g id="&lt;Group&gt;">
				<g id="&lt;Group&gt;">
					<g id="&lt;Group&gt;">
						<path id="&lt;Path&gt;" class="s27" d="m799.2 699.7c-0.1 4.4-3.4 7.9-7.3 7.7l-122.2-4.1c-3.9-0.1-6.9-3.8-6.8-8.2l5.8-170.2c0.1-4.4 3.4-7.9 7.3-7.8l122.2 4.2c3.9 0.1 6.9 3.8 6.8 8.2z"/>
						<path id="&lt;Path&gt;" class="s28" d="m682.6 703.7l-19.9-0.6 6.2-186.2 20 0.7z"/>
						<path id="&lt;Path&gt;" class="s29" d="m682.3 702.5l-6.7-0.3 6.2-184 6.7 0.2z"/>
						<path id="&lt;Path&gt;" class="s30" d="m786.7 526.3c-3.7 31-17 61.8-30.1 90-9 19.4-22.4 38.9-37 52.3-2.3 2.1-4.9 4.9-7.3 5.8-0.7 2.1-3 3.4-4.7 4.3-0.4 0.6-0.1 0.4-0.8 0.5-2.9 3.6-9.8 8.9-14.1 10.5-0.6 1.1 0 0.6-1.2 0.8-0.8 1-1.2 1.1-2 1.5-0.8 0.7-1.4 1.2-2.4 1.6-0.7 0.6-1.3 1-2 1.3-0.2 0.2-0.1 0.6-0.3 0.9 0.2-0.1-0.8-0.1-0.5-0.2-0.7 0.7-1.1 1.1-2.1 1.6q0.2 0.2 0.2 0.5c-0.1 0-0.5-0.1-0.5-0.1 1.7 0.7 3.7 0.6 5.4 0.6 10.6 1.4 94.2 4.3 98.3 4.2 0.8 0.2 3.1 0.1 3.5-0.3 0.6-0.1 1.1 0 1.8-0.2 0.2-0.4 0.2-1 0.3-1.4 1.2-0.8 2.1-2.7 2.1-4.6 3.2-2.8 5.7-93.8 6-102.5 0.4-11.7 2.5-44.6 2.8-49.8 0.2-3 2-7.5 0.6-10.2 1.3-3.6-3.6-8.9-5.9-10.4-1.2 0.2-2.6 0.1-4-0.1-0.6 0.4-0.4 0.4-1.1 0.4-0.5 0.5-0.8 0.6-1.3 0.8-0.3 0.3-0.3 0.3-0.8 0.5-0.5 0.9-0.5 0.7-1.2 1.2-0.3 1.1-0.1 0.5-0.8 0.7-0.4 1-1.3 1.3-1.8 1.5z"/>
						<path id="&lt;Path&gt;" class="s31" d="m720.1 523.2c3.7 2.1 7.9 7.8 10.6 12.1 6.2 10.1 11.5 20.7 17 31.3 8.9 17.5 16.6 35.1 22.1 54.2 3.6 12.5 6.7 25.4 8.5 38.2 1.1 8.3 1.4 19.5 5 27.5 2.2 5 9.2 8.8 10 3.4 1-7.5 9.3-158.8 1.2-163.7 0-0.1-68-3.7-71.5-3.8-1 0.6-3.6 0.5-3.3 0z"/>
					</g>
					<g id="&lt;Group&gt;">
						<path id="&lt;Path&gt;" class="s32" d="m658.6 703.9c0.9-1.3 1.5-2.9 1.5-4.6l6.7-198.7c0.1-1.9-0.5-3.7-1.5-5.2l-36.9-1.2c-1.1 1.4-1.8 3.1-1.8 5l-6.7 198.7c-0.1 1.7 0.3 3.3 1.1 4.7z"/>
						<path id="&lt;Path&gt;" class="s33" d="m649.4 700.8l-26.1-0.9 6.9-203.8 26.1 0.9z"/>
						<path id="&lt;Path&gt;" class="s34" d="m628.6 700.5l-5.3-0.2 6.9-204.2 5.3 0.2z"/>
						<g id="&lt;Group&gt;">
							<path id="&lt;Path&gt;" class="s35" d="m666.2 538.4c0 1-0.8 1.8-1.8 1.8l-38.6-1.3c-1 0-1.7-0.9-1.7-1.9 0-1 0.8-1.8 1.8-1.8l38.6 1.3c1 0 1.8 0.9 1.7 1.9z"/>
							<path id="&lt;Path&gt;" class="s36" d="m665.3 540.7l-40.1-1.4 0.1-0.8 40 1.4z"/>
							<path id="&lt;Path&gt;" class="s37" d="m665.8 537.1c0 0.3-0.2 0.5-0.5 0.4l-39.6-1.3c-0.3 0-0.4-0.2-0.4-0.4 0-0.3 0.2-0.5 0.4-0.5l39.7 1.4c0.2 0 0.4 0.2 0.4 0.4z"/>
						</g>
						<g id="&lt;Group&gt;">
							<path id="&lt;Path&gt;" class="s35" d="m662 668.5c0 1-0.9 1.8-1.8 1.8l-38.6-1.3c-1 0-1.8-0.9-1.7-1.9 0-1 0.8-1.8 1.8-1.8l38.6 1.3c1 0 1.7 0.9 1.7 1.9z"/>
							<path id="&lt;Path&gt;" class="s36" d="m661.1 670.8l-40.1-1.4v-0.8l40.1 1.4z"/>
							<path id="&lt;Path&gt;" class="s37" d="m661.5 667.2c0 0.3-0.2 0.4-0.4 0.4l-39.6-1.3c-0.3 0-0.5-0.2-0.5-0.5 0.1-0.2 0.2-0.4 0.5-0.4l39.6 1.4c0.3 0 0.5 0.2 0.4 0.4z"/>
						</g>
						<path id="&lt;Path&gt;" class="s38" d="m662.7 604.1c-1.6 6.4-2.3 13-4 19.5-2.4 9.6-5.4 18.7-8.9 27.8-4.4 11.3-10.4 21.9-18.5 30.4-2.1 2.2-6.9 6.1-9.9 6.1-0.2 0.2-0.6 0.9-0.7 1.2 0.4 2.5 0.1 5.9-0.2 8.5 0.1 0.6 0.3 1.8 0.3 2.3 0.7 1.2 34.1 2.7 35.8 2.4 0.8 0.1 1 0 1.3-0.9q0.2 0.1 0.3 0.1c2.8-8.1 1.9-16.7 2.6-25.2 0.7-7.4 2.8-59.3 2.8-66.6 0-2 0.2-5.2-1.1-6.3z"/>
						<path id="&lt;Path&gt;" class="s38" d="m661.6 628.1c0.2 0-0.7 5.3-0.9 6.5-0.7 3.7-1.8 7.8-2.6 11.6-1.3 7.4-3 14.3-5.5 21.2-3.2 9-6.6 17.2-12.3 24.5-0.6 0.7-1.2 1.6-1.8 1.9-0.8 2.1-4.4 4.3-6.4 4.7-0.2 0.3 0 0.2-0.5 0.4-0.3 0.3-0.3 0.3-0.6 0.5-0.3 0.3-0.2 0.2-0.7 0.4-0.2 0.2-0.1 0.2-0.5 0.4-0.1 0.1-0.5 0.4-0.6 0.4-0.1 0.2-0.3 0.4-0.3 0.3 0.8 0.1 2.2 0.2 2.9 0.1 5 1 10.5 1.5 15.5 0.5 1.5 0 3.4-0.2 5-0.2 1.4 0.1 3.6 1 4.9-0.1 1.8-1.5 2.3-8.5 2-10.7 0.9-1.4 0.7-5 0.8-6.8 0.2-2.6 0.3-5 0.2-7.6 0-2.2 0-4.3 0-6.5 0.1-1.9 0.5-5-0.3-6.6 1-1.3 0.2-5.4 0.3-7.1 0.1-2 0.3-4.3 0.2-6.4 0.6-2.8 0.3-6.4 0.6-9.3 0.2-2.6 1.6-6.9 0.4-9.4 0.2-0.8 0.3-2.2 0-3.1z"/>
					</g>
					<g id="&lt;Group&gt;">
						<path id="&lt;Compound Path&gt;" class="s39" d="m712.6 556.9l4.3 0.2-0.6 17.8c-0.1 1.7 0.9 1.7 1.8 1.7l7.7 0.3-0.2 4.2-9.1-0.3c-2.4-0.1-4.6-1.2-4.5-4.8z"/>
						<path id="&lt;Compound Path&gt;" class="s40" d="m749 564.7l2.8 11.9 3.3-11.7 4.3 0.1-1.3 4.6 2.4 7.3 3.6-11.7 4.6 0.1-5.8 17-4.8-0.1-2.2-6.3-2 6.1-4.9-0.1-4.5-17.4z"/>
					</g>
				</g>
				<g id="&lt;Group&gt;">
					<path id="&lt;Compound Path&gt;" fill-rule="evenodd" class="s41" d="m733.1 575.8l-2.3 5.3-2.7-0.1 7.5-16.8 3.2 0.1 6.4 17.2-2.8-0.1-2-5.4zm6.8-1.5l-1.9-4.9c-0.4-1.1-0.7-2.2-1-3.2-0.3 1-0.7 2.1-1.1 3.1l-2.2 4.8z"/>
				</g>
			</g>
		</g>
	</g>
</svg>