<svg version="1.2" xmlns="http://www.w3.org/2000/svg" viewBox="0 0 800 2000" width="800" height="2000">
	<title>Mafia male and female cartoon characters set-ai</title>
	<style>
		.s0 { fill: #e88b62 } 
		.s1 { fill: #ffa679 } 
		.s2 { fill: #201600 } 
		.s3 { fill: #ffffff } 
		.s4 { fill: #e26c40 } 
		.s5 { fill: #d24a43 } 
		.s6 { fill: #cc9900 } 
		.s7 { fill: #ffcc33 } 
		.s8 { fill: #af7d00 } 
		.s9 { fill: #312a20 } 
		.s10 { fill: #48443e } 
		.s11 { fill: #afafaf } 
		.s12 { fill: #cc7c5c } 
		.s13 { fill: #595651 } 
		.s14 { fill: #dda519 } 
		.s15 { fill: #dba51d } 
	</style>
	<g id="_Artboards_">
	</g>
	<g id="321353356351 2">
		<g id="&lt;Group&gt;">
			<g id="&lt;Group&gt;">
				<path id="&lt;Path&gt;" class="s0" d="m140.1 412.6c-9.6 24.3-13 50.7-21.3 75.5-6.9 20.7-17 40.1-26.6 59.7-6.2 12.5-12.3 26.9-7.3 40 1.6 4.4 4.4 8.3 7.9 11.4 4.5 4.2 10.3 7.2 16.4 7.5 12.6 0.8 23.3-9.1 30.8-19.3 17.5-23.7 27.3-52.4 45-76.1 8.4-11.2 18.5-21.3 25.1-33.7 13.1-24.4 10.7-54.3 3.4-81-2.8-10.4-6.4-20.8-12.7-29.6-7.5-10.7-13-9-23.5-2.6-17.7 10.8-29.8 29.2-37.2 48.2z"/>
				<path id="&lt;Path&gt;" class="s1" d="m583.3 1204.3c0 0-111.7 10.8-206.5 33.6-94.9 22.8-153.7 21.6-169.3 16.8 0 0 54-399.8 61.2-453.8 7.2-54-36.2-151.3-51.7-159.7-15.5-8.4-39.5-30.4-37.2-63.6 2.2-30.3 18.2-83.7 24.3-123.4q0.9-6 1.5-11.6c4.3-40.3-15.3-84.4-15.3-84.4l3.7-1.4 14.3-5.4 22.3-8.4c0 0 3.3-4.4 6.9-12.1 4.6-9.9 9.8-25.1 8.9-43.2l55.6-9.1c-0.2 0.5-1.2 13.3-3.1 26.5-1.4 9-3.1 18.2-5.3 23.8 0 0 13.8 5.1 28.7 10.5 6.3 2.3 12.8 4.6 18.5 6.5 7.8 2.7 14.1 4.7 16.7 5.2 0 0 0.9 46.3 7.7 85.9 3 17.7 7.2 34 13.1 44.4 18.9 33.5 72 54.2 22.5 117.2l-9.9 7.2c0 0 226 340.4 192.4 598.5z"/>
				<path id="&lt;Path&gt;" class="s2" d="m60 1932.8c0 0.9-0.1 1.8 0.3 2.5 0.9 1.7 3.2 1.7 5 1.4 11.5-1.4 24-3.2 32.2-11.4 3.5-3.4 5.9-7.8 8.2-12.2 6.8-13 9.3-17.3 14-31.2 0 12.9-0.4 21-0.4 21 0 0 1.8 1.8 4.5 0.1 1.1-20.6 1.3-40.4 0.5-61 0-0.5-21.3-0.7-24.2 1-7.3 4.1-13.2 19.1-17.3 26.2-11.4 19.6-20.9 40.8-22.8 63.6z"/>
				<path id="&lt;Path&gt;" class="s1" d="m397.5 1149.2c0 0-22.8 72.3-43.3 135.1-10.1 30.9-19.5 59.5-25.5 76.1-18 50.4-140.5 315.2-163.6 365.6-23.1 50.4-47.1 136.8-50.7 151.3-3.6 14.4-21.6 36-32.4 30.6-10.8-5.4 0-28.9 0-28.9 0 0 25.2-41.4 32.4-91.8 7.2-50.4 75.7-313.3 102.7-362 11.9-21.6 20.4-69.1 26.1-115.2 7.1-57.8 9.9-113.5 9.9-113.5z"/>
				<path id="&lt;Path&gt;" class="s2" d="m343 1909.1c1.5 17.1 4.8 34.3 12.4 49.8 1.1 2.1 2.5 4.4 4.9 4.7 2.2 0.3 4.2-1.4 5.6-3.2 6.6-7.6 10.1-17.4 12.6-27.1 4.9-19.7 5.6-40.5 2.3-60.5-1.1-6.2-2.7-12.7-6.9-17.3-11.4-12.7-22.1-0.8-26.5 10.3-5.3 13.6-5.6 28.9-4.4 43.3z"/>
				<path id="&lt;Path&gt;" class="s1" d="m618.1 483.1l-11.4 34.4c0 0-27.6 6.6-31.9 18.7-2.4 7-40.9 49.5-76 83.8-25 24.5-48.4 44.7-55.4 44.6-16.9-0.2-60.2-49.2-60.2-49.2 0 0-6.3-16.6-13.3-35.2-8.5-22.3-18-47.4-19-50-1.8-4.9 6.6-179.1 6.6-179.1 0 0 36.1 11.1 50.5 33.2 7.5 11.6 9.1 66.9 9.5 118.1 0.3 46.7-0.5 90.1 1.3 94.4 3.4 8.7 32.4-7.1 88.1-47.9q3.3-2.4 6.7-4.9c60-44.5 74.5-65.4 104.5-60.9z"/>
				<path id="&lt;Path&gt;" class="s0" d="m302 278.6c-0.2 0.5-1.2 13.3-3.1 26.5-4 4.2-8.6 7.9-13.3 11.1-10.1 6.9-21.4 12.3-33.5 14-4.1 0.6-9.7 1.3-14.6 0.7 4.6-9.9 9.8-25.1 8.9-43.2z"/>
				<path id="&lt;Path&gt;" class="s1" d="m532.8 1188.7c0 0-12.9 28.1-25.4 61.4-9.5 25.1-18.9 53.1-22.3 74.3-8.2 49.2-6.3 104.4-0.3 151.2 6 46.9-100.8 356.6-105.2 381.8-4.4 25.3-0.5 58.9-17 62.5-16.4 3.6-12.1-30-12.1-30 0 0 41.9-331.4 40.7-381.8-0.9-35.7 8.5-171.5 14-248.1 2.3-31.7 4-53.3 4-53.3z"/>
				<path id="&lt;Path&gt;" class="s0" d="m469.5 627c9.9-1.8 19.7-4.1 29.3-7-25 24.5-48.4 44.7-55.4 44.6-16.9-0.2-60.2-49.2-60.2-49.2 0 0-6.3-16.6-13.3-35.2 2.4-19.3 10.8-38.4 10-58-0.7-15-6.6-29.1-10.6-43.6-7.6-28.2-5.4-54.6-0.7-82.9-0.4 39.5 20 80.2 48.9 106.7 0.3 46.7-0.5 90.1 1.3 94.4 3.4 8.7 32.4-7.1 88.1-47.9-3.5 3.9-8.1 7-12.3 10-16.7 11.7-31.2 26.5-42.5 43.5-3.9 5.8-7.5 13.4-4 19.4 4 6.8 13.7 6.6 21.4 5.2z"/>
				<path id="&lt;Path&gt;" class="s0" d="m253.1 1196.5l144.4-47.3c0 0-22.8 72.3-43.3 135.1-31.4 17.5-67.5 26.4-103.4 25.9-2.4 0-5-0.1-7.6-0.2 7.1-57.8 9.9-113.5 9.9-113.5z"/>
				<path id="&lt;Path&gt;" class="s0" d="m532.8 1188.7c0 0-12.9 28.1-25.4 61.4-23.3 4.1-46.9 6.7-70.6 7.6-10.5 0.4-21.2 0.4-31.6 2.3 2.3-31.7 4-53.3 4-53.3z"/>
				<path id="&lt;Path&gt;" class="s1" d="m332.6 213.4c-1.3 6.9-2.9 13.8-4.6 20.7q-0.4 1.5-0.7 3c-2.4 9.6-5.2 19.1-9.7 27.8-4.9 9.7-12.3 18.4-21.9 23.3-7.3 3.7-15.5 5.1-23.6 5.7-7.7 0.6-15.6 0.5-22.9-1.8-11.3-3.6-20.2-12.2-27.5-21.6-3-3.9-5.8-8.1-8.3-12.4q-4-6.7-7.1-13.9-0.8-1.8-1.6-3.6c-8.1-20.2-8.8-39.6-8.8-60.9 0-8.2-2-13.8 2.1-21.5 4.8-9.1 12.7-16.4 21.3-22 20.3-13.3 45.5-19.8 69.6-16 14.1 2.1 28.2 8.1 36.6 19.5 5.4 7.4 8.1 16.5 9.4 25.6 2.3 16 0.8 32.1-2.3 48.1z"/>
				<g id="&lt;Group&gt;">
					<path id="&lt;Path&gt;" class="s2" d="m228.7 200.7c-3.4 0-6.1-7.1-6.1-15.8 0-8.7 2.7-15.7 6.1-15.7 3.4 0 6.1 7 6.1 15.7 0 8.7-2.7 15.8-6.1 15.8z"/>
					<path id="&lt;Path&gt;" class="s3" d="m230.7 180.5c-1 0-1.8-1.5-1.8-3.4 0-1.8 0.8-3.3 1.8-3.3 1 0 1.7 1.5 1.7 3.3 0 1.9-0.7 3.4-1.7 3.4z"/>
				</g>
				<path id="&lt;Path&gt;" class="s0" d="m230.1 247c-1.8 2.5-4.3 4.5-6.9 6.3-2.7 1.7-6.2 3.7-9.8 4.8q-4-6.7-7.1-13.9c7.9-0.7 15.5-4.1 21.2-9.6 3.4-3.2 6.1-7.4 5.9-12 0.9 8.4 1.6 17.6-3.3 24.4z"/>
				<path id="&lt;Path&gt;" class="s0" d="m332.6 213.4c-1.3 6.9-2.9 13.8-4.6 20.7q-0.4 1.5-0.7 3-0.3 0-0.4-0.1c-8.5-2.1-16.1-7.5-21.1-14.7-1.2-1.7-6.6-9.6-5.4-11.8 0.9-1.6 8.4 3.8 10.7 4.1 4.4 0.8 9-0.1 13.4-0.6 2.7-0.4 5.4-0.6 8.1-0.6z"/>
				<g id="&lt;Group&gt;">
					<path id="&lt;Path&gt;" class="s2" d="m294.7 197.9c-3.4 0-6.1-7.1-6.1-15.8 0-8.7 2.7-15.7 6.1-15.7 3.4 0 6.1 7 6.1 15.7 0 8.7-2.7 15.8-6.1 15.8z"/>
					<path id="&lt;Path&gt;" class="s3" d="m296.7 177.6c-1 0-1.8-1.5-1.8-3.3 0-1.9 0.8-3.4 1.8-3.4 1 0 1.8 1.5 1.8 3.4 0 1.8-0.8 3.3-1.8 3.3z"/>
				</g>
				<path id="&lt;Path&gt;" class="s4" d="m259.5 202c-0.3 2.5-0.3 5.1 0.8 7.2 1.1 2.2 3.7 3.8 6 2.9 2.7-1 3.4-4.4 3.5-7.3 0.1-7.5-1.4-17.5-6.1-23.6-2.7 2.2-3.7 16.8-4.2 20.8z"/>
				<path id="&lt;Path&gt;" class="s5" d="m256.6 241.5c1.4-2.2 3-5.1 5.6-5.1 2.1 0.1 4 2.1 6.1 1.6 1.2-0.3 2.1-1.4 3.3-1.9 2.8-1.2 5.4 1.7 7.7 3.7 3.3 2.8 7.6 4.2 11.8 3.8-0.4 2.7-1.4 5.2-3.1 7.3-1.2 1.5-2.7 2.8-4.4 3.9-5.9 4.1-13.2 5.9-20.3 5.2-4.6-0.5-16.3-7.3-18.3-12.2 0 0 9.3-2.8 11.6-6.3z"/>
				<path id="&lt;Path&gt;" class="s0" d="m204.3 173.5c3.5-2.7 7.1-5.2 10.9-7.3 5.8-3.2 12-5.5 18.2-7.5 21.7-7 44.3-11.1 67-12.1 12.3-0.5 25.1 0.1 35.8 6-4-8.5-8.8-17.7-17.5-21-3.7-1.3-7.7-1.5-11.6-1.4-22.4 0.3-44.1 6.8-65.2 14.1-16.5 5.7-33.1 12.1-47.2 22.4-2.7 2-5.4 4.2-6.5 7.4-1.2 3.3 0.3 8.4 4.5 7.8 3.9-0.6 8.5-6.1 11.6-8.4z"/>
				<path id="&lt;Path&gt;" class="s2" d="m197.9 198.6c0 7 1.2 14.2 5 20 3.8 5.8 10.5 10 17.4 9.6 2.9-0.2 5.9-1.2 7.8-3.4 3.8-4.4 1-12.4-4.7-13.5 6.1 1.4 10.6 7.2 11.4 13.4 0.7 6.2-2.1 12.5-6.6 16.8-4.5 4.3-10.6 6.7-16.7 7.7-8.4 1.3-17.6-0.2-23.7-6.1-6-5.7-7.9-14.4-9.1-22.6-1.1-7.8-3.2-21.8-2-29.6 2.3-14.8 13.4-22.2 26.9-28.9 1.6-0.8 3.4-1.5 5.1-0.8 3.8 1.7-5 12.6-6.1 15.4-3 6.9-4.6 14.5-4.7 22z"/>
				<path id="&lt;Path&gt;" class="s2" d="m328.1 196.6c-0.8 3.1-1.9 6.2-3.9 8.7-3 3.8-8 6-12.8 5.6-4.8-0.4-9.4-3.2-11.8-7.4-1.4 10.5 7.1 21 17.5 23.3 10.4 2.3 21.6-2.8 28.3-11.1 6.6-8.4 9-19.5 8.3-30.2-0.6-10.6-4.2-20.9-8.6-30.6-1.7-3.8-3.6-7.6-6.4-10.8-4.1-4.6-10.2-7.5-16.5-7.6-1.3-0.1-2.9 0.1-3.8 1.1-0.7 0.7-1 1.8-1 2.8-0.1 4.8 4.1 6.4 6.4 9.7 2.8 4.2 4.2 10.2 5.2 15 2.3 10.4 2 21.3-0.9 31.5z"/>
				<path id="&lt;Path&gt;" class="s2" d="m220.4 159.8c6.5-4.7 15.2-6.1 22.8-3.7 1.4 0.4 2.8 1 3.7 2 0.4 0.5 0.6 1.3 0.1 1.6-0.2 0.2-0.5 0.1-0.8 0-4.8-0.9-9.8-1.3-14.6-0.5-4.8 0.8-9.5 2.8-13.1 6.1-2.5 2.4-4.4 5.3-6.7 8-0.4 0.5-0.9 0.9-1.5 1.2-1.6 0.7-2.2-0.9-1.5-2.2 0.8-1.4 2.3-2.8 3.3-4.1 2.4-3.1 5-6.1 8.3-8.4z"/>
				<path id="&lt;Path&gt;" class="s2" d="m286.9 155.2c3.8 0.5 7.7 0.1 11.6-0.2 3.8-0.3 7.8-0.3 11.4 1 2 0.8 4 2.1 4.5 4.2 0.3 0.8 0.1 1.8-0.6 2.1-1 0.5-1.9-0.7-2.6-1.6-1.5-2-3.9-3.1-6.4-3.5-2.4-0.4-4.9-0.2-7.4 0q-3.8 0.3-7.5 0.6c-1.7 0.1-3.3 0.3-4.9 0-2-0.3-3.8-1.2-5.3-2.4-1-0.9-3.7-3.7-3.3-5.2 0.4-1.4 3.1 2 4 2.6 1.9 1.3 4.2 2 6.5 2.4z"/>
				<path id="&lt;Path&gt;" class="s6" d="m341.5 141.4c0 3.9-0.2 6.2-0.2 6.2q0 0 0 0c-0.3-0.1-4.7-1.1-12.2-2.1-3.1-0.4-6.6-0.8-10.5-1.1-20.5-1.7-52.5-1.3-85.3 10.6-4.9 1.9-9.9 3.9-14.9 6.3q-4.9 2.3-9.8 5.1c-4.4 2.5-8.7 5.2-12.9 8.2-6.5 4.4-12.8 9.5-18.8 15.3l-0.2 0.2c0 0-5-14.1-7.8-33.8-0.4-3.1-0.9-6.4-1.2-9.8q-0.4-4-0.6-8.1c-1.9-39.4 9.1-88.8 73-99.5 23.6-4 41.7-1.3 55.6 5.4 16 7.8 26.5 20.9 33.3 35.2 3.7 7.8 6.3 16 8.2 23.9 0.3 1.3 0.6 2.5 0.8 3.7 3 14.3 3.5 27.1 3.5 34.3z"/>
				<path id="&lt;Path&gt;" class="s3" d="m338 107.1c-6.1-2.3-12.5-4.1-19-5.3-23.7-4.3-48.5-0.6-71.2 7.5-22.7 8.1-43.7 20.6-63.6 34.3-5.1 3.5-10.3 7.2-14.5 11.8q-0.4 0.4-0.8 0.9-0.7-4.7-1.2-9.8c4.5-3.5 9.3-6.8 13.4-9.8 17.6-12.9 37.2-22.8 57.8-30.1 11.6-4 23.4-7.3 35.5-9.7 10.6-2.1 21.5-3.6 32.3-2.5 10.6 1.2 20.6 4.8 30.5 9q0.4 1.9 0.8 3.7z"/>
				<path id="&lt;Path&gt;" class="s7" d="m343.4 61.8c1.8-0.9 3.9-1.6 5.7-0.8 2.5 1.2 3.1 4.6 2.7 7.4-0.4 3.7-1.6 7.2-3.5 10.3-1.2 2-2.7 4.3-1.8 6.5 0.8 1.9 2.9 2.6 4.8 3.5 2.2 1 4.4 2.6 5.3 4.9 0.9 2.3 0.2 5.4-2 6.5-0.8 0.4-1.7 0.5-2.4 1-1.7 1-1.9 3.6-1 5.3 0.9 1.8 2.6 3 4.2 4.2 6.3 4.8 12 10.7 15.7 17.7 0.7 1.2 1.3 2.8 0.5 4-0.4 0.5-1 0.8-1.6 1.1-2.7 1.1-5.9 1-8.5-0.4-3.9-2.2-6.4-6.9-10.9-7.7-0.7-0.1-1.4-0.1-2 0.3-0.4 0.4-0.6 1-0.8 1.6-0.8 4.8 3.8 8.7 5.6 13.2 0.8 2 0.7 4.9-1.3 5.9-1.4 0.7-3.2-0.1-4.5-1.1-1.2-1-2.3-2.3-3.8-3-1.3-0.7-2.8-0.8-4.2-1.2-4.6-1.5-7-6.8-7-11.6-0.1-4.8 1.6-9.5 2.5-14.2 0.3-1.5 0.5-3.2-0.2-4.5-1.4-2.4-4.8-2.5-6.9-4.2-2.3-1.8-2.5-5.6-0.5-7.7 0.9-1 2.9-2 3.3-3.4 0.6-2.2-1.3-2.8-2.2-4.5-1.6-3-0.7-7.3 0.1-10.4 2-7.9 7.4-15 14.7-18.7z"/>
				<path id="&lt;Path&gt;" class="s6" d="m583.3 1204.3c0 0-65.5 6.3-138.7 19.6-22.4 4-45.6 8.7-67.8 14q-13.7 3.3-26.3 5.9c-79.5 16.7-128.9 15.3-143 10.9 0 0 20-148.6 37.4-276.8 11-82.1 21-155.9 23.8-177 2.4-17.8-0.7-40.3-6.6-62.7-11.7-45.8-34.7-91.4-45.1-97-15.5-8.4-39.5-30.4-37.2-63.6q0.1-1.3 0.2-2.6c2.9-30.6 18.1-82.2 24.1-120.8q1.3-3.5 2.4-7 0.8-2.8 1.5-5.7c6.2-28.1-2.9-57.3-14-84.7l14.3-5.4c5.5 23 16.1 44.1 29.6 63.9 6.9 10.1 14.5 19.9 22.6 29.4 13.1 15.4 27.3 30.1 41.3 44.3-7.3-45.3-2.6-92.4 13.4-135.4 1.9-5 4-10 7.1-14.2 6.3 2.3 12.8 4.6 18.5 6.5-3.3 10.8-5.8 21.8-5.3 33 0.9 20.1 11.6 38.8 25.4 53.6q2.1 2.3 4.3 4.5c3 17.7 7.2 34 13.1 44.4 18.9 33.5 72 54.2 22.5 117.2l-9.9 7.2c0 0 226 340.4 192.4 598.5z"/>
				<path id="&lt;Path&gt;" class="s8" d="m259.9 483.9c-9.1 12.7-30.5 6.8-42.5 16.7-6.3 5.2-8.7 13.5-13.2 20.2-3.9 5.7-9.3 10.3-12.9 16.1-6 9.8-6.2 21.9-9.4 32.9-0.5 1.7-1.1 3.5-1.9 5.2 2.9-30.6 18.1-82.2 24.1-120.8q1.3-3.5 2.4-7 0.8-2.8 1.5-5.7c3.7-5.5 7.7-10.8 12.6-15.3 5-4.7 10.9-8.4 17.3-10.9 6.9 10.1 14.5 19.9 22.6 29.4 0.1 5.2 0.4 10.5 1.6 15.9 1.7 7.9 2.5 16.8-2.2 23.3z"/>
				<path id="&lt;Path&gt;" class="s3" d="m261 435.1c1.5 3.7-0.4 7.9-4.1 9.4-3.7 1.5-7.9-0.3-9.4-4.1-1.5-3.7 0.3-7.9 4.1-9.4 3.7-1.5 7.9 0.4 9.4 4.1z"/>
				<path id="&lt;Path&gt;" class="s2" d="m195.4 346.2l4.7 35.4 25 11.1 24.4-11.4 5.3-33.3z"/>
				<path id="&lt;Path&gt;" class="s9" d="m225.1 375.9c-16.4 0-29.7-13.2-29.7-29.7 0-16.4 13.3-29.7 29.7-29.7 16.5 0 29.8 13.3 29.8 29.7 0 16.5-13.3 29.7-29.8 29.7z"/>
				<path id="&lt;Path&gt;" class="s2" d="m207.2 345.4c-3.9 0-7.1-3.1-7.1-7 0-3.9 3.2-7.1 7.1-7.1 3.9 0 7 3.2 7 7.1 0 3.9-3.1 7-7 7z"/>
				<path id="&lt;Path&gt;" class="s2" d="m212.7 365.2c-3.9 0-7-3.1-7-7 0-3.9 3.1-7.1 7-7.1 3.9 0 7.1 3.2 7.1 7.1 0 3.9-3.2 7-7.1 7z"/>
				<path id="&lt;Path&gt;" class="s2" d="m239.4 365.2c-3.9 0-7-3.1-7-7 0-3.9 3.1-7.1 7-7.1 3.9 0 7.1 3.2 7.1 7.1 0 3.9-3.2 7-7.1 7z"/>
				<path id="&lt;Path&gt;" class="s2" d="m243.8 343c-3.9 0-7.1-3.1-7.1-7 0-3.9 3.2-7.1 7.1-7.1 3.9 0 7 3.2 7 7.1 0 3.9-3.1 7-7 7z"/>
				<path id="&lt;Path&gt;" class="s1" d="m114.8 526.9c-13 12.4-27.7 24.4-34.2 41.3-5 12.9-4.5 27.2-4 41 0.1 2.8 0.2 5.5 1 8.2 1.4 4 4.3 7.3 7.2 10.4 1.8 2 3.7 4 6.2 4.8 2.8 0.7 5.7-0.2 8.5-1.1 22.9-7.9 47.3-16.9 61.3-36.7 5.3-7.3 8.8-15.7 12-24.1 6.7-17.3 12.6-34.9 16.8-53 1.5-6.6 2.8-13.2 5-19.6 6-16.6 18.2-30.1 28.8-44.3 2.5-3.3 5-6.7 6-10.7 2-7.4-1.3-15.1-4.7-22-5.2-10.5-12.9-25.2-24.5-29.8-12.3-4.9-13 19.1-15.7 27.5-8.5 26.2-21.8 50.8-38.3 72.8-9.4 12.6-20 24.4-31.4 35.3z"/>
				<path id="&lt;Path&gt;" class="s10" d="m210.8 297h30.3v39h-30.3z"/>
				<path id="&lt;Path&gt;" class="s0" d="m240.5 375.6c-2.1-0.2-4 1.1-5.1 2.8-1.2 1.8-1.6 3.8-1.8 5.9q-0.8 5-0.6 10.2c0 2.5 0.3 5.2 1.3 7.5 0.7 1.8 1.9 3.4 2.9 5 5.4 9.1 6.3 20.1 10.8 29.6 0.9 2 2 3.9 3.6 5.3 0.6 0.5 1.5 0.9 2.2 0.5 0.4-0.3 0.5-0.8 0.7-1.3q1.7-6.7 3.4-13.4c1-3.9 2-7.9 2-11.9 0-8.7-4.3-17.1-10.2-23.3-2.6-2.8-3-5.2-3.6-8.9-0.5-3.2-1.8-7.7-5.6-8z"/>
				<path id="&lt;Path&gt;" class="s11" d="m226 312.1c-8.4 0-15.2-6.7-15.2-15.1 0-8.4 6.8-15.2 15.2-15.2 8.4 0 15.1 6.8 15.1 15.2 0 8.4-6.7 15.1-15.1 15.1z"/>
				<path id="&lt;Path&gt;" class="s10" d="m226 351.1c-8.4 0-15.2-6.8-15.2-15.1 0-8.4 6.8-15.2 15.2-15.2 8.4 0 15.1 6.8 15.1 15.2 0 8.3-6.7 15.1-15.1 15.1z"/>
				<path id="&lt;Path&gt;" class="s0" d="m254 442.2c0 0.3-0.1 0.6-0.2 1-0.6 2.6-1.7 5.2-1.5 7.9 0.1 2.3 1.2 4.6 1.4 6.9q0 0.7-0.1 1.3c-0.4 5-6.1 7.9-11.2 9.7-6.7 2.4-13.9 4.4-21 3.2-10.4-1.7-18.7-10.9-18.6-20.5 0.1-2.3 0.4-4.7-0.9-6.6-0.9-1.3-2.4-2-3.6-3-2.4-1.9-3.8-4.7-3.8-7.5 0-2 0.7-4 0.1-5.9-0.4-1.6-1.6-2.9-2.4-4.4-2.1-3.7-1.2-8.1-0.7-12.2q0.5-4.7 0.3-9.3-0.1-3.1-0.6-6.1c-0.4-2.9-1.9-8.6 0.4-11.2 1-1.1 2.3-1.3 3.7-1.1 1.4 0.3 2.7 0.8 4 1.3 5.3 2 10.2 5 14.3 8.7q2 1.8 3.7 3.8c2.7 3.1 4.8 6.6 7.9 9.4 3.5 3.2 8 5.2 12.7 6.8 1 0.3 2 0.6 3 1 1.2 0.4 2.2 1 3.1 1.7q0.6 0.5 1 1.2c0.8 1 1.3 2.2 1.9 3.4q2.9 6.5 5.8 13c0.6 1.4 1.2 2.7 1.4 4.2 0.2 1.1 0.1 2.2-0.1 3.3z"/>
				<path id="&lt;Path&gt;" class="s12" d="m245 421.7c-0.5 1.1-1.3 2-2.3 2.7-1.8 1.3-4.2 1.7-5.6 3.4-1 1.4-1.1 3.1-1.8 4.6-1.9 4.4-8 5.8-12.5 3.9-4.5-1.8-7.5-6-10-10.1-2.4-4.2-4.6-8.7-8-12.1-3.1-3.1-8.2-6.1-13-9.5-0.1-2.2-0.3-4.5-0.6-6.7-0.4-3.2-1.9-9.4 0.4-12.3 1-1.2 2.3-1.4 3.7-1.2 3.2 1.2 6.2 2.8 8.9 4.6 3.2 2 6.2 4.3 9.4 6.4 3.2 2.2 6.4 4.2 10 5.7 3.8 1.6 8 2.5 11.8 4.1 3.9 1.6 7.6 4.1 9.5 7.9 1.3 2.6 1.4 6 0.1 8.6z"/>
				<path id="&lt;Path&gt;" class="s2" d="m226 306.3c-5.2 0-9.4-4.1-9.4-9.3 0-5.2 4.2-9.4 9.4-9.4 5.1 0 9.3 4.2 9.3 9.4 0 5.2-4.2 9.3-9.3 9.3z"/>
				<path id="&lt;Path&gt;" class="s1" d="m241.1 410.7c0 0-33.3-37.4-41-34.8-7.6 2.7-11.6 7.2-7.9 13.8 3.6 6.6 25.8 31.8 38.4 34.8 12.6 3 14.9-9 10.5-13.8z"/>
				<path id="&lt;Path&gt;" class="s11" d="m220.2 273.1c0-1.3 1-2.3 2.3-2.3h5.8c1.3 0 2.3 1 2.3 2.3v11c0 1.2-1 2.3-2.3 2.3h-5.8c-1.3 0-2.3-1.1-2.3-2.3z"/>
				<path id="&lt;Path&gt;" class="s9" d="m215 370.5c0-1.7 1.3-3 3-3h14.3c1.6 0 3 1.3 3 3v56.6c0 1.7-1.4 3.1-3 3.1h-14.3c-1.7 0-3-1.4-3-3.1z"/>
				<path id="&lt;Path&gt;" class="s1" d="m663.8 486.5c2.3-0.7 4.6 1.2 4.2 3.6-0.5 3.1-2.9 6.1-5.9 7.4-4.5 2-9.8 1.3-14.8 1.1-5.9-0.2-11.8 0.3-17.6 1.4-1.3 0.3-2.8 0.8-3.1 2-0.4 1.6 1.3 2.9 2.9 3.5 12.4 4.6 26.2-2.2 35.7-11.4 9.4-9.3 16.2-21 25.9-29.8 1.2-1.1 2.9-2.2 4.3-1.4 0.9 0.5 1.2 1.6 2 2.3 1.6 1.3 3.9 0.3 5.6-0.9 5.2-3.7 9.5-9.6 14.6-13 3.5-2.3 7.7 1.7 5.5 5.2q-0.5 0.8-1 1.5-10.4 15.7-20.9 31.5c-2.5 3.8-5.1 7.8-6.4 12.2 15.2-6.4 28.7-16.7 39-29.6q0.3-0.3 0.6-0.7c2.3-2.9 6.9-0.6 6 3q-0.7 2.7-1.8 5.2c-4.1 9-12.3 15.4-20.2 21.4q-12.7 9.7-25.5 19.4c-8.2 6.4-17.3 13-27.7 13.1-8.4 0.2-16.1-3.9-23.9-7.1-11.4-4.5-23.5-7.2-35.8-7.9-2.1-0.1-4.4-0.2-6.3-1.1-3.8-1.8-5.5-6.4-5-10.5 0.5-4.1 2.9-7.7 5.6-10.8 8.2-9.7 16.6-14.1 29.1-12.6 11.3 1.4 23.6 6.3 34.9 3z"/>
				<path id="&lt;Path&gt;" class="s8" d="m322.9 582c15.2 7.6 31.9 12.2 48.9 13.3 3.8 0.3 8.8 1.4 9.2 5.2-8.6 3.5-18.4 2.9-27.3 0.5-9-2.5-17.4-6.6-25.9-10.3-1.2-0.6-2.4-1.1-3.7-1-2.6 0-4.6 2.1-6.3 4-15.1 17.2-33.1 31.7-53.3 42.5-4.9 2.6-10.5 5.1-15.8 3.5-5.3-1.6-8.5-9.4-4.2-12.9 4.3-3.3 14.8-4.4 20.2-6.1 7.8-2.5 15.2-4.9 22.5-8.7 6.9-3.6 13.5-8 19.5-13 1.6-1.3 16.4-16.9 16.2-17z"/>
				<path id="&lt;Path&gt;" class="s3" d="m298.8 338.4c-4 0-7.2-3.2-7.2-7.2 0-4.1 3.2-7.3 7.2-7.3 4 0 7.3 3.2 7.3 7.3 0 4-3.3 7.2-7.3 7.2z"/>
				<path id="&lt;Path&gt;" class="s3" d="m302 352.7c-4 0-7.2-3.3-7.2-7.3 0-4 3.2-7.2 7.2-7.2 4 0 7.3 3.2 7.3 7.2 0 4-3.3 7.3-7.3 7.3z"/>
				<path id="&lt;Path&gt;" class="s3" d="m305.3 366.9c-4 0-7.3-3.2-7.3-7.2 0-4 3.3-7.3 7.3-7.3 4 0 7.2 3.3 7.2 7.3 0 4-3.2 7.2-7.2 7.2z"/>
				<path id="&lt;Path&gt;" class="s3" d="m303.7 381.2c-4 0-7.2-3.3-7.2-7.3 0-4 3.2-7.2 7.2-7.2 4 0 7.3 3.2 7.3 7.2 0 4-3.3 7.3-7.3 7.3z"/>
				<path id="&lt;Path&gt;" class="s3" d="m303.7 395.7c-4 0-7.2-3.3-7.2-7.3 0-4 3.2-7.2 7.2-7.2 4 0 7.3 3.2 7.3 7.2 0 4-3.3 7.3-7.3 7.3z"/>
				<path id="&lt;Path&gt;" class="s3" d="m305.3 410.2c-4 0-7.3-3.3-7.3-7.3 0-4 3.3-7.2 7.3-7.2 4 0 7.2 3.2 7.2 7.2 0 4-3.2 7.3-7.2 7.3z"/>
				<path id="&lt;Path&gt;" class="s3" d="m307.1 424.7c-4.1 0-7.3-3.3-7.3-7.3 0-4 3.2-7.2 7.3-7.2 4 0 7.2 3.2 7.2 7.2 0 4-3.2 7.3-7.2 7.3z"/>
				<path id="&lt;Path&gt;" class="s3" d="m307.1 439.2c-4.1 0-7.3-3.3-7.3-7.3 0-4 3.2-7.2 7.3-7.2 4 0 7.2 3.2 7.2 7.2 0 4-3.2 7.3-7.2 7.3z"/>
				<path id="&lt;Path&gt;" class="s3" d="m307.1 453.7c-4.1 0-7.3-3.3-7.3-7.3 0-4 3.2-7.2 7.3-7.2 4 0 7.2 3.2 7.2 7.2 0 4-3.2 7.3-7.2 7.3z"/>
				<path id="&lt;Path&gt;" class="s3" d="m319.3 457c1.5 3.7-0.3 8-4.1 9.4-3.7 1.5-7.9-0.3-9.4-4-1.5-3.7 0.3-7.9 4.1-9.4 3.7-1.5 7.9 0.3 9.4 4z"/>
				<path id="&lt;Path&gt;" class="s3" d="m326.5 469.9c1.5 3.7-0.3 7.9-4 9.4-3.7 1.5-8-0.4-9.4-4.1-1.5-3.7 0.3-7.9 4-9.4 3.7-1.5 7.9 0.3 9.4 4.1z"/>
				<path id="&lt;Path&gt;" class="s3" d="m335.5 481.3c1.5 3.8-0.3 8-4 9.5-3.7 1.4-7.9-0.4-9.4-4.1-1.5-3.7 0.3-7.9 4-9.4 3.7-1.5 8 0.3 9.4 4z"/>
				<path id="&lt;Path&gt;" class="s3" d="m340.8 494.6c1.5 3.7-0.3 7.9-4 9.4-3.8 1.5-8-0.3-9.5-4-1.4-3.8 0.4-8 4.1-9.5 3.7-1.4 7.9 0.4 9.4 4.1z"/>
				<path id="&lt;Path&gt;" class="s3" d="m338.1 508.1c1.5 3.7-0.3 7.9-4 9.4-3.8 1.5-8-0.3-9.5-4-1.4-3.8 0.4-8 4.1-9.5 3.7-1.4 7.9 0.4 9.4 4.1z"/>
				<path id="&lt;Path&gt;" class="s3" d="m328.3 516.3c1.5 3.7-0.3 8-4.1 9.4-3.7 1.5-7.9-0.3-9.4-4-1.5-3.7 0.4-7.9 4.1-9.4 3.7-1.5 7.9 0.3 9.4 4z"/>
				<path id="&lt;Path&gt;" class="s3" d="m315.5 518.8c1.4 3.7-0.4 7.9-4.1 9.4-3.7 1.5-7.9-0.3-9.4-4-1.5-3.8 0.3-8 4-9.5 3.8-1.4 8 0.4 9.5 4.1z"/>
				<path id="&lt;Path&gt;" class="s3" d="m303.2 515.2c1.5 3.7-0.3 7.9-4 9.4-3.8 1.5-8-0.3-9.5-4.1-1.4-3.7 0.4-7.9 4.1-9.4 3.7-1.5 7.9 0.3 9.4 4.1z"/>
				<path id="&lt;Path&gt;" class="s3" d="m294 506.6c1.5 3.7-0.4 7.9-4.1 9.4-3.7 1.5-7.9-0.3-9.4-4-1.5-3.7 0.3-8 4.1-9.4 3.7-1.5 7.9 0.3 9.4 4z"/>
				<path id="&lt;Path&gt;" class="s3" d="m289.2 494.6c1.5 3.7-0.3 7.9-4.1 9.4-3.7 1.5-7.9-0.3-9.4-4-1.5-3.8 0.3-8 4.1-9.5 3.7-1.4 7.9 0.4 9.4 4.1z"/>
				<path id="&lt;Path&gt;" class="s3" d="m287.8 482.9c1.5 3.7-0.3 7.9-4 9.4-3.7 1.5-8-0.3-9.4-4.1-1.5-3.7 0.3-7.9 4-9.4 3.7-1.5 8 0.4 9.4 4.1z"/>
				<path id="&lt;Path&gt;" class="s3" d="m283.8 469.9c1.5 3.7-0.3 7.9-4.1 9.4-3.7 1.5-7.9-0.4-9.4-4.1-1.5-3.7 0.3-7.9 4.1-9.4 3.7-1.5 7.9 0.3 9.4 4.1z"/>
				<path id="&lt;Path&gt;" class="s3" d="m277.5 457c1.5 3.7-0.3 8-4 9.4-3.7 1.5-8-0.3-9.4-4-1.5-3.7 0.3-7.9 4-9.4 3.7-1.5 7.9 0.3 9.4 4z"/>
				<path id="&lt;Path&gt;" class="s3" d="m269.8 445.9c1.5 3.7-0.3 8-4.1 9.4-3.7 1.5-7.9-0.3-9.4-4-1.5-3.7 0.3-8 4.1-9.4 3.7-1.5 7.9 0.3 9.4 4z"/>
				<path id="&lt;Path&gt;" class="s8" d="m444.6 1223.9c-22.4 4-45.6 8.7-67.8 14q-13.7 3.3-26.3 5.9c10.3-27.5 18.6-55.7 24.7-84.4 11.5-54.6 15.2-110.4 19.7-166 0.8-10.8 1.8-21.7 5.6-31.9 4-10.7 21.6-44.8 32.9-46.1 1.6 17.7-13.6 34.3-20.4 49.6-6 13.4-7.9 28.2-9.1 42.8-4.3 51.9-0.3 105.1 17.4 154.1 7.5 20.7 17.5 40.7 23.3 62z"/>
				<path id="&lt;Path&gt;" class="s12" d="m252.3 451.1c0.1 2.3 1.2 4.6 1.4 6.9-1-1-1.9-2-2.5-3.2-1.9-4.2-0.3-9.9-3.7-13-0.8-0.6-1.7-1.1-2.3-1.8-1.6-1.9-0.9-4.8-1.5-7.2-0.9-3.5-4.3-4.8-7.4-5.4 0.1-1.2 0.8-2 1.9-2.5 1.1-0.7 2.5-0.9 3.5-1.8 0.5-0.4 0.9-0.8 1.2-1.4 0.4-0.7 0.6-1.5 0.5-2.3 2 2.4 1.8 5.9 2.4 9 1.1 5.3 4.6 9.6 7.6 14.1q0.2 0.4 0.4 0.7c-0.6 2.6-1.7 5.2-1.5 7.9z"/>
				<path id="&lt;Path&gt;" class="s13" d="m219.7 411.2c0.2 3.8 0.5 8 3.1 10.7 0.5 0.5 1.2 1 1.9 1.1 0.8 0 1.6-0.3 1.8-1 0.2-0.6 0-1.2-0.2-1.7-1.9-4.9-3.2-9.9-4.3-15-0.8-3.8-0.6-8.8-2.8-12.1-0.7 5.7 0.3 12.2 0.5 18z"/>
				<path id="&lt;Path&gt;" class="s14" d="m295.7 44.3c-8.8 6.5-21 6.3-30.8 11.1-1.6 0.9-3.3 2-3.8 3.8-0.5 2.3 1.3 4.4 1.5 6.7 0.2 2.8-2 5.4-4.6 6.5-2.6 1.2-5.5 1.2-8.3 1.2q-13.7 0.2-27.3 1.7c-3.7 0.4-7.9 1.2-10.1 4.2-2.7 3.8-1.1 9-1.6 13.6-0.9 7.4-8.4 13.3-15.7 12.4-2.2-0.2-4.4-1-6.6-0.5-3.6 0.9-5.3 5-6.7 8.5-2.8 7.2-7.8 20-14.6 24.9-1.9-39.4 9.1-88.8 73-99.5 23.6-4 41.7-1.3 55.6 5.4z"/>
				<path id="&lt;Path&gt;" class="s8" d="m280.9 851c-11.5 26.6-16.1 55.6-22.7 83.8-3.4 14.6-7.5 29.3-13.3 43.1 11-82.1 21-155.9 23.8-177 2.4-17.8-0.7-40.3-6.6-62.7 0.1 0.1 0.2 0.3 0.3 0.4q10.5 19.5 22.1 38.3c4.1 6.6 8.3 13.3 10 20.8 4.4 18.2-6.2 36.1-13.6 53.3z"/>
				<path id="&lt;Path&gt;" class="s15" d="m370.3 541c8.1-10.6 9.5-25.9 3.4-37.7-5-9.5-14.4-17.2-15.4-27.8 2.8-0.4 5.1 1.8 6.9 3.8 12.5 14.3 22.2 31.1 28.2 49.1 2.6 7.9 4.6 16.4 3.3 24.7-2.1 13.7-13.7 25-27.1 28.2-13.5 3.3-28.2-1.1-38.7-10.2-12.7-11-3.1-15.8 7.2-16.9 12.8-1.3 23.4-1.9 32.2-13.2z"/>
				<path id="&lt;Path&gt;" class="s15" d="m492 971.4c6 56.4 10.3 114.3-4.7 169-1.6 5.7-3.4 11.7-2.7 17.6 0.8 5.9 4.9 11.9 10.9 12.6 19-35 27.3-75.1 28.3-115 1-39.8-4.9-79.6-12.8-118.6-11.7-57.9-30.4-125.7-79.8-163.3 3.9 12.6 12.5 22.1 19.2 33.2 9.7 15.9 16.3 34.1 21.7 51.8 11.1 36.6 15.9 74.8 19.9 112.7z"/>
			</g>
		</g>
	</g>
</svg>