<svg version="1.2" xmlns="http://www.w3.org/2000/svg" viewBox="0 0 800 2000" width="800" height="2000">
	<title>Mafia male and female cartoon characters set-ai</title>
	<style>
		.s0 { fill: #201600 } 
		.s1 { fill: #18312a } 
		.s2 { fill: #a02d00 } 
		.s3 { fill: #0f211b } 
		.s4 { fill: #7c1a18 } 
		.s5 { fill: #27493e } 
		.s6 { fill: #e26c40 } 
		.s7 { fill: #312a20 } 
		.s8 { fill: #595651 } 
		.s9 { fill: #ffa679 } 
		.s10 { fill: #ffffff } 
		.s11 { fill: #e2e2e2 } 
		.s12 { fill: #efefef } 
		.s13 { fill: #291d11 } 
		.s14 { fill: #832d00 } 
		.s15 { fill: #c1441e } 
		.s16 { fill: #48443e } 
		.s17 { fill: #0a1411 } 
		.s18 { fill: #d8c1c0 } 
		.s19 { fill: #ba9b9b } 
		.s20 { fill: #591b00 } 
		.s21 { fill: #979695 } 
		.s22 { fill: #590c0c } 
		.s23 { fill: #4a4340 } 
	</style>
	<g id="_Artboards_">
	</g>
	<g id="321353356351 2">
		<g id="&lt;Group&gt;">
			<g id="&lt;Group&gt;">
				<path id="&lt;Path&gt;" class="s0" d="m458.1 1843.8c6.4 9.7 21.5 24.5 30.2 32.2 13 11.6 25.9 23.3 37.3 36.5 6.6 7.8 12.6 16 20 23 6.7 6.4 14.4 11.8 22 17.1q18.2 12.6 36.5 25.3c1.5 1.1 3.3 2.2 5.2 2.1 1.1-0.1 2.2-0.7 3.2-1.2 7-3.8 8.5-13.2 3-19l-14.2-14.7c-16.9-17.5-31.4-37.5-40.9-59.9-5.7-13.2-37.7-43.5-41.5-56.5-10.2-34.5-10-13.3-23.1-19.2-4.7-2.1-34.2-8-39.3-8.2-2.8-0.1 1.6 42.5 1.6 42.5z"/>
				<path id="&lt;Path&gt;" class="s1" d="m516.5 1820.1h-61.2l-132.3-577.8-99.2 546.7h-70.4l19.2-591 2.3-71.7 2.5-16.7 35.8-245.3 3.9-0.1 260.5-6.2 14.3 353.7z"/>
				<path id="&lt;Path&gt;" class="s1" d="m121.4 636.7c-6.8 19.9-18.7 38.1-34.3 52.4 0.7-3.2 0.2-6.6-1.4-9.4-2.5 17.3 0.9 34.8 4.2 52 2.8 14.2 5.6 28.4 8.7 42.5 2.7 12.1 5.7 24.4 12.2 34.9 5.3 8.8 13.1 16 22.1 20.8 9.3 5 21.5 7.1 30.1 1 8.4-5.9 10.6-17.1 11.4-27.3 2.4-32.7-3.5-65.3-6.7-97.9-3.2-31.6-3.8-63.4-2.1-95.1 0.5-8.4 0.2-18.6-7.2-22.6-22.6-12.3-33 37-37 48.7z"/>
				<path id="&lt;Path&gt;" class="s2" d="m250.3 838c0 0-17.4 13.2-37.1 26.3-21 14-44.6 27.7-52.7 25.3-8.4-2.5-10.8-20.6-11.2-40.7-0.4-17.9 0.8-37.5 0.8-49.1 0.1-24.6 2.9-159.9-8.4-187.2-11.4-27.3 44.3-48.8 44.3-48.8 1.4 2.4 2.2 19.2 3 38.4 1.1 23.4 2.3 50.6 4.9 59.3 3.7 12.3 22 90.8 30.2 126 2.4 10.4 4 17.1 4 17.1z"/>
				<path id="&lt;Path&gt;" class="s3" d="m491.9 1211.7c-31.5-2.7-83.2-14.7-102.6-21-27-8.7-54.4 0.8-54.4 0.8-21.8-97 13.9-267 13.9-267l-50 18.3-18.3-43.3-19.9 36.9-16.7-7.6c0.9 12.1 1.7 250-4.7 257.9-4.3 5.4-42.7 9.4-66.6 11.3l2.3-71.7 2.5-16.7 2.3-8.7 37.4-236.7 260.5-6.2z"/>
				<path id="&lt;Path&gt;" class="s4" d="m223.8 893.8l33.1 26.5 22.5-35 20.4 43.5 59-25.5 78-422.7-14.6-7.4c0 0-19.4 44.3-32.4 60.4-13 16.1-102 117.5-107.3 117.5-0.5 0-18.9-43.3-21.6-64l-16.9 144.6z"/>
				<path id="&lt;Path&gt;" class="s5" d="m230.7 908.1c0 0-0.5 230.8-15.3 256.2-4.8 8.1-49.3-0.2-71.6 0 0 0 20.7-201.6 28.6-236.6 8-35 40.3-192.3 24.9-233.6-15.3-41.3-36-142.2-36-142.2l82.7-43.8-6.4 130.2-1.6 179.8z"/>
				<path id="&lt;Path&gt;" class="s6" d="m316.5 438.4l-7 79.3 45.8 18.6 29.2-53.5 4.1-61.5z"/>
				<path id="&lt;Path&gt;" class="s7" d="m99.4 293.7l-40.7-136.7-17.6 6.4 41.8 137.4z"/>
				<path id="&lt;Path&gt;" class="s8" d="m75.5 300.5c-0.5-1.8-0.9-3.6-0.2-5.2 0.5-1.3 1.7-2.2 2.9-3.1 7-4.9 14.6-8.8 22.6-11.6 31.1 83.1 59.1 167.5 83.9 252.7 2.4 8.1 4.7 16.3 5.1 24.7 1.1 21.8-12.4 43.7-32.5 52.5-3.5 1.5-7.4 2.7-11.2 1.7-7.1-2-9.7-10.6-11.2-17.9q-17.5-90-32.1-180.5c-6.3-39-17.6-75.3-27.3-113.3z"/>
				<path id="&lt;Path&gt;" class="s6" d="m414.4 330c2.5-3 5.4-5.7 8.7-7.6 1.6-0.9 3.4-1.6 5.2-1.5 4.4 0.3 7 5 8 9.2 3 13.8-4.2 28.2-14.8 37.5-1.8 1.5-3.8 3-6.1 3.5-4.3 1.1-9-1.5-11.4-5.3-7.4-12.1 2.6-26.8 10.4-35.8z"/>
				<path id="&lt;Path&gt;" class="s6" d="m281.3 330c-2.5-3-5.3-5.7-8.7-7.6-1.6-0.9-3.4-1.6-5.2-1.5-4.3 0.3-7 5-7.9 9.2-3 13.8 4.2 28.2 14.8 37.5 1.8 1.5 3.7 3 6 3.5 4.4 1.1 9.1-1.5 11.4-5.3 7.5-12.1-2.5-26.8-10.4-35.8z"/>
				<path id="&lt;Path&gt;" class="s7" d="m96.7 437.7q13.5 67.2 27 134.5c1.2 5.9 2.3 11.8 4.3 17.4 2.4 6.7 6.7 13.6 13.6 15.5 8.9 2.3 18-5.5 20.4-14.5 2.5-8.9 0.1-18.4-2.3-27.4q-17.7-67.3-35.4-134.5c-2.9-11.1-10-42.2-24.8-43.9-17.8-1.9-4.5 44-2.8 52.9z"/>
				<path id="&lt;Path&gt;" class="s9" d="m289.1 301.8c-6.7 42.7-4 87.9 14.7 127 7.9 16.6 20.6 33.2 38.7 36.3 16.8 2.9 33.8-7.2 43.6-21.2 9.7-14 13.5-31.2 16-48 4.4-30.2 5.3-60.9 2.6-91.3-0.9-9.4-2.1-18.8-5.3-27.7-3.2-8.8-8.2-16.7-14.1-24-7.6-9.6-17.2-18.5-29.2-20.6-16.9-2.9-38.3 7.1-48.7 20.3-11 13.9-15.6 32-18.3 49.2z"/>
				<path id="&lt;Path&gt;" class="s5" d="m637.6 802.7c-7.9 4.2-47.4 8.4-47.4 8.4l-24.3-12.8 0.8 66.7 2.7 236.6 0.6 52c0 0-86.1 29.9-147.7 20.4-61.7-9.5-87.7-6.1-87.7-6.1 0 0-6.4-63.8-4.3-112.2 2.1-48.4 12.7-152.4 12.7-152.4l21.1-98.8c0 0 34.5-167.1 33.2-171.2-1.3-4.2 54.3-160.1 54.3-160.1 0 0 93.2 35 110.7 44.5 17.5 9.6 18.5 51.9 24.3 68.4 5.8 16.4 28.1 59.8 29.9 81 1.8 21.2 33.2 39.2 56.5 62.5 23.3 23.4-27.5 68.9-35.4 73.1z"/>
				<g id="&lt;Group&gt;">
					<path id="&lt;Path&gt;" class="s0" d="m315.3 351.7c-3.2 0-5.8-11.4-5.8-25.5 0-14 2.6-25.4 5.8-25.4 3.2 0 5.7 11.4 5.7 25.4 0 14.1-2.5 25.5-5.7 25.5z"/>
					<path id="&lt;Path&gt;" class="s10" d="m317.2 319.1c-1.1 0-1.9-2-1.9-4.5 0-2.4 0.8-4.4 1.9-4.4 1 0 1.8 2 1.8 4.4 0 2.5-0.8 4.5-1.8 4.5z"/>
				</g>
				<path id="&lt;Path&gt;" class="s0" d="m302.8 390c-1.8 0.9-3.1 2.9-3.2 4.9-0.2 2 0.8 4.1 2.5 5.3 2.6 1.8 6.3 1.3 9-0.3 2.7-1.6 4.8-4.1 7-6.4 6.9-7 16-12 25.8-13.2 9.7-1.2 20.1 1.5 27.5 7.9 3.7 3.3 6.7 7.4 10.9 10 3 1.8 7 2.6 9.9 0.7 2.4-1.7 3.3-5.2 1.9-7.8-1.3-2.6-4.7-3.9-7.4-3 2.8-3.2 8.2-3.5 11.5-0.9 3.4 2.7 4.5 7.6 2.9 11.6-1.3 3.3-4.2 5.8-7.2 7.8-14 9.2-37.4 9.3-54.2 9.5-15 0.1-44.2-1.3-48.5-6.1-4.1-4.5-4.4-11.9-0.7-16.7 1.8-2.2 4.3-3.8 7-4.5 1.9-0.5 6.6-1.2 7.9 0.7-0.9 0-1.8 0.1-2.6 0.5z"/>
				<g id="&lt;Group&gt;">
					<path id="&lt;Path&gt;" class="s0" d="m369.8 351.7c-3.2 0-5.7-11.4-5.7-25.5 0-14 2.5-25.4 5.7-25.4 3.2 0 5.8 11.4 5.8 25.4 0 14.1-2.6 25.5-5.8 25.5z"/>
					<path id="&lt;Path&gt;" class="s10" d="m371.7 319.1c-1 0-1.9-2-1.9-4.5 0-2.4 0.9-4.4 1.9-4.4 1.1 0 1.9 2 1.9 4.4 0 2.5-0.8 4.5-1.9 4.5z"/>
				</g>
				<path id="&lt;Path&gt;" class="s6" d="m345.1 331.1c0 0-14.1 15.7-15.9 28.2-1.7 12.6 3.6 28.4 10.5 31.3 6.9 2.9 16-12.9 17.2-19.2 1.2-6.4-10.7-24.6-10.7-29.8 0-5.2-1.1-10.5-1.1-10.5z"/>
				<path id="&lt;Path&gt;" class="s0" d="m277.4 327.4c-0.8-6.1-0.1-12.3-0.5-18.5-0.6-9.8-3.9-19.3-5-29-2.9-24.3 7.9-49.7 27.4-64.4 7.3-5.5 15.5-9.5 23.3-14.3 11.6-7.3 22.1-16.2 32.5-25.2q-1.8 5.6-3.5 11.1c10.6-2.9 21.5-4.8 32.5-5.7-4.9 2.1-9.1 6.1-11.4 11 11.9-0.6 23.9 3.4 33 11 5 4.1 10.1 9.7 16.5 9-5.5 6-11.7 11.4-18.3 16.2 4.9 4 11 6.3 17.3 6.7-2.4 5.5-9.3 7.7-12.3 13-2.5 4.5-1.5 10-0.4 15.1 3.2 13.8 7.1 27.5 7.7 41.7 0.6 14.1-2.6 29-12 39.6-2.5-13.8-1.4-28-3.1-42-1.6-13.9-6.9-28.5-18.6-36.4-3.3-2.2-7.1-3.8-10.9-5.1-5-1.8-11.4-2.8-15 1.1-1.9 2-2.4 4.9-2.9 7.7-0.8 5.8-1.3 11.7-3.4 17.2-2 5.5-5.9 10.7-11.5 12.6-5.6 1.8-12.7-0.7-14.6-6.3 2.4 1.7 5.9 1.4 8.3-0.2 2.5-1.6 4.1-4.2 5.1-7 2.3-5.9 1.7-13.5-3.2-17.6-4.4-3.7-10.9-3.5-16.6-2.5-5.4 1.1-11 2.8-14.9 6.7-3.2 3.2-5 7.5-6.5 11.8-4.7 13.7-6.8 28.3-6.1 42.8 0.2 4.1 1.9 15.4-4.8 14.6-5.7-0.6-7.6-10.4-8.1-14.7z"/>
				<path id="&lt;Path&gt;" class="s0" d="m297.5 299.6c8.7-1.1 17.7 0.7 25.4 4.9q1-2.6 2-5.3c-8-3.6-16.6-5.9-25.3-6.7-2.6-0.3-5.2-0.4-7.6 0.6-2.5 1.1-5.4 4.5-3.5 7.3 1.9 2.8 6.3-0.5 9-0.8z"/>
				<path id="&lt;Path&gt;" class="s0" d="m387.7 300.9c-8.6-1-17.6 0.7-25.3 5q-1-2.7-2-5.3c8-3.7 16.6-5.9 25.3-6.8 2.5-0.2 5.2-0.3 7.5 0.6 2.6 1.1 5.4 4.6 3.5 7.4-1.9 2.7-6.2-0.6-9-0.9z"/>
				<path id="&lt;Path&gt;" class="s11" d="m290.6 480.6c0 0-29.7 22.8-25.5 125.6l69.4-6.4c0 0 90.1-103.3 87.7-114.9-2.4-11.6-22.5 5.2-22.5 5.2l-36 17-29.1 7.4-27.1-3.7z"/>
				<path id="&lt;Path&gt;" class="s12" d="m315.3 465.6c-0.9 2.9 13.6 37.3 13.6 37.3l-34.6 45-14.9-60.4 22.1-24.8 13.6-7.8z"/>
				<path id="&lt;Path&gt;" class="s13" d="m318.1 503.4c0 0 27.6-1.6 35.5 0 7.9 1.6-14.3 53.5-14.3 53.5h-48.7c0 0 10.6-52.8 27.5-53.5z"/>
				<path id="&lt;Path&gt;" class="s12" d="m346.8 503.4l24.9 32.9 50.5-51.4c0 0-5-29.7-11.4-32.9-6.3-3.1-24.7-8.1-24.7-8.1l-1.6 23.5z"/>
				<path id="&lt;Path&gt;" class="s13" d="m300.6 547.9c0 0-34.4 44-35.5 58.3-1 14.3 17.8 45.5 17.8 45.5l51.6-51.9c0 0-1.6-37.6 0-49.2 1.6-11.7-33.9-2.7-33.9-2.7z"/>
				<path id="&lt;Path&gt;" class="s1" d="m315.1 454.9c0 0-87.6 45.3-100.3 66.5l16.4 19.1c0 0-29.1 13.8-33.9 23.3 0 0 18.1 65.7 26.5 78.4 8.5 12.7 8.5 249.5 6.9 265.9 0 0 34-209.8 34.4-277.6 0.4-67.7 24-163.3 50-175.6z"/>
				<path id="&lt;Path&gt;" class="s1" d="m386.1 443.9c0 0 68.7 7.2 107.9 61.7l-47.7 30.7 39.2 6.5c0 0-63.6 68.1-71 87.2-7.4 19.1-63.7 242.1-70.4 269.5 0 0 28.4-225 40.4-283.3 12-58.2 47.6-114.4 37.7-131.3-9.8-17-3.1-35.4-36.1-41z"/>
				<g id="&lt;Group&gt;">
					<path id="&lt;Path&gt;" class="s2" d="m107.1 355.2c-0.4 22.4-1.5 44.8-2.7 67.1-0.3 5.1-0.6 10.4-3.5 14.7-2.3 3.5-6.1 5.8-10.2 7-9.2 2.8-20-0.4-26.2-7.8-5.3-6.3-7.1-15.2-4.8-23.1 0.3-1.4 0.8-2.8 1.5-4.1 1.4-2.9 3.5-5.7 3.4-8.8q0-0.5-0.1-0.9c-0.6-4.7-4.9-9.2-2.7-13.2 0.9-1.6 2.7-2.6 4.1-3.9q0.4-0.4 0.7-0.8c2-2.6 1.5-5.6 0.4-8.8-1.7-4.7-4.6-9.8-2.8-14.3 1.1-2.6 3.7-4.3 5.6-6.4 0.9-1 1.7-2.2 2.1-3.5 0.6-2.4-0.1-4.6-1.3-6.8-2.3-4.1-6-8.1-4.9-12.5 1.2-4.9 7.6-6.9 10.8-10.5 1-1.1 1.7-2.3 1.8-3.9 0.2-1.7-0.4-3.3-1.2-4.9-1.2-2.6-2.8-5.2-2.1-7.9 1-3.7 6.1-5.1 9.6-3.5 3.5 1.7 5.7 5.2 7.5 8.6 7.9 14.7 15.4 31.4 15 48.2z"/>
					<path id="&lt;Path&gt;" class="s14" d="m76.4 418c0.1 0.6 0.1 1.4-0.2 2-0.3 0.7-1.2 1.1-2 1.2-5.2 1-8.8-4.6-13.2-7.4q-0.7-0.4-1.3-0.7c0.3-1.4 0.8-2.8 1.5-4.1 1.4-2.9 3.5-5.7 3.4-8.8q0-0.5-0.1-0.9 0.5 0.3 1 0.6c5.9 4.2 9.9 10.9 10.9 18.1z"/>
					<path id="&lt;Path&gt;" class="s14" d="m86.9 399.5c-2.6 1.4-6 0.2-8.2-1.8-2.2-2.1-3.6-4.9-5.2-7.4-2.1-3.1-4.7-5.8-7.6-8.1q0.4-0.4 0.7-0.8c2-2.6 1.5-5.6 0.4-8.8 2.9 1.6 6 3 8.7 4.9 6.9 5 11.2 13.4 11.2 22z"/>
					<path id="&lt;Path&gt;" class="s14" d="m89.8 370.7c-4.4-0.6-8-4.1-10.7-7.8-2.7-3.6-5-7.6-8.6-10.4-0.2-0.2-0.5-0.4-0.7-0.6 0.9-1 1.7-2.2 2.1-3.5 0.6-2.4-0.1-4.6-1.3-6.8q1.9 1 3.8 2.1c9.2 5.6 15.3 16.2 15.4 27z"/>
					<path id="&lt;Path&gt;" class="s14" d="m96.1 336.3c-4.7 1.3-8-4.2-10.5-8.4-2.3-3.8-5.4-7.2-9.1-9.3 1-1.1 1.7-2.3 1.8-3.9 0.2-1.7-0.4-3.3-1.2-4.9q0.7 0.4 1.4 0.8c9.4 5.2 16.1 15 17.6 25.7z"/>
					<path id="&lt;Path&gt;" class="s15" d="m77.5 436.6c2.2 1.3 4.9 2.3 7.3 1.4 2.8-0.9 4.3-4.1 4.1-7.1-0.2-2.9-1.6-5.6-3.3-8-1.8-2.6-4-5.1-6.7-6.8-5.1-3.3-13.6-3.1-13 4.6 0.5 6.4 6.4 12.8 11.6 15.9z"/>
				</g>
				<g id="&lt;Group&gt;">
					<path id="&lt;Path&gt;" class="s16" d="m99.2 449.4l-34.1 87c0 0 31.4-2.7 31.9-3.1 0.4-0.5 28.5-86.4 28.5-86.4z"/>
					<path id="&lt;Path&gt;" class="s7" d="m65.1 536.4l4.5 14.4 31.2-3-3.8-14.5z"/>
					<path id="&lt;Path&gt;" class="s7" d="m125.5 446.9l3.8 15.6-28.5 85.3-3.8-14.5z"/>
				</g>
				<path id="&lt;Path&gt;" class="s7" d="m45.7 188.4l22.5-8.4 3.5 11.8-22.6 6.9z"/>
				<path id="&lt;Path&gt;" class="s17" d="m606 718.3c11.5 17 11.9 39.2 8.9 59.6-1.3 9.2-3.5 18.7-9.6 25.7-6.1 6.9-17.4 10.2-24.9 4.8-5.8-4.2-7.7-11.9-11.1-18.2-3.6-6.9-9.3-12.6-11.5-20-2.8-9.2 0.3-19 3.4-28.1q3.9-11.5 7.8-23c1.5-4.7 3.4-17.6 8-20 8.8-4.6 24.9 13.1 29 19.2z"/>
				<path id="&lt;Path&gt;" class="s6" d="m91 657.9c0 14.4 1.8 29.7 10.5 41.2 2.4 3.2 5.4 6 9 7.7 6.6 3 14.6 1.6 21-2 4-2.2 7.7-5.4 10-9.4 6.2-10.5 2-23.7-0.6-35.7-2.7-12.4-3.5-25.3-2.4-38 0.7-8.9 2.4-18.3-1-26.5-5.4-13.3-24.7-18.2-35.8-9.2-18.8 15.2-10.7 51.2-10.7 71.9z"/>
				<path id="&lt;Path&gt;" class="s3" d="m489.1 637.9c1.1 11.9 24.8 18.4 30.3 29 5.9 11.3 10.1 17.2 16.7 28.1 19.8 32.9 8 83.8-3.8 120.5-6.4-5.8-10.7-13.8-12.1-22.3-11.2 13.9-22.8 28.2-38.3 37 11.7-16.1 20.2-34.5 25-53.8 0.4-1.6 0.7-3.4-0.1-4.8-1.6-2.5-5.4-1.7-8.4-2-6.9-0.6-11.1-8.1-11.8-14.9-0.7-6.9 0.8-13.9-0.6-20.7-1.4-6.5-5.3-12.1-7.5-18.4-2.1-6.3-1.9-14.4 3.4-18.3 1.8-1.4 4.1-2.1 5.7-3.7 4-3.7 2.6-10.3-0.2-15-2.9-4.6-7-8.6-8.1-13.9-1.4-6.3 1.6-12.5 2.5-18.9 1.1-7.4-4.2-7.8-4.3-15.3z"/>
				<path id="&lt;Path&gt;" class="s9" d="m154.3 559.6q-2.8 23.6-5.6 47.2c-0.6 4.9-1.2 9.8-3.3 14.2-2.1 4.4-6.1 8.2-11 8.9 3.6-0.5 0.7-16.4-0.3-18.6-2-3.9-5-6.6-9.4-7.3-11.5-1.9-23 8.3-22.1 19.9 0.2 2.7 1 5.2 0.9 7.9q0 0.2-0.1 0.3c-0.2 2.6-1.7 5.2-4.1 5.7-2.8 0.7-5.4-1.5-7.4-3.5-7.5-7.5-15.7-16.3-15.2-27 0.3-5.9 3.2-11.5 3.3-17.4 0.2-5-1.6-10.6 1.4-14.7 1.5-2 3.9-3.1 5.7-4.8 4.5-4.1 5.3-10.8 8.6-15.9 2.6-3.9 6.3-6.5 10.7-8.1 6.1-2.2 13.4-2.5 20-1.9 6.1 0.6 12 1.6 17.9 3.1 4.1 1 8.7 2.8 9.9 6.8 0.5 1.7 0.3 3.5 0.1 5.2z"/>
				<path id="&lt;Path&gt;" class="s6" d="m103.5 550.8c-0.1 2 0.8 3.8 0.7 5.7-0.2 5.3-7.1 7.7-8.6 12.7-0.9 3.2 0.5 6.7-0.5 9.9-0.9 2.7-3.6 4.5-4.7 7.2-2.4 5.4 2.2 11.5 1.3 17.4-0.4 2.3-1.6 4.4-1.7 6.7-0.5 4.9 3.6 8.8 7 12.4 2.6 2.7 5 5.9 6.4 9.3-0.2 2.6-1.7 5.2-4.1 5.7-2.8 0.7-5.4-1.5-7.4-3.5-7.5-7.5-15.7-16.3-15.2-27 0.3-5.9 3.2-11.5 3.3-17.4 0.2-5-1.6-10.6 1.4-14.7 1.5-2 3.9-3.1 5.7-4.8 4.5-4.1 5.3-10.8 8.6-15.9 2.6-3.9 6.3-6.5 10.7-8.1-1.5 1-2.7 2.1-2.9 4.4z"/>
				<path id="&lt;Path&gt;" class="s9" d="m160.2 604.7c-0.7 4.1-2.4 7.9-4.1 11.7q-1.6 3.6-3.2 7.1c-1.4 3.1-2.8 6.3-5 9-2.2 2.7-5.3 4.8-8.7 5.2-1.6 0.1-3.3-0.2-4.5-1.3-1.4-1.3-1.7-3.6-1.2-5.5 0.5-1.9 1.6-3.5 2.6-5.2 5.2-8.7 7.8-18.9 7.3-28.9-0.3-6.2 1.8-17.9 10.4-12.3 5.7 3.6 7.4 14.2 6.4 20.2z"/>
				<path id="&lt;Path&gt;" class="s6" d="m146 602.8c-2.6 5.3-0.8 12.3-4.7 16.7-1.4 1.6-3.4 2.6-4.9 4.2-3.1 3.1-3.4 8-3.6 12.4 1.9-0.6 3.3-2.2 4.5-3.8q2.9-3.8 5.9-7.7c1.5-2 3.1-4 3.9-6.4 0.6-2 0.7-4.2 1.1-6.3 1.2-6 5.1-11.3 5.2-17.4 0.1-3.2-0.6-7.4-1.9-10.2-2.7 2.2-0.3 6.1-0.6 9-0.4 3.9-3.2 6.2-4.9 9.5z"/>
				<path id="&lt;Path&gt;" class="s14" d="m118.9 651.7c-10 0-18.1-11.3-18.1-25.4 0-14.1 8.1-25.4 18.1-25.4 10 0 18.2 11.3 18.2 25.4 0 14.1-8.2 25.4-18.2 25.4z"/>
				<path id="&lt;Path&gt;" class="s11" d="m108.9 723.7c4.7 4.6 10.8 8.8 17.3 7.9 7-0.9 11.9-7.3 14.8-13.6 7.4-15.7 7.7-34.6 0.8-50.5 1.3 8.8 2 18.8-3.4 25.9-4.9 6.5-14 8.9-21.8 7-7.9-2-14.4-7.8-18.4-14.8-3.9-7-5.6-15.2-6.2-23.2-0.2-3-0.4-5.8-1.5-8.5-9.6 22.5 2 53.6 18.4 69.8z"/>
				<path id="&lt;Path&gt;" class="s3" d="m569.4 1101.6q-24.3 3.3-48.5 6.6c-12.2 1.6-24.5 3.3-36.6 1.1-15.5-2.8-29.3-11.6-42.2-20.6q-19.4-13.5-37.9-28c-7.2-5.7-14.4-11.5-20.3-18.4-15-17.6-21.2-42.3-16.4-64.8 4.5-20.7 17.5-39 21.1-59.9 2-12 0.9-24.5 3.7-36.4 6.6-28 33.8-27 57.4-28.5 27.4-1.7 54.9-0.7 82.1 3.1 11.9 1.7 24.2 4.1 34.9 9.2z"/>
				<path id="&lt;Path&gt;" class="s17" d="m83.5 675.8c-0.3 8.2 1.3 16.4 3.4 24.3 4.2 15.9 10.8 31.6 22.2 43.6 4.6 4.9 10.7 9.3 17.4 9 5.1-0.2 9.7-3.1 12.9-7 3.2-3.9 5.2-8.6 6.7-13.4 6.8-21.9 4.9-46.3-5.2-66.9 5.1 11.4 5.6 24.8 1.4 36.5-2.8 7.8-8.3 15.4-16.3 17.5-6.3 1.7-13.3-0.5-18.5-4.6-5.1-4.1-8.7-9.9-11.2-15.9-3-7.1-4.8-14.7-5.7-22.3-0.8-6.5 1.1-16-1.1-21.7-4.4 5.5-5.8 14-6 20.9z"/>
				<path id="&lt;Path&gt;" class="s18" d="m695.1 978.5q-0.2 1.9-0.4 3.8c-1.9 17.2-9.1 35.1-24.7 42.1-6.7 3-14.6 3.7-20.7 7.8-4.1 2.6-7.2 6.6-10.4 10.2-21.1 23.7-53.4 37.1-85.1 35.3-17.3-1-35.5-6.2-51.6 0.2-6.8 2.7-13 7.4-20.3 7.7-7.1 0.3-13.6-3.8-19.6-7.7-30.7-20-62.5-41.2-80.5-73.2-4.6-8.2-8.2-17.3-8-26.7 0.6-19.3 17.1-34.7 20.7-53.7 1-5.3 1-10.7 0.8-16.2-0.3-7.2-0.9-14.4 0.1-21.5 3.3-21.3 21.2-37.5 40.1-47.9 7.2-4 14.7-7.3 22.2-10.7 12.3-5.5 24.5-10.9 35.5-18.6 16.4-11.4 26-26.4 29.2-45.8 1.4-9.1 4.4-17.8 10-24.2 4.3-5.1 10.4-8.6 18.6-9.6 5.2-0.6 10.8 0.2 14.7 3.6 4.9 4.1 5.8 10.2 5.5 16.7-0.2 5.5-1.4 11.4-1.8 16.8-1.6 20.1 9.6 39.2 23.9 53.5 13.7 13.6 30.2 23.9 44.9 36.4q1 0.8 2 1.6c34.5 29.8 57.9 74.6 54.9 120.1z"/>
				<path id="&lt;Path&gt;" class="s18" d="m528.4 710.4c0 0 15.9-16-11.9-36.8-27.8-20.8-39-43.1-39-43.1 0 0 24.2 6.2 55.4-20.3 31.3-26.5 32-46.4 40.8-32.1 8.7 14.3-8 18.8 25.4 28.1 33.4 9.2 129.5 51.7 142.2 67.4 12.7 15.7-24.6 16-62.7 7.5-38.2-8.4-59.6-13.7-84.3 0-24.6 13.8-24.3 19.9-24.3 19.9z"/>
				<path id="&lt;Path&gt;" class="s19" d="m638.3 858c-19.5-0.9-37.6-11.6-51.4-25.5-13.8-13.9-23.9-30.9-33.9-47.8q-2.2 9.4-4.3 18.8c-0.4 1.9-1.2 4.1-3.1 4.6-3.2 0.9-4.8-3.7-4.8-7q-0.2-11.4-0.4-22.7c-9.5 15.2-20.3 29.9-34.7 40.6-14.4 10.7-32.7 17.1-50.4 14 0.7-1.8 1.5-3.4 2.4-5 12.3-5.5 24.5-10.9 35.5-18.6 16.4-11.4 26-26.4 29.2-45.8 1.4-9.1 4.4-17.8 10-24.2 2.6-0.6 5.4-0.7 8.1-0.7 8-0.2 16.3 0.5 23.2 4.6 3 1.8 5.4 4.1 7.5 6.8-0.2 5.5-1.4 11.4-1.8 16.8-1.6 20.1 9.6 39.2 23.9 53.5 13.7 13.6 30.2 23.9 44.9 36.4q0.1 0.6 0.1 1.2z"/>
				<path id="&lt;Path&gt;" class="s2" d="m198.2 676.8c1.8 11.9 4.4 24 2.1 35.8-0.4 1.8-1 3.8-2.6 4.9-2.1 1.6-5.3 0.7-7.2-1.2-1.8-2-2.6-4.6-3.3-7.2-9.6-33.6-16.9-67.9-19.8-102.6-0.2-2.7-0.4-5.4 0.6-7.8 1-2.6 3-4.5 4.9-6.6 6.1-6.6 10.1-14.9 11.9-23.8 0.6-2.7 0-7.7 4.2-5.9 3.3 1.5 2.4 9.1 2.6 12 1.6 21.7 1.7 43.5 2.9 65.2 0.7 12.5 1.8 24.9 3.7 37.2z"/>
				<path id="&lt;Path&gt;" class="s19" d="m525 663.6c-3.8-3.8-8.2-7-11.3-11.4-3.2-4.3-4.9-10.2-2.6-15.1q16.9 17.9 33.7 35.8c0.6 0.6 1.2 1.2 2.1 1.4 1.5 0.2 2.5-1.3 3.3-2.6 12.4-21.2 35.4-35.6 59.8-38.4-5.4 3.6-6.9 12-3.1 17.4q-8.8 4-17.6 8.1c-6.6 3-14.3 7.8-13.7 15.1 4.9-3.6 11.1-5.4 17.1-4.9-2 5.8-8.8 8.1-13.5 12.1-7 5.9-9.3 15.8-9.8 25 0 1-0.1 2.1-0.7 2.8-0.6 0.7-1.6 1-2.5 1.2-5 1.1-10.1 2.1-15.1 1.3-13-1.9-10.2-9.9-11.8-19.7-1.8-10.5-6.8-20.5-14.3-28.1z"/>
				<path id="&lt;Path&gt;" class="s20" d="m224.1 787.5c-2.3 25.8-5.9 51.4-10.9 76.8-21 14-44.6 27.7-52.7 25.3-8.4-2.5-10.8-20.6-11.2-40.7q0.7-1 1.5-2c5.2-6 12.4-9.8 18.2-15.2 16.7-15.2 20-40 20.8-62.5 1.3-41.1-2.3-82.1-1.8-123.2 0.1-9.1 2-29.8 5-43.8 1.1 23.4 1.7 51.8 4.3 60.5 3.7 12.3 18.6 89.6 26.8 124.8z"/>
				<path id="&lt;Path&gt;" class="s5" d="m196.6 659.2c0 0 4.5 135.5 0.7 154.1-3.7 18.5-17.6 79.9-17.6 79.9l36.2 5.4 12.7-56.2v-81.6l-21.7-106.9z"/>
				<path id="&lt;Path&gt;" class="s6" d="m501.4 700c-4 1.1-7.8 3.3-9.9 6.9-2.6 4.3-2.3 9.8-1.1 14.7 1.2 4.9 3.3 9.6 4 14.6 0.4 3.3 0.3 6.6 0.9 9.8 0.5 3.2 2 6.5 4.7 8.2 3.5 2.2 8.3 1.3 11.4-1.3 3.1-2.7 4.6-6.8 5-10.9 0.4-4-0.3-8.1-1-12.1q-0.8-5.3-1.7-10.5c-0.6-3.9-1.2-7.9-0.3-11.8 2.3-9.9-3.4-10-12-7.6z"/>
				<path id="&lt;Path&gt;" class="s21" d="m97 285.7l82.7 254.3-4 4.3-80.7-257.8z"/>
				<path id="&lt;Path&gt;" class="s9" d="m607.9 744.5c-0.5 19.1-9.1 42.1-12.2 44.4-4.3 3.2-22.3-2.1-22.3-2.1l-10-16.9c0 0-0.4 0-1.1-0.1-5.6-0.1-32-0.7-38.7-2.6-7.4-2.1-7.4-16.9-7.4-16.9-4.2-3.8-4.2-15.4-4.2-15.4-5.3-2.1-4.8-14.3-4.8-14.3 0 0-13.2-5.3-2.6-16.8 10.6-11.5 65.1-18.2 65.1-18.2 0 0 25.4 23.3 35 41.2 2.5 4.7 3.3 10.9 3.2 17.7z"/>
				<path id="&lt;Path&gt;" class="s6" d="m570 756.7c-2.8-0.9-4.2-4.1-4.3-7 0-3 0.8-5.8 0.8-8.8 0-7.7-5.8-14.9-4.3-22.4 0.6-3 2.3-5.8 2.4-8.9 0.1-2.5-0.9-4.8-1.2-7.3-0.6-3.6 0.5-8.6 3.5-11 2.2 3.4 1.4 11.3 1.7 15.5q0.5 8.3 0.9 16.6 0.6 16.7 0.5 33.3z"/>
				<path id="&lt;Path&gt;" class="s6" d="m607.9 744.5c-0.5 19.1-9.1 42.1-12.2 44.4-4.3 3.2-22.3-2.1-22.3-2.1l-10-16.9c0 0-0.4 0-1.1-0.1 3.9-1.4 8.2-2.1 11.7-4.3 4.7-2.8 8.9-6.9 10.8-12.2 2.8 1.2 4.6 3.8 6.8 5.9 2.2 2.1 5.3 3.7 8.1 2.5 2.3-1 3.4-3.6 4.2-6q2-5.6 4-11.2z"/>
				<path id="&lt;Path&gt;" class="s19" d="m637.5 971.4c0.3 11.3-0.6 23-5.8 33.1-5.2 10.1-15.5 18.2-26.9 17.8-4.1-0.1-8.1-1.3-12.2-1.5-8.8-0.7-17.5 2.9-24.7 8-4 2.7-7.8 6-12.4 7.3-4.7 1.2-10.6-0.4-12.3-4.9-2.2-6.3 4.8-11.9 11.1-14.1 13.4-4.5 28.3-4 41.1-10.1 12-5.6 21.1-17 24.1-29.9 2.9-12.9-0.4-27.1-8.7-37.4-6.2-7.7-14.9-13.1-21.4-20.5-6.7-7.5-10.9-16.9-14.8-26.1-4.2-9.8-6.7-28.6 9.3-28 12 0.4 22.5 15.7 28.5 24.4 16.4 23.9 24.5 53.1 25.1 81.9z"/>
				<path id="&lt;Path&gt;" class="s19" d="m694.7 982.3c-1.9 17.2-9.1 35.1-24.7 42.1-6.7 3-14.6 3.7-20.7 7.8-4.1 2.6-7.2 6.6-10.4 10.2-21.1 23.7-53.4 37.1-85.1 35.3-17.3-1-35.5-6.2-51.6 0.2-6.8 2.7-13 7.4-20.3 7.7-7.1 0.3-13.6-3.8-19.6-7.7-30.7-20-62.5-41.2-80.5-73.2-4.6-8.2-8.2-17.3-8-26.7 0.6-19.3 17.1-34.7 20.7-53.7 1-5.3 1-10.7 0.8-16.2 2.6 4 5.8 7.6 9.5 10.6 4.4 3.5 9.6 6.5 12 11.5 4.6 9.7-3.4 20.5-11.7 27.2-8.3 6.7-18.3 13.9-19 24.5-0.5 8.2 4.8 15.5 10 22 22.2 27.6 47.5 55.4 81.3 66.2 3.5 1.1 8.3 1.5 10-1.7 1.3-2.4 0-5.4-0.2-8.1-0.3-6.2 5.8-11.2 12-12 6.1-0.8 12.2 1.4 18.2 3.3 30.1 9.7 63.9 12.8 93.1 0.4 10.1-4.3 20.3-11.3 23.2-22 0.8-3 1.1-6.3 2.9-8.8 4-5.7 12.4-4.4 19.3-4.8 13.2-0.7 24.9-9.8 32.1-20.9 2.7-4.1 4.9-8.6 6.7-13.2z"/>
				<path id="&lt;Path&gt;" class="s3" d="m323 1242.3l-99.2 546.7h-17.8l73.4-752.5z"/>
				<path id="&lt;Path&gt;" class="s3" d="m174.5 918.2c0 0-13.2 33.9-11.4 40.8h36.2l9.2-33.9z"/>
				<path id="&lt;Path&gt;" class="s22" d="m282.9 651.7c0 0-22.8 176.2-3.5 233.6l-7.7 12.1c0 0-21.4-110.6 11.2-245.7z"/>
				<g id="&lt;Group&gt;">
					<path id="&lt;Path&gt;" class="s23" d="m525.2 1012.6q-3 0-6-0.3c-18.9-1.7-35.3-12.7-41.8-28-0.9-2 0.1-4.4 2.2-5.3 2-0.9 4.4 0.1 5.3 2.2 5.3 12.5 19.1 21.6 35.1 23 13.3 1.3 27.9-2.2 44.3-10.6 6.2-3.2 13.2-7.2 17.7-13.3 4.5-5.9 5.8-13.2 3.3-18.6-2.3-5.2-7.7-9.1-17-12.4-11.8-4.1-24.2-6.4-36.7-6.6q-1.6-0.1-3.2-0.1c-8.1-0.1-17.3-0.2-24.7-5.2-7.9-5.5-12-15.8-10.6-26.4 1.4-10.7 7.9-19.1 13.1-24.2 14.1-14.1 35-20.9 54.7-17.9 2.2 0.3 3.7 2.4 3.4 4.6-0.4 2.2-2.5 3.8-4.7 3.4-17.1-2.6-35.4 3.4-47.7 15.6-4.3 4.3-9.6 11.2-10.8 19.6-1 7.5 1.9 14.9 7.2 18.6 5.4 3.7 12.6 3.7 20.2 3.8q1.6 0 3.2 0c13.4 0.3 26.6 2.7 39.3 7.2 7.3 2.5 17.4 7.1 21.7 16.6 3.7 8.1 2 18.7-4.2 26.9-5.5 7.4-13.5 12-20.5 15.6-15.5 7.9-29.6 11.8-42.8 11.8z"/>
				</g>
				<g id="&lt;Group&gt;">
					<path id="&lt;Compound Path&gt;" fill-rule="evenodd" class="s23" d="m552.9 1027.8q-0.5 0-1.1-0.2c-1.4-0.3-4.4-1.6-4.5-6.8-0.2-24.2-3.1-48.7-6-72.5-3.5-29.4-7.1-59.8-5.7-89.9 0.1-2.3 2-4 4.2-3.9 2.2 0.1 4 2 3.9 4.2-1.3 29.5 2.2 59.6 5.7 88.6 2.8 23.3 5.6 47.3 6 71.2q0.4 0.2 0.8 0.6c1.8 1.6 1.8 4.3 0.9 6.1-0.9 1.6-2.5 2.6-4.2 2.6zm2.6-6.6z"/>
				</g>
				<path id="&lt;Path&gt;" class="s0" d="m111.4 1798.6c-8.7 3.1-17.6 6.1-26.7 8-8.7 1.7-17.5 2.3-26.3 3.5-13.4 1.8-26.5 4.8-39.6 7.8-2.7 0.6-5.5 1.3-7.5 3.1-2.1 1.8-3.1 5.2-1.5 7.4 66.9 3 133.5-16.2 200.3-11.2 5.4 0.3 12.1 0.2 14.6-4.6 0.8-1.6 1-3.5 1-5.4 0.3-6.7 0-13.3-0.8-19.9-0.1-1.2-0.3-2.4-1.2-3.1-0.8-0.7-1.9-0.7-2.9-0.8-19.6-0.4-41.4-3.7-60.8-1.2-16.5 2.2-32.7 11.5-48.6 16.4z"/>
			</g>
		</g>
	</g>
</svg>