<svg version="1.2" xmlns="http://www.w3.org/2000/svg" viewBox="0 0 1100 2000" width="1100" height="2000">
	<title>Mafia male and female cartoon characters set-ai</title>
	<style>
		.s0 { fill: #0b1410 } 
		.s1 { fill: #c7d2dd } 
		.s2 { fill: #402d26 } 
		.s3 { fill: #201600 } 
		.s4 { fill: #301e19 } 
		.s5 { fill: #3a554b } 
		.s6 { fill: #1e332b } 
		.s7 { fill: #8495a3 } 
		.s8 { fill: #7c1a18 } 
		.s9 { fill: #4d1a18 } 
		.s10 { fill: #4b7765 } 
		.s11 { fill: #e26c40 } 
		.s12 { fill: #48443e } 
		.s13 { fill: #a02d00 } 
		.s14 { fill: #3b6352 } 
		.s15 { fill: #e5eefa } 
		.s16 { fill: #396653 } 
		.s17 { fill: #312a20 } 
		.s18 { fill: #99846b } 
		.s19 { fill: #291d11 } 
		.s20 { fill: #ffa679 } 
		.s21 { fill: #ffffff } 
		.s22 { fill: #a14944 } 
		.s23 { fill: #efefef } 
		.s24 { fill: #e9a854 } 
		.s25 { fill: #274237 } 
		.s26 { fill: #7f1e00 } 
	</style>
	<g id="_Artboards_">
	</g>
	<g id="321353356351 2">
		<g id="&lt;Group&gt;">
			<g id="&lt;Group&gt;">
				<path id="&lt;Path&gt;" class="s0" d="m146 1486.1c0 0 256.7-49 356.6-36 99.8 12.9 293.6 30.9 336.4 20l-83.6-111.1-72.1-253-61.6-75.5h-258.8l-86.1 186z"/>
				<path id="&lt;Path&gt;" class="s1" d="m425 413.5l-1.7 35.9 16.7 435.4 13.2 66.2 132.5-4.1c0 0 12.2-432 12.9-433.9 0.6-1.9 23.1-99.5 23.1-99.5l-41.7 7.4-36.6 42.6-28.9 0.7-43.7-23.8z"/>
				<path id="&lt;Path&gt;" class="s2" d="m734 1297.8l-18.7 226.9-3.4 42.1-29.6 358.7c0 0-45.5 7.4-75.7 0l-104.1-825.3-0.9 0.3-14.7 117.7-30.6 244.2-57.4 459.3c-30.2 7.4-75.7 0-75.7 0l-29.6-358.7-6-73.1-16.1-195.9 88.9-78.1c-19.9-9.4-39.4-19-39.1-19.9 0.6-1.9 90.5-269.9 90.5-269.9 0 0 117.4 12.7 196.4 0.4l42.6 296.3z"/>
				<path id="&lt;Path&gt;" class="s3" d="m682.3 1925.5c0 0 31.2 18.1 55.8 24.6 24.6 6.6 49.2-0.8 70.5 6.6 21.4 7.4 22.2 12.3 22.2 12.3h-224.1v-43.5z"/>
				<path id="&lt;Path&gt;" class="s4" d="m734 1297.8l-18.7 226.9c-31.8-12.5-62.6-27.9-93.2-43.2-7.3-3.6-14.8-7.4-20.3-13.5-6.1-7.1-8.9-16.4-11.4-25.4-31.9-116.5-37.2-238.6-37.4-359.3 0-13.2-1.5-28.9-13.1-35-5.2-2.7-11.3-2.8-17.1-3.8-24.1-4.2-42.7-27.8-42.8-51.9-6.1 74.7 1.4 150.4 6.9 225.6l-30.6 244.2c-31.1 3.7-85.1 8.6-92.5 9.9q-29.6 5.1-58.8 11.9c-4.5 1.1-10.7 3.4-17.4 5.7l-16.1-195.9 88.9-78.1c-19.9-9.4-39.4-19-39.1-19.9 0.6-1.9 90.5-269.9 90.5-269.9 0 0 117.4 12.7 196.4 0.4l42.6 296.3z"/>
				<path id="&lt;Path&gt;" class="s5" d="m839 1470.1c-96 19.2-231.9-65.5-231.9-65.5-12-32.1-31.6-190-21.3-240.1 10.2-50-42.4-274.6-42.4-274.6l42.7-203.6 13.8-194.4 12.8-15.6 47.8-58 6.2-7.6 39.2 47 26.2 31.4 32.1 142.3 56.5 250.9c0 0-3.4 32.2-5.3 72.9-1.8 38.5-2.3 84.5 2.7 118.2q1.4 9.2 2.7 19.5c9.3 69.5 17.3 169.4 11.3 250.1-6.5 88.6 6.9 127.1 6.9 127.1z"/>
				<path id="&lt;Path&gt;" class="s6" d="m820.8 1092.9c-6.9 0.6-14.2-0.2-21.1-1.5-53.8-10.1-101.8-47.6-124.6-97.3-2.3-5-4.4-10.2-8.4-13.9-11-10.1-32.8-6.3-38.5-20.1-4.1-9.8 3.9-20.1 7-30.2 4.1-13.1 0-27.4 2.9-40.7 3.2-14.4 14.6-28.1 10.3-42.3-1.3-4.2-3.9-8-4.7-12.4-1.2-7.1 3.2-14.3 9.3-18.2 6-3.8 13.5-4.8 20.7-4.6 3 0.1 6.1 0.3 8.9-0.8 2.8-1.1 4.8-3.5 6.8-5.7 3.9-4.6 7.9-9.1 11.9-13.7 2-2.3 4.1-4.8 4.8-7.9 0.5-2.7-0.2-5.4-0.9-8.1q-9.6-36.3-19.2-72.5c-4.9-18.6-15.8-42-14.2-61.4 3-37.3 63.8-29.1 85.4-15.3 2.5 1.5 4.7 3.3 7 5.1l56.5 250.9c0 0-3.4 32.2-5.3 72.9-1.8 38.5-2.3 84.5 2.7 118.2q1.4 9.2 2.7 19.5z"/>
				<path id="&lt;Path&gt;" class="s3" d="m323.2 1921.7c0 0-31.2 18-55.8 24.6-24.6 6.6-49.2-0.8-70.5 6.6-21.3 7.3-22.2 12.3-22.2 12.3h224.2v-43.5z"/>
				<path id="&lt;Path&gt;" class="s5" d="m898.1 822.3c-2.5 5.7-5.4 11.8-8.5 18.3-18.1 36.5-45.5 81.8-74.2 114.6-21.4 24.6-43.5 42.2-62.9 44l-20.4-181 0.9-7.4 5.3-44.5c0 0-5.4-10.5-13.5-25.9-16.8-32.4-45-86.7-58.1-112.7l-0.9-32.1-5.3-177.3-0.3-9.8c0 0 2.4 0.7 6.5 2.2 12 4.1 38.5 13.8 64.4 26.8 22.8 11.5 45 25.5 56.2 40.6 28.3 38.1 118.5 277.8 123.3 302.7 1.1 6-3.7 21.4-12.5 41.5z"/>
				<path id="&lt;Path&gt;" class="s6" d="m669.7 492.5c-1.1 5 2.6 10 6.8 12.9 4.3 2.9 9.3 4.6 13.3 7.8 8.4 6.8 10.5 19.1 8 29.5-2.5 10.4-8.7 19.5-14.9 28.3q-8.5 12.3-17.1 24.6-27.7 39.8-55.5 79.5-1.5-56.5-2.9-113c-0.6-22.5-1.2-45.2 1.9-67.4 0.9-6.2 2-12.3 3.4-18.4l47.8-58-0.3-9.8c0 0 2.4 0.7 6.5 2.2 12 4.1 38.5 13.8 64.4 26.8-8.3 6.9-16.8 13.5-25.2 20.2-10.6 8.6-21.2 17.3-31 27.2-2.2 2.2-4.5 4.6-5.2 7.6z"/>
				<path id="&lt;Path&gt;" class="s7" d="m458.2 346.1c-3.1 0-29.6 33.7-29.6 33.7l5.3 20.2 24.3 23.1 68.6 29.9 49.9-29.9 17.5-23.6v-23.6l-28.8-26.8z"/>
				<path id="&lt;Path&gt;" class="s8" d="m558.1 643.8l-0.7 29.6-5.7 222.8-1.9 75.3h-79l0.2-19.5 2.9-307.2v-1l23.1-133.7 3.9-22.3 1.7-9.7 32.9-9.8 2.6 20.3 6.4 49.2z"/>
				<path id="&lt;Path&gt;" class="s9" d="m557.4 673.4l-5.7 222.8c-1.5 7.1-3.2 14.1-5.8 20.8-4.7 12.1-12.1 23.5-23 30.5-8 5.2-17.5 7.7-27 8.8-8.5 0.9-18 0.2-24.9-4.3l2.9-307.2c0.6 5.7 0.8 11.6 1.4 14.9 0.6 3.1 1.3 6.4 3.4 8.9 2 2.3 4.8 3.5 7.6 4.7q25.1 10.6 50.2 21.2c1.9 0.8 3.9 1.6 5.9 1.4 2.7-0.3 4.8-2.2 6.4-4.3 4.2-5.3 6.4-11.7 8.6-18.2z"/>
				<path id="&lt;Path&gt;" class="s5" d="m445.6 1087.5c-14.5 117.5 19.1 321.6 19.1 321.6 0 0-232 65.5-318.7 77 0 0 50.1-109.8 42.4-173.3-7.7-63.5 25-217.6 34.7-258 2.4-10.2 6.9-52.4 12.3-109.8 1.5-16 3-33 4.6-50.9 5.2-58.4 10.9-125.5 16.1-188.8q0.4-5.8 0.9-11.4 1-11.7 1.9-23.1 0.4-5.3 0.8-10.5 1.1-13.3 2.2-26c7.6-93.8 13.1-166 13.1-166l24.4-16.5 81.9-55.5 69.6-47.2-47 40.8 66.9 172.8c0 0-1.1 43.8-3.2 106.8-1.4 45.5-3.4 101.1-5.7 157.4-4.3 103.4-9.9 209.5-16.3 260.6z"/>
				<path id="&lt;Path&gt;" class="s6" d="m420.2 567.5c-4.8 15.3-12.5 30-13.3 46-35-28.1-65.8-61.4-91.1-98.5-0.8-1.3-1.7-2.6-1.7-4.2 0-2 1.6-3.6 3.1-5 8-7.3 16.5-14.2 25.3-20.6-13.3-11.7-27.6-23.8-43.1-33.4l81.9-55.5c3 4.3 5.8 8.9 8.5 13.4 14 23.8 25.8 49.1 32 76 6.2 26.9 6.7 55.5-1.6 81.8z"/>
				<path id="&lt;Path&gt;" class="s10" d="m635.8 497l49.4 38.8-130.9 296.7c0 0 8.6-200.4 9-275.6 0.3-60.6 35.7-127.3 49.3-150.7 3.2-5.5 5.2-8.6 5.2-8.6-49.1-48.6-136.7-48.6-153.1-48.5-16.3 0.1-60.8 40.8-60.8 40.8 0 0 1.1 1.6 3.1 4.6 13.5 20.5 67 103.9 71.1 145.1 4.7 46.2-14.5 257.7-15.4 266.5 2-49.1 3.7-96.7 4.9-136.6-27.2-14.8-64.6-35-78.1-41.6q-3.7-1.8-7.1-2.6l-49.6-111.7 51.1-55.8-71.5-117.5c0 0 21.1-11.2 62.1-22.4 34.9-9.5 84.3-18.9 147.4-21.3 69-2.5 124.2 12.7 161.9 28.5 37.1 15.5 57.3 31.6 57.3 31.6-57.8 46.2-105.3 140.3-105.3 140.3z"/>
				<path id="&lt;Path&gt;" class="s6" d="m898.1 822.3c-2.5 5.7-5.4 11.8-8.5 18.3-27.7-7.2-55.6-13.5-83.6-18.8-3.3-0.7-6.7-1.2-9.8-0.1-2.3 0.8-4.2 2.5-6.5 3.5-6.4 2.5-13.3-1.8-19.4-5.1-10-5.5-21.4-8.5-32.8-8.8-1.5-0.1-3.1-0.1-4.5-0.5-0.9-0.3-1.7-0.7-2.4-1.3-1.5-1.3-2-3.4-2.5-5.3q-5.5-24.4-11-48.7c-3.3-14.8 0-14.1 7.7-15.1 2.4-0.3 5.3-0.8 8.5-2 12.2-4.6 22.7-15.2 34.3-21.2 11.4-5.9 24.5-9.7 37-6.9-16.2 15.5-33.2 30.1-51.1 43.6 21.3 1.9 42.4-3.5 63.6-6.3 21.2-2.8 44.1-2.7 62.2 8.6-10.1 5.7-22.3 6.2-34 6.8-30.9 1.9-61.6 6.4-91.7 13.5 37.5 9.9 74.7 21.4 111.2 34.4 6.8 2.4 13.7 4.9 20.8 4.9 3.5 0 7.5-0.5 10.1 1.9 1.3 1.2 1.9 2.8 2.4 4.6z"/>
				<path id="&lt;Path&gt;" class="s11" d="m460.7 414c0.3 9.7 0.7 19.6 4.4 28.6 3 7.1 7.9 13.3 13.7 18.4 20.6 18.4 52.8 22.4 77.4 9.7 2-1 4.1-2.2 5.2-4.2 1.3-2.1 1.3-4.6 1.3-7.1q-0.4-44.9-0.7-89.7c0-4-0.1-8.1-2-11.5-2.2-4-6.5-6.4-10.5-8.6-10.8-5.7-22.3-11.6-34.4-10.6-6.5 0.5-12.7 3-18.8 5.4-9.3 3.8-33.9 8.4-37.3 18.9-2.1 6.7 0.5 17.4 0.7 24.4 0.3 8.8 1 17.6 1 26.3z"/>
				<path id="&lt;Path&gt;" class="s12" d="m613.6 796.1l-31.7-8.7 18.7-67.5 31.7 8.7z"/>
				<path id="&lt;Path&gt;" class="s13" d="m705.2 804.3l-52.7 125.3 26.3 14.4 73.7-139.7-50-13.4z"/>
				<path id="&lt;Path&gt;" class="s14" d="m683.8 325.1c-10.9 16.1-36.8 15.4-49.4 30.4-7 8.2-8.6 19.6-11.3 30.1-1.9 7.5-5.1 15.4-10.5 20.6 3.2-5.5 5.2-8.6 5.2-8.6-49.1-48.6-136.7-48.6-153.1-48.5-16.3 0.1-60.8 40.8-60.8 40.8 0 0 1.1 1.6 3.1 4.6-1.6-0.3-3.1-0.7-4.6-1.3-0.5-7.6 4.4-14.3 8-21.1 3.6-6.7 5.8-15.7 0.6-21.3-2.5-2.7-6.2-3.9-9.5-5.4-10.4-4.9-21.1-16.1-27-27.5 34.9-9.5 84.3-18.9 147.4-21.3 69-2.5 124.2 12.7 161.9 28.5z"/>
				<path id="&lt;Path&gt;" class="s8" d="m495.6 444.8h49.5l13 32.3c0 0-28.4 33.3-80.8 0z"/>
				<path id="&lt;Path&gt;" class="s15" d="m566.3 362.4l20.7 28-51.5 51.5 30.3 47.2 52-91.5-48.6-44.8z"/>
				<path id="&lt;Path&gt;" class="s16" d="m467.6 669.5c-1.2 39.9-2.9 87.5-4.9 136.6q0 0.2 0 0.3l-80.3-181.1q3.4 0.8 7.1 2.6c13.5 6.6 50.9 26.8 78.1 41.6z"/>
				<path id="&lt;Path&gt;" class="s6" d="m461.9 826.9h-24.5c0 0 8.4 24-11.5 40.6-19.9 16.5-26.6 32.6-36.4 48-9.8 15.4-18.8 31.4-34.2 31.4-15.4 0-52.6-26.9-68.1-11.5-8.5 8.6-32 11.1-51.8 9.6 8.2-87.9 18.4-211.5 26.5-310.7l47.7-48.6c0 0 15.1 44.7 28.1 48 11.7 2.8 26-12.7 44.7-8.4l80.3 181.1q-0.4 10.2-0.8 20.5z"/>
				<path id="&lt;Path&gt;" class="s15" d="m439.3 386.9c19.2 20.7 40.4 39.4 63.3 56-12.5 17-23.3 35.1-32.4 54.1-20.9-36.4-43-72.2-66.3-107.1 16.4-12.8 30.8-28.1 47-40.8 12 15.1-24.7 23.7-11.6 37.8z"/>
				<path id="&lt;Path&gt;" class="s17" d="m581.2 818.7l-410.4-113.5 88.3-37.2 70.1-24.2 279 77.1z"/>
				<path id="&lt;Path&gt;" class="s12" d="m825.2 809l-2.6 9.2c0 0-99.3-26.1-122.8-11.5l-15.7 11.3-17.4-4.8 19.3-69.7 146.1 40.4z"/>
				<path id="&lt;Path&gt;" class="s17" d="m666.7 813.2l-70.6-19.6 19.5-70.6 70.7 19.5z"/>
				<path id="&lt;Path&gt;" class="s17" d="m983.9 852.9l-297.1-82.1 7.2-26.2 297.1 82.2z"/>
				<g id="&lt;Group&gt;">
					<path id="&lt;Path&gt;" class="s5" d="m606.1 127.3c-0.5 1-1.2 1.9-1.9 2.5-2.6 2.3-6.7 2.9-10.3 3.3q-0.8 0-1.7 0.1c-37.4 3.8-74.7 9.2-110.8 19.4-12.2 3.5-42.2 17.8-50.7 4.7-4.5-7-3.9-23.2-4.6-31.5q-0.7-7.6-1.1-15.1-0.5-10-0.5-19.9c0.1-9.3 0.5-18.9 4.1-27.5 3.5-8.6 10.7-16.3 19.9-18q0.2 0 0.5 0c14.3-2.4 27.5 9.8 42.2 10.1 13.4 0.3 24-8.9 35-17.4 8.1-6.3 16.5-12.3 26.3-13.7 14.7-2.1 29.2 7 37.5 19.3 6.4 9.5 9.8 20.6 11.9 32q0.9 5 1.6 9.9c1.7 11.9 2.8 23.8 3.3 35.8 0.1 2 0.1 4.2-0.7 6z"/>
					<path id="&lt;Path&gt;" class="s18" d="m606.1 127.3c-0.5 1-1.2 1.9-1.9 2.5q-6 1.8-12 3.4c-37.4 3.8-74.7 9.2-110.8 19.4-12.2 3.5-42.2 17.8-50.7 4.7-4.5-7-3.9-23.2-4.6-31.5q-0.7-7.6-1.1-15.1c6 1 12.1 2.5 17.4 2.7 24.6 0.8 49.2-2.5 73-8.3 29.6-7.2 58.2-18.2 86.5-29.5q0.9 5 1.6 9.9c1.7 11.9 2.8 23.8 3.3 35.8 0.1 2 0.1 4.2-0.7 6z"/>
					<path id="&lt;Path&gt;" class="s19" d="m367.2 246.3c-10.5-0.5-21.2-0.9-30.8-5-9.7-4-18.2-12.3-19.5-22.7-1.3-11.5 6.3-22 14.5-30.2 28.2-28.1 67.3-42.8 106.3-51.1 39.1-8.2 79.2-10.7 118.2-18.9 24.8-5.2 49-12.6 74-16.8 17.3-2.9 35.6-4.3 52.2 1.6 16.6 5.8 31.2 20.3 32.4 37.9 0.7 10.9-3.7 21.8-10.5 30.4-6.8 8.6-15.9 15.1-25.3 20.7-34.7 20.7-75.1 29.6-115.1 35.6-26.8 4-53.8 6.8-80.4 11.6-11.7 2.1-24 6.6-35.8 6.5-11.1 0-21.9 0.7-32.9 1.1-15.7 0.6-31.5-0.1-47.3-0.7z"/>
					<path id="&lt;Path&gt;" class="s11" d="m604.8 219.7c5-6.2 11.1-12.5 19-13.1 3.4-0.2 7.1 0.9 8.9 3.7 1 1.6 1.3 3.6 1.4 5.5 0.7 9.9-2.3 19.8-7.2 28.4-4.9 8.7-11.7 16.1-18.8 23-2.6 2.6-5.7 5.3-9.3 5.4-5.1 0.1-9-4.6-10.8-9.4-6.8-17.7 6.3-30.7 16.8-43.5z"/>
					<path id="&lt;Path&gt;" class="s11" d="m418.7 211.5c-3.8-4.6-9.1-9.2-15-8.2-6.8 1.2-10 9.2-10.2 16.1-0.5 14.6 7 28.1 15.2 40.1 4.7 6.9 10.7 14.2 18.9 15.3 6.1 0.8 12.6-2.4 15.7-7.7 3.1-5.2 2.9-11.8 0.8-17.5-2.5-6.8-7.5-11.6-11.3-17.5-4.6-7.1-8.6-14.2-14.1-20.6z"/>
					<path id="&lt;Path&gt;" class="s20" d="m597.2 227.1c-1.1 33.5-5.1 67-11.9 99.9-1.8 8.9-3.9 17.8-7.7 26-8.1 17.9-24.5 31.8-43.4 37-10.8 2.9-22.2 3.2-33.4 2.4-7.3-0.4-14.6-1.4-21.3-4.2-6.9-2.9-12.8-7.7-17.9-13.2-12.3-13.4-19.5-30.8-23.3-48.7-3.8-17.7-4.2-36.1-4.4-54.3 0-15.2 0.2-30.5 1.2-45.7 0.9-14.1 2.6-28.1 5.4-41.9 5.9-3.3 11.9-6.5 18.5-8.9 11.5-4.3 23.3-7.5 35.3-10.3 31.1-7.3 63.9-12 95.4-7.8 7.4 22.1 8.2 46.2 7.5 69.7z"/>
					<g id="&lt;Group&gt;">
						<path id="&lt;Path&gt;" class="s3" d="m473.9 247.9c-5.1 0-9.2-12.3-9.2-27.5 0-15.2 4.1-27.4 9.2-27.4 5 0 9.1 12.2 9.1 27.4 0 15.2-4.1 27.5-9.1 27.5z"/>
						<path id="&lt;Path&gt;" class="s21" d="m478.1 215c-1.2 0-2.1-2.2-2.1-4.9 0-2.7 0.9-4.9 2.1-4.9 1.2 0 2.2 2.2 2.2 4.9 0 2.7-1 4.9-2.2 4.9z"/>
					</g>
					<g id="&lt;Group&gt;">
						<path id="&lt;Path&gt;" class="s3" d="m540.6 245.3c-5 0-9.1-12.3-9.1-27.4 0-15.2 4.1-27.5 9.1-27.5 5.1 0 9.2 12.3 9.2 27.5 0 15.1-4.1 27.4-9.2 27.4z"/>
						<path id="&lt;Path&gt;" class="s21" d="m544.9 212.4c-1.2 0-2.2-2.2-2.2-4.9 0-2.7 1-4.9 2.2-4.9 1.2 0 2.2 2.2 2.2 4.9 0 2.7-1 4.9-2.2 4.9z"/>
					</g>
					<path id="&lt;Path&gt;" class="s11" d="m511.9 212.4c0 0-24 34.5-25.7 54.7-1.6 20.2-3.8 38.9 9.7 41.7 13.5 2.9 30.1-18.2 25-40.1-5.1-21.8-9-56.3-9-56.3z"/>
					<path id="&lt;Path&gt;" class="s22" d="m473.5 339c0.5-0.5 1.1-1.3 1.5-1.6l1.4-1.1 2.6-1.9 5.1-3.6c1.7-1.2 3.5-2.3 5.2-3.6l5.1-3.5c6.9-4.5 14.2-8.6 21.6-12.3 3.7-1.9 7.5-3.6 11.3-5.4 3.8-1.6 7.6-3.3 11.5-4.7 3.9-1.5 7.8-2.8 11.8-4.2 1.9-0.7 3.9-1.3 5.9-1.9l6-1.8c1.8-0.6 3.7 0.4 4.2 2.2 0.6 1.8-0.4 3.7-2.2 4.2q-0.2 0.1-0.4 0.1h-0.1c-7.9 1.5-15.9 3.3-23.7 5.8-7.8 2.4-15.4 5.3-22.9 8.7-7.4 3.4-14.6 7.2-21.6 11.6-3.4 2.2-6.8 4.4-9.9 7.1q-2.3 2-4.4 4.2c-0.7 0.7-1.3 1.5-1.9 2.3l-0.8 1.1c-0.3 0.5-0.2 0.6-0.3 0.9l-0.5 0.7c-0.8 1.4-2.5 1.8-3.8 1-1.4-0.8-1.8-2.6-1-3.9q0.1-0.2 0.3-0.4z"/>
					<g id="&lt;Group&gt;">
						<path id="&lt;Path&gt;" class="s23" d="m529.1 309l20.9-5.3c0 0 64-3.4 83.2 2.6l7.7 14.2c0 0-85.8-13.3-111.8-11.5z"/>
						<path id="&lt;Path&gt;" class="s24" d="m630.6 311.1c0 1.4 1.7 2.1 2.1 3.3 0.3 0.7 0.2 1.4 0.4 2 0.2 0.5 0.6 1 1.1 1.4 0.9 1 1.8 2 3 2.6 1.2 0.6 2.7 0.8 3.8 0q-0.5-1.5-1-3-1.2-3.6-2.3-7.3c-0.7-2-1.9-5.7-4.7-5.2-2.6 0.4-2.4 4.2-2.4 6.2z"/>
					</g>
					<path id="&lt;Path&gt;" class="s19" d="m495.9 177q0.4 5-0.1 10c0 0.5-0.1 1.1-0.4 1.5-0.3 0.2-0.7 0.4-1 0.5q-14.3 5.9-29 10.2c-3.9 1.1-22 8-19.6-1.4 1.7-6.3 16.1-11.7 21.3-13.9 9.1-3.9 18.9-6.2 28.8-6.9z"/>
					<path id="&lt;Path&gt;" class="s19" d="m527.4 184.5c2.5 1.1 5.3 1.4 8 1.7 12.2 1.1 24.4 1.7 36.7 1.5 0.8 0 1.6 0 2.2-0.5 1-0.7 1.2-2.1 1.2-3.3q0-2.1 0-4.1c0-1 0-2.1-0.6-2.8-0.6-0.6-1.5-0.8-2.3-1-10.7-2.3-21.7-3.2-32.6-2.7-3.4 0.2-7.1 0.1-10 2.1-2.6 1.7-6.9 7.2-2.6 9.1z"/>
					<path id="&lt;Path&gt;" class="s25" d="m549.6 63.1c-17.3 13.5-42.6 15.6-61.9 5.3-7.4-4-13.8-9.5-20.7-14.3-5.5-3.8-11.5-7.3-18-8.8 14.3-2.4 27.5 9.8 42.2 10.1 13.4 0.3 24-8.9 35-17.4-0.1 1.5 0.2 2.9 1.3 4 1.2 1.3 3.1 1.7 4.9 1.8 4.6 0.3 9.2-0.6 13.7 0 4.5 0.7 9.3 3.5 10 8 0.7 4.5-2.9 8.5-6.5 11.3z"/>
					<path id="&lt;Path&gt;" class="s3" d="m429.1 229.6c1.1 4.6 2.8 9.6 6.9 11.9 0.6 0.4 1.4 0.7 2.1 0.5 1.6-0.3 2.2-2.3 2.4-3.9q3.1-26.9 4.1-54.1c0-0.5 0-1-0.2-1.4-0.6-0.7-1.7-0.6-2.6-0.3-4.4 1.1-11.4 1.6-15.2 4.1-4 2.7-3.2 5.4-2.9 10 0.9 11.2 2.7 22.3 5.4 33.2z"/>
					<path id="&lt;Path&gt;" class="s3" d="m590.8 223.2c-0.8 6.5-1.5 14.3 3.6 18.5q4.1-9.4 8.3-18.8c1-2.3 2.1-4.7 2.4-7.2 0.4-3.2-0.4-6.5-0.9-9.7-2.5-14.9 0.9-30.9-5.4-44.6-0.5-1.1-1.1-2.2-2.1-2.8-0.9-0.6-2-0.7-3.1-0.9-2.6-0.3-5.4-1.5-6.5 0.8-0.7 1.5 1.7 7.6 2.1 9.5q1.7 9.3 2.4 18.7c1 12.3-0.8 24.2-0.8 36.5z"/>
				</g>
				<g id="&lt;Group&gt;">
					<path id="&lt;Path&gt;" class="s17" d="m577 846.7l15.6-56.4-39.1-10.8c-24.9-6.9-58.8 37.4-75.8 98.9-17 61.5-10.7 117 14.2 123.8l39.1 10.9 15.6-56.4c8.2-15.2 15.6-33.4 21.1-53.4 5.5-20 8.6-39.4 9.3-56.6z"/>
					<path id="&lt;Path&gt;" class="s12" d="m606.8 914.1c-17 61.5-50.9 105.8-75.8 99-24.8-6.9-31.2-62.3-14.2-123.9 17-61.5 50.9-105.8 75.8-98.9 24.9 6.9 31.2 62.3 14.2 123.8z"/>
				</g>
				<path id="&lt;Path&gt;" class="s12" d="m1020.8 865l-71.8-19.8 8.2-29.7 71.8 19.8z"/>
				<path id="&lt;Path&gt;" class="s12" d="m1020.7 834.9l5-18 2.3 0.7 1 17.7z"/>
				<path id="&lt;Path&gt;" class="s13" d="m335.4 750.7l-120.1 46.6-89 34.4-66.9 26c-28.3-55.2-21.9-175.9-21.9-175.9 5.3-0.3 11.8-0.9 19.5-1.7 23.7-2.4 57.7-6.6 93.7-11.3 83.8-11.1 178.5-25 178.5-25 0 0 14 82.6 6.2 106.9z"/>
				<path id="&lt;Path&gt;" class="s26" d="m215.3 797.3l-89 34.4c-31.5-28.8-75.8-71.9-82.3-91.5-5.9-17.5 3.7-42.1 13-60.1 23.7-2.4 57.7-6.6 93.7-11.3z"/>
				<path id="&lt;Path&gt;" class="s13" d="m376.5 750.7l-70.6 155.1 35.3 11.8 96.3-149.5c0 0-15.4-16.5-61-17.4z"/>
				<path id="&lt;Path&gt;" class="s0" d="m332.8 778.8c0 0 48.8 114-64.5 138.8l-46.5-98.9 30.8-27.8 19.6-15.7z"/>
				<path id="&lt;Path&gt;" class="s12" d="m599.9 750.7l-231.1-64.4-1.9 7.4 230.5 66.1z"/>
				<path id="&lt;Path&gt;" class="s20" d="m423.3 818.2c0 0-0.6 20.9-7 22.8-6.3 1.9-22.7-3.2-23.5-3.5l6.1 9.3c0 0-8.3 18.6-13.1 23.7-4.8 5.2-11.9 18.7-14.1 25.4-2.3 6.7-27.4 16-43.4 5.8-3.9-2.6-9.3-4.9-15.3-7.1-18-6.4-40.5-10.6-40.5-10.6 0 0-5.8-63.9 33.4-85.2h42.3l3.1 0.8z"/>
				<path id="&lt;Path&gt;" class="s15" d="m272.5 884l-22 2.3-4.8-6.8 32.2-100.7 28 20c-39.2 21.3-33.4 85.2-33.4 85.2z"/>
				<path id="&lt;Path&gt;" class="s11" d="m423.3 818.2c0 0-0.6 20.9-7 22.8-6.3 1.9-22.7-3.2-23.5-3.5l6.1 9.3c0 0-8.3 18.6-13.1 23.7-4.8 5.2-11.9 18.7-14.1 25.4-2.3 6.7-27.4 16-43.4 5.8-3.9-2.6-9.3-4.9-15.3-7.1 6.5-8 17.5-22.3 16.4-27.1-1.4-6.8 3.4-17.3 8.3-21.7 5-4.3 8.1-15.9 10.1-29.8 1.4-10.4 2.8-14.8 3.5-16.4z"/>
				<path id="&lt;Path&gt;" class="s5" d="m312.8 621.6l0.3-0.1c0 0-1.3 28.1-0.3 0.1z"/>
				<path id="&lt;Path&gt;" class="s5" d="m332.8 778.8c0 0-52-2.2-66.4 47.3-14.3 49 1.6 90.6 1.9 91.5-3-2.5-193.6-157.8-200.3-199.9-6.7-42.3 30.7-142.2 207-249.4 0 0 39.4 109.8 38 147.4q-0.1 3.3-0.2 5.9l-36 26.3-20.4 14.8c-2.5 1.9-2.1 5.6 0.6 7l0.3 0.1c7.4 3.8 9.3 13.7 3.6 19.8l-6.4 7c-2 2.1-1.9 5.4 0.2 7.4l1.1 1z"/>
				<path id="&lt;Path&gt;" class="s6" d="m260.8 689.7l-6.3 6.8c-1.9 2.2-1.8 5.5 0.3 7.6l1 0.9c-16.4-0.6-32.3 6.3-47.1 13.7-9.6 4.7-19.2 9.8-29.3 13.4-8.8 3.2-15.4-8.1-8.4-14.4 4.1-3.7 8.9-7 13.6-9.8 14.8-9 30.7-16.1 47.2-21.2 3.6-1.1 7.4-2.2 10.1-4.8q0-0.1 0.1-0.1c3.7-3.6 0.2-9.9-4.8-9q-19.4 3.4-38.6 6.8c-4.3 0.8-5.8-5.5-1.6-6.6q0.1 0 0.1-0.1c20.3-5.5 41.5-7.2 61.2-14.5 6.4-2.3 12.4-7.2 18.5-10.5l-20.6 15c-2.4 1.7-2.1 5.4 0.5 6.7l0.4 0.2c7.6 3.8 9.4 13.7 3.7 19.9z"/>
				<path id="&lt;Path&gt;" class="s11" d="m745.9 846.4l-65.5-20.3c0 0-22.2 4.3-13.7 26.8l15.2 6.8-15.2 2.5c0 0-16.1 29-14.2 55.4 0 0 27.8 16.8 46.6 20.6 18.9 3.9 47.2-63 46.8-91.8z"/>
				<path id="&lt;Path&gt;" class="s0" d="m700.7 922.7c0 0 3 67.2 41 75.6 37.9 8.3 65.2-37.8 57.3-92.1-7.8-54.3-30.1-73.7-30.1-73.7z"/>
				<path id="&lt;Path&gt;" class="s15" d="m745 818.7c0 0 22.2 9.7 32.5 21.6 10.3 11.8 33.9 84.9 16.1 103.7-17.8 18.8-82.9-6.4-82.9-6.4z"/>
				<path id="&lt;Path&gt;" class="s20" d="m699.1 938.2c0 0 47.8 0.1 68-20.6 20.2-20.8 6.2-82.4-2.4-87.7-8.7-5.3-19.7-11.2-19.7-11.2l-12.5 23.6z"/>
				<path id="&lt;Path&gt;" class="s20" d="m719.1 857.9c-0.9 2.9-1.1 6.1-1.2 9.2-0.3 5.4-0.6 11.1-3 15.9-1.8 3.7-4.7 6.6-6.7 10.2-1.7 3.1-2.8 6.7-2.9 10.4-0.1 2.4 0.2 4.8-0.1 7.2-0.5 4.3-2.8 8-4.5 11.9-1.7 3.9-2.9 8.5-1.3 12.4 0.3 0.7 0.7 1.4 1.3 1.7 1.5 0.7 3-0.6 4.1-1.9 12.6-15 21.9-32.7 29.2-50.9 3.6-9 6.8-18.4 7.6-28 0.2-3.1 0.2-6.3-1.3-9-6.2-11.5-19 4.1-21.2 10.9z"/>
				<path id="&lt;Path&gt;" class="s9" d="m544.5 537.8c-4.2-5.5-4.4-22.3-9.4-33.1-0.8-1.7-2.3-3.8-4.3-3.3-2 0.4-2.6 3-2.6 5.1-0.8 19.5 0.6 24.5-0.8 30.7-1.5 6.6-5.7 10.1-7.9 10.3-1.5 0.1-2.8-0.7-3.9-1.7-2.7-2.6-3.8-6.5-3.9-10.2-0.1-6.4 2.2-11.2 3.3-25.2 0.3-3.9 0.4-8.1-1.7-11.4-3.3-5.4-8.5-2.7-10.9 3.3-1.3 3-2.6 6.5-5.4 7.8l3.8-21.7c22.6 5.3 37.2 1 37.4 0.9z"/>
			</g>
		</g>
	</g>
</svg>