<svg version="1.2" xmlns="http://www.w3.org/2000/svg" viewBox="0 0 800 2000" width="800" height="2000">
	<title>Mafia male and female cartoon characters set-ai</title>
	<style>
		.s0 { fill: #201600 } 
		.s1 { fill: #402d26 } 
		.s2 { fill: #826044 } 
		.s3 { fill: #301e19 } 
		.s4 { fill: #baaf98 } 
		.s5 { fill: #ffa679 } 
		.s6 { fill: #e88b62 } 
		.s7 { fill: #8a563a } 
		.s8 { fill: #6d3c2b } 
		.s9 { fill: #7f4932 } 
		.s10 { fill: #a02d00 } 
		.s11 { fill: #ba2c00 } 
		.s12 { fill: #aa2400 } 
		.s13 { fill: #872000 } 
		.s14 { fill: #7c1a18 } 
		.s15 { fill: #94765a } 
		.s16 { fill: #291d11 } 
		.s17 { fill: #e26c40 } 
		.s18 { fill: #efefef } 
		.s19 { fill: #d76446 } 
		.s20 { fill: #773d24 } 
		.s21 { fill: #003641 } 
		.s22 { fill: #312a20 } 
		.s23 { fill: #595651 } 
		.s24 { fill: #473421 } 
		.s25 { fill: #5d4837 } 
		.s26 { fill: #735846 } 
		.s27 { fill: #935a41 } 
		.s28 { fill: #600909 } 
		.s29 { fill: #a06348 } 
	</style>
	<g id="_Artboards_">
	</g>
	<g id="321353356351 2">
		<g id="&lt;Group&gt;">
			<g id="&lt;Group&gt;">
				<path id="&lt;Path&gt;" class="s0" d="m244.8 1935.6c0 0-32.5 18.8-58.3 25.7-25.7 6.8-51.4-0.9-73.7 6.8-22.3 7.8-23.1 12.9-23.1 12.9h234.2v-45.4z"/>
				<path id="&lt;Path&gt;" class="s1" d="m350.3 1400.7l-1.1 21.8-7.6 153.9-17.7 359.2c-31.5 7.7-79.1 0-79.1 0l-30.9-374.9-9.3-113.7 81.7-26z"/>
				<path id="&lt;Path&gt;" class="s0" d="m527.7 1935.6c0 0 32.6 18.8 58.3 25.7 25.7 6.8 51.4-0.9 73.7 6.8 22.3 7.8 23.2 12.9 23.2 12.9h-234.3v-45.4z"/>
				<path id="&lt;Path&gt;" class="s1" d="m533.2 1449.4l-1.1 97.5-0.2 16.6-4.4 376.1c0 0-46.9 11.1-78.9 5.6l-42.9-357-0.6-4.4-15.6-129.5-2.3-19.1-2.6-21.7 42.4 10.2 22.9 5.6z"/>
				<path id="&lt;Path&gt;" class="s2" d="m310.9 348.6h67.2l-85.3 28.6z"/>
				<path id="&lt;Path&gt;" class="s3" d="m533.2 1449.4l-1.1 97.5c-15.8 2.2-32 2.5-47.7 5.3-29 5-50.9 20.8-77.5 31q-0.9 0.4-1.8 0.6l-15.6-129.5c8.9-13.6 22.4-24.1 37.5-30.6l22.9 5.6z"/>
				<path id="&lt;Path&gt;" class="s3" d="m349.2 1422.5l-7.6 153.9c-33.5-2.4-92-7.2-108.8-12-6.3-1.8-12.7-3-18.9-3.7l-9.3-113.7 81.7-26c24.8 0.5 48 1.1 62.9 1.5z"/>
				<path id="&lt;Path&gt;" class="s4" d="m314.4 370.3l-34.2 26.4 4.5 370.7 264.4-259.9-69.1-133.7-108 12.8z"/>
				<path id="&lt;Path&gt;" class="s5" d="m112.4 1090.3c0 7.3-0.2 14.8-0.6 22.2-0.5 8.7-1.3 17.4-2.7 25.6-1.1 6.5-5.3 18.4-11.3 10.9-2-2.6-3.2-7.8-3-11.3 0.2-4.2-3-10.8-6.7-8.9 4.4 20.5 7 41.5 7.8 62.5 0.2 4.5-4.8 6.5-7.2 2.9-4.6-7.1-8.5-14.9-11.2-23.1q3.8 15.7 7.2 31.6c1.5 6.8 2.7 14.6-0.9 20.2-6-0.5-10-7.1-12.8-13.1q-0.9-2-1.7-4c0 0.3 0.1 0.5 0.2 0.7 1 3.7 1.6 8.7-1.6 10.3-1.9 0.9-4.1 0.2-5.6-1.4-8.3-9.5-14.5-21.4-17.8-34.3q0 1.2 0.1 2.3c0.2 5.7-6.5 7.9-8.9 2.9q-0.5-0.9-0.8-1.8c-6.8-17.5-7.5-37.4-4.9-56.2 1.5-11.5 3.7-24.1 7.2-36.1 2.2-7.6 4.9-15.1 8.3-21.9 6.9-14.2 16.7-25.9 30.7-31.7 6.5-2.8 13.7-3.4 20.1-0.6 13.8 6 15.7 22.1 15.9 36.5 0.1 5.1 0.2 10.4 0.2 15.8z"/>
				<path id="&lt;Path&gt;" class="s2" d="m347.9 410c0 0-20.1 9-24 23.8-3.9 14.7-5.8 10.9-5.8 10.9l-10.3-14.5 1.6 190c0 0 4.5-174.6 6.8-171.7 2.2 2.9 3.5 8.7 7.7 1 4.2-7.7 5.8-26 16.4-25.1 10.6 1 7.6-14.4 7.6-14.4z"/>
				<path id="&lt;Path&gt;" class="s6" d="m112.4 1090.3c0 7.3-0.2 14.8-0.6 22.2-23.1-0.9-46-5.9-66.9-15.7-2.9-1.3-5.4-2.9-7.7-4.6 2.2-7.6 4.9-15.1 8.3-21.9 15.4 1.2 30.7 4.9 45.3 10.1 7.5 2.7 14.9 5.8 21.6 9.9z"/>
				<path id="&lt;Path&gt;" class="s4" d="m35.4 1078.3c0.2 0.6 0.8 1 1.3 1.4 22.3 16.8 50.3 26 78.2 25.6 1.4 0 3-0.1 4-1 0.9-0.8 1.2-1.9 1.5-3q3.8-13 7.2-26c0.6-2.4 1.2-4.8 0.6-7.1-0.6-2.2-2.2-3.9-3.8-5.4-11-10.6-25-18.4-40.1-20.8-11.4-1.8-30.6-1.6-39.5 7.2-4.4 4.3-11.2 23.9-9.4 29.1z"/>
				<path id="&lt;Path&gt;" class="s7" d="m670 1482.1c-39.4-3.4-147.4 1.7-192.4 15.4-45 13.8-150.7 29.2-150.7 29.2l-3-20.6c0 0-32.6-1.8-63.2-5.5-20.5-2.5-40.2-5.8-48.5-9.9-20.5-10.3-75.4 0-75.4 0 32.6-96 32.6-481.8 32.6-481.8q0 0 0 0.1l-32.6 78.8c-10.7 0-25.8-3-41.3-6.9-31.7-8.2-65-20.5-65-20.5 0 0 12-65.2 24-87.5 12-22.3 13.7-90.8 13.7-90.8 0 0-5.1-22.3 6.9-36 12-13.7 0-25.8 0-51.5 0-25.7 13.7-42.8 25.7-78.8 12-36 32.6-233.2 32.6-233.2 9.7-19.4 43.6-44.4 71.2-62.4 14.4-9.4 27.1-16.9 33.7-20.7 3.1-1.8 4.8-2.7 4.8-2.7 0 0 54.9 103 54.9 127 0 18 0 94 0 131.3 0 12.7 0 20.9 0 20.9l7.5 23.5 18.4 57.4c0 0 39.2-125.1 43.9-134.6 4.6-9.4 98.8-134.3 98.8-134.3l4.6-103.6 61.8-9.6 6.7-1c0 0 8.6 4.5 21.7 9.7 11.8 4.8 27.3 10.1 43.5 13.3 34.2 6.7 54.8 12.7 54.8 12.7 0 0-10.3 4.5-30.9 22.9-17.1 15.3-41.5 70-59.8 113.3-3.3 7.8-6.4 15.3-9.3 22.1q-0.4 0.9-0.8 1.8c-7.9 19-9.4 68.1-8.4 120.3 1.4 69.1 7.2 143.7 8.4 161.3 1.4 19.3 2.2 47.2 7.6 76.7 3.3 17.8 8.2 36.2 15.9 53.6 20.4 46.3 20.7 198.9 25.9 269.2 5.1 70.3 61.7 231.4 61.7 231.4z"/>
				<path id="&lt;Path&gt;" class="s8" d="m566.5 927.9c-21.3 2.5-48.1 3.1-64.9-5.5-31.3-16.1-44-66.9-56.8-99.7-12.9-32.8-10.3-49.5-1.3-75.9 9-26.3 7.1-45.6 9-66.4 1.9-20.7-12.2-33.2-19.3-52.5 7.6-8.6 15.2-16.7 22.6-24.4 30.1 24.7 77.6 64.6 89.3 79.7q2.3 3 5.4 6.7c1.4 69.1 7.2 143.7 8.4 161.3 1.4 19.3 2.2 47.2 7.6 76.7z"/>
				<path id="&lt;Path&gt;" class="s9" d="m295.6 716.6c0 0-6.4 22.5-10.9 50.8-4.5 28.3-19.9 117-19.9 160.7 0 43.8 0.7 122.9 0 133.4-0.8 10.5 15.4 6.8 15.4 6.8l1.4-135.7c0 0 7.3-79 8.4-84.8 1.1-5.8 5.6-131.2 5.6-131.2z"/>
				<path id="&lt;Path&gt;" class="s10" d="m655.2 870.1c-4.1 10.7-28.2 32-49.3 49.2-3.6 3-7.1 5.8-10.4 8.4-11.5 9-28.4 4.1-33.3-9.6-6.8-18.9-15.8-45.2-23.4-71.4-3.9-13.1-7.3-26-10-38.1-2.4-10.5-4.1-20.3-5-28.7-0.4-4.6-0.6-8.8-0.5-12.5 1.8-46.5 70.7-32.8 70.7-32.8l20.8 34.3 14 23.2c0 0 14.8 25.4 22.6 48.3 4.1 11.8 6.3 23 3.8 29.7z"/>
				<path id="&lt;Path&gt;" class="s11" d="m605.9 919.3c-3.6 3-7.1 5.8-10.4 8.4-11.5 9-28.4 4.1-33.3-9.6-6.8-18.9-15.8-45.2-23.4-71.4 7.6 3.4 15.6 5.5 24.1 6.4 4.9 15.7 10.1 31.3 16.2 46.6 1.8 4.6 3.8 9.2 6.9 13 3.1 3.8 7.5 6.8 12.4 7 2.5 0.1 5.1-0.4 7.5-0.4z"/>
				<path id="&lt;Path&gt;" class="s12" d="m562.9 853.1c-8.5-0.9-16.5-3-24.1-6.4-1.4-4.5-2.6-8.9-3.8-13.3q-0.5-1.9-1-3.7-1.3-4.9-2.5-9.7-1.5-5.8-2.7-11.4c3.7-4 9.7-6.2 14.6-4 6.5 2.8 7.9 10.4 9.7 16.4 2.6 8.7 5.3 17.4 7.9 26.2 0.6 1.9 1.2 3.9 1.9 5.9z"/>
				<path id="&lt;Path&gt;" class="s13" d="m651.4 840.4c-2.8 2.1-6.1 3.7-9.4 4.7-6 1.8-12.2 2.1-18.4 2.8-17.4 1.8-34.7 5.7-52.3 5.6q-4.3 0-8.4-0.4c-0.7-2-1.3-4-1.9-5.9-2.6-8.8-5.3-17.5-7.9-26.2-1.8-6-3.2-13.6-9.7-16.4-4.9-2.2-10.9 0-14.6 4-2.4-10.5-4.1-20.3-5-28.7 0.1-0.1 0.2-0.2 0.3-0.2 9.6-8.7 22-13.9 34.7-16.1 12.8-2.1 25.9-1.3 38.6 0.9 5.9 1.1 11.7 2.5 17.4 4.4l14 23.2c0 0 14.8 25.4 22.6 48.3z"/>
				<path id="&lt;Path&gt;" class="s7" d="m474.4 689.6c0 0 11.5 32.8 8.9 50.8-2.5 18-7 29.8 3.9 45.4 10.9 15.7 30.9 36.3 48.2 40.8 17.4 4.5 110.6 0.6 123.5-21.2 12.8-21.9 18-48.3 17.3-65.6-0.6-17.4-7-84.9 0.1-124.7 7-39.9 15.3-12 7-54.9-8.4-42.9-10.9-62.2-10.3-94.3 0.6-32.1-1.6-54.8-13.3-56.4-43.1-6-93.2 102-91.7 105.3 1.5 3.2-8.7 41-9.1 45.9-0.3 4.8-1.8 54.4-1.8 54.4 0 0 0.9 19.9 1.8 24.4 0.9 4.5-4.2 34.4-6.1 36.5-2 2.1-78.4 13.6-78.4 13.6z"/>
				<path id="&lt;Path&gt;" class="s14" d="m369.9 440.2l16.8 64.7c0 0-55.3 155.6-75 183l-11 19.4c0 0 17.8-199.8 21-222.5 3.3-22.8 23.2-44.6 23.2-44.6z"/>
				<path id="&lt;Path&gt;" class="s2" d="m364.2 410.6c0 0 12 23.4 16.4 29.6 6.1 8.7 11.5 17.7 11.5 17.7 0 0 22.6-26.9 37-40.7 8.9-8.5 20.5-23.3 20.5-23.3l-8-14.8-44 30.9z"/>
				<path id="&lt;Path&gt;" class="s9" d="m303 720.9c-13.9-45.5-33.4-89-53-132.4q-14.6-32.5-29.2-64.9c-0.8-1.8-1.6-3.6-1.4-5.5 0.3-3.6 3.8-5.8 6.8-7.7 7.6-4.8 14.5-10.5 20.5-17.1 1.4-1.6 2.9-3.3 3.5-5.3 1.5-5.5-3.2-10.5-7.2-14.4-13.3-12.6-24.5-27.3-33.2-43.4-1.5-2.7-3.3-6.1-5.2-10 14.4-9.4 27.1-16.9 33.7-20.7 6.1 7.8 11.6 16.2 16.9 24.6 9.2 14.8 18 30.2 22.1 47.1 3.9 16.3 3.3 33.3 3.6 50 0.8 45.1 8.7 89.6 17.1 133.9q2.3 12.1 4.6 24.1c1.3 6.6 2.5 13.5 2.9 20.3 0.5 7.3 0 14.6-2.5 21.4z"/>
				<path id="&lt;Path&gt;" class="s15" d="m477.6 498l79.1 15.2c0 0-46.3 33.2-100.9 90.3-14.9-12.2-25.5-20.6-25.5-20.6 0 0-4.1 25.7 2.9 45-66.6 75.1-138 181.8-151.6 304.7l14-216 146-266.6c0 0-1.4-26.2-3.3-50.2-0.7-7.7-1.3-15.1-2-21.4-1-8.8-2-15.4-3.1-17.4l74.4 5 55.3 66.5z"/>
				<path id="&lt;Path&gt;" class="s6" d="m323.9 357.9l24 56c0 0 17.5 4.9 25.6-3.3 7.6-7.7 42.3-44.3 42.3-44.3z"/>
				<path id="&lt;Path&gt;" class="s14" d="m341.3 410c0 0 21.4-2.5 39.3 3.9 0 0-0.5 28.2-7.1 36.6-6.5 8.3-32.2 3.2-32.2 3.2 0 0-10.3-23.8 0-43.7z"/>
				<path id="&lt;Path&gt;" class="s4" d="m347.9 410l-23 20.2-29.3-63.9 28.3-12.9z"/>
				<path id="&lt;Path&gt;" class="s4" d="m438.3 399.8l-46.2 47.5-27.9-36.7 55.5-49.6 16.6 17.4c0.7 6.3 1.3 13.7 2 21.4z"/>
				<path id="&lt;Path&gt;" class="s16" d="m291.9 259.4c-0.5 10.4-1.5 21.3 2.8 30.8 1.2 2.5 2.7 4.8 4.9 6.5 3 2.3 6.8 3.2 10.5 3.9 6.9 1.3 13.9 2.4 20.8 3.5 14.5 2.3 29.1 4.7 43.8 4.8 23.2 0.2 46-5.1 68.6-10.4 3.4-0.8 7.2-1.8 9.1-4.8 1.6-2.4 1.6-5.5 1.4-8.3-1.2-24.6-4.3-49.1-9.4-73.1-0.9-4.2-1.9-8.4-3.9-12.1-2.2-4.3-5.7-7.8-9.5-10.7-13.5-10.3-30.9-13.8-47.8-15.4-27-2.4-55.8 0-78.3 15.1-9.4 6.4-16.7 14.7-14.4 26.3 2.8 14 2.1 29.7 1.4 43.9z"/>
				<path id="&lt;Path&gt;" class="s17" d="m293.8 211.4c-5.3 0-10.8 3.5-11.9 8.6-1.3 5.7 2.6 11.2 6.3 15.8q2.9 3.6 5.9 7.3c3 3.7 6.1 7.6 10.4 9.7 1.6 0.8 3.6 1.3 5.3 0.7 6.9-2.4 4.3-20.7 3.2-26.3-1.8-8.5-10.4-15.8-19.2-15.8z"/>
				<path id="&lt;Path&gt;" class="s17" d="m454.6 203.6c2.6-0.9 5.4-1.7 8.2-1.5 2.9 0.2 5.7 1.4 7.2 3.8 1.7 2.7 1.3 6.2 0.7 9.2-2.5 11.5-8.9 22-18 29.5-10.5 8.7-26.4-3.3-25.5-16 0.9-12.2 17.4-21.4 27.4-25z"/>
				<path id="&lt;Path&gt;" class="s5" d="m441.6 183.8v139.7c0 33.5-27.4 60.9-60.9 60.9h-14.4c-33.4 0-60.8-27.4-60.8-60.9v-139.7c0-16.1 6.2-30.7 16.5-41.6 11.1-11.9 26.9-19.3 44.3-19.3h14.4c15.5 0 29.6 5.8 40.4 15.4 12.6 11.2 20.5 27.4 20.5 45.5z"/>
				<path id="&lt;Path&gt;" class="s6" d="m441.6 183.8v53.9c-43.4 9.3-96.5 15-136.1 18.2v-72.1c0-16.1 6.2-30.7 16.5-41.6 33-1.3 67.9-2.7 99.1-3.9 12.6 11.2 20.5 27.4 20.5 45.5z"/>
				<path id="&lt;Path&gt;" class="s8" d="m640 656.8c-8.8-2.5-17.9-3.8-27-3.8-0.1 2.3 1.9 4 3.7 5.5 13 10.7 23.5 24.6 30.3 40.1 1.2 2.7 2.2 6 0.5 8.5-1.4 2-4.4 2.5-6.8 1.7-2.4-0.7-4.3-2.5-6.1-4.2-8.7-8.5-16.1-18.1-23.4-27.8q-14-18.3-28-36.6c-2.5-3.2-5-6.5-8.3-8.7-1.1-0.9-2.4-1.6-3.4-2.5-3.1-3-3.4-7.7-3.7-12-1.1-16.6-4.6-32.9-8.1-49.2-4.6-21.7-9.3-43.4-8.3-65.4 1.9-40.8-13.7-80.5-18.2-121.1-0.3-2.1-0.5-4.4-0.2-6.5l6.7-1c0 0 8.6 4.5 21.7 9.7 6.3 32.5 12.4 65 16.4 97.9 0.9 7.2 1.8 14.5 1 21.8-1.1 9.6-4.9 18.6-7.5 27.9-1.3 4.7-2.2 9.7-2.3 14.6-0.1 4.8 0.6 9.5 2.6 13.8 1.8 3.9 4.6 7.4 5.8 11.6 2.5 9.2-3.6 18.9-1.8 28.3 0.3 1.6 0.8 3.2 2 4.3 1.7 1.5 4.1 1.7 6.3 1.6 15.6-0.3 31.5-8.3 46.3-3.4-9.1 11.7-28.7 11.5-36.4 24.2q15.9 3 31.8 5.9c8.7 1.6 14.7 10.1 21.8 15.4 3.9 3 8.2 6.8 7.7 11.7-5 1-10.2-0.8-15.1-2.3z"/>
				<path id="&lt;Path&gt;" class="s17" d="m371.1 207.3c0 0-24.5 31.7-23.2 65.6 1.3 33.9 21.4 30 28.3 20.1 6.9-9.8 6-66.4-5.1-85.7z"/>
				<g id="&lt;Group&gt;">
					<path id="&lt;Path&gt;" class="s0" d="m333.8 251.1c-3.8 0-6.9-10.5-6.9-23.4 0-13 3.1-23.5 6.9-23.5 3.8 0 6.8 10.5 6.8 23.5 0 12.9-3 23.4-6.8 23.4z"/>
					<path id="&lt;Path&gt;" class="s18" d="m335.6 222.8c-1 0-1.8-2-1.8-4.4 0-2.4 0.8-4.4 1.8-4.4 1 0 1.8 2 1.8 4.4 0 2.4-0.8 4.4-1.8 4.4z"/>
				</g>
				<path id="&lt;Path&gt;" class="s16" d="m302.8 242.1q0 0 0 0c1.5 2.3 5 1.4 5.4-1.3 2.3-13.2 3.1-26.6 2.6-39.9-0.2-3.4-1-6.8-2.6-9.8-0.4-0.5-0.8-1.1-1.3-1.4-2.1-1.2-4.5 1.1-5.6 3.2-6.5 12.3-6.2 37.6 1.5 49.2z"/>
				<g id="&lt;Group&gt;">
					<path id="&lt;Path&gt;" class="s0" d="m402.8 250.1c-3.8 0-6.9-10.5-6.9-23.5 0-13 3.1-23.5 6.9-23.5 3.8 0 6.8 10.5 6.8 23.5 0 13-3 23.5-6.8 23.5z"/>
					<path id="&lt;Path&gt;" class="s18" d="m404.6 221.7c-1 0-1.8-2-1.8-4.4 0-2.4 0.8-4.4 1.8-4.4 1 0 1.8 2 1.8 4.4 0 2.4-0.8 4.4-1.8 4.4z"/>
				</g>
				<path id="&lt;Path&gt;" class="s16" d="m438.6 242c0.4 1.8 1.4 4.1 3.2 3.7 1.2-0.2 1.7-1.5 2.1-2.6 1.9-5.8 2.7-11.9 3.5-17.9q1.1-8.1 2.2-16.1c0.4-3.1 0.8-6.4-0.4-9.3-1.7-4-7-6.1-10.9-4.2-10.9 5.3-1.4 38.1 0.3 46.4z"/>
				<g id="&lt;Group&gt;">
					<path id="&lt;Path&gt;" class="s19" d="m349.5 343.8c-2.9 0-5.1-1.1-6.1-3.4-1.2-2.8 0.1-5.6 1.3-7.5 9.7-15.8 26.1-24.3 38.1-28.6 9.1-3.2 16.3-2.7 20.6 1.6 0.9 0.9 0.9 2.4 0 3.3-0.9 1-2.4 1-3.3 0.1-3.7-3.8-10.6-2.4-15.7-0.6-11.3 4.1-26.7 12-35.7 26.7-1.2 1.8-1.2 2.7-1 3.1 0.4 1 3 0.8 5.2 0 1.2-0.4 2.6 0.3 3 1.5 0.4 1.2-0.3 2.6-1.5 3q-2.7 0.8-4.9 0.8z"/>
				</g>
				<g id="&lt;Group&gt;">
					<path id="&lt;Path&gt;" class="s7" d="m512.5 204.4c-18.3 7-80.4 10.8-148.1 11.8-99 1.3-209.8-3.7-211.3-14.7-0.7-5.6 14.2-14 35.5-23q0 0 0 0c30-12.8 72.8-26.8 102.1-35.9 5.4-1.7 10.3-3.3 14.7-4.6 11.1-3.4 18.1-5.4 18.1-5.4 0 0 78.6-7.3 140.1-16.5q2.9-0.4 5.7-0.9c24.1-3.7 43.2-3.9 58.6-1.7 24.4 3.5 39.5 13.3 50.2 25.5 17.3 20-20.6 48.2-65.6 65.4z"/>
					<path id="&lt;Path&gt;" class="s7" d="m463.6 151.4c0.1 2.5 0.4 4.5 0.7 5.6 0 0-10.9 37.3-171.7 12.2 0 0-0.6-3.3-1.1-8.6-1-9-1.7-23.4 1.1-36.4 1.1-4.7 1.6-9.8 1.9-15 0.9-17.2-0.3-36 9.1-51.8 12.1-20.4 18.5-35.7 34.3-29.8 0.1 0.1 0.2 0.2 0.4 0.2 16.1 6.4 27.8 25.1 48.6 18 13.4-4.6 20-13.4 29.7-19 5.3-3 11.5-5 20.3-4.8 24.8 0.7 26.8 15.4 27.4 42.4 0.2 9.5 0 22.7-0.3 36.1-0.5 19.9-1.1 40.5-0.4 50.9z"/>
					<path id="&lt;Path&gt;" class="s20" d="m523.8 134.2c-6.3 9.8-15.8 17.1-25.9 22.9-21.8 12.9-46.8 19.9-71.9 23-25.2 3.1-50.7 2.4-76 0.6-11.7-0.9-23.4-1.9-34.8-4.6-7.1-1.6-14.4-4-19.4-9.2-3.8-3.8-6.1-9.7-5-15 1.1-5.7 5.3-7.9 9.8-10.8q2.4-1.6 4.8-3.1c11.1-3.4 18.1-5.4 18.1-5.4 0 0 83.6-7.7 145.8-17.4 24.1-3.7 43.2-3.9 58.6-1.7q0.7 2.1 0.9 4.4c0.4 5.8-1.9 11.5-5 16.3z"/>
					<path id="&lt;Path&gt;" class="s21" d="m463.6 151.4c-12.5 7.8-39.8 20.9-82.2 21.3-40 0.3-72.5-7.1-89.9-12.1-1-9-1.7-23.4 1.1-36.4 1.1-4.7 1.6-9.8 1.9-15 20.2 3.9 72.5 12.3 111.5 5.2 27.8-5.1 46.7-10.3 58-13.9-0.5 19.9-1.1 40.5-0.4 50.9z"/>
					<path id="&lt;Path&gt;" class="s20" d="m411.7 61.5c-5.2 3.1-11.3 4.2-17.3 4.2-11.8 0.2-23.5-3.6-33.3-10.1-9.4-6.2-15.7-14.5-21-24.3-0.5-1-1.3-2.2-2.2-3.7 0.1 0.1 0.2 0.2 0.4 0.2 16.1 6.4 27.8 25.1 48.6 18 13.4-4.6 20-13.4 29.7-19-0.7 0.9-1.5 1.8-2.2 2.6-2.2 2.3-4.1 5-4.8 8.1-0.7 3.1 0.1 6.7 2.6 8.6 1.2 0.8 2.6 1.3 3.7 2.3 4 3.6 0.4 10.4-4.2 13.1z"/>
				</g>
				<path id="&lt;Path&gt;" class="s0" d="m539.7 373.8l32.6 257.1-24-8.6-35.2-248.5z"/>
				<g id="&lt;Group&gt;">
					<path id="&lt;Path&gt;" class="s22" d="m550.3 611.5l-32.6 3.5-61.8-583.1 32.6-3.5z"/>
					<path id="&lt;Path&gt;" class="s0" d="m467.7 325.5l23.6 222.4 44.1-4.6-27.9-263-38.9 17.3z"/>
					<g id="&lt;Group&gt;">
						<path id="&lt;Path&gt;" class="s22" d="m397.6 357.2l2.9 27.5c0.6 5.3 49.4 4.5 109.1-1.8 59.7-6.4 107.6-15.8 107-21.1l-2.9-27.5z"/>
						<path id="&lt;Path&gt;" class="s23" d="m613.7 334.3c0.6 5.3-47.4 14.7-107 21.1-59.7 6.3-108.5 7.1-109.1 1.8-0.5-5.2 47.4-14.7 107-21 59.7-6.3 108.5-7.2 109.1-1.9z"/>
					</g>
					<path id="&lt;Path&gt;" class="s24" d="m447.6 284.9l27.9-43.7c1.4-2.2 3.7-3.6 6.2-3.9l13.1-1.3c4.4-0.5 8.3 2.7 8.8 7.1l3.9 37.2c0.2 1.4 0 2.8-0.6 4l-17.3 38.8z"/>
					<path id="&lt;Path&gt;" class="s25" d="m478.2 330.8l-12.1 1.3c-8.9 0.9-17-5.6-18-14.6l-2.5-24.3c-1-9 5.6-17.1 14.5-18l12.1-1.3c8.9-0.9 17 5.6 18 14.6l2.6 24.3c0.9 9-5.6 17.1-14.6 18z"/>
				</g>
				<path id="&lt;Path&gt;" class="s2" d="m455.8 603.5c-7.4 7.7-15 15.8-22.6 24.4-7-19.3-2.9-45-2.9-45 0 0 10.6 8.4 25.5 20.6z"/>
				<path id="&lt;Path&gt;" class="s24" d="m433.2 570.1c0.5-0.9 19.5-41.6 19.5-41.6l74.1 6.6-23.4 57.8z"/>
				<path id="&lt;Path&gt;" class="s5" d="m553.3 663c-7.5 11.6-23.8 12.9-37.6 13-10.3 0-21.4-0.2-29.8-6.2-4.7-3.4-12.9-15.9-20.1-28.6-6.5-11.4-12.2-23-13.6-28.1-0.9-3.4 49.3-12.7 51.2-20.2 3.7-15.2 2.1-31.2-10.5-40.5-1.5-1.1-3.5-2-5.8-2.7q-0.1 0-0.1 0c-14.8-4.5-42.4-1-43.3-2-13.4-14.7 14.2-48.3 22.9-59.7 8.7-11.5 20.7-7.9 35-6.6q0-0.2 0-0.4c-0.6-4.5-1.3-9-1.8-13.5q-2.1-14.8-4.1-29.7c-0.5-3.8-1-7.8 0.1-11.5 1-3.7 4.1-7.1 8-7.4 6.3-0.3 9.8 7.2 11.5 13.4q6.1 22.6 12.2 45.2 2 7.4 4 14.8c1.9 7.1 3.9 14.1 5.8 21.2 7.4 27.2 14.8 54.6 17.4 82.8 1.7 18.7 9.4 50.1-1.4 66.7z"/>
				<path id="&lt;Path&gt;" class="s6" d="m511.5 631.1c-4.5 8.7-12.6 15.9-22.3 17.7-8.2 1.7-17.2-1-23-7.2q-0.2-0.2-0.4-0.4c-6.5-11.4-12.2-23-13.6-28.1-0.9-3.4 49.3-12.7 51.2-20.2 3.7-15.2 2.1-31.2-10.5-40.5-1.5-1.1-3.5-2-5.8-2.7 2.3 0.4 4.6 1 6.7 2.1 8.1 4.2 12.1 13.4 15.2 22 3.2 9.3 6.2 18.8 7.2 28.5 0.9 9.8-0.2 20-4.7 28.8z"/>
				<path id="&lt;Path&gt;" class="s26" d="m467.7 616.1c-20.6 0-37.3-14.8-37.3-33.2 0-18.4 16.7-33.3 37.3-33.3 20.7 0 37.4 14.9 37.4 33.3 0 18.4-16.7 33.2-37.4 33.2z"/>
				<path id="&lt;Path&gt;" class="s15" d="m310.9 348.6c0 0 5.5 296.2-7.8 350.5 0 0-72.4-181.8-85.3-186.3 0 0 26.4-37.3 37.3-38.5 0 0-49.5-44.5-53.3-55.4 0 0 37.7-41.7 109.1-70.3z"/>
				<path id="&lt;Path&gt;" class="s8" d="m323.9 1506.1c0 0-32.6-1.8-63.2-5.5-2.5-26.5-6.1-74.8-3.8-115.4 3.4-59.1 12.4-150.4 8.5-189-3.9-38.5-3.9-117 1.3-153 5.1-36 14.9-110.6 14.9-110.6 0 0-0.5 185.2 0 248.2 0.5 63 42.3 325.3 42.3 325.3z"/>
				<path id="&lt;Path&gt;" class="s8" d="m204.6 662.6c-0.4 19.3-8.6 83.6-18.9 131.2-10.3 47.6-16.3 215.1-16.3 215.1q0 0 0 0.1l-32.6 78.8c-10.7 0-25.8-3-41.3-6.9 13.7-27.3 54.6-102.3 59.3-120.6 5.8-22.5 6.5-99 0-108-6.4-9 3.2-7.1 10.3-17.4 7.1-10.3-6.4-15.4-16.7-23.1-10.3-7.7 8.4-10.3 22.5-22.5 14.1-12.2-8.4-23.8-6.4-48.2 1.9-24.5 27-75.3 27-88.8 0-13.5-23.2-42.4-10.5-66.8 12.7-24.5 4.7-61.7 4-71.4-0.6-9.6-27.6-30.2-27.6-30.2 0 0 30.9 10.3 38.6 44.6 7.7 34.3-2.6 49.3-3.9 64.4-1.3 15.1 12.9 50.4 12.5 69.7z"/>
				<path id="&lt;Path&gt;" class="s16" d="m474.4 655.3c0 0-2.6 19.5 0 34.3 2.5 14.8 20.5 41.8 48.9 40.5 28.4-1.3 53.9-36 55.2-57.8 1.3-21.9-3.4-38.4-6.2-41.4-2.9-3-13.4 29.2-13.4 29.2l-18.3 20.3h-35.5l-19.2-10.6z"/>
				<path id="&lt;Path&gt;" class="s4" d="m557.1 615.1c0 0 3.7 70.6-71.2 54.7l-11.5-14.5 5.6 24.5c0 0 10.8 12.8 27.1 19.3 16.3 6.4 45.5-9.8 55.7-23.1 10.3-13.4 9.5-45.1 9.5-45.1z"/>
				<path id="&lt;Path&gt;" class="s5" d="m439.6 556.6c1.5-3.4 2.8-6.2 4.8-9.7 0.4-0.8 1.1-1.4 1.4-2.2 0.2-0.6 0.3-1.3 0.3-1.9 0.2-3.7-0.1-8-1.4-11.4-1.9-4.7-3.4-3.2-4.2 1-1.5 8.3-2.1 15.8-0.9 24.2z"/>
				<path id="&lt;Path&gt;" class="s6" d="m531.5 492.3c-2.6-1.6-9-3.9-10.2-4.4q-5.9-2.5-12.1-4.5c-2.5-0.8-5.2-1.4-7.6-2.4-0.6-4.5-1.3-9-1.8-13.5 0.5-0.1 1-0.1 1.5-0.1 5.2-0.1 10.3 0.7 15.1 2.5 4.3 1.5 8.4 4 11.1 7.6q2 7.4 4 14.8z"/>
				<path id="&lt;Path&gt;" class="s6" d="m523.5 502.8c-1.7 5.5-7.9 8.7-9.7 14.2-0.8 2.4-0.7 5.1-1.1 7.7-0.5 3.1-1.9 6.1-4 8.5-1.8 1.9-3.9 3.5-5.5 5.6-2.2 3-3.1 7-2.2 10.6 0.1 0.5 0.2 0.9 0.6 1.3 0.8 0.8 2.2 0.3 2.9-0.6 0.7-0.9 0.9-2 1.2-3.1 0.7-2.4 2.2-4.6 4.1-6.1 3.1-2.3 7.2-3.1 10-5.7 1.7-1.5 2.8-3.6 3.1-5.8 0.5-3.1-0.5-6.4 0.4-9.5 1.1-3.8 4.8-6.1 7-9.4 2.6-3.8 3.3-9.9 0.6-13.8-1.2-1.9-3.3-3.3-5.2-1.6-1.9 1.8-1.5 5.4-2.2 7.7z"/>
				<path id="&lt;Path&gt;" class="s27" d="m433.2 965.2c0 0 96.2-22.1 115.9-24 0 0 15.5 21.4 13.8 28.3-1.8 6.9-122.8 27.4-122.8 27.4z"/>
				<path id="&lt;Path&gt;" class="s27" d="m169 962.2l-4.3 24c0 0 47 22.4 49.7 12.9 0.9-3 7.3-21.9 7.3-21.9z"/>
				<path id="&lt;Path&gt;" class="s28" d="m342.6 458c-5.7 9.6-9.6 20.2-11.6 31.2-0.1 0.5-0.2 1.1 0.1 1.6 0.3 0.5 0.9 0.7 1.5 0.6 2.3 0 3.8-2.3 4.9-4.4q7.4-14.9 13.5-30.3c0.6-1.4 1.5-3.1 3.1-3q-1.5 11.2-2 22.6c-0.2 5.6-0.3 11.4 1.2 16.8 1.3 4.5 3.5 8.6 5 13 1.8 5.2 2.4 10.8 1.9 16.3-0.2 1.4-0.4 2.9 0.1 4.3 0.4 1.4 1.8 2.6 3.3 2.3 1-0.3 1.7-1.2 2.3-2.2 2.9-5.5 1.7-12.2-0.6-18-2.3-5.7-5.7-11-7.3-17-2.2-7.8-1.3-16-0.3-24 0.4-3.6 1.1-7.5 4-9.6 1.7-1.2 3.9-1.5 5.9-2.2 2-0.7 4.1-2.2 4.3-4.3-6 0.6-12 0-17.7-1.7-3.5-1.1-7.5-3.2-11.2-2.9 2.9 4.2 2.5 6.2-0.4 10.9z"/>
				<path id="&lt;Path&gt;" class="s29" d="m315.3 52.6c0.9-4 1.7-8.2 3.8-11.6 2.2-3.5 6.4-6.1 10.4-5.1 4.6 1.1 6.8 6.3 9.3 10.3 4.2 6.6 11.1 11.3 18.6 12.9 2.4 0.5 4.8 0.7 7 1.7 2.2 1 4.1 3 4.1 5.4 0 2.2-1.6 4.1-3.6 5-1.9 0.9-4.1 0.9-6.3 0.7-8-0.7-15.6-4.5-21.8-9.6-1.7-1.4-3.4-2.9-5.5-3.3-3.2-0.6-6.3 1.6-8 4.3-2.1 3.3-6.7 22-12.9 14.7-3.9-4.7 3.8-20.8 4.9-25.4z"/>
				<path id="&lt;Path&gt;" class="s29" d="m364.4 216.2c-99 1.3-209.8-3.7-211.3-14.7-0.7-5.6 14.2-14 35.5-23q-0.7 0.8-1.3 1.6c-0.8 1.1-1.7 2.4-1.7 3.8-0.1 3 3.2 4.8 6.1 5.8 53.5 18.7 113 10.5 167.9 24.6 1.6 0.5 3.3 1.1 4.8 1.9z"/>
			</g>
		</g>
	</g>
</svg>