<svg version="1.2" xmlns="http://www.w3.org/2000/svg" viewBox="0 0 1100 2000" width="1100" height="2000">
	<title>Mafia male and female cartoon characters set-ai</title>
	<style>
		.s0 { fill: #6d432e } 
		.s1 { fill: #e8c6a7 } 
		.s2 { fill: #683a23 } 
		.s3 { fill: #d3aa88 } 
		.s4 { fill: #004286 } 
		.s5 { fill: #e26c40 } 
		.s6 { fill: #23110b } 
		.s7 { fill: #ffe0c0 } 
		.s8 { fill: #ffa679 } 
		.s9 { fill: #e88b62 } 
		.s10 { fill: #4a4340 } 
		.s11 { fill: #201600 } 
		.s12 { fill: #ffffff } 
		.s13 { fill: #a14944 } 
		.s14 { fill: #442416 } 
		.s15 { fill: #7d5139 } 
		.s16 { fill: #7a4f36 } 
		.s17 { fill: #94765a } 
		.s18 { fill: #7c1a18 } 
		.s19 { fill: #630b0b } 
		.s20 { fill: #291d11 } 
		.s21 { fill: #afafaf } 
	</style>
	<g id="_Artboards_">
	</g>
	<g id="321353356351 2">
		<g id="&lt;Group&gt;">
			<g id="&lt;Group&gt;">
				<path id="&lt;Path&gt;" class="s0" d="m360.2 558.8l-9.9 120.5-27.4 112-22.8 93.1-21.3 83.6q0 0.1 0 0.1l-6.4 25.3-91-71.4-32.9-205.9 22.8-243.6c0 0 15.5-11.5 34.3-24.4 23.4-16 51.9-34.2 62.4-35.4 19.1-2.1 58.1 36.9 58.1 36.9 0 0 30.5 41.7 34.1 45.8 3.6 4 0 63.4 0 63.4z"/>
				<path id="&lt;Path&gt;" class="s1" d="m360.2 413.9l-13.4 43.4 20.7 74.7v100.9l27.9 60.7 118.3 50.1 114.2-123.3 14.2-79.3-97.9-127.2-5.2-57.5-64.6 28.6z"/>
				<path id="&lt;Path&gt;" class="s2" d="m296 356.4c0 0 82.6-59.9 217.9-50.7l25.1 71.9-69.5 32.8-109.3 28.8-65.5-73.7z"/>
				<path id="&lt;Path&gt;" class="s0" d="m875.3 925.5c-2.2 18.1-22.1 31.9-39.7 27.5-13.7-3.3-23.6-15-32.1-26.2-5.6-7.4-11.1-14.8-16.5-22.4-17.7-24.8-34.1-50.5-49.2-76.9-14-24.6-26.8-49.8-38.5-75.6-20.4-45.1-37.1-92-49.8-139.9q-0.9-3.4-1.8-6.7c-7-27.1-13.5-54.6-27-79-10.9-19.7-25.9-36.8-37.7-56-8.2-13.6-15-28.9-13.6-44.7q0.1-0.9 0.2-1.9c2.1-16.5 14.3-37.9 28-46.9 12.4-8.3 34.1-4.3 48-2.6q1.7 0.2 3.4 0.5c40.6 5.6 78.8 22.7 114.1 42.9 11 6.3 22 13.1 30.2 22.8 6.9 8.2 11.3 18.1 14.9 28.1 11.6 33.2 13.4 68.9 19.7 103.6 9.9 54.5 31.3 106.9 37.5 162 3.8 34 1.8 68.3 0.6 102.4-0.7 18.8-1.2 37.8 3.4 56.1 2.7 10.8 7.2 21.7 5.9 32.9z"/>
				<path id="&lt;Path&gt;" class="s3" d="m469.8 450.4c1.8-0.1 3.5 0.7 5.2 1 3.7 0.5 7-1.8 9.9-4 14.5-11.1 28-23.4 40.1-37 3.6-4.1 7.2-8.5 8.9-13.7 1.6-5.2 1-11.5-2.9-15.3-0.9-0.8-1.9-1.6-3.1-1.7-1.7-0.2-3.4 0.8-4.8 1.8-13.4 9.2-24.2 21.6-36 32.7-11.8 11.2-25.3 21.4-41.2 24.8-4.5 0.9-9.1 1.3-13.7 1.7-6.2 0.5-12.6 1-18.8 0.1-6.3-0.9-12.4-3.2-18.5-5.2-13.3-4.2-27.2-6.5-41.1-6.9-2.2-0.1-5.1 0.3-5.6 2.5-0.4 1.5 0.7 2.9 1.6 4 11.2 12.8 27.2 20.1 42.7 27 2.7 1.2 5.5 2.4 8.4 2.6 5.9 0.3 11.7-4.4 12.6-10.2 5.5 0.2 6.9 7.6 7.3 13 1.1 14.4 7.4 28.4 17.6 38.6 1.1 1.1 2.2 2.1 3.6 2.6 4.5 1.5 8.5-3.5 10.3-7.8 1.9-4.4 4.4-9.8 9.1-10 2.7-0.2 5 1.4 7.4 2.7 3.3 1.8 7 3 10.8 3.5 1.2 0.2 2.5 0.3 3.6-0.3 2.3-1.3 2.2-4.5 1.6-6.9-2.3-8.9-7.7-16.9-15.2-22.2-3.7-2.6-9.7-4.2-9-9.1 0.4-2.7 6.6-8.1 9.2-8.3z"/>
				<path id="&lt;Path&gt;" class="s4" d="m401.5 438.5c8.1 6.1 22.4 17.3 32 24.9 5.4 4.2 13.2 3.2 17.4-2.2l21.5-28.2c3.5-4.5 3.4-10.7-0.1-15.1-7.8-9.9-20.9-26.2-23.7-28.9-2.7-2.7-30.5-1.8-48.7-0.9-7.9 0.4-13.4 8.1-11.1 15.7l8.3 28.3c0.7 2.6 2.3 4.8 4.4 6.4z"/>
				<path id="&lt;Path&gt;" class="s5" d="m456.3 202.7c-4 14.6-0.5 30.6 6.9 43.8 1.3 2.2 2.7 4.4 4.8 5.9 2.1 1.4 5.1 1.9 7.2 0.5 1.6-1 2.5-2.8 3.2-4.4 6.1-14.3 7.6-30.6 4.1-45.8-1-4.2-2.4-8.5-5.4-11.6-10.4-10.6-18.3 2.3-20.8 11.6z"/>
				<path id="&lt;Path&gt;" class="s6" d="m198.8 1088.3c0 0-27.3 79.2-37.8 124.4-10.5 45.2 14.5 150.3 0 206.8-14.5 56.5-18.6 161.4-46.9 203.8 0 0 79.7 10.9 141 30.3 61.4 19.4 129.3 111.1 283.9 58.6 154.6-52.5 207.2-73.9 288.9-55.1 81.8 18.7 192.8 0.6 259.4-27.7 0 0-32.3-187.2-86.8-264.2-54.5-77-67.6-83.3-92.9-152.5-25.2-69.1-49.8-184.1-49.8-184.1l-666.9-23.1z"/>
				<path id="&lt;Path&gt;" class="s7" d="m339.3 374.5l-13.2 56.6 76.8 26.2 23.9-56.5 42.7 43.4 69.5-61.6-54.7-46.4z"/>
				<path id="&lt;Path&gt;" class="s5" d="m295.7 266.2c12.6 8.5 20.4 22.8 23.4 37.6 0.6 2.5 0.9 5.2 0.3 7.6-0.6 2.5-2.6 4.8-5.1 5.2-1.8 0.2-3.6-0.5-5.3-1.3-14-6.8-25.8-18.1-33.1-31.8-2-3.8-3.8-8-3.5-12.4 0.8-14.8 15.3-10.2 23.3-4.9z"/>
				<path id="&lt;Path&gt;" class="s8" d="m501 340.2c-2.2 16.1-13 35.9-26.6 44.8-81.7 52.8-128.9 9.7-141.4-8-10.9-15.2-14.4-33.5-17.1-52.2-2.2-15.1-3.8-30.5-8.2-44.9-3.6-11.4-8.9-22.2-11.5-33.9-2.4-11.1-1.9-22.7 1.1-33.6 2.3-8.8 6.2-17.1 11.5-24.5 11.3-15.8 33-26.1 51-32.2 7.2-2.5 14.7-4 22.4-4.5 7.4-0.5 14.9 0 22 2.4q1.4 0.4 2.7 0.9c16.7 6.8 28.1 23.3 35.5 40 2.9 6.5 5.4 13.2 7.9 19.9 4.2 11.4 8.6 22.8 15.1 33 7.6 12 18.1 22.2 24.9 34.8 4.3 7.8 7 16.4 8.9 25.1 2.3 10.8 3.3 22 1.8 32.9z"/>
				<path id="&lt;Path&gt;" class="s0" d="m190.8 1105.7c0 0-32.9 112.1-23.5 150 9.4 37.9 14.1 148.2-1.7 212.8-15.8 64.7-30.3 144.1-37.9 156.9 0 0-47.9 5-60 0 0 0 58.5-110.1 61.5-147.4 3.1-37.4 20.3-87.9 8.2-125.2-12.1-37.4-5.1-126.2 11.1-151.4 16.1-25.3 42.3-95.7 42.3-95.7z"/>
				<path id="&lt;Path&gt;" class="s9" d="m450.3 214.4c-9.5 14.9-21.1 28.5-33.8 40.7-26.4 25.2-57.6 44.7-89.2 63.1q-5.7 3.3-11.4 6.6c-2.2-15.1-3.8-30.5-8.2-44.9-3.6-11.4-8.9-22.2-11.5-33.9-2.4-11.1-1.9-22.7 1.1-33.6 12.6-11.9 25.9-23.1 40.9-31.7 17.3-9.9 36.3-16.1 55.3-22.1q6.6-2.1 13.4-4.1c16.7 6.8 28.1 23.3 35.5 40 2.9 6.5 5.4 13.2 7.9 19.9z"/>
				<path id="&lt;Path&gt;" class="s10" d="m304.3 281.2c2.6 5.4 7.3 11.3 13.2 10.4-1.3-15.9-10.4-30.1-13.4-45.8-0.3-1.1-0.5-2.4-0.1-3.5 0.9-2.7 4.2-3.4 6.9-4.1 8.5-2 16-7.1 23.3-11.9 29.1-19.2 60.2-36.8 94.4-42.9 1-0.2 2-0.3 2.8 0.1 0.9 0.5 1.4 1.5 1.8 2.5q5.9 15.1 11.9 30.3c0.6 1.6 1.3 3.4 2.8 4.5 1.4 1.1 3.7 1.3 4.8-0.1 1.9 9.5 6.3 18.5 12.6 25.9 4.9-8.5-2.7-18.4-4.4-28-0.9-5.2-0.1-10.5 0.5-15.7 1.6-13.1 1.1-28.5-9.4-36.5-8.7-6.5-20.8-5.2-31.5-3.1-46.1 8.8-90.7 26.1-129.7 52.2-14.9 10-21.6 22.1-14 39.6 2.3 5.4 6.2 9 11.6 11.4 8.7 3.8 11.5 5.7 15.9 14.7z"/>
				<g id="&lt;Group&gt;">
					<path id="&lt;Path&gt;" class="s11" d="m355 260.7c3.8 11.6 3.3 22.3-1.2 23.8-4.5 1.5-11.3-6.8-15.1-18.4-3.9-11.7-3.3-22.3 1.2-23.8 4.5-1.5 11.2 6.7 15.1 18.4z"/>
					<path id="&lt;Path&gt;" class="s12" d="m348.6 250.8c0.7 2 0.5 3.8-0.3 4.1-0.9 0.3-2.1-1.1-2.8-3.1-0.6-1.9-0.5-3.8 0.4-4.1 0.9-0.3 2.1 1.1 2.7 3.1z"/>
				</g>
				<g id="&lt;Group&gt;">
					<path id="&lt;Path&gt;" class="s11" d="m430.7 235.7c3.8 11.7 3.3 22.3-1.2 23.8-4.5 1.5-11.3-6.8-15.1-18.4-3.8-11.7-3.3-22.3 1.2-23.8 4.5-1.5 11.3 6.8 15.1 18.4z"/>
					<path id="&lt;Path&gt;" class="s12" d="m424.4 225.8c0.6 2 0.5 3.9-0.4 4.1-0.8 0.3-2.1-1.1-2.7-3-0.7-2-0.5-3.9 0.3-4.2 0.9-0.2 2.1 1.1 2.8 3.1z"/>
				</g>
				<path id="&lt;Path&gt;" class="s5" d="m385.3 298.1c0.9 4.5 2.2 9.1 4.9 12.8 2.7 3.6 7.2 6.3 11.8 5.6 5-0.7 8.8-5.2 9.9-10.1 1.2-4.9 0.3-10.1-1.2-14.9-3.6-12.2-10.2-23.4-17.3-34-4.7-7.1-18.1-20.1-14.5-3.3 3.1 14.5 3.6 29.4 6.4 43.9z"/>
				<g id="&lt;Group&gt;">
					<path id="&lt;Path&gt;" class="s13" d="m409.6 338.7q-0.3 0-0.7-0.1c-1.3-0.3-2.1-1.8-1.7-3.1 0.7-2.7 1.8-5.2 3.2-7.6 1.9-3.4 4.1-5.9 6.7-7.4 3.4-2.1 7.5-2.5 10.8-1.1 1.3 0.6 1.9 2.2 1.3 3.5-0.6 1.3-2.1 1.8-3.4 1.3-1.8-0.8-4.1-0.5-6 0.7-1.9 1.1-3.5 2.9-5 5.5q-1.7 3.1-2.7 6.5c-0.3 1.1-1.3 1.8-2.5 1.8z"/>
				</g>
				<path id="&lt;Path&gt;" class="s14" d="m360.2 558.8l-9.9 120.5-27.4 112-44.1 176.7-14.6-2.9 2.5-14 62.2-349.4-67-30.5c-8.2-3.7-11-14-5.8-21.3l47.8-67.3-98.3-34.5c23.4-16 51.9-34.2 62.4-35.4 19.1-2.1 58.1 36.9 58.1 36.9 0 0 30.5 41.7 34.1 45.8 3.6 4 0 63.4 0 63.4z"/>
				<path id="&lt;Path&gt;" class="s15" d="m538.7 99.9c-1.5 9.9-5.5 19.4-11.4 27.4-6.9 9.5-16.3 16.8-25.7 23.7-50.8 37.4-107.2 67.3-166.6 88.6-17.6 6.2-35.6 11.8-52 20.8-28.3 15.5-52.5 41.2-84.4 45.1-5.4 0.6-11.7 0.3-15.1-4-4.6-5.7-0.9-14.2 3.2-20.2 5.1-7.4 10.7-14.3 16.4-21.3 22.8-27.9 45.7-56 72.7-80 0.2-0.2 0.4-0.3 0.6-0.5 27.2-24.1 59-44 94.3-52.5 15-3.7 30.3-5.2 45.3-8.7 26.6-6 51.2-17.1 77.2-24 11.1-3 22.5-5.2 34.4-5.9 3.4-0.2 7.4-0.1 9.6 2.4 2.2 2.4 2 6 1.5 9.1z"/>
				<path id="&lt;Path&gt;" class="s2" d="m493.2 94.3c-2.1 3-4.5 5.7-6.8 8.3-11.3 12.1-22.8 24.2-35.5 34.9-31.9 27.2-70 45.6-107.8 63.5-10 4.7-20 9.4-30.7 11.8-9.1 2.1-19.5 2.2-26.9-3.5-7.2-5.5-9.9-15.2-9.9-24.2q0-2.6 0.2-5.1c0.2-0.2 0.4-0.3 0.6-0.5 27.2-24.1 59-44 94.3-52.5 15-3.7 30.3-5.2 45.3-8.7 26.6-6 51.2-17.1 77.2-24z"/>
				<path id="&lt;Path&gt;" class="s14" d="m787 904.4c-0.4 4.3-1.5 8.5-3.4 12.5q-22.9-44.7-45.8-89.4-10.8-21.2-21.6-42.4c-5.7-11-11.3-22-16.9-33.2-23.2-46.9-44.2-95.3-51.6-146.6q-1.2-8.1-1.9-16.3c-1.1-13.7-1.3-27.7-5-41-4.2-15.2-12.9-28.7-21.4-42q-17.2-26.6-34.3-53.2c-5.9-9.3-12-18.8-15.5-29.1 2.1-16.5 14.3-37.9 28-46.9 12.4-8.3 34.1-4.3 48-2.6q1.7 0.2 3.4 0.5c-11.8 18-22.2 36.9-30.3 57.6-1.5 3.7-2.8 7.9-1.1 11.5 1.6 3.2 5.2 4.8 8.5 6.2q28.4 11.8 56.9 23.6c5.5 2.3 11.4 4.9 14.7 9.8 5.1 7.7 2.2 17.9-0.7 26.6-10 29-19.9 59-18.2 89.6 1 19.1 6.6 37.7 12.1 56q17.5 57.3 36 114.2c5.9 18.2 12 36.6 21.9 53.1 9 15.1 21 28.2 29.4 43.6 6.2 11.5 10.3 25.1 8.8 37.9z"/>
				<path id="&lt;Path&gt;" class="s16" d="m431.7 135.2c-5 12.9-17.3 21.3-29.2 28.5-21.8 13.4-44.3 25.6-67.4 36.6-9.9 4.7-41.1 21.8-48.7 7.6-4.1-7.7-5.1-17.5-8.9-25.5-2.7-5.8-5.9-11.3-9.5-16.7q-2.9-4.5-6.1-8.8c-6.8-9.1-14.3-17.7-21.9-26-8.5-9.2-17.5-19-20-31.2-0.6-2.7-0.8-5.7 0.2-8.3 0.9-2.4 2.7-4.2 4.9-5.6 2-1.3 4.3-2.1 6.7-2.6 8.3-1.8 17-0.2 25.4 1 9.9 1.3 19.9 2 29.9 2.1 7.4 0 16.6-1.4 19-8.5 1.2-3.4 0.3-7.2 0.6-10.8 0.6-6.4 4.9-11.7 9-16.6 3.8-4.5 7.6-9 11.7-13.3 6.3-6.5 13.2-12.2 21.3-16.1 7-3.2 16-4.7 22.1 0 4.3 3.4 6.2 8.9 7.9 14 6.9 19.7 15.9 38.6 26.8 56.2 7.1 11.5 15 22.4 23.6 32.8 1.6 1.9 3.3 3.9 3.5 6.3 0.2 1.6-0.3 3.3-0.9 4.9z"/>
				<path id="&lt;Path&gt;" class="s17" d="m431.7 135.2c-5 12.9-17.3 21.3-29.2 28.5-21.8 13.4-44.3 25.6-67.4 36.6-9.9 4.7-41.1 21.8-48.7 7.6-4.1-7.7-5.1-17.5-8.9-25.5-2.7-5.8-5.9-11.3-9.5-16.7 3.5-0.4 6.9-1.2 10.3-2 21.2-5.5 40.8-15.5 60.2-25.5 24.4-12.7 49.5-26.3 67-47 7.1 11.5 15 22.4 23.6 32.8 1.6 1.9 3.3 3.9 3.5 6.3 0.2 1.6-0.3 3.3-0.9 4.9z"/>
				<path id="&lt;Path&gt;" class="s14" d="m809.9 756.7c-7.6 0.2-11.3 10.6-8 17.4 3.3 6.8 10.5 10.7 17.3 14-6.1 4.2-13 11.8-8.8 17.9 1.8 2.6 5 3.7 7 6.1 3.8 4.3 2.4 10.9 0.6 16.3-11.9 35.4-9 65.6-33.6 97.2 5-22.3-19.7-51.3-14.7-73.6 1.6-7.2 3.2-14.8 1.3-21.9-2.9-10.6-13.1-19.4-11.2-30.2 2.3-12.6 20.9-21.1 16.4-33.2-1.9-4.9-7.3-7.8-9.4-12.7-2.3-5.6 0.4-12-0.2-18.1-1-9.7-9.8-16.4-15.5-24.3-9.4-13-10.7-30-11.1-46-0.8-27.3-0.1-54.7 2.2-81.9-0.9 11.3 5.8 27.6 8.2 39.1 3.3 16.3 7.8 32.3 13.4 47.9 11.1 30.7 26.6 59.8 46.1 86z"/>
				<path id="&lt;Path&gt;" class="s2" d="m349.6 68.6c-0.1 4.3-3.4 7.8-6.7 10.4-9.2 7.3-20.6 11.4-32.2 13.3-11.5 2-23.4 1.8-35 1-11.2-0.6-22.3-1.8-33.3-3.9-3.5-0.7-10.4-1.7-17.3-3.6 2-1.3 4.3-2.1 6.7-2.6 8.3-1.8 17-0.2 25.4 1 9.9 1.3 19.9 2 29.9 2.1 7.4 0 16.6-1.4 19-8.5 1.2-3.4 0.3-7.2 0.6-10.8 0.6-6.4 4.9-11.7 9-16.6 3.8-4.5 7.6-9 11.7-13.3-2.5 4-5.3 8-6.9 12.4-0.7 1.8-1.2 4.1 0.1 5.6 1 1.3 2.7 1.6 4.3 1.7 5 0.4 10.2-0.1 15.1 1.3 4.9 1.4 9.6 5.4 9.6 10.5z"/>
				<path id="&lt;Path&gt;" class="s0" d="m847 1076c0 0 25.3 160.7 70.7 233.4 45.5 72.7 94.9 131.2 103 192.8 8.1 61.6 14.1 168.6 14.1 168.6l52.5-41.4c0 0-15.1-136.3-38.3-196.9-23.2-60.5-77.8-136.7-107-176.8-29.3-40.2-81.1-212.9-81.1-212.9z"/>
				<path id="&lt;Path&gt;" class="s4" d="m426.8 442.2l-8.6 152.8 41.2 89.5 42.3 24.2 27.7-25.6-4.7-107.7-70.1-133.2z"/>
				<path id="&lt;Path&gt;" class="s14" d="m272.6 964.1l11.1-15.8c0 0-49.4-52.4-53.5-70.3-4-17.9 12.2-33 7.1-40.1-5-7-7.8-14-12.5-20.1-4.6-6.1 4.4-39.4 4.4-39.4 0 0 10.5-50.3 2.1-69.7-8.5-19.4-11.1-47.4-19.2-69.1-8.1-21.8-16.2 69.1-16.2 69.1l-40.4 109.1 12.2 83.6 44.4 40.5z"/>
				<path id="&lt;Path&gt;" class="s11" d="m281.1 1913.6c-1.6 1-3.2 2.1-4.1 3.7-1.8 3.3 0.2 7.7 3.5 9.6 3.2 2 7.2 1.9 11 1.5 7.9-0.9 15.5-3.5 23.1-6.1q86.5-29.8 173.1-59.6c3-1 6.1-2.1 8.3-4.4 4.5-4.8 3.2-12.6 0.6-18.6-8.5-19.5-28.4-33.4-49.6-34.6-15.3-0.9-31.4 4.9-42.6 15.4-9.9 9.3-12.7 20.1-24.4 28-32.5 22.4-66 43.4-98.9 65.1z"/>
				<path id="&lt;Path&gt;" class="s11" d="m706.3 1868.1c1.8 3.6 4.7 6.5 7.7 9.1 20.3 17.4 48.4 24.2 67.7 42.8 10 9.4 17.2 21.6 28.1 29.9 8.5 6.5 18.7 10.2 28.7 13.8q15.6 5.6 31.1 11.3c13.6 4.9 29.4 9.6 41.7 2.1q-12.7-11-25.3-22c-11.4-9.8-22.8-19.7-32.4-31.3-25.5-30.9-36.9-72.7-67-99.2-9.5-8.3-20.4-14.7-31.6-20.3-8.1-4.1-16.7-7.8-25.8-7.8-9.1 0.1-18.7 4.8-21.8 13.3-5.1 13.7-7.5 44.7-1.1 58.3z"/>
				<path id="&lt;Path&gt;" class="s18" d="m373.9 609.1l127.8 99.6 122.6-141.3 50.5 126.4 115.7 259.2v21.6c0 0-103.6 110.3-506.1 59.2l-24.2-28.3 39.9-121.1z"/>
				<path id="&lt;Path&gt;" class="s19" d="m501.7 708.7l-27.9 27.8c0 0 1.8 185.3 23 310.7l-12.2 0.1c0 0-30.2-249.3-19.1-309.8z"/>
				<path id="&lt;Path&gt;" class="s15" d="m282.7 978.3c0 0 143.7-364.5 95.6-536.1 0 0-85.1-76.7-82.3-85.8l-64.5 41.5c-9 5.8-8.9 19 0.2 24.6l88 54-51 51.4c-5.5 5.4-3.8 14.6 3.2 17.9l74.9 34.7-83.2 412.9z"/>
				<path id="&lt;Path&gt;" class="s20" d="m234.3 1064.1c0 0 191.8 47.4 332.1 21.2 140.3-26.3 235.2-52.5 253.4-79.8l-29.3-41.4c0 0-104 54.2-198.8 68.7-94.9 14.4-237.3 9.1-315-10.1z"/>
				<path id="&lt;Path&gt;" class="s15" d="m513.9 305.7c0 0-4.3 74.9 25.1 136.5 29.4 61.6 253.6 495.7 259.6 563.3l21.2-49.5c0 0-86.8-148.4-110-197.8-23.2-49.5-51.5-175.7-51.5-175.7l34.6-92c3.8-10.1-0.9-21.5-10.8-25.9l-85.4-38 38.1-65.6c7.3-12.5 0.5-28.6-13.6-32.1-26.5-6.7-68-16.5-107.3-23.2z"/>
				<path id="&lt;Path&gt;" class="s11" d="m488.3 761c-4.8 0-8.7-3.8-8.7-8.6 0-4.8 3.9-8.7 8.7-8.7 4.8 0 8.6 3.9 8.6 8.7 0 4.8-3.8 8.6-8.6 8.6z"/>
				<path id="&lt;Path&gt;" class="s11" d="m492.6 855.4c-4.7 0.8-9.2-2.3-10.1-7-0.8-4.7 2.3-9.2 7-10.1 4.7-0.8 9.2 2.3 10.1 7 0.8 4.7-2.3 9.2-7 10.1z"/>
				<path id="&lt;Path&gt;" class="s5" d="m190.9 1131.7l29.3 25.2c0 0 72-74.9 63.5-101.1-8.4-26.3-92.8 75.9-92.8 75.9z"/>
				<path id="&lt;Path&gt;" class="s11" d="m503.3 963.1c-4.7 0.8-9.2-2.3-10.1-7-0.9-4.7 2.3-9.2 7-10.1 4.7-0.8 9.2 2.3 10 7 0.9 4.7-2.2 9.2-6.9 10.1z"/>
				<path id="&lt;Path&gt;" class="s0" d="m310 1013.6c-18.8 52.5-137.3 153.4-138.7 149.4-1.3-4-64.6-103.6-69.9-125.2-5.4-21.5-75.4-88.8-86.2-113-10.7-24.3 8.1-51.2 18.9-78 8.7-21.6 22.7-125.8 31.3-179.5 2-12.6 3.7-22.4 5-27.7 3.1-12.9-0.6-34.1-3.7-53.8-3.7-23.3-6.5-44.4 3.7-47.4 18.9-5.4 100.9-65.9 100.9-65.9 0 0 57.9 114.1 55.9 152.4-2 38.4-13.6 186.8-15.1 199.4-1.5 12.6-10.1 22.5-10.1 22.5 0 0 8 6.3 10.1 15.9 2 9.6-7.1 15.3-7.1 15.3 21.5 9.8 105 135.6 105 135.6z"/>
				<path id="&lt;Path&gt;" class="s14" d="m208.6 813.2c-3.1 4.2-7.6 7-12.2 9.2-24.4 11.9-53.2 10.6-78.6 20.1-3.8 1.4-8 3.8-8.4 7.8 21.1 0.7 42.2-0.9 62.9-4.8 7.6-1.5 16.3-2.9 22.4 1.9-6.6 3.3-13.5 5.8-20.7 7.3-7.1 1.4-14.9 2.2-20.1 7.2 9.6 5.2 21.9 0.1 32.4 3.1 0.8 0.3 1.7 0.7 2 1.4 0.6 1.5-1.2 2.8-2.7 3.3-7.6 2.4-15.6 3.1-23.4 4.6-22.1 4.1-43.1 14-60.4 28.3-3.5 3-7.3 7.3-5.6 11.7 27.7-4.7 53.6-17 81.1-22.9 6.9-1.5 14.2-2.6 21.1-1.2 7.5 1.6 14.1 6.1 20.5 10.4q15.6 10.7 31.3 21.4c-5.1-15.6-19.1-26.7-25.8-41.7-5.7-12.7-5.7-27.2-4.5-41.1 0.6-7.6 1.6-15.2 2-22.8 0.4-5.2 2.5-18.1-1.1-22.5-5.4-6.7-9.6 15.8-12.2 19.3z"/>
				<path id="&lt;Path&gt;" class="s5" d="m766.7 985.3l-18.2 57.5c0 0 83 52.6 116.7 68.7l17.8-39.4z"/>
				<path id="&lt;Path&gt;" class="s14" d="m137.3 666.6c-5.8 4.2-14.1 1.8-20.1-2.1-6-3.8-11.4-9.1-18.3-10.8-12.2-3-23.3 5.7-33.5 13.6 2-12.6 3.7-22.4 5-27.7 3.1-12.9-0.6-34.1-3.7-53.8 9.6 11.8 22.7 20.4 34.1 30.6 15.5 13.9 28 31.2 36.5 50.2z"/>
				<path id="&lt;Path&gt;" class="s0" d="m739.7 1005.5c40 59.1 118.1 72.7 149.8 82.8 34.7-86.2 76.1-189.3 110.9-275.5 3.3-8.2 6.7-16.6 7-25.5 0.3-8.1-2-16-4.4-23.8-35.1-115.6-90.1-229.5-182.6-307.2-27.1-22.8-96-74.1-111.9-13.9-10.3 39.2 199.8 260.6 143.3 364.9-40 73.8-75.3 128.9-112.1 198.2z"/>
				<path id="&lt;Path&gt;" class="s14" d="m835.2 742.1c27.2 4.2 55.9 0.8 81.5 11.2-2.4 3.1-6.5 4.1-10.4 4.8-8 1.4-16.1 2.1-24.2 2.2-24.9 0.2-50.4-5.8-74.4 0.9-5.6 1.6-11.8 4.6-13.2 10.3-0.2 0.6-0.3 1.4 0.1 2 0.3 0.5 0.9 0.8 1.5 1 19.5 7.8 40.7 10.3 61.7 10.5 20.9 0.2 41.8-1.9 62.8-3.2 3.8-0.2 9.2 1 8.9 4.9-0.2 1.3-1.1 2.5-2 3.4-3.6 3.5-8.4 5.3-13.2 6.7-8 2.3-16.3 3.5-24.6 4.8q-13.7 2-27.3 4c-7.1 1.1-14.4 2.2-21.6 1.6-13.1-1.1-26.3-7.7-39-4.2-1.8 0.5-3.8 1.5-4.5 3.3-0.7 2.2 1 4.5 2.8 6 10.2 8.4 25.3 5.6 38 9.2 3.9 1.1 8.1 3.3 8.8 7.3 0.6 3.2-1.4 6.4-4.2 8.2-2.7 1.7-6.1 2.3-9.3 2.7-14.4 1.9-30.6 1.4-41.3-8.5-8.6-8.1-11.6-20.5-12.6-32.3-0.9-11.1-0.6-22.3 1-33.3 0.9-6.6 2.3-13.7-0.4-19.8-1.9-4.1-5.4-7.3-7.1-11.5-1.4-3.4-0.9-10 3.6-10.9 4.2-0.9 14.4 5.8 18.6 7.4 12.9 5 26.2 9.1 40 11.3z"/>
				<path id="&lt;Path&gt;" class="s18" d="m893.5 1111.5l-11.1 32v0.1l-6.9 19.5c2.5 12.3-0.3 57.3-5.9 118.8-17.8 196.5-64.9 561.3-64.9 561.3-42.4 11.8-107 0-107 0 0-32.6-162.9-525.7-162.9-525.7q-0.4 1.6-0.8 3.2c-33 141-37.1 519-37.1 519-16 9.2-35.2 12-52.9 11.9-30-0.1-55.8-8.4-55.8-8.4-65.4-102.8-122.2-343.2-154.4-501.6-17.9-87.7-28.2-150.3-28.2-150.3-2.7-2.6-4.9-5.1-6.8-7.5-9.4-12.2-7.9-20.7-7.9-20.7 27.6-16 92.8-107.3 92.8-107.3 148.7 81.2 464.8-13 464.8-13 8.4 8.3 145 68.7 145 68.7z"/>
				<path id="&lt;Path&gt;" class="s19" d="m240.3 1203.7c-16.7 25.9-13.8 59.3-9.8 89.9 2 15.7 4 32.2 3.3 48-17.9-87.7-28.2-150.3-28.2-150.3-2.7-2.6-4.9-5.1-6.8-7.5 18.8 0.5 60.7-3.1 64-14.1-3.9 13.1-15 22.5-22.5 34z"/>
				<path id="&lt;Path&gt;" class="s19" d="m875.5 1163.1c2.5 12.3-0.3 57.3-5.9 118.8-3.9-13.9-6.7-28.1-8.5-42.4-2.4-19.7-3.4-41.2-16.4-56.2-9.8-11.2-25.1-17.1-33-29.8 26 2.4 48.5-2.1 70.7-9.9z"/>
				<path id="&lt;Path&gt;" class="s19" d="m534 1320.7c-33 141-37.1 519-37.1 519-16 9.2-35.2 12-52.9 11.9-3.6-12.8-4.7-27.1-4.9-40.2-1.5-122.5 0.7-245.3 12.5-367.3 2.8-30.1 6.3-60.1 10.4-90 3.8-27.9 3.8-65.7 14.8-91.7 6.2-14.5 19.5-26.1 35.5-13.5 15.6 12.4 18.8 52.8 21.7 71.8z"/>
				<g id="&lt;Group&gt;">
					<path id="&lt;Compound Path&gt;" fill-rule="evenodd" class="s21" d="m545.6 1091.6l-68.8 5.8c-11.4 0.9-21.4-7-22.4-17.7l-1.6-19.7c-0.9-10.7 7.6-20.2 19-21.2l68.9-5.8c11.4-1 21.4 7 22.3 17.7l1.7 19.7c0.9 10.7-7.7 20.2-19.1 21.2zm-73-43.1c-5.7 0.4-10 5.2-9.5 10.6l1.6 19.7c0.5 5.4 5.5 9.4 11.3 8.9l68.8-5.8c5.7-0.5 10-5.2 9.6-10.6l-1.7-19.7c-0.4-5.4-5.5-9.4-11.2-8.9z"/>
				</g>
				<g id="&lt;Group&gt;">
					<path id="&lt;Path&gt;" class="s21" d="m523 1069.1c-1.9 0-3.6-1.5-3.8-3.5-0.3-2.1 1.3-4 3.4-4.3l34.3-3.8c2.1-0.2 4 1.3 4.3 3.4 0.2 2.2-1.3 4.1-3.4 4.3l-34.4 3.8q-0.2 0.1-0.4 0.1z"/>
				</g>
			</g>
		</g>
	</g>
</svg>