<svg version="1.2" xmlns="http://www.w3.org/2000/svg" viewBox="0 0 350 340" width="350" height="340">
	<title>23119-ai</title>
	<style>
		.s0 { fill: #41475b } 
		.s1 { fill: #333a4c } 
		.s2 { fill: #292d3a } 
		.s3 { fill: #212530 } 
		.s4 { fill: #fff5cc } 
		.s5 { fill: #eac6a0 } 
		.s6 { fill: #f7d79f } 
		.s7 { fill: #563a3a } 
		.s8 { fill: #ffcd9c } 
		.s9 { opacity: .5;mix-blend-mode: multiply;fill: #bc5642 } 
		.s10 { fill: #5f6475 } 
		.s11 { fill: #ef8f6f } 
		.s12 { fill: #937670 } 
		.s13 { fill: #7c5d59 } 
		.s14 { fill: #4f2d25 } 
		.s15 { fill: #543732 } 
		.s16 { fill: #fff3d9 } 
		.s17 { fill: #798093 } 
		.s18 { fill: #edd9d9 } 
	</style>
	<g id="1">
		<g id="&lt;Group&gt;">
			<g id="&lt;Group&gt;">
				<path id="&lt;Path&gt;" class="s0" d="m47.2 224.4c5.2-7.1 52.4-66.7 64.4-69.6 12-2.8 25.3 41.4 23.5 45.4-4.5 10.1-50 51.3-72.5 48.5-19.4-2.4-19.8-18.4-15.4-24.3z"/>
				<path id="&lt;Path&gt;" class="s1" d="m114.8 155.1c3.5 12.7-2.4 34.3-16.4 55.7-11.7 17.8-26.3 31.4-39 37.3q1.5 0.4 3.2 0.6c22.5 2.8 68.9-34.4 73.4-44.6 1.6-3.6-10.2-44.6-21.2-49z"/>
				<path id="&lt;Path&gt;" class="s2" d="m230.5 302.3c-47.9-14.1-105.9-0.6-105.9-0.6-5.5 55.3 13.5 243.1 20.5 299.9h10.4c0 0 7.8-45.6 10-93.2 0.4-8.4-5.2-25.5-4.7-34 2.9-52.9 10.9-92.4 18.3-92.7 13.9-0.6 17.9 39.7 23.1 92.4 0.7 8.1-5.4 21.3-4.8 29.3 3.9 48.9 12.1 98.2 12.1 98.2h9c15.2-138.8 22-162.8 12-299.3z"/>
				<path id="&lt;Path&gt;" class="s3" d="m178.5 333.5l-7.4-0.3c0 0 4.4 34.3 4.4 35.1l3.7-1.3z"/>
				<path id="&lt;Path&gt;" class="s3" d="m228.8 322.2c-0.4-5.1-24.3-7.3-53.4-4.9-29 2.3-52.2 8.2-51.8 13.3 0.4 5 24.3 7.2 53.3 4.9 29.1-2.3 52.3-8.3 51.9-13.3z"/>
				<path id="&lt;Path&gt;" class="s3" d="m200.9 507.8c-0.7-8.6 6.6-22.9 5.7-31.6-6.1-57-10.5-101.7-27.2-101-8.7 0.3-18.7 44.1-22.3 101.2-0.5 9.2 6.1 27.7 5.7 36.7-1.8 35.9-6.9 70.7-9.8 88.5h2.5c0 0 7.8-45.6 10-93.2 0.4-8.4-5.2-25.5-4.7-34 2.9-52.9 10.9-92.4 18.3-92.7 13.9-0.6 17.9 39.7 23.1 92.4 0.7 8.1-5.4 21.3-4.8 29.3 3.9 48.9 12.1 98.2 12.1 98.2h3.7c-3.2-18.8-9-56.4-12.3-93.8z"/>
				<path id="&lt;Path&gt;" class="s4" d="m123.5 320.6c-0.8-44.7-9.1-160.3 11.6-171.3 9.4-5 27.6-10.6 44.9-9.6 19.7 1 38.2 9.3 42.1 14.6 8.6 11.8 7.7 133.8 8.6 166 0 1.2-79.6 24.3-107.2 0.3z"/>
				<path id="&lt;Path&gt;" class="s5" d="m150.6 142.9l14.3 15 9.6-11.8 10 11.8 16.8-14.6-12-3.1-12.8 2.7-18-2.4z"/>
				<path id="&lt;Path&gt;" class="s6" d="m178.6 280.6c-20.8 0-40.2-4.8-56.8-13.3 0.6 21 1.5 40.2 1.7 53.3 27.6 24 107.2 0.9 107.2-0.3-0.3-10-0.4-28.9-0.7-50.4-15.3 6.8-32.8 10.7-51.4 10.7z"/>
				<path id="&lt;Path&gt;" class="s7" d="m179.6 321.5l-13.7-14.3 6.2-157.4 6.8-0.4 11.7 157.1z"/>
				<path id="&lt;Path&gt;" class="s8" d="m158.7 114.9h35.4v28.1h-35.4z"/>
				<path id="&lt;Path&gt;" class="s7" d="m185.7 143.8l-10.1-4.3-9.8 5.8 10.8 15.6z"/>
				<path id="&lt;Path&gt;" class="s9" d="m179.9 297.9c0 0 10.1 38.4 52.7 54.1-0.7-29.8-2-48.3-2.1-49.6l-46.5-21.9q-2.7 0.1-5.4 0.1-2.6 0-5.2-0.1l-50.4 21.4c0.2 7 0.4 13.4 0.5 18.7q0 0 0 0c-0.3 13.1-0.1 28.4 0.5 45 13.6-11.3 51.9-45 55.9-67.7z"/>
				<path id="&lt;Path&gt;" class="s0" d="m119.8 354c19.3-8 60.9-40.3 60.9-79.2 0-38.9-21.6-113.6-31.4-133.7 0 0-39.3 8.5-43.1 19.7-3.7 11.3 13.6 193.2 13.6 193.2z"/>
				<path id="&lt;Path&gt;" class="s1" d="m177.9 292.5c1.8-5.7 2.8-11.6 2.8-17.7 0-12.8-2.3-29.5-5.8-46.8-7.1 32.8-3.1 51.9 3 64.5z"/>
				<path id="&lt;Path&gt;" class="s1" d="m118.7 261.9c-3-29.7-7-62.1-13-69.1 3.5 52.6 12.8 146.7 14 159.4 5-15.3 2.5-56-1-90.3z"/>
				<path id="&lt;Path&gt;" class="s0" d="m236.2 345.4c-19.7-7.5-61.6-41.1-62.5-80-0.9-38.9 22-104.7 31.5-125.1 0 0 30.5 5.2 34.6 16.3 4.1 11.2-3.6 188.8-3.6 188.8z"/>
				<path id="&lt;Path&gt;" class="s1" d="m231.4 207.1c-9.1 49.6-8.6 133.1 4.8 138.3 0 0 4.7-81.5 5.7-137.6 0.5-26.3-7-19.9-10.5-0.7z"/>
				<path id="&lt;Path&gt;" class="s4" d="m166.2 153.9l8.6-14.2-17.6-4.1-5.2 4.8z"/>
				<path id="&lt;Path&gt;" class="s4" d="m184.9 153.9l-9.1-14.2 18.5-4.1 5.4 6.4z"/>
				<path id="&lt;Path&gt;" class="s1" d="m212.5 141.6l-36.1 88.3-32.1-87.3-9.8 2.6 42.4 96.6 43-98.1z"/>
				<path id="&lt;Path&gt;" class="s10" d="m176.8 237.3l-41.2-95.9 14.1-3.3c0 0 22 42.9 27.1 99.2z"/>
				<path id="&lt;Path&gt;" class="s10" d="m176 233.8l0.7 4.1 40.4-96.5-13.6-3.3c0 0-22.6 39.5-27.5 95.7z"/>
				<path id="&lt;Path&gt;" class="s0" d="m233.6 149.9c-12.2-1.3-9.2 49-6.9 52.7 3.4 5.6 31.7 34.7 51.5 39.7 13.8 3.5 25.9 3.6 28.2-4.1 7.7-25.1-67.8-87.7-72.8-88.3z"/>
				<path id="&lt;Path&gt;" class="s1" d="m243.3 212.5c-7-6.1-10.2-6.2-15.2-12.6 1.7 19.6 31 37.5 50.1 42.4 13.8 3.5 25.9 3.6 28.2-4.1q0.2-0.6 0.3-1.2c-13.3 5.7-39.7-4.1-63.4-24.5z"/>
				<g id="&lt;Group&gt;">
					<path id="&lt;Path&gt;" class="s8" d="m218.7 320.1c3.6-5.3 10.3-8 15.2-12.4l5.6 2.7c-5.5 6.6-9 14.2-11.6 15.3-0.9 0.5-10.5-3.9-9.2-5.6z"/>
					<path id="&lt;Path&gt;" class="s8" d="m230.1 323c-1.7 2.5-4.5 10.4-5.7 9.9-1.9-0.8 0.9-6.5 2.4-9.9 1.9-4.4 3.3 0 3.3 0z"/>
					<path id="&lt;Path&gt;" class="s8" d="m221.8 320.8c-2 2.1-7.8 9.6-8.9 8.9-1.9-1.2 4.6-9 6.8-11.1 3.4-3.1 2.1 2.2 2.1 2.2z"/>
					<path id="&lt;Path&gt;" class="s8" d="m222.4 317.3c0.1-5.5-6.7-1-8-3.3-1.7-3.3 11.6-2.9 16.7-4.1 4.3-1-8.7 7.4-8.7 7.4z"/>
					<path id="&lt;Path&gt;" class="s8" d="m224.9 323.2c-1.7 2.5-7.2 11.1-8.4 10.6-1.9-0.8 3.9-9.2 5.5-11.9 2.5-4 2.9 1.3 2.9 1.3z"/>
				</g>
				<g id="&lt;Group&gt;">
					<path id="&lt;Path&gt;" class="s8" d="m134.3 314.4c-3.8-5.2-10.7-7.9-15.8-12.3l-5.9 2.6c5.8 6.6 9.4 14.2 12.1 15.4 1 0.4 10.9-3.9 9.6-5.7z"/>
					<path id="&lt;Path&gt;" class="s8" d="m122.4 317.4c1.8 2.5 4.7 10.3 6 9.9 1.9-0.8-1-6.6-2.5-9.9-2-4.4-3.5 0-3.5 0z"/>
					<path id="&lt;Path&gt;" class="s8" d="m131 315.2c2.1 2.1 8.2 9.6 9.3 8.9 2-1.2-4.8-9.1-7.1-11.1-3.5-3.2-2.2 2.2-2.2 2.2z"/>
					<path id="&lt;Path&gt;" class="s8" d="m130.4 311.7c0-5.5 7.1-1 8.3-3.4 1.8-3.2-12-2.8-17.4-4-4.4-1 9.1 7.4 9.1 7.4z"/>
					<path id="&lt;Path&gt;" class="s8" d="m127.8 317.6c1.8 2.4 7.5 11.1 8.8 10.5 1.9-0.7-4-9.2-5.8-11.8-2.6-4-3 1.3-3 1.3z"/>
				</g>
				<path id="&lt;Path&gt;" class="s6" d="m228.6 303.6l8.1-9.8 10.9 16.6-10.9 9.1z"/>
				<path id="&lt;Path&gt;" class="s0" d="m303 223.8c-3.5-3.2-20.1 0.6-23.1 4.6-2.9 3.9-44.3 58.2-48.1 63.6l16.3 27.8c0 0 48.1-58.7 54.1-66.1 6.4-8 6.6-24.5 0.8-29.9z"/>
				<path id="&lt;Path&gt;" class="s1" d="m282.2 271c-21.6 23.5-33.9 32.8-41.9 35.4l7.8 13.4c0 0 48.1-58.7 54.1-66.1 3.2-3.9 4.8-9.9 5-15.7-5.3 9.5-14 21.1-25 33z"/>
				<path id="&lt;Path&gt;" class="s1" d="m264.4 248.8l3-9.2-10-9.3 15.6 3.5 15.9-11.3z"/>
				<path id="&lt;Path&gt;" class="s6" d="m113.4 314.7l-11.6-8.1 15.3-12.8 7.1 6.8z"/>
				<path id="&lt;Path&gt;" class="s0" d="m47.2 224.4c3.5-3.3 20.1 0.5 23 4.4 3 4 46.9 53.1 50.7 58.4l-14.7 29.5c0 0-51.8-56.8-57.8-64.2-6.4-7.9-7.1-22.7-1.2-28.1z"/>
				<path id="&lt;Path&gt;" class="s1" d="m66.9 265.3c-11.4-10.6-19.9-21.8-23.7-30.9-0.7 6.8 0.9 14.9 4.8 19.8 6 7.4 58.2 62.5 58.2 62.5l10.1-20.1c-12.1-2.5-33.9-17.1-49.4-31.3z"/>
				<path id="&lt;Path&gt;" class="s10" d="m105.7 301.4c-1.6 0-2.8-1.6-2.8-3.5 0-2 1.2-3.6 2.8-3.6 1.5 0 2.7 1.6 2.7 3.6 0 1.9-1.2 3.5-2.7 3.5z"/>
				<path id="&lt;Path&gt;" class="s10" d="m251.7 305.6c-1.5 0-2.8-1.5-2.8-3.5 0-1.9 1.3-3.5 2.8-3.5 1.5 0 2.8 1.6 2.8 3.5 0 2-1.3 3.5-2.8 3.5z"/>
				<path id="&lt;Path&gt;" class="s8" d="m149.3 109.9c-9.5-5.5-16.7-15.3-16-23.6 0.6-8.2 10.1-7.7 14-1.5 3.8 6.2 5.6 27.2 2 25.1z"/>
				<path id="&lt;Path&gt;" class="s8" d="m200.5 111c9.9-5.3 17-14.8 16.6-23.1-0.5-8.5-10.1-9.6-14.2-3.4-4.2 6.2-6.4 28.6-2.4 26.5z"/>
				<path id="&lt;Path&gt;" class="s11" d="m200.9 105.9c6.7-3.5 11.6-9.8 11.3-15.5-0.4-5.7-6.9-6.3-9.7-2.2-2.8 4.2-4.2 19-1.6 17.7z"/>
				<path id="&lt;Path&gt;" class="s8" d="m201.5 106.4c3.8-2.4 6.4-6.5 5.9-9.9-0.5-3.4-4.4-3.4-5.9-0.8-1.4 2.7-1.5 11.6 0 10.7z"/>
				<path id="&lt;Path&gt;" class="s11" d="m149.6 105.5c-6.4-3.6-11.2-10.1-10.7-15.6 0.4-5.5 6.7-5.2 9.2-1.1 2.6 4.2 3.8 18.1 1.5 16.7z"/>
				<path id="&lt;Path&gt;" class="s8" d="m150.6 107.1c-4.2-2.3-7.3-6.6-6.9-10.1 0.4-3.6 4.7-3.4 6.3-0.7 1.6 2.7 2.2 11.7 0.6 10.8z"/>
				<path id="&lt;Path&gt;" class="s12" d="m202.2 27.5c-8.8-2.9-46.4-5.9-58.8 5.8-22.2 20.8 2.1 56 8.5 71.6l50.1-2c23.7-40.9 15.1-70.5 0.2-75.4z"/>
				<path id="&lt;Path&gt;" class="s13" d="m181 63c-20.9 0-38.6-7.7-45-18.5-7.3 20.7 10.6 47.4 15.9 60.4l50.1-2c11.3-19.4 15.2-36.3 14.7-49.2-8.7 5.7-21.5 9.3-35.7 9.3z"/>
				<path id="&lt;Path&gt;" class="s8" d="m149.4 121.3c0.5 5.2 24 12.6 28.8 12.6 4.7 0 26.9-8.8 26.9-12.2 0-3.3 0.7-53.3 1.1-57.2 0.4-3.8 2.6-43.5-29.8-43.5-32.4 0-29 36.9-29 49.9 0 12.9 1.7 45.9 2 50.4z"/>
				<g id="&lt;Group&gt;">
					<path id="&lt;Path&gt;" class="s12" d="m154.2 61.9c-2-1.4-0.8-5.8 0.7-6.7 1.6-0.9 17.4 0.5 18 1.6 0.6 1.2-1.7 7.8-2.6 8.4-0.9 0.6-14-1.7-16.1-3.3z"/>
					<path id="&lt;Path&gt;" class="s12" d="m199.4 63.4c2-1.3 1.1-5.8-0.3-6.8-1.5-1-17.2-0.6-17.9 0.5-0.6 1.1 1.2 7.9 2 8.5 0.9 0.6 14-0.8 16.2-2.2z"/>
					<path id="&lt;Path&gt;" class="s14" d="m166.5 105.8c0 0 20.7-4.2 21.2-4 0.5 0.2 0.5 13-1.4 13.7-1.8 0.8-16.5 0.8-17.6-0.1-1.1-0.9-2.2-9.6-2.2-9.6z"/>
					<path id="&lt;Path&gt;" class="s15" d="m161.6 76.9c-1.8 0-3.2-2.4-3.2-5.4 0-2.9 1.4-5.3 3.2-5.3 1.7 0 3.1 2.4 3.1 5.3 0 3-1.4 5.4-3.1 5.4z"/>
					<path id="&lt;Path&gt;" class="s15" d="m189.2 77.4c-1.7 0-3.1-2.4-3.1-5.3 0-3 1.4-5.4 3.1-5.4 1.7 0 3.1 2.4 3.1 5.4 0 2.9-1.4 5.3-3.1 5.3z"/>
					<path id="&lt;Path&gt;" class="s16" d="m186.8 109.2c0.3-3 0.2-6.1 0-6.2-0.4-0.2-18.6 2.8-18.6 2.8 0 0 0.2 1.7 0.4 3.6z"/>
					<path id="&lt;Path&gt;" class="s12" d="m160.8 106.3l32.5-1.4c0 0-4.1-11.3-16.6-11.3-12.5 0-15.9 12.7-15.9 12.7z"/>
					<path id="&lt;Path&gt;" class="s11" d="m173.3 71.6c0 0-3.6 22.1-2.9 22.7 0.4 0.2 3.3 2 6.3 2.2 2.8 0.2 5.7-1.1 6.2-2.1 0.8-1.5-3.3-23.1-3.3-23.1z"/>
					<path id="&lt;Path&gt;" class="s8" d="m174.4 70.2c0 0-3 22.8-2.5 23.4 0.6 0.5 8.7 2.2 9.5 0 0.7-1.6-2.3-23.8-2.3-23.8z"/>
				</g>
				<path id="&lt;Path&gt;" class="s10" d="m199.9 220.7h25.7v5.2h-25.7z"/>
				<path id="&lt;Path&gt;" class="s3" d="m159 372.5c8 2.5 34.1 0.9 40.9-3.2 0 0-7.3 13.8-21.7 11.8-14.3-2-19.2-8.6-19.2-8.6z"/>
				<path id="&lt;Path&gt;" class="s10" d="m184.4 333l-11.7 0.5v5.5l11.7-0.5z"/>
				<path id="&lt;Path&gt;" class="s17" d="m184.7 281.4c-2 0-3.5-1.7-3.5-3.9 0-2.1 1.5-3.9 3.5-3.9 1.9 0 3.5 1.8 3.5 3.9 0 2.2-1.6 3.9-3.5 3.9z"/>
				<path id="&lt;Path&gt;" class="s17" d="m184.7 257.4c-2 0-3.5-1.7-3.5-3.8 0-2.2 1.5-3.9 3.5-3.9 1.9 0 3.5 1.7 3.5 3.9 0 2.1-1.6 3.8-3.5 3.8z"/>
				<path id="&lt;Path&gt;" class="s18" d="m207.1 604h26.3c0 0-16-15.4-20.1-12.6-4.1 2.9-6.2 12.6-6.2 12.6z"/>
				<path id="&lt;Path&gt;" class="s18" d="m156.3 604h-24.7c0 0 15.7-15.4 21.2-12.6 5.6 2.9 3.5 12.6 3.5 12.6z"/>
			</g>
		</g>
	</g>
</svg>