<svg version="1.2" xmlns="http://www.w3.org/2000/svg" viewBox="0 0 1000 650" width="1000" height="650">
	<title>133977-OS79E7-359-ai</title>
	<style>
		tspan { white-space:pre } 
		.s0 { fill: #ffffff;stroke: #211915;stroke-width: 4 } 
		.s1 { fill: #211915 } 
		.s2 { fill: #ffffff } 
	</style>
	<g id="BACKGROUND">
	</g>
	<g id="OBJECTS">
		<g id="&lt;Group&gt;">
			<path id="&lt;Path&gt;" class="s0" d="m461.8 68.2c0 0-412.7 13.7-433.7 202.8-21.1 189 244.7 213.8 335.1 220.9 37.2 2.9 126.9 7.8 221 2.6 0 0-15 27.8 44.1 36.2 59.1 8.4 86.5 5.3 86.5 5.3 0 0 54.9 51.7-25.3 71.7 0 0 75 4.5 82.3-70.7 0 0 86.9-30 19.7-79.9 45.6-18.6 77.1-45.4 81.4-83.7 16.2-144.6-49.1-313.5-411.1-305.2z"/>
			<g id="&lt;Group&gt;">
				<g id="&lt;Group&gt;">
					<path id="&lt;Path&gt;" class="s1" d="m918.1 307.1c0.4 25.2-4.2 48.8-12.2 72.8-4.9 14.5 18.1 20.7 22.9 6.3 8.7-25.8 13.5-51.9 13.1-79.1-0.2-15.3-24-15.3-23.8 0z"/>
				</g>
			</g>
			<g id="&lt;Group&gt;">
				<g id="&lt;Group&gt;">
					<path id="&lt;Path&gt;" class="s1" d="m949.8 329.2q0 15.8 0 31.7c0 15.2 23.7 15.3 23.7 0q0-15.9 0-31.7c0-15.3-23.7-15.3-23.7 0z"/>
				</g>
			</g>
			<g id="&lt;Group&gt;">
				<g id="&lt;Group&gt;">
					<path id="&lt;Path&gt;" class="s1" d="m85 127.5c-4.9-0.4-10.4 2.8-14.6 4.9-5.7 2.8-11.3 5.9-16.7 9.3-12.9 8.2-1 28.8 12 20.5q6.9-4.4 14.2-8.1c1.9-1 3.9-1.9 5.8-2.8-2.4 1.1 0.4-0.2 0.6-0.2 2.1 0.3-2.7 0-1.3 0.1 6.4 0.5 11.9-5.8 11.9-11.9 0-6.8-5.5-11.3-11.9-11.8z"/>
				</g>
			</g>
			<g id="&lt;Group&gt;">
				<g id="&lt;Group&gt;">
					<path id="&lt;Path&gt;" class="s1" d="m59.7 102.1q-3.2 0-6.3 0c-6.2 0-12.2 5.5-11.9 11.9 0.3 6.4 5.2 11.9 11.9 11.9q3.1 0 6.3 0c6.2 0 12.1-5.5 11.9-11.9-0.3-6.4-5.3-11.9-11.9-11.9z"/>
				</g>
			</g>
			<g id="&lt;Group&gt;">
				<g id="&lt;Group&gt;">
					<path id="&lt;Path&gt;" class="s1" d="m255.9 501.3q-14.1-5.1-28.5-9.5c-14.6-4.4-20.9 18.5-6.3 22.9q14.4 4.4 28.5 9.5c6 2.2 13-2.4 14.6-8.3 1.8-6.6-2.2-12.4-8.3-14.6z"/>
				</g>
			</g>
			<g id="&lt;Group&gt;">
				<g id="&lt;Group&gt;">
					<path id="&lt;Path&gt;" class="s1" d="m227.4 532.6q-6.3 0-12.6 0c-6.2 0-12.2 5.4-11.9 11.8 0.3 6.5 5.2 11.9 11.9 11.9q6.3 0 12.6 0c6.2 0 12.2-5.5 11.9-11.9-0.3-6.4-5.2-11.8-11.9-11.8z"/>
				</g>
			</g>
			<g id="&lt;Group&gt;">
				<g id="&lt;Group&gt;">
					<path id="&lt;Path&gt;" class="s1" d="m786.4 79.2c-4.2-13.3-14.2-22.8-27.3-27.3-5.9-2-13.2 2.3-14.6 8.3-1.5 6.6 2 12.5 8.3 14.6 3.3 1.1-1.8-1.1 1.2 0.5q1.3 0.6 2.4 1.3c0.8 0.4 1.6 0.9 2.3 1.5-1.9-1.5 0.7 0.7 0.8 0.9 1.7 1.6 3.3 4.3 4 6.5 1.8 5.9 8.3 10.3 14.6 8.3 5.9-1.9 10.3-8.2 8.3-14.6z"/>
				</g>
			</g>
			<g id="&lt;Group&gt;">
				<g id="&lt;Group&gt;">
					<path id="&lt;Path&gt;" class="s1" d="m815.3 60.2q0-3.2 0-6.3c0-6.2-5.5-12.2-11.9-11.9-6.4 0.3-11.8 5.2-11.8 11.9q0 3.1 0 6.3c0 6.2 5.4 12.2 11.8 11.9 6.5-0.3 11.9-5.2 11.9-11.9z"/>
				</g>
			</g>
		</g>
	</g>
	<g id="DESIGNED BY FREEPIK">
		<g id="&lt;Group&gt;">
			<g id="&lt;Group&gt;">
				<path id="&lt;Compound Path&gt;" fill-rule="evenodd" class="s2" d="m360.6 789v-0.3q-0.6 0.7-1.3 1.2-0.6 0.4-1.4 0.7-0.7 0.2-1.6 0.2-1.1 0-2.1-0.5-1-0.5-1.7-1.4-0.8-0.9-1.1-2.1-0.4-1.3-0.4-2.7 0-3 1.5-4.7 1.5-1.7 3.9-1.7 1.4 0 2.3 0.5 1 0.4 1.9 1.4v-4.7q0-1 0.4-1.6 0.4-0.5 1.1-0.5 0.8 0 1.2 0.5 0.4 0.5 0.4 1.4v14.3q0 0.9-0.4 1.4-0.5 0.4-1.2 0.4-0.6 0-1.1-0.4-0.4-0.5-0.4-1.4zm-6.4-4.8q0 1.3 0.4 2.3 0.5 0.9 1.2 1.4 0.7 0.4 1.5 0.4 0.9 0 1.6-0.4 0.7-0.5 1.1-1.4 0.4-0.9 0.4-2.3 0-1.3-0.4-2.2-0.4-0.9-1.1-1.4-0.7-0.5-1.6-0.5-0.9 0-1.6 0.5-0.7 0.5-1.1 1.4-0.4 1-0.4 2.2z"/>
				<path id="&lt;Compound Path&gt;" fill-rule="evenodd" class="s2" d="m374.9 785h-6.3q0 1.1 0.4 2 0.4 0.8 1.2 1.3 0.7 0.4 1.6 0.4 0.5 0 1-0.2 0.5-0.1 0.9-0.4 0.5-0.3 0.9-0.6 0.4-0.3 1-0.9 0.2-0.2 0.7-0.2 0.5 0 0.8 0.3 0.3 0.2 0.3 0.7 0 0.5-0.4 1.1-0.3 0.5-1 1.1-0.7 0.5-1.7 0.9-1.1 0.3-2.5 0.3-3.1 0-4.8-1.7-1.7-1.8-1.7-4.9 0-1.4 0.4-2.6 0.4-1.3 1.2-2.2 0.8-0.8 2-1.3 1.2-0.5 2.7-0.5 1.9 0 3.3 0.8 1.3 0.8 2 2.1 0.7 1.3 0.7 2.6 0 1.2-0.7 1.6-0.7 0.3-2 0.3zm-6.3-1.8h5.8q-0.1-1.7-0.9-2.5-0.7-0.8-2-0.8-1.2 0-2 0.8-0.8 0.9-0.9 2.5z"/>
				<path id="&lt;Compound Path&gt;" class="s2" d="m389.7 786.6q0 1.3-0.7 2.3-0.6 0.9-1.9 1.4-1.3 0.5-3.1 0.5-1.8 0-3-0.5-1.2-0.5-1.8-1.3-0.6-0.8-0.6-1.6 0-0.6 0.3-1 0.4-0.3 1-0.3 0.5 0 0.8 0.2 0.3 0.3 0.5 0.7 0.5 0.9 1.2 1.3 0.7 0.4 1.9 0.4 1 0 1.6-0.4 0.6-0.4 0.6-1 0-0.8-0.6-1.2-0.7-0.4-2.2-0.8-1.6-0.4-2.7-0.9-1-0.4-1.7-1.2-0.6-0.7-0.6-1.8 0-1 0.6-1.8 0.6-0.9 1.7-1.4 1.1-0.5 2.7-0.5 1.3 0 2.3 0.2 1 0.3 1.7 0.7 0.6 0.5 1 1 0.3 0.5 0.3 1 0 0.6-0.3 0.9-0.4 0.4-1.1 0.4-0.5 0-0.8-0.3-0.4-0.3-0.8-0.8-0.4-0.5-0.9-0.8-0.5-0.3-1.4-0.3-0.8 0-1.4 0.4-0.6 0.4-0.6 0.9 0 0.5 0.4 0.9 0.5 0.3 1.2 0.5 0.7 0.2 2 0.5 1.5 0.4 2.4 0.9 1 0.5 1.5 1.2 0.5 0.7 0.5 1.6z"/>
				<path id="&lt;Compound Path&gt;" class="s2" d="m393 776.1q-0.7 0-1.2-0.4-0.5-0.4-0.5-1.1 0-0.7 0.5-1.2 0.5-0.4 1.2-0.4 0.6 0 1.1 0.4 0.5 0.4 0.5 1.2 0 0.7-0.5 1.1-0.5 0.4-1.1 0.4zm1.6 3.4v9.4q0 0.9-0.5 1.4-0.4 0.5-1.1 0.5-0.8 0-1.2-0.5-0.5-0.5-0.5-1.4v-9.3q0-1 0.5-1.5 0.4-0.4 1.2-0.4 0.7 0 1.1 0.4 0.5 0.5 0.5 1.4z"/>
				<path id="&lt;Compound Path&gt;" fill-rule="evenodd" class="s2" d="m408.8 780v9.4q0 1.7-0.4 2.8-0.3 1.2-1.1 1.9-0.7 0.8-1.9 1.2-1.3 0.3-3.1 0.3-1.7 0-3-0.4-1.3-0.5-2-1.2-0.7-0.8-0.7-1.6 0-0.6 0.4-0.9 0.4-0.4 0.9-0.4 0.7 0 1.3 0.6 0.2 0.3 0.5 0.7 0.3 0.3 0.6 0.5 0.4 0.3 0.9 0.4 0.4 0.1 1 0.1 1.3 0 2-0.4 0.7-0.3 1-0.9 0.3-0.7 0.3-1.4 0-0.7 0.1-2.3-0.8 1-1.8 1.6-0.9 0.5-2.3 0.5-1.6 0-2.8-0.8-1.3-0.8-1.9-2.3-0.7-1.5-0.7-3.5 0-1.4 0.4-2.6 0.4-1.2 1.2-2 0.7-0.8 1.7-1.2 0.9-0.4 2.1-0.4 1.4 0 2.4 0.5 1 0.5 1.8 1.7v-0.5q0-0.8 0.5-1.3 0.4-0.4 1-0.4 1 0 1.3 0.6 0.3 0.6 0.3 1.7zm-9.4 4.1q0 2 0.9 3 0.8 1 2.2 1 0.8 0 1.5-0.4 0.7-0.4 1.2-1.3 0.4-0.9 0.4-2.1 0-2-0.8-3.1-0.9-1.1-2.3-1.1-1.4 0-2.3 1-0.8 1.1-0.8 3z"/>
				<path id="&lt;Compound Path&gt;" class="s2" d="m413.9 779.4v0.4q0.9-1.1 1.9-1.6 1-0.5 2.3-0.5 1.3 0 2.3 0.5 1 0.6 1.5 1.6 0.4 0.6 0.5 1.3 0.1 0.7 0.1 1.7v6.1q0 0.9-0.5 1.4-0.4 0.5-1.2 0.5-0.7 0-1.1-0.5-0.5-0.5-0.5-1.4v-5.4q0-1.6-0.4-2.5-0.5-0.8-1.8-0.8-0.9 0-1.6 0.5-0.7 0.5-1 1.4-0.3 0.7-0.3 2.7v4.1q0 0.9-0.4 1.4-0.5 0.5-1.2 0.5-0.7 0-1.1-0.5-0.5-0.5-0.5-1.4v-9.4q0-0.9 0.4-1.4 0.4-0.4 1.1-0.4 0.4 0 0.8 0.2 0.3 0.2 0.5 0.6 0.2 0.4 0.2 0.9z"/>
				<path id="&lt;Compound Path&gt;" fill-rule="evenodd" class="s2" d="m433.7 785h-6.4q0 1.1 0.5 2 0.4 0.8 1.1 1.3 0.7 0.4 1.6 0.4 0.6 0 1.1-0.2 0.4-0.1 0.9-0.4 0.4-0.3 0.8-0.6 0.4-0.3 1-0.9 0.3-0.2 0.7-0.2 0.5 0 0.8 0.3 0.3 0.2 0.3 0.7 0 0.5-0.3 1.1-0.3 0.5-1 1.1-0.7 0.5-1.8 0.9-1 0.3-2.4 0.3-3.1 0-4.9-1.7-1.7-1.8-1.7-4.9 0-1.4 0.4-2.6 0.5-1.3 1.3-2.2 0.8-0.8 2-1.3 1.2-0.5 2.7-0.5 1.9 0 3.2 0.8 1.4 0.8 2.1 2.1 0.6 1.3 0.6 2.6 0 1.2-0.7 1.6-0.7 0.3-1.9 0.3zm-6.4-1.8h5.9q-0.1-1.7-0.9-2.5-0.8-0.8-2-0.8-1.3 0-2 0.8-0.8 0.9-1 2.5z"/>
				<path id="&lt;Compound Path&gt;" fill-rule="evenodd" class="s2" d="m446.9 789v-0.3q-0.7 0.7-1.3 1.2-0.7 0.4-1.4 0.7-0.7 0.2-1.6 0.2-1.2 0-2.2-0.5-1-0.5-1.7-1.4-0.7-0.9-1.1-2.1-0.4-1.3-0.4-2.7 0-3 1.5-4.7 1.5-1.7 3.9-1.7 1.4 0 2.4 0.5 1 0.4 1.9 1.4v-4.7q0-1 0.4-1.6 0.4-0.5 1.1-0.5 0.7 0 1.1 0.5 0.4 0.5 0.4 1.4v14.3q0 0.9-0.4 1.4-0.4 0.4-1.1 0.4-0.7 0-1.1-0.4-0.4-0.5-0.4-1.4zm-6.4-4.8q0 1.3 0.4 2.3 0.4 0.9 1.1 1.4 0.7 0.4 1.6 0.4 0.8 0 1.5-0.4 0.8-0.5 1.2-1.4 0.4-0.9 0.4-2.3 0-1.3-0.4-2.2-0.4-0.9-1.2-1.4-0.7-0.5-1.5-0.5-0.9 0-1.6 0.5-0.7 0.5-1.1 1.4-0.4 1-0.4 2.2z"/>
				<path id="&lt;Compound Path&gt;" fill-rule="evenodd" class="s2" d="m460.1 774.7v4.9q0.9-0.9 1.9-1.4 0.9-0.5 2.3-0.5 1.6 0 2.9 0.7 1.2 0.8 1.9 2.3 0.6 1.4 0.6 3.4 0 1.5-0.4 2.7-0.3 1.2-1 2.1-0.8 0.9-1.8 1.4-1 0.5-2.2 0.5-0.8 0-1.4-0.1-0.7-0.2-1.1-0.5-0.5-0.3-0.8-0.6-0.3-0.3-0.9-0.9v0.3q0 0.9-0.4 1.4-0.5 0.4-1.1 0.4-0.7 0-1.1-0.4-0.4-0.5-0.4-1.4v-14.2q0-1 0.4-1.5 0.4-0.5 1.1-0.5 0.7 0 1.1 0.5 0.4 0.5 0.4 1.4zm0.2 9.6q0 2 0.9 3 0.8 1 2.3 1 1.2 0 2.1-1 0.9-1.1 0.9-3.1 0-1.3-0.4-2.2-0.4-0.9-1-1.4-0.7-0.5-1.6-0.5-0.9 0-1.7 0.5-0.7 0.5-1.1 1.4-0.4 1-0.4 2.3z"/>
				<path id="&lt;Compound Path&gt;" class="s2" d="m473.9 791.2l0.3-0.7-4-10q-0.3-0.9-0.3-1.3 0-0.4 0.2-0.8 0.2-0.3 0.6-0.5 0.3-0.2 0.7-0.2 0.7 0 1.1 0.4 0.4 0.4 0.6 1.3l2.8 8 2.6-7.5q0.3-0.9 0.5-1.4 0.3-0.5 0.6-0.7 0.2-0.1 0.7-0.1 0.4 0 0.8 0.1 0.3 0.2 0.5 0.6 0.2 0.3 0.2 0.7-0.1 0.2-0.2 0.6-0.1 0.4-0.3 0.9l-4.2 11q-0.5 1.5-1.1 2.3-0.5 0.9-1.3 1.3-0.9 0.4-2.4 0.4-1.4 0-2.1-0.3-0.7-0.3-0.7-1.1 0-0.6 0.3-0.9 0.4-0.3 1-0.3 0.3 0 0.5 0.1 0.4 0.1 0.6 0.1 0.5 0 0.9-0.2 0.3-0.1 0.5-0.6 0.3-0.4 0.6-1.2z"/>
			</g>
			<g id="&lt;Group&gt;">
				<path id="&lt;Path&gt;" class="s2" d="m520.9 777.9h0.8v-0.9q-0.1-1.6 0.3-2.5 0.4-0.9 1.3-1.3 1-0.4 2.6-0.4 2.8 0 2.8 1.4 0 0.5-0.3 0.8-0.3 0.3-0.7 0.3-0.2 0-0.7-0.1-0.4 0-0.7 0-0.9 0-1.2 0.5-0.2 0.5-0.2 1.5v0.7h0.8q1.8 0 1.8 1.2 0 0.7-0.5 1-0.4 0.2-1.3 0.2h-0.8v8.6q0 0.9-0.5 1.4-0.4 0.5-1.1 0.5-0.7 0-1.2-0.5-0.5-0.5-0.4-1.4v-8.6h-0.9q-0.8 0-1.2-0.4-0.4-0.3-0.3-0.8 0-1.2 1.6-1.2z"/>
				<path id="&lt;Path&gt;" class="s2" d="m531.5 786.2v2.7q0 0.9-0.5 1.4-0.4 0.5-1.1 0.5-0.8 0-1.2-0.5-0.5-0.5-0.5-1.4v-9.1q0-2.2 1.6-2.2 0.8 0 1.2 0.6 0.3 0.5 0.4 1.5 0.6-1 1.2-1.5 0.6-0.6 1.6-0.6 1 0 2 0.6 1 0.5 0.9 1.3 0 0.6-0.4 1-0.4 0.4-0.8 0.4-0.2 0-0.9-0.2-0.7-0.3-1.2-0.3-0.7 0-1.2 0.4-0.4 0.4-0.7 1.1-0.2 0.8-0.3 1.8-0.1 1-0.1 2.5z"/>
				<path id="&lt;Compound Path&gt;" fill-rule="evenodd" class="s2" d="m546.4 785h-6.4q0.1 1.1 0.5 2 0.4 0.8 1.1 1.3 0.8 0.4 1.6 0.4 0.6 0 1.1-0.2 0.5-0.1 0.9-0.4 0.5-0.3 0.9-0.6 0.3-0.3 0.9-0.9 0.3-0.2 0.8-0.2 0.5 0 0.8 0.3 0.3 0.2 0.3 0.7 0 0.5-0.4 1-0.3 0.6-1 1.2-0.7 0.5-1.8 0.9-1 0.3-2.4 0.3-3.1 0-4.8-1.7-1.8-1.8-1.8-4.9 0-1.4 0.5-2.7 0.4-1.2 1.2-2.1 0.8-0.8 2-1.3 1.2-0.5 2.7-0.5 1.9 0 3.2 0.8 1.4 0.8 2.1 2.1 0.7 1.3 0.7 2.6 0 1.2-0.7 1.6-0.7 0.3-2 0.3zm-6.4-1.8h5.9q-0.1-1.7-0.9-2.5-0.7-0.8-2-0.8-1.2 0-2 0.8-0.8 0.9-1 2.5z"/>
				<path id="&lt;Compound Path&gt;" fill-rule="evenodd" class="s2" d="m559.9 785h-6.4q0 1.1 0.5 2 0.4 0.8 1.1 1.3 0.7 0.4 1.6 0.4 0.6 0 1.1-0.2 0.5-0.1 0.9-0.4 0.5-0.3 0.8-0.6 0.4-0.3 1-0.9 0.3-0.2 0.7-0.2 0.5 0 0.8 0.3 0.4 0.2 0.3 0.7 0.1 0.5-0.3 1-0.3 0.6-1 1.2-0.7 0.5-1.8 0.9-1 0.3-2.4 0.3-3.1 0-4.9-1.7-1.7-1.8-1.7-4.9 0-1.4 0.4-2.7 0.5-1.2 1.3-2.1 0.8-0.8 2-1.3 1.2-0.5 2.7-0.5 1.9 0 3.2 0.8 1.4 0.8 2.1 2.1 0.6 1.3 0.6 2.6 0 1.2-0.7 1.6-0.7 0.3-1.9 0.3zm-6.4-1.8h5.9q-0.1-1.7-0.9-2.5-0.8-0.8-2-0.8-1.2 0-2 0.8-0.8 0.9-1 2.5z"/>
				<path id="&lt;Compound Path&gt;" fill-rule="evenodd" class="s2" d="m567 779.5v0.4q0.9-1.2 1.9-1.7 1-0.5 2.2-0.5 1.5 0 2.8 0.7 1.2 0.8 2 2.3 0.7 1.5 0.7 3.5 0 1.5-0.4 2.8-0.5 1.2-1.2 2.1-0.7 0.8-1.7 1.3-1 0.4-2.2 0.4-1.4 0-2.3-0.5-1-0.6-1.8-1.7v4.9q0 2.1-1.6 2.1-0.9 0-1.2-0.5-0.3-0.6-0.3-1.6v-14q0-0.9 0.4-1.4 0.4-0.4 1.1-0.5 0.7 0 1.1 0.5 0.5 0.5 0.5 1.4zm6.3 4.7q0-1.3-0.4-2.2-0.4-0.9-1-1.4-0.7-0.5-1.6-0.5-1.3 0-2.2 1-1 1.1-1 3.1 0 2 0.9 3 1 1.1 2.3 1.1 0.8 0 1.5-0.4 0.7-0.5 1.1-1.5 0.4-0.9 0.4-2.2z"/>
				<path id="&lt;Compound Path&gt;" class="s2" d="m579.8 776.1q-0.6 0-1.1-0.4-0.5-0.4-0.5-1.2 0-0.6 0.5-1.1 0.5-0.4 1.1-0.4 0.7 0 1.2 0.4 0.5 0.4 0.5 1.1 0 0.8-0.5 1.2-0.5 0.4-1.2 0.4zm1.7 3.4v9.4q0 0.9-0.5 1.4-0.5 0.5-1.2 0.5-0.7 0-1.1-0.5-0.5-0.5-0.5-1.4v-9.3q0-1 0.5-1.5 0.4-0.5 1.1-0.5 0.7 0 1.2 0.5 0.5 0.5 0.5 1.4z"/>
				<path id="&lt;Path&gt;" class="s2" d="m591.9 789.3l-2.9-4.7-1.7 1.7v2.6q0 0.9-0.5 1.4-0.5 0.5-1.1 0.5-0.8 0-1.2-0.5-0.4-0.5-0.4-1.4v-13.9q0-1 0.4-1.6 0.4-0.6 1.2-0.6 0.7 0 1.1 0.5 0.5 0.5 0.5 1.5v7.9l3.6-3.8q0.7-0.7 1.1-1 0.3-0.3 0.8-0.3 0.6 0 1 0.4 0.4 0.4 0.5 1-0.1 0.7-1.4 1.9l-1.7 1.6 3.3 5.2q0.4 0.6 0.6 0.9 0.1 0.3 0.1 0.6 0 0.7-0.4 1.2-0.4 0.4-1.1 0.4-0.6 0-0.9-0.3-0.3-0.3-0.9-1.2z"/>
				<path id="&lt;Path&gt;" class="s2" d="m598.9 790.8q-0.7 0-1.2-0.4-0.6-0.5-0.6-1.4 0-0.7 0.6-1.2 0.5-0.5 1.2-0.5 0.8 0 1.3 0.5 0.5 0.5 0.5 1.2 0 0.9-0.5 1.3-0.5 0.5-1.3 0.5z"/>
				<path id="&lt;Path&gt;" class="s2" d="m615.1 786.8q0 0.6-0.4 1.3-0.4 0.7-1.1 1.3-0.7 0.6-1.9 1-1.1 0.4-2.5 0.4-3 0-4.7-1.7-1.7-1.8-1.7-4.7 0-2 0.8-3.6 0.8-1.5 2.2-2.3 1.5-0.9 3.5-0.9 1.3 0 2.3 0.4 1.1 0.4 1.8 0.9 0.7 0.6 1.1 1.3 0.4 0.6 0.4 1.2 0 0.6-0.4 1-0.5 0.4-1.1 0.4-0.4 0-0.7-0.2-0.2-0.2-0.6-0.7-0.5-0.9-1.2-1.3-0.6-0.5-1.6-0.5-1.5 0-2.4 1.1-0.8 1.2-0.8 3.1 0 0.9 0.2 1.7 0.2 0.8 0.6 1.3 0.5 0.5 1.1 0.8 0.6 0.3 1.3 0.3 1 0 1.7-0.5 0.7-0.4 1.2-1.3 0.3-0.6 0.6-0.9 0.4-0.3 0.9-0.3 0.6 0 1 0.5 0.4 0.4 0.4 0.9z"/>
				<path id="&lt;Compound Path&gt;" fill-rule="evenodd" class="s2" d="m629.1 784.2q0 1.5-0.5 2.7-0.4 1.2-1.3 2.1-0.9 0.9-2 1.4-1.2 0.4-2.7 0.4-1.5 0-2.7-0.4-1.1-0.5-2-1.4-0.9-0.9-1.3-2.1-0.4-1.2-0.4-2.7 0-1.4 0.4-2.7 0.5-1.2 1.3-2 0.8-0.9 2-1.4 1.2-0.5 2.7-0.5 1.5 0 2.7 0.5 1.2 0.5 2 1.4 0.9 0.9 1.3 2.1 0.5 1.2 0.5 2.6zm-3.3 0q0-1.9-0.9-3-0.8-1.2-2.3-1.2-1 0-1.7 0.5-0.7 0.5-1.1 1.5-0.4 1-0.4 2.2 0 1.3 0.4 2.3 0.4 0.9 1.1 1.4 0.7 0.5 1.7 0.5 1.5 0 2.3-1.1 0.9-1.1 0.9-3.1z"/>
				<path id="&lt;Path&gt;" class="s2" d="m641.4 784.5v4.3q0 1-0.4 1.5-0.5 0.5-1.3 0.5-0.7 0-1.1-0.5-0.5-0.5-0.5-1.5v-5.2q0-1.2-0.1-1.9-0.1-0.7-0.4-1.1-0.4-0.4-1.2-0.4-1.6 0-2.1 1.1-0.5 1.1-0.5 3.1v4.4q0 1-0.5 1.5-0.4 0.5-1.2 0.5-0.7 0-1.2-0.5-0.4-0.5-0.4-1.5v-9.3q0-0.9 0.4-1.4 0.4-0.5 1.1-0.5 0.6 0.1 1.1 0.5 0.4 0.4 0.4 1.2v0.3q0.9-1 1.8-1.4 1-0.5 2.2-0.5 1.2 0 2.1 0.5 0.9 0.4 1.4 1.4 0.9-1 1.8-1.4 0.9-0.5 2.1-0.5 1.3 0 2.3 0.5 0.9 0.5 1.4 1.5 0.4 0.9 0.4 2.8v6.3q0 1-0.4 1.5-0.5 0.5-1.3 0.5-0.7 0-1.2-0.5-0.4-0.5-0.4-1.5v-5.5q0-1-0.1-1.6-0.1-0.7-0.5-1.1-0.4-0.4-1.2-0.4-0.6 0-1.2 0.4-0.6 0.3-0.9 1-0.4 0.8-0.4 2.9z"/>
			</g>
			<g id="&lt;Group&gt;">
				<path id="&lt;Path&gt;" class="s2" d="m490.5 783.5q0-0.1 0-0.1 0 0 0 0.1z"/>
				<path id="&lt;Path&gt;" class="s2" d="m490.7 784.5q0 0 0 0-0.1-0.5-0.1-0.9 0 0.5 0.1 0.9z"/>
				<path id="&lt;Path&gt;" class="s2" d="m491.8 787.5q0 0 0 0 0 0 0 0z"/>
				<path id="&lt;Path&gt;" class="s2" d="m491.7 787.3q-0.1-0.1-0.1-0.2 0 0.1 0.1 0.2z"/>
				<path id="&lt;Path&gt;" class="s2" d="m491 785.7q0.2 0.7 0.6 1.4-0.4-0.7-0.6-1.4 0 0 0 0z"/>
				<path id="&lt;Path&gt;" class="s2" d="m503.1 771c0.6 0 1.1 0.1 1.6 0.2l0.2-1c0 0-1.5-0.4-3.4-0.3l-0.2-0.5c0.6-0.1 1.1-0.6 1.1-1.3 0-0.7-0.6-1.3-1.4-1.3-0.7 0-1.3 0.6-1.3 1.3 0 0.7 0.5 1.2 1.1 1.3l0.1 0.6c-2 0.3-3.6 1.1-3.6 1.1l0.3 0.8c1.2-0.4 2.3-0.6 3.2-0.7 1-0.1 1.7-0.2 2.3-0.2z"/>
				<path id="&lt;Path&gt;" class="s2" d="m491.8 775.9v-0.1q0 0 0.1-0.1l-0.4-0.3-0.6-0.5c0 0.1-1 1-1.7 2.6q-0.1-0.1-0.2-0.1-0.3-0.4-0.9-0.4 0 0 0 0c-0.3 0-0.4-0.1-0.6-0.2q0.2-0.2 0.2-0.5c0-0.5-0.4-0.9-0.8-0.9-0.5 0-0.9 0.4-0.9 0.9 0 0.4 0.4 0.8 0.9 0.8q0.1 0 0.2 0c0.2 0.2 0.5 0.4 1 0.4q0.4 0 0.5 0.2c0.2 0.2 0.2 0.4 0.2 0.5q0 0 0 0.1c-0.5 1.4-0.3 3.3-0.3 3.3h1.3c0-0.6 0.1-1.8 0.4-2.7 0.7-1.9 1.5-3 1.6-3z"/>
				<path id="&lt;Path&gt;" class="s2" d="m514.6 772.1c-0.5 0-0.8 0.4-0.8 0.9q0 0.1 0 0.2c-0.2 0.2-0.4 0.5-0.4 1q0 0.4-0.2 0.5-0.2 0.2-0.4 0.2c-1-1.4-2.2-2.2-2.2-2.2l-0.9 1q1 1 2.1 2.5c0.5 0.7 1 1.6 1.4 2.5l1.3-0.6c0 0-0.6-1.4-1.4-2.7q0.2-0.1 0.4-0.3 0.4-0.3 0.4-0.9c0-0.3 0.1-0.5 0.2-0.6q0.2 0.2 0.5 0.2c0.5 0 0.8-0.4 0.8-0.8 0-0.5-0.3-0.9-0.8-0.9z"/>
				<path id="&lt;Path&gt;" class="s2" d="m511.3 783.6c-1.8 0.9-4.7 2-8.5 2.6-1.5 0.2-3 0.3-4.3 0.3-1.7 0-3.3-0.2-4.4-0.3-1.4-0.2-2.4-0.4-3.1-0.5q0.2 0.7 0.6 1.4 0 0 0 0 0 0.1 0.1 0.2 0 0.1 0.1 0.2 0 0 0 0 0.6 1.1 1.3 1.9c1.8 2 3.7 2.3 3.7 2.3 0.1 0 1.7 0.6 4.2 0.6 2.4 0 4.8-0.5 7-1.5 1.7-0.9 3.3-2.2 4.1-3.3q0.9-1.4 1.3-2.9c0.2-0.5 0.3-1.4 0.2-2.3-0.5 0.4-1.3 0.8-2.3 1.3z"/>
				<path id="&lt;Compound Path&gt;" fill-rule="evenodd" class="s2" d="m493.3 775.2c1.2-1.1 2.8-2 4.4-2.6q1.8-0.6 3.2-0.7c0.9-0.1 1.6-0.2 2.2-0.2 0.6 0 1 0.1 1.5 0.2 1.4 0.2 4.1 1.1 6.6 4.7 0.9 1.3 1.9 3.3 2.2 4.6-0.3 0.2-1.2 0.8-2.6 1.5-1.7 0.8-4.5 1.9-8.2 2.4-5.8 0.8-11-0.4-11.9-0.6q-0.1-0.5-0.1-0.9 0-0.1-0.1-0.1 0-0.1 0-0.1 0-0.6 0-1.2c0-0.1 0-1.9 0.4-3.1 0.6-1.7 1.4-2.7 1.4-2.8 0.4-0.6 0.8-0.9 1-1.1zm12.2 2.4c0 1.2 1 2.2 2.2 2.2 1.2 0 2.1-1 2.1-2.2 0-1.2-0.9-2.2-2.1-2.2-1.2 0-2.2 1-2.2 2.2zm-11.7 1.3c0 1.9 1.6 3.5 3.6 3.5 1.9 0 3.5-1.6 3.5-3.5 0-2-1.6-3.5-3.5-3.5-2 0-3.6 1.5-3.6 3.5z"/>
			</g>
		</g>
	</g>
</svg>