<svg version="1.2" xmlns="http://www.w3.org/2000/svg" viewBox="0 0 1000 650" width="1000" height="650">
	<title>133977-OS79E7-359-ai</title>
	<style>
		tspan { white-space:pre } 
		.s0 { fill: #ffffff;stroke: #211915;stroke-width: 4 } 
		.s1 { fill: #211915 } 
		.s2 { fill: #ffffff } 
	</style>
	<g id="BACKGROUND">
	</g>
	<g id="OBJECTS">
		<g id="&lt;Group&gt;">
			<path id="&lt;Path&gt;" class="s0" d="m826 282.9c-22-53.8-91.7-41.8-91.7-41.8 0 0 12.2-47.2-23.3-58.4-35.4-11.1-70.9 15.8-70.9 29.2 0 0-14.7-60-89.3-47.1-74.6 12.9-73.4 65.5-73.4 65.5 0 0-12.2-45.4-58.7-38.6-46.5 6.8-47.7 58.2-47.7 58.2 0 0-47.7-24.5-75.8 8.5-28.1 33 7.3 68.5 7.3 68.5 0 0-42.8-1.2-57.5 40.4-14.6 41.6 48.1 57.1 48.1 57.1 0 0-76.2 55.4-41.9 119 34.2 63.6 138.2 53.8 146.7 22 0 0-3.1 25.7 27.8 31.8 30.9 6.1 51.7-29.3 51.7-29.3 0 0 18.4 26.9 73.4 13.4 55-13.4 48.9-53.8 48.9-53.8 0 0 39 42.7 93.6 21.4 18 23 53.3 54.5 112.7 58.1 0 0-59-27.7-78.7-83 24.9-34.9 4.5-84.6 4.5-84.6 0 0 33 15.9 62.4-13.4 29.3-29.4 0-68.5 0-68.5 0 0 53.8-20.8 31.8-74.6z"/>
			<g id="&lt;Group&gt;">
				<g id="&lt;Group&gt;">
					<path id="&lt;Path&gt;" class="s1" d="m852.8 481.6c14.6 10.1 28.1 21.7 40.5 34.4 8.3 8.5 21.2-4.5 13-12.9-13.5-13.8-28.4-26.4-44.3-37.3-9.7-6.8-18.9 9.1-9.2 15.8z"/>
				</g>
			</g>
			<g id="&lt;Group&gt;">
				<g id="&lt;Group&gt;">
					<path id="&lt;Path&gt;" class="s1" d="m918 462c8.7 6.4 16.7 13.6 24.2 21.4 8.2 8.6 21.2-4.4 13-12.9-8.6-9-17.9-17-28-24.3-4-2.9-10.2-0.7-12.5 3.3-2.7 4.6-0.7 9.6 3.3 12.5z"/>
				</g>
			</g>
			<g id="&lt;Group&gt;">
				<g id="&lt;Group&gt;">
					<path id="&lt;Path&gt;" class="s1" d="m127.4 514.2c15.8-10.9 30.7-23.5 44.2-37.3 8.3-8.5-4.7-21.4-13-13-12.3 12.7-25.9 24.4-40.5 34.5-9.7 6.6-0.5 22.5 9.3 15.8z"/>
				</g>
			</g>
			<g id="&lt;Group&gt;">
				<g id="&lt;Group&gt;">
					<path id="&lt;Path&gt;" class="s1" d="m192.6 533.8c10-7.3 19.4-15.3 27.9-24.3 8.2-8.5-4.7-21.5-12.9-12.9-7.5 7.8-15.5 15-24.3 21.4-4 2.9-5.9 7.9-3.3 12.5 2.3 3.9 8.6 6.2 12.6 3.3z"/>
				</g>
			</g>
		</g>
		<g id="&lt;Group&gt;">
			<path id="&lt;Path&gt;" class="s0" d="m154.8 220.1c0 0-193.4-164.8-125.3-202.2 68.2-37.3 125.3 202.2 125.3 202.2z"/>
			<path id="&lt;Path&gt;" class="s0" d="m187 294.1c-12.1 0-22-9.8-22-22 0-12.1 9.9-21.9 22-21.9 12.2 0 22 9.8 22 21.9 0 12.2-9.8 22-22 22z"/>
		</g>
	</g>
	<g id="DESIGNED BY FREEPIK">
		<g id="&lt;Group&gt;">
			<g id="&lt;Group&gt;">
				<path id="&lt;Compound Path&gt;" fill-rule="evenodd" class="s2" d="m360.6 789v-0.3q-0.6 0.7-1.3 1.2-0.6 0.4-1.4 0.7-0.7 0.2-1.6 0.2-1.1 0-2.1-0.5-1-0.5-1.7-1.4-0.8-0.9-1.1-2.1-0.4-1.3-0.4-2.7 0-3 1.5-4.7 1.5-1.7 3.9-1.7 1.4 0 2.3 0.5 1 0.4 1.9 1.4v-4.7q0-1 0.4-1.6 0.4-0.5 1.1-0.5 0.8 0 1.2 0.5 0.4 0.5 0.4 1.4v14.3q0 0.9-0.4 1.4-0.5 0.4-1.2 0.4-0.6 0-1.1-0.4-0.4-0.5-0.4-1.4zm-6.4-4.8q0 1.3 0.4 2.3 0.5 0.9 1.2 1.4 0.7 0.4 1.5 0.4 0.9 0 1.6-0.4 0.7-0.5 1.1-1.4 0.4-0.9 0.4-2.3 0-1.3-0.4-2.2-0.4-0.9-1.1-1.4-0.7-0.5-1.6-0.5-0.9 0-1.6 0.5-0.7 0.5-1.1 1.4-0.4 1-0.4 2.2z"/>
				<path id="&lt;Compound Path&gt;" fill-rule="evenodd" class="s2" d="m374.9 785h-6.3q0 1.1 0.4 2 0.4 0.8 1.2 1.3 0.7 0.4 1.6 0.4 0.5 0 1-0.2 0.5-0.1 0.9-0.4 0.5-0.3 0.9-0.6 0.4-0.3 1-0.9 0.2-0.2 0.7-0.2 0.5 0 0.8 0.3 0.3 0.2 0.3 0.7 0 0.5-0.4 1.1-0.3 0.5-1 1.1-0.7 0.5-1.7 0.9-1.1 0.3-2.5 0.3-3.1 0-4.8-1.7-1.7-1.8-1.7-4.9 0-1.4 0.4-2.6 0.4-1.3 1.2-2.2 0.8-0.8 2-1.3 1.2-0.5 2.7-0.5 1.9 0 3.3 0.8 1.3 0.8 2 2.1 0.7 1.3 0.7 2.6 0 1.2-0.7 1.6-0.7 0.3-2 0.3zm-6.3-1.8h5.8q-0.1-1.7-0.9-2.5-0.7-0.8-2-0.8-1.2 0-2 0.8-0.8 0.9-0.9 2.5z"/>
				<path id="&lt;Compound Path&gt;" class="s2" d="m389.7 786.6q0 1.3-0.7 2.3-0.6 0.9-1.9 1.4-1.3 0.5-3.1 0.5-1.8 0-3-0.5-1.2-0.5-1.8-1.3-0.6-0.8-0.6-1.6 0-0.6 0.3-1 0.4-0.3 1-0.3 0.5 0 0.8 0.2 0.3 0.3 0.5 0.7 0.5 0.9 1.2 1.3 0.7 0.4 1.9 0.4 1 0 1.6-0.4 0.6-0.4 0.6-1 0-0.8-0.6-1.2-0.7-0.4-2.2-0.8-1.6-0.4-2.7-0.9-1-0.4-1.7-1.2-0.6-0.7-0.6-1.8 0-1 0.6-1.8 0.6-0.9 1.7-1.4 1.1-0.5 2.7-0.5 1.3 0 2.3 0.2 1 0.3 1.7 0.7 0.6 0.5 1 1 0.3 0.5 0.3 1 0 0.6-0.3 0.9-0.4 0.4-1.1 0.4-0.5 0-0.8-0.3-0.4-0.3-0.8-0.8-0.4-0.5-0.9-0.8-0.5-0.3-1.4-0.3-0.8 0-1.4 0.4-0.6 0.4-0.6 0.9 0 0.5 0.4 0.9 0.5 0.3 1.2 0.5 0.7 0.2 2 0.5 1.5 0.4 2.4 0.9 1 0.5 1.5 1.2 0.5 0.7 0.5 1.6z"/>
				<path id="&lt;Compound Path&gt;" class="s2" d="m393 776.1q-0.7 0-1.2-0.4-0.5-0.4-0.5-1.1 0-0.7 0.5-1.2 0.5-0.4 1.2-0.4 0.6 0 1.1 0.4 0.5 0.4 0.5 1.2 0 0.7-0.5 1.1-0.5 0.4-1.1 0.4zm1.6 3.4v9.4q0 0.9-0.5 1.4-0.4 0.5-1.1 0.5-0.8 0-1.2-0.5-0.5-0.5-0.5-1.4v-9.3q0-1 0.5-1.5 0.4-0.4 1.2-0.4 0.7 0 1.1 0.4 0.5 0.5 0.5 1.4z"/>
				<path id="&lt;Compound Path&gt;" fill-rule="evenodd" class="s2" d="m408.8 780v9.4q0 1.7-0.4 2.8-0.3 1.2-1.1 1.9-0.7 0.8-1.9 1.2-1.3 0.3-3.1 0.3-1.7 0-3-0.4-1.3-0.5-2-1.2-0.7-0.8-0.7-1.6 0-0.6 0.4-0.9 0.4-0.4 0.9-0.4 0.7 0 1.3 0.6 0.2 0.3 0.5 0.7 0.3 0.3 0.6 0.5 0.4 0.3 0.9 0.4 0.4 0.1 1 0.1 1.3 0 2-0.4 0.7-0.3 1-0.9 0.3-0.7 0.3-1.4 0-0.7 0.1-2.3-0.8 1-1.8 1.6-0.9 0.5-2.3 0.5-1.6 0-2.8-0.8-1.3-0.8-1.9-2.3-0.7-1.5-0.7-3.5 0-1.4 0.4-2.6 0.4-1.2 1.2-2 0.7-0.8 1.7-1.2 0.9-0.4 2.1-0.4 1.4 0 2.4 0.5 1 0.5 1.8 1.7v-0.5q0-0.8 0.5-1.3 0.4-0.4 1-0.4 1 0 1.3 0.6 0.3 0.6 0.3 1.7zm-9.4 4.1q0 2 0.9 3 0.8 1 2.2 1 0.8 0 1.5-0.4 0.7-0.4 1.2-1.3 0.4-0.9 0.4-2.1 0-2-0.8-3.1-0.9-1.1-2.3-1.1-1.4 0-2.3 1-0.8 1.1-0.8 3z"/>
				<path id="&lt;Compound Path&gt;" class="s2" d="m413.9 779.4v0.4q0.9-1.1 1.9-1.6 1-0.5 2.3-0.5 1.3 0 2.3 0.5 1 0.6 1.5 1.6 0.4 0.6 0.5 1.3 0.1 0.7 0.1 1.7v6.1q0 0.9-0.5 1.4-0.4 0.5-1.2 0.5-0.7 0-1.1-0.5-0.5-0.5-0.5-1.4v-5.4q0-1.6-0.4-2.5-0.5-0.8-1.8-0.8-0.9 0-1.6 0.5-0.7 0.5-1 1.4-0.3 0.7-0.3 2.7v4.1q0 0.9-0.4 1.4-0.5 0.5-1.2 0.5-0.7 0-1.1-0.5-0.5-0.5-0.5-1.4v-9.4q0-0.9 0.4-1.4 0.4-0.4 1.1-0.4 0.4 0 0.8 0.2 0.3 0.2 0.5 0.6 0.2 0.4 0.2 0.9z"/>
				<path id="&lt;Compound Path&gt;" fill-rule="evenodd" class="s2" d="m433.7 785h-6.4q0 1.1 0.5 2 0.4 0.8 1.1 1.3 0.7 0.4 1.6 0.4 0.6 0 1.1-0.2 0.4-0.1 0.9-0.4 0.4-0.3 0.8-0.6 0.4-0.3 1-0.9 0.3-0.2 0.7-0.2 0.5 0 0.8 0.3 0.3 0.2 0.3 0.7 0 0.5-0.3 1.1-0.3 0.5-1 1.1-0.7 0.5-1.8 0.9-1 0.3-2.4 0.3-3.1 0-4.9-1.7-1.7-1.8-1.7-4.9 0-1.4 0.4-2.6 0.5-1.3 1.3-2.2 0.8-0.8 2-1.3 1.2-0.5 2.7-0.5 1.9 0 3.2 0.8 1.4 0.8 2.1 2.1 0.6 1.3 0.6 2.6 0 1.2-0.7 1.6-0.7 0.3-1.9 0.3zm-6.4-1.8h5.9q-0.1-1.7-0.9-2.5-0.8-0.8-2-0.8-1.3 0-2 0.8-0.8 0.9-1 2.5z"/>
				<path id="&lt;Compound Path&gt;" fill-rule="evenodd" class="s2" d="m446.9 789v-0.3q-0.7 0.7-1.3 1.2-0.7 0.4-1.4 0.7-0.7 0.2-1.6 0.2-1.2 0-2.2-0.5-1-0.5-1.7-1.4-0.7-0.9-1.1-2.1-0.4-1.3-0.4-2.7 0-3 1.5-4.7 1.5-1.7 3.9-1.7 1.4 0 2.4 0.5 1 0.4 1.9 1.4v-4.7q0-1 0.4-1.6 0.4-0.5 1.1-0.5 0.7 0 1.1 0.5 0.4 0.5 0.4 1.4v14.3q0 0.9-0.4 1.4-0.4 0.4-1.1 0.4-0.7 0-1.1-0.4-0.4-0.5-0.4-1.4zm-6.4-4.8q0 1.3 0.4 2.3 0.4 0.9 1.1 1.4 0.7 0.4 1.6 0.4 0.8 0 1.5-0.4 0.8-0.5 1.2-1.4 0.4-0.9 0.4-2.3 0-1.3-0.4-2.2-0.4-0.9-1.2-1.4-0.7-0.5-1.5-0.5-0.9 0-1.6 0.5-0.7 0.5-1.1 1.4-0.4 1-0.4 2.2z"/>
				<path id="&lt;Compound Path&gt;" fill-rule="evenodd" class="s2" d="m460.1 774.7v4.9q0.9-0.9 1.9-1.4 0.9-0.5 2.3-0.5 1.6 0 2.9 0.7 1.2 0.8 1.9 2.3 0.6 1.4 0.6 3.4 0 1.5-0.4 2.7-0.3 1.2-1 2.1-0.8 0.9-1.8 1.4-1 0.5-2.2 0.5-0.8 0-1.4-0.1-0.7-0.2-1.1-0.5-0.5-0.3-0.8-0.6-0.3-0.3-0.9-0.9v0.3q0 0.9-0.4 1.4-0.5 0.4-1.1 0.4-0.7 0-1.1-0.4-0.4-0.5-0.4-1.4v-14.2q0-1 0.4-1.5 0.4-0.5 1.1-0.5 0.7 0 1.1 0.5 0.4 0.5 0.4 1.4zm0.2 9.6q0 2 0.9 3 0.8 1 2.3 1 1.2 0 2.1-1 0.9-1.1 0.9-3.1 0-1.3-0.4-2.2-0.4-0.9-1-1.4-0.7-0.5-1.6-0.5-0.9 0-1.7 0.5-0.7 0.5-1.1 1.4-0.4 1-0.4 2.3z"/>
				<path id="&lt;Compound Path&gt;" class="s2" d="m473.9 791.2l0.3-0.7-4-10q-0.3-0.9-0.3-1.3 0-0.4 0.2-0.8 0.2-0.3 0.6-0.5 0.3-0.2 0.7-0.2 0.7 0 1.1 0.4 0.4 0.4 0.6 1.3l2.8 8 2.6-7.5q0.3-0.9 0.5-1.4 0.3-0.5 0.6-0.7 0.2-0.1 0.7-0.1 0.4 0 0.8 0.1 0.3 0.2 0.5 0.6 0.2 0.3 0.2 0.7-0.1 0.2-0.2 0.6-0.1 0.4-0.3 0.9l-4.2 11q-0.5 1.5-1.1 2.3-0.5 0.9-1.3 1.3-0.9 0.4-2.4 0.4-1.4 0-2.1-0.3-0.7-0.3-0.7-1.1 0-0.6 0.3-0.9 0.4-0.3 1-0.3 0.3 0 0.5 0.1 0.4 0.1 0.6 0.1 0.5 0 0.9-0.2 0.3-0.1 0.5-0.6 0.3-0.4 0.6-1.2z"/>
			</g>
			<g id="&lt;Group&gt;">
				<path id="&lt;Path&gt;" class="s2" d="m520.9 777.9h0.8v-0.9q-0.1-1.6 0.3-2.5 0.4-0.9 1.3-1.3 1-0.4 2.6-0.4 2.8 0 2.8 1.4 0 0.5-0.3 0.8-0.3 0.3-0.7 0.3-0.2 0-0.7-0.1-0.4 0-0.7 0-0.9 0-1.2 0.5-0.2 0.5-0.2 1.5v0.7h0.8q1.8 0 1.8 1.2 0 0.7-0.5 1-0.4 0.2-1.3 0.2h-0.8v8.6q0 0.9-0.5 1.4-0.4 0.5-1.1 0.5-0.7 0-1.2-0.5-0.5-0.5-0.4-1.4v-8.6h-0.9q-0.8 0-1.2-0.4-0.4-0.3-0.3-0.8 0-1.2 1.6-1.2z"/>
				<path id="&lt;Path&gt;" class="s2" d="m531.5 786.2v2.7q0 0.9-0.5 1.4-0.4 0.5-1.1 0.5-0.8 0-1.2-0.5-0.5-0.5-0.5-1.4v-9.1q0-2.2 1.6-2.2 0.8 0 1.2 0.6 0.3 0.5 0.4 1.5 0.6-1 1.2-1.5 0.6-0.6 1.6-0.6 1 0 2 0.6 1 0.5 0.9 1.3 0 0.6-0.4 1-0.4 0.4-0.8 0.4-0.2 0-0.9-0.2-0.7-0.3-1.2-0.3-0.7 0-1.2 0.4-0.4 0.4-0.7 1.1-0.2 0.8-0.3 1.8-0.1 1-0.1 2.5z"/>
				<path id="&lt;Compound Path&gt;" fill-rule="evenodd" class="s2" d="m546.4 785h-6.4q0.1 1.1 0.5 2 0.4 0.8 1.1 1.3 0.8 0.4 1.6 0.4 0.6 0 1.1-0.2 0.5-0.1 0.9-0.4 0.5-0.3 0.9-0.6 0.3-0.3 0.9-0.9 0.3-0.2 0.8-0.2 0.5 0 0.8 0.3 0.3 0.2 0.3 0.7 0 0.5-0.4 1-0.3 0.6-1 1.2-0.7 0.5-1.8 0.9-1 0.3-2.4 0.3-3.1 0-4.8-1.7-1.8-1.8-1.8-4.9 0-1.4 0.5-2.7 0.4-1.2 1.2-2.1 0.8-0.8 2-1.3 1.2-0.5 2.7-0.5 1.9 0 3.2 0.8 1.4 0.8 2.1 2.1 0.7 1.3 0.7 2.6 0 1.2-0.7 1.6-0.7 0.3-2 0.3zm-6.4-1.8h5.9q-0.1-1.7-0.9-2.5-0.7-0.8-2-0.8-1.2 0-2 0.8-0.8 0.9-1 2.5z"/>
				<path id="&lt;Compound Path&gt;" fill-rule="evenodd" class="s2" d="m559.9 785h-6.4q0 1.1 0.5 2 0.4 0.8 1.1 1.3 0.7 0.4 1.6 0.4 0.6 0 1.1-0.2 0.5-0.1 0.9-0.4 0.5-0.3 0.8-0.6 0.4-0.3 1-0.9 0.3-0.2 0.7-0.2 0.5 0 0.8 0.3 0.4 0.2 0.3 0.7 0.1 0.5-0.3 1-0.3 0.6-1 1.2-0.7 0.5-1.8 0.9-1 0.3-2.4 0.3-3.1 0-4.9-1.7-1.7-1.8-1.7-4.9 0-1.4 0.4-2.7 0.5-1.2 1.3-2.1 0.8-0.8 2-1.3 1.2-0.5 2.7-0.5 1.9 0 3.2 0.8 1.4 0.8 2.1 2.1 0.6 1.3 0.6 2.6 0 1.2-0.7 1.6-0.7 0.3-1.9 0.3zm-6.4-1.8h5.9q-0.1-1.7-0.9-2.5-0.8-0.8-2-0.8-1.2 0-2 0.8-0.8 0.9-1 2.5z"/>
				<path id="&lt;Compound Path&gt;" fill-rule="evenodd" class="s2" d="m567 779.5v0.4q0.9-1.2 1.9-1.7 1-0.5 2.2-0.5 1.5 0 2.8 0.7 1.2 0.8 2 2.3 0.7 1.5 0.7 3.5 0 1.5-0.4 2.8-0.5 1.2-1.2 2.1-0.7 0.8-1.7 1.3-1 0.4-2.2 0.4-1.4 0-2.3-0.5-1-0.6-1.8-1.7v4.9q0 2.1-1.6 2.1-0.9 0-1.2-0.5-0.3-0.6-0.3-1.6v-14q0-0.9 0.4-1.4 0.4-0.4 1.1-0.5 0.7 0 1.1 0.5 0.5 0.5 0.5 1.4zm6.3 4.7q0-1.3-0.4-2.2-0.4-0.9-1-1.4-0.7-0.5-1.6-0.5-1.3 0-2.2 1-1 1.1-1 3.1 0 2 0.9 3 1 1.1 2.3 1.1 0.8 0 1.5-0.4 0.7-0.5 1.1-1.5 0.4-0.9 0.4-2.2z"/>
				<path id="&lt;Compound Path&gt;" class="s2" d="m579.8 776.1q-0.6 0-1.1-0.4-0.5-0.4-0.5-1.2 0-0.6 0.5-1.1 0.5-0.4 1.1-0.4 0.7 0 1.2 0.4 0.5 0.4 0.5 1.1 0 0.8-0.5 1.2-0.5 0.4-1.2 0.4zm1.7 3.4v9.4q0 0.9-0.5 1.4-0.5 0.5-1.2 0.5-0.7 0-1.1-0.5-0.5-0.5-0.5-1.4v-9.3q0-1 0.5-1.5 0.4-0.5 1.1-0.5 0.7 0 1.2 0.5 0.5 0.5 0.5 1.4z"/>
				<path id="&lt;Path&gt;" class="s2" d="m591.9 789.3l-2.9-4.7-1.7 1.7v2.6q0 0.9-0.5 1.4-0.5 0.5-1.1 0.5-0.8 0-1.2-0.5-0.4-0.5-0.4-1.4v-13.9q0-1 0.4-1.6 0.4-0.6 1.2-0.6 0.7 0 1.1 0.5 0.5 0.5 0.5 1.5v7.9l3.6-3.8q0.7-0.7 1.1-1 0.3-0.3 0.8-0.3 0.6 0 1 0.4 0.4 0.4 0.5 1-0.1 0.7-1.4 1.9l-1.7 1.6 3.3 5.2q0.4 0.6 0.6 0.9 0.1 0.3 0.1 0.6 0 0.7-0.4 1.2-0.4 0.4-1.1 0.4-0.6 0-0.9-0.3-0.3-0.3-0.9-1.2z"/>
				<path id="&lt;Path&gt;" class="s2" d="m598.9 790.8q-0.7 0-1.2-0.4-0.6-0.5-0.6-1.4 0-0.7 0.6-1.2 0.5-0.5 1.2-0.5 0.8 0 1.3 0.5 0.5 0.5 0.5 1.2 0 0.9-0.5 1.3-0.5 0.5-1.3 0.5z"/>
				<path id="&lt;Path&gt;" class="s2" d="m615.1 786.8q0 0.6-0.4 1.3-0.4 0.7-1.1 1.3-0.7 0.6-1.9 1-1.1 0.4-2.5 0.4-3 0-4.7-1.7-1.7-1.8-1.7-4.7 0-2 0.8-3.6 0.8-1.5 2.2-2.3 1.5-0.9 3.5-0.9 1.3 0 2.3 0.4 1.1 0.4 1.8 0.9 0.7 0.6 1.1 1.3 0.4 0.6 0.4 1.2 0 0.6-0.4 1-0.5 0.4-1.1 0.4-0.4 0-0.7-0.2-0.2-0.2-0.6-0.7-0.5-0.9-1.2-1.3-0.6-0.5-1.6-0.5-1.5 0-2.4 1.1-0.8 1.2-0.8 3.1 0 0.9 0.2 1.7 0.2 0.8 0.6 1.3 0.5 0.5 1.1 0.8 0.6 0.3 1.3 0.3 1 0 1.7-0.5 0.7-0.4 1.2-1.3 0.3-0.6 0.6-0.9 0.4-0.3 0.9-0.3 0.6 0 1 0.5 0.4 0.4 0.4 0.9z"/>
				<path id="&lt;Compound Path&gt;" fill-rule="evenodd" class="s2" d="m629.1 784.2q0 1.5-0.5 2.7-0.4 1.2-1.3 2.1-0.9 0.9-2 1.4-1.2 0.4-2.7 0.4-1.5 0-2.7-0.4-1.1-0.5-2-1.4-0.9-0.9-1.3-2.1-0.4-1.2-0.4-2.7 0-1.4 0.4-2.7 0.5-1.2 1.3-2 0.8-0.9 2-1.4 1.2-0.5 2.7-0.5 1.5 0 2.7 0.5 1.2 0.5 2 1.4 0.9 0.9 1.3 2.1 0.5 1.2 0.5 2.6zm-3.3 0q0-1.9-0.9-3-0.8-1.2-2.3-1.2-1 0-1.7 0.5-0.7 0.5-1.1 1.5-0.4 1-0.4 2.2 0 1.3 0.4 2.3 0.4 0.9 1.1 1.4 0.7 0.5 1.7 0.5 1.5 0 2.3-1.1 0.9-1.1 0.9-3.1z"/>
				<path id="&lt;Path&gt;" class="s2" d="m641.4 784.5v4.3q0 1-0.4 1.5-0.5 0.5-1.3 0.5-0.7 0-1.1-0.5-0.5-0.5-0.5-1.5v-5.2q0-1.2-0.1-1.9-0.1-0.7-0.4-1.1-0.4-0.4-1.2-0.4-1.6 0-2.1 1.1-0.5 1.1-0.5 3.1v4.4q0 1-0.5 1.5-0.4 0.5-1.2 0.5-0.7 0-1.2-0.5-0.4-0.5-0.4-1.5v-9.3q0-0.9 0.4-1.4 0.4-0.5 1.1-0.5 0.6 0.1 1.1 0.5 0.4 0.4 0.4 1.2v0.3q0.9-1 1.8-1.4 1-0.5 2.2-0.5 1.2 0 2.1 0.5 0.9 0.4 1.4 1.4 0.9-1 1.8-1.4 0.9-0.5 2.1-0.5 1.3 0 2.3 0.5 0.9 0.5 1.4 1.5 0.4 0.9 0.4 2.8v6.3q0 1-0.4 1.5-0.5 0.5-1.3 0.5-0.7 0-1.2-0.5-0.4-0.5-0.4-1.5v-5.5q0-1-0.1-1.6-0.1-0.7-0.5-1.1-0.4-0.4-1.2-0.4-0.6 0-1.2 0.4-0.6 0.3-0.9 1-0.4 0.8-0.4 2.9z"/>
			</g>
			<g id="&lt;Group&gt;">
				<path id="&lt;Path&gt;" class="s2" d="m490.5 783.5q0-0.1 0-0.1 0 0 0 0.1z"/>
				<path id="&lt;Path&gt;" class="s2" d="m490.7 784.5q0 0 0 0-0.1-0.5-0.1-0.9 0 0.5 0.1 0.9z"/>
				<path id="&lt;Path&gt;" class="s2" d="m491.8 787.5q0 0 0 0 0 0 0 0z"/>
				<path id="&lt;Path&gt;" class="s2" d="m491.7 787.3q-0.1-0.1-0.1-0.2 0 0.1 0.1 0.2z"/>
				<path id="&lt;Path&gt;" class="s2" d="m491 785.7q0.2 0.7 0.6 1.4-0.4-0.7-0.6-1.4 0 0 0 0z"/>
				<path id="&lt;Path&gt;" class="s2" d="m503.1 771c0.6 0 1.1 0.1 1.6 0.2l0.2-1c0 0-1.5-0.4-3.4-0.3l-0.2-0.5c0.6-0.1 1.1-0.6 1.1-1.3 0-0.7-0.6-1.3-1.4-1.3-0.7 0-1.3 0.6-1.3 1.3 0 0.7 0.5 1.2 1.1 1.3l0.1 0.6c-2 0.3-3.6 1.1-3.6 1.1l0.3 0.8c1.2-0.4 2.3-0.6 3.2-0.7 1-0.1 1.7-0.2 2.3-0.2z"/>
				<path id="&lt;Path&gt;" class="s2" d="m491.8 775.9v-0.1q0 0 0.1-0.1l-0.4-0.3-0.6-0.5c0 0.1-1 1-1.7 2.6q-0.1-0.1-0.2-0.1-0.3-0.4-0.9-0.4 0 0 0 0c-0.3 0-0.4-0.1-0.6-0.2q0.2-0.2 0.2-0.5c0-0.5-0.4-0.9-0.8-0.9-0.5 0-0.9 0.4-0.9 0.9 0 0.4 0.4 0.8 0.9 0.8q0.1 0 0.2 0c0.2 0.2 0.5 0.4 1 0.4q0.4 0 0.5 0.2c0.2 0.2 0.2 0.4 0.2 0.5q0 0 0 0.1c-0.5 1.4-0.3 3.3-0.3 3.3h1.3c0-0.6 0.1-1.8 0.4-2.7 0.7-1.9 1.5-3 1.6-3z"/>
				<path id="&lt;Path&gt;" class="s2" d="m514.6 772.1c-0.5 0-0.8 0.4-0.8 0.9q0 0.1 0 0.2c-0.2 0.2-0.4 0.5-0.4 1q0 0.4-0.2 0.5-0.2 0.2-0.4 0.2c-1-1.4-2.2-2.2-2.2-2.2l-0.9 1q1 1 2.1 2.5c0.5 0.7 1 1.6 1.4 2.5l1.3-0.6c0 0-0.6-1.4-1.4-2.7q0.2-0.1 0.4-0.3 0.4-0.3 0.4-0.9c0-0.3 0.1-0.5 0.2-0.6q0.2 0.2 0.5 0.2c0.5 0 0.8-0.4 0.8-0.8 0-0.5-0.3-0.9-0.8-0.9z"/>
				<path id="&lt;Path&gt;" class="s2" d="m511.3 783.6c-1.8 0.9-4.7 2-8.5 2.6-1.5 0.2-3 0.3-4.3 0.3-1.7 0-3.3-0.2-4.4-0.3-1.4-0.2-2.4-0.4-3.1-0.5q0.2 0.7 0.6 1.4 0 0 0 0 0 0.1 0.1 0.2 0 0.1 0.1 0.2 0 0 0 0 0.6 1.1 1.3 1.9c1.8 2 3.7 2.3 3.7 2.3 0.1 0 1.7 0.6 4.2 0.6 2.4 0 4.8-0.5 7-1.5 1.7-0.9 3.3-2.2 4.1-3.3q0.9-1.4 1.3-2.9c0.2-0.5 0.3-1.4 0.2-2.3-0.5 0.4-1.3 0.8-2.3 1.3z"/>
				<path id="&lt;Compound Path&gt;" fill-rule="evenodd" class="s2" d="m493.3 775.2c1.2-1.1 2.8-2 4.4-2.6q1.8-0.6 3.2-0.7c0.9-0.1 1.6-0.2 2.2-0.2 0.6 0 1 0.1 1.5 0.2 1.4 0.2 4.1 1.1 6.6 4.7 0.9 1.3 1.9 3.3 2.2 4.6-0.3 0.2-1.2 0.8-2.6 1.5-1.7 0.8-4.5 1.9-8.2 2.4-5.8 0.8-11-0.4-11.9-0.6q-0.1-0.5-0.1-0.9 0-0.1-0.1-0.1 0-0.1 0-0.1 0-0.6 0-1.2c0-0.1 0-1.9 0.4-3.1 0.6-1.7 1.4-2.7 1.4-2.8 0.4-0.6 0.8-0.9 1-1.1zm12.2 2.4c0 1.2 1 2.2 2.2 2.2 1.2 0 2.1-1 2.1-2.2 0-1.2-0.9-2.2-2.1-2.2-1.2 0-2.2 1-2.2 2.2zm-11.7 1.3c0 1.9 1.6 3.5 3.6 3.5 1.9 0 3.5-1.6 3.5-3.5 0-2-1.6-3.5-3.5-3.5-2 0-3.6 1.5-3.6 3.5z"/>
			</g>
		</g>
	</g>
</svg>