<svg aria-hidden="true" style="position: absolute; width: 0; height: 0; overflow: hidden;" version="1.1" xmlns="http://www.w3.org/2000/svg" xmlns:xlink="http://www.w3.org/1999/xlink">
<defs>
<symbol id="icon-email" viewBox="0 0 32 32">
<path d="M27.75 9.4l-0.95-0.95-8.8 8.8c-1.1 1.1-2.95 1.1-4.050 0l-8.8-8.75-0.95 0.95 6.55 6.55-6.55 6.55 0.95 0.95 6.55-6.55 1.3 1.3c0.8 0.8 1.85 1.25 2.95 1.25s2.15-0.45 2.95-1.25l1.3-1.3 6.55 6.55 0.95-0.95-6.55-6.55 6.6-6.6z"></path>
<path d="M25.9 25.2h-19.75c-1.15 0-2.1-0.95-2.1-2.1v-14.1c0-1.15 0.95-2.1 2.1-2.1h19.75c1.15 0 2.1 0.95 2.1 2.1v14.1c0 1.15-0.95 2.1-2.1 2.1v0zM6.1 8.25c-0.4 0-0.7 0.3-0.7 0.7v14.1c0 0.4 0.3 0.7 0.7 0.7h19.75c0.4 0 0.7-0.3 0.7-0.7v-14.1c0-0.4-0.3-0.7-0.7-0.7h-19.75z"></path>
</symbol>
<symbol id="icon-user" viewBox="0 0 32 32">
<path d="M16 16c3.866 0 7-3.134 7-7s-3.134-7-7-7c-3.866 0-7 3.134-7 7v0c0 3.866 3.134 7 7 7v0zM16 4c2.761 0 5 2.239 5 5s-2.239 5-5 5c-2.761 0-5-2.239-5-5v0c0-2.761 2.239-5 5-5v0z"></path>
<path d="M17 18h-2c-6.075 0-11 4.925-11 11v0c0 0.552 0.448 1 1 1v0h22c0.552 0 1-0.448 1-1v0c0-6.075-4.925-11-11-11v0zM6.060 28c0.52-4.52 4.324-7.998 8.94-8h2c4.616 0.002 8.42 3.48 8.936 7.958l0.004 0.042z"></path>
</symbol>
</defs>
</svg>
