<svg version="1.2" xmlns="http://www.w3.org/2000/svg" viewBox="0 0 1200 900" width="1200" height="900">
	<title>371-ai</title>
	<defs>
		<linearGradient id="g1" x1="599.6" y1="-65.1" x2="636.3" y2="-65.6" gradientUnits="userSpaceOnUse">
			<stop offset="0" stop-color="#ffffff"/>
			<stop offset="1" stop-color="#ffffff"/>
		</linearGradient>
		<linearGradient id="g2" x1="658.2" y1="-65.9" x2="685.8" y2="-66.3" gradientUnits="userSpaceOnUse">
			<stop offset="0" stop-color="#ffffff"/>
			<stop offset="1" stop-color="#ffffff"/>
		</linearGradient>
		<linearGradient id="g3" x1="900.1" y1="-68.7" x2="936.9" y2="-69.2" gradientUnits="userSpaceOnUse">
			<stop offset="0" stop-color="#ffffff"/>
			<stop offset="1" stop-color="#ffffff"/>
		</linearGradient>
		<linearGradient id="g4" x1="830.6" y1="325" x2="898.5" y2="324" gradientUnits="userSpaceOnUse">
			<stop offset="0" stop-color="#ffffff"/>
			<stop offset="1" stop-color="#ffffff"/>
		</linearGradient>
		<linearGradient id="g5" x1="855.7" y1="320.5" x2="894" y2="319.9" gradientUnits="userSpaceOnUse">
			<stop offset="0" stop-color="#ffffff"/>
			<stop offset="1" stop-color="#ffffff"/>
		</linearGradient>
		<linearGradient id="g6" x1="923.5" y1="444.2" x2="1016.7" y2="442.8" gradientUnits="userSpaceOnUse">
			<stop offset="0" stop-color="#ffffff"/>
			<stop offset="1" stop-color="#ffffff"/>
		</linearGradient>
		<linearGradient id="g7" x1="903.3" y1="330.8" x2="1000.1" y2="329.5" gradientUnits="userSpaceOnUse">
			<stop offset="0" stop-color="#ffffff"/>
			<stop offset="1" stop-color="#ffffff"/>
		</linearGradient>
		<linearGradient id="g8" x1="910.5" y1="342.9" x2="1007.3" y2="341.5" gradientUnits="userSpaceOnUse">
			<stop offset="0" stop-color="#ffffff"/>
			<stop offset="1" stop-color="#ffffff"/>
		</linearGradient>
		<linearGradient id="g9" x1="958" y1="438" x2="1010.5" y2="437.2" gradientUnits="userSpaceOnUse">
			<stop offset="0" stop-color="#ffffff"/>
			<stop offset="1" stop-color="#ffffff"/>
		</linearGradient>
		<linearGradient id="g10" x1="568.7" y1="247.9" x2="627" y2="247.1" gradientUnits="userSpaceOnUse">
			<stop offset="0" stop-color="#ffffff"/>
			<stop offset="1" stop-color="#ffffff"/>
		</linearGradient>
		<linearGradient id="g11" x1="590.3" y1="244" x2="623.1" y2="243.6" gradientUnits="userSpaceOnUse">
			<stop offset="0" stop-color="#ffffff"/>
			<stop offset="1" stop-color="#ffffff"/>
		</linearGradient>
		<linearGradient id="g12" x1="577.7" y1="334.2" x2="649.1" y2="333.2" gradientUnits="userSpaceOnUse">
			<stop offset="0" stop-color="#ffffff"/>
			<stop offset="1" stop-color="#ffffff"/>
		</linearGradient>
		<linearGradient id="g13" x1="604.2" y1="329.5" x2="644.4" y2="328.9" gradientUnits="userSpaceOnUse">
			<stop offset="0" stop-color="#ffffff"/>
			<stop offset="1" stop-color="#ffffff"/>
		</linearGradient>
		<linearGradient id="g14" x1="1234.4" y1="425.9" x2="1326.1" y2="424.6" gradientUnits="userSpaceOnUse">
			<stop offset="0" stop-color="#ffffff"/>
			<stop offset="1" stop-color="#ffffff"/>
		</linearGradient>
		<linearGradient id="g15" x1="1268.4" y1="419.8" x2="1320" y2="419" gradientUnits="userSpaceOnUse">
			<stop offset="0" stop-color="#ffffff"/>
			<stop offset="1" stop-color="#ffffff"/>
		</linearGradient>
		<linearGradient id="g16" x1="537.1" y1="264.7" x2="713.7" y2="264.7" gradientUnits="userSpaceOnUse">
			<stop offset="0" stop-color="#000000"/>
			<stop offset="1" stop-color="#fc6b6b"/>
		</linearGradient>
		<linearGradient id="g17" x1="573.2" y1="111.9" x2="681.4" y2="111.9" gradientUnits="userSpaceOnUse">
			<stop offset="0" stop-color="#000000"/>
			<stop offset="1" stop-color="#fc6b6b"/>
		</linearGradient>
		<linearGradient id="g18" x1="571.3" y1="84.1" x2="684.1" y2="84.1" gradientUnits="userSpaceOnUse">
			<stop offset="0" stop-color="#000000"/>
			<stop offset="1" stop-color="#fc6b6b"/>
		</linearGradient>
		<linearGradient id="g19" x1="0" y1="713.3" x2="1200" y2="713.3" gradientUnits="userSpaceOnUse">
			<stop offset="0" stop-color="#770024"/>
			<stop offset="1" stop-color="#ff4331"/>
		</linearGradient>
		<linearGradient id="g20" x1="238" y1="713.3" x2="1200" y2="713.3" gradientUnits="userSpaceOnUse">
			<stop offset="0" stop-color="#000000"/>
			<stop offset="1" stop-color="#fc6b6b"/>
		</linearGradient>
		<linearGradient id="g21" x1="545.3" y1="900" x2="545.3" y2="741.3" gradientUnits="userSpaceOnUse">
			<stop offset="0" stop-color="#000000"/>
			<stop offset="1" stop-color="#ffffff"/>
		</linearGradient>
		<linearGradient id="g22" x1="1028.4" y1="880.6" x2="1028.4" y2="727" gradientUnits="userSpaceOnUse">
			<stop offset="0" stop-color="#000000"/>
			<stop offset="1" stop-color="#ffffff"/>
		</linearGradient>
		<linearGradient id="g23" x1="626.5" y1="876" x2="626.5" y2="719" gradientUnits="userSpaceOnUse">
			<stop offset="0" stop-color="#000000"/>
			<stop offset="1" stop-color="#ffffff"/>
		</linearGradient>
		<linearGradient id="g24" x1="177.5" y1="749.3" x2="177.5" y2="261.3" gradientUnits="userSpaceOnUse">
			<stop offset="0" stop-color="#770024"/>
			<stop offset=".965" stop-color="#d91031"/>
			<stop offset="1" stop-color="#c71131"/>
		</linearGradient>
		<linearGradient id="g25" x1="552.9" y1="715" x2="552.9" y2="334.1" gradientUnits="userSpaceOnUse">
			<stop offset="0" stop-color="#000000"/>
			<stop offset="1" stop-color="#ffffff"/>
		</linearGradient>
		<linearGradient id="g26" x1="0" y1="264.6" x2="536.9" y2="264.6" gradientUnits="userSpaceOnUse">
			<stop offset="0" stop-color="#770024"/>
			<stop offset=".965" stop-color="#d91031"/>
			<stop offset="1" stop-color="#c71131"/>
		</linearGradient>
		<linearGradient id="g27" x1="439" y1="358.7" x2="518.3" y2="358.7" gradientUnits="userSpaceOnUse">
			<stop offset="0" stop-color="#ca0024"/>
			<stop offset=".965" stop-color="#d91031"/>
			<stop offset="1" stop-color="#c71131"/>
		</linearGradient>
		<linearGradient id="g28" x1="107" y1="418.6" x2="107" y2="312.5" gradientUnits="userSpaceOnUse">
			<stop offset="0" stop-color="#000000"/>
			<stop offset="1" stop-color="#ffffff"/>
		</linearGradient>
		<linearGradient id="g29" x1="17.9" y1="528.5" x2="17.9" y2="365.5" gradientUnits="userSpaceOnUse">
			<stop offset="0" stop-color="#000000"/>
			<stop offset="1" stop-color="#ffffff"/>
		</linearGradient>
		<linearGradient id="g30" x1="-131.7" y1="558" x2="-131.7" y2="380" gradientUnits="userSpaceOnUse">
			<stop offset="0" stop-color="#000000"/>
			<stop offset="1" stop-color="#ffffff"/>
		</linearGradient>
		<linearGradient id="g31" x1="215.5" y1="438.7" x2="215.5" y2="346.7" gradientUnits="userSpaceOnUse">
			<stop offset="0" stop-color="#000000"/>
			<stop offset="1" stop-color="#ffffff"/>
		</linearGradient>
		<linearGradient id="g32" x1="-1087.6" y1="619" x2="-1087.6" y2="273.5" gradientUnits="userSpaceOnUse">
			<stop offset="0" stop-color="#000000"/>
			<stop offset="1" stop-color="#ffffff"/>
		</linearGradient>
	</defs>
	<style>
		.s0 { fill: #ffcf86 } 
		.s1 { opacity: .6;fill: #fb1a1b } 
		.s2 { fill: #351b0e } 
		.s3 { opacity: .6;fill: #f6e9be } 
		.s4 { opacity: .2;fill: #004254 } 
		.s5 { fill: #56230c } 
		.s6 { fill: #7c4b29 } 
		.s7 { fill: #ffd48f } 
		.s8 { opacity: .6;fill: url(#g1) } 
		.s9 { fill: #4e91a8 } 
		.s10 { opacity: .6;fill: url(#g2) } 
		.s11 { fill: #fda24c } 
		.s12 { fill: #fac25e } 
		.s13 { opacity: .6;fill: url(#g3) } 
		.s14 { opacity: .1;fill: #f6e9be } 
		.s15 { fill: #4d2d1b } 
		.s16 { fill: #683a1b } 
		.s17 { fill: #a36836 } 
		.s18 { fill: #7c441e } 
		.s19 { opacity: .5;fill: #8c5329 } 
		.s20 { fill: #8c5329 } 
		.s21 { opacity: .5;fill: url(#g4) } 
		.s22 { opacity: .5;fill: url(#g5) } 
		.s23 { opacity: .5;fill: url(#g6) } 
		.s24 { opacity: .5;fill: url(#g7) } 
		.s25 { opacity: .5;fill: url(#g8) } 
		.s26 { opacity: .5;fill: url(#g9) } 
		.s27 { opacity: .5;fill: url(#g10) } 
		.s28 { opacity: .5;fill: url(#g11) } 
		.s29 { opacity: .5;fill: url(#g12) } 
		.s30 { opacity: .5;fill: url(#g13) } 
		.s31 { opacity: .5;fill: url(#g14) } 
		.s32 { opacity: .5;fill: url(#g15) } 
		.s33 { fill: #c7e0fd } 
		.s34 { fill: #ffe898 } 
		.s35 { opacity: .6;fill: #ff3d1b } 
		.s36 { opacity: .4;mix-blend-mode: color-dodge;fill: url(#g16) } 
		.s37 { opacity: .2;fill: #9d011b } 
		.s38 { fill: #66011b } 
		.s39 { fill: #f28e7f } 
		.s40 { fill: #d34f2c } 
		.s41 { opacity: .8;mix-blend-mode: color-dodge;fill: url(#g17) } 
		.s42 { opacity: .8;mix-blend-mode: color-dodge;fill: url(#g18) } 
		.s43 { fill: url(#g19) } 
		.s44 { opacity: .2;fill: #f2b0a4 } 
		.s45 { opacity: .4;mix-blend-mode: color-dodge;fill: url(#g20) } 
		.s46 { opacity: .3;fill: #66011b } 
		.s47 { opacity: .2;mix-blend-mode: color-dodge;fill: url(#g21) } 
		.s48 { opacity: .2;mix-blend-mode: color-dodge;fill: url(#g22) } 
		.s49 { opacity: .2;mix-blend-mode: color-dodge;fill: url(#g23) } 
		.s50 { fill: #9a011b } 
		.s51 { fill: #c71a1b } 
		.s52 { opacity: .3;fill: #86011b } 
		.s53 { opacity: .6;fill: #cbfffd } 
		.s54 { fill: #fffffd } 
		.s55 { fill: #ffd8bf } 
		.s56 { fill: #004477 } 
		.s57 { fill: #003b60 } 
		.s58 { fill: #e9fffd } 
		.s59 { fill: #002c54 } 
		.s60 { fill: url(#g24) } 
		.s61 { fill: #f2687f } 
		.s62 { opacity: .5;fill: #66011b } 
		.s63 { fill: #f24565 } 
		.s64 { opacity: .2;mix-blend-mode: color-dodge;fill: url(#g25) } 
		.s65 { opacity: .5;fill: #f24565 } 
		.s66 { fill: url(#g26) } 
		.s67 { fill: url(#g27) } 
		.s68 { opacity: .3;fill: #a2011b } 
		.s69 { opacity: .2;mix-blend-mode: color-dodge;fill: url(#g28) } 
		.s70 { opacity: .2;mix-blend-mode: color-dodge;fill: url(#g29) } 
		.s71 { opacity: .2;mix-blend-mode: color-dodge;fill: url(#g30) } 
		.s72 { opacity: .2;mix-blend-mode: color-dodge;fill: url(#g31) } 
		.s73 { opacity: .2;mix-blend-mode: color-dodge;fill: url(#g32) } 
	</style>
	<g id="_Artboards_">
	</g>
	<g id="locker room">
		<path id="&lt;Path&gt;" class="s0" d="m1200 0l-0.1 166v79.1 16.2 73l-0.1 190.8v32.2 30.7l-0.1 82.7-15.2 1.8-5.1 0.6-67.2 7.8-10.5 1.3-4.6 0.5-15.6 1.8h-0.2l-1.9 0.3-29.6 3.4-13.2 1.6h-0.2l-16.7 1.9-13.8 1.6h-233.8l-91.2-0.6-81.1-0.6h-6.1l-36.4-0.2-21.7-0.2h-5.2-2.3l-49.4-0.4-11.6-0.1-22.5-0.1-7.8-0.1h-3.6l-11-0.1h-6-0.1l-55.1-0.4h-4.3-0.3l-10.4-0.1h-0.3l-7.8-0.1h-11.1l-3.6-0.1-72-0.5h-3.6-0.1l-9.8-0.1h-3.4l-11.6-0.1h-7.1l-77.8-0.5-7.9-0.1h-1.5l-9.4-0.1h-5l-9.9-0.1h-3.9l-17.9-0.1-31.5-0.2-32.8-0.3h-7.5l-9.9-0.1h-0.6v-688z"/>
		<path id="&lt;Path&gt;" class="s1" d="m1200 713.3h-1200v-156l3.8 0.1 6.7 0.2 7.5 0.2 83.8 2.1 3.3 0.1 8.9 0.3 5 0.1 7.8 0.2h1.8l6.3 0.2 32.4 0.8 49.6 1.3 5.8 0.1 10.5 0.3 3.6 0.1 7.8 0.2h1l3.8 0.1 68.6 1.8h3.2l10.2 0.3 5.9 0.2h0.3l9 0.2h1.3l4.2 0.1 23.8 0.6 16.8 0.5 18.1 0.4 3.7 0.1 2.8 0.1 2.8 0.1 5.2 0.1 5.6 0.2h0.1l3.8 0.1 7.7 0.1 23.6 0.7 11.3 0.2 47.1 1.2 3.5 0.1 3.7 0.1 17.4 0.5 49.5 1.2 5.9 0.2 19.3 0.5 66.1 1.7h0.6l73.3 1.9 11.3 0.2 10.9 0.3 1.8 0.1 100.8 2.5 139.1 3.6 15.5 0.4 3.8 0.1 12.4 0.3 30.2 0.8h0.9l16.7 0.4 5 0.2 4.2 0.1 7.6 0.2 35.5 0.9 20 0.5 5 0.1 15.3 0.4 0.1 94.2v3z"/>
		<path id="&lt;Path&gt;" class="s1" d="m0 532l1200 25.3v9.4l-1200-17.4z"/>
		<g id="&lt;Clip Group&gt;">
			<g id="&lt;Group&gt;">
				<g id="&lt;Group&gt;">
				</g>
				<path id="&lt;Path&gt;" class="s2" d="m647.1 225.6l2.2 40.2 3.6-0.1 2.6-40.2z"/>
				<path id="&lt;Path&gt;" class="s3" d="m600.5-80.5l-4.8-9.6 77-0.6-2.2 8.4z"/>
				<path id="&lt;Path&gt;" class="s4" d="m632.4-14.5l-45.5 6.7 3.5-53.4 3-5.4 5.1 52.6z"/>
				<g id="&lt;Group&gt;">
					<g id="&lt;Group&gt;">
						<path id="&lt;Compound Path&gt;" fill-rule="evenodd" class="s5" d="m637.7-67.3l-2.4 52.8-36.8 0.5-5.1-52.6zm-1.4 1.6l-41.5 0.6 4.7 49.4 34.6-0.5z"/>
						<path id="&lt;Path&gt;" class="s6" d="m634.1-16.1l2.2-49.5-41.5 0.6 4.8 49.3z"/>
						<path id="&lt;Path&gt;" class="s7" d="m627.6-23.5l1.2-33.7-26.5 0.3 3.4 33.7z"/>
						<path id="&lt;Path&gt;" class="s8" d="m633.4-65.6l-33.6 19.9 0.9 9 31.5-14-29.5 17.4 32.8-13.7 0.8-18.6z"/>
					</g>
					<g id="&lt;Group&gt;">
						<path id="&lt;Compound Path&gt;" fill-rule="evenodd" class="s5" d="m689.1-69l-1.6 55.2-32.1 0.5-3.9-55.2zm-3.3 2.7l-31.2 0.5 3.8 49.3 25.9-0.3z"/>
						<path id="&lt;Path&gt;" class="s9" d="m684.3-16.9l1.5-49.4-31.2 0.4 3.8 49.4z"/>
						<path id="&lt;Path&gt;" class="s3" d="m679.3-24.2l1.4-34.5-20.4 1 2.7 33.7z"/>
						<path id="&lt;Path&gt;" class="s10" d="m683.6-66.3l-25.1 19.8 0.7 9 23.6-14-22.2 17.4 24.6-13.6 0.6-18.6z"/>
					</g>
					<g id="&lt;Group&gt;">
						<path id="&lt;Compound Path&gt;" fill-rule="evenodd" class="s5" d="m938.2-70.9l-2.3 52.8-36.9 0.5-5.1-52.7zm-1.3 1.7l-41.6 0.6 4.8 49.4 34.5-0.5z"/>
						<path id="&lt;Path&gt;" class="s11" d="m934.7-19.8l2.2-49.4-41.6 0.6 4.8 49.3z"/>
						<path id="&lt;Path&gt;" class="s12" d="m928.1-27.1l1.2-33.8-26.4 0.4 3.4 33.7z"/>
						<path id="&lt;Path&gt;" class="s13" d="m934-69.2l-33.6 19.9 0.9 9 31.5-14.1-29.6 17.5 32.8-13.7 0.9-18.6z"/>
					</g>
				</g>
				<path id="&lt;Path&gt;" class="s4" d="m932.9-18.1l-45.4 6.7 3.5-53.4 2.9-5.5 5.1 52.7z"/>
				<path id="&lt;Path&gt;" class="s4" d="m651.5-68.5l-1.4 59.8 37.4-5.1-32.1 0.5z"/>
				<path id="&lt;Path&gt;" class="s7" d="m1116.3 250.7l-29 23.1 27.3-0.5 20.9-11.9z"/>
				<path id="&lt;Path&gt;" class="s7" d="m1139.7 263.7l-13.8 9.6 25.7-3z"/>
				<path id="&lt;Path&gt;" class="s14" d="m597.9 184.9l81.6-0.6 5.6 23.9-91.9 1.3z"/>
				<g id="&lt;Group&gt;">
					<g id="&lt;Group&gt;">
						<path id="&lt;Path&gt;" class="s12" d="m750.2 242.5l146-1.6 42.6 40.9-169 2.7z"/>
						<path id="&lt;Path&gt;" class="s6" d="m750.2 242.5l0.2 8.1 18.9 44.1 169.7-2.5-0.2-10.4-169 2.7z"/>
						<path id="&lt;Path&gt;" class="s11" d="m796.1 284.1l104.4-37.9-4.3-5.3-146 1.6 19.6 42z"/>
						<path id="&lt;Path&gt;" class="s7" d="m938.8 281.8l-23.2-22.3-77.6 23.8z"/>
						<path id="&lt;Path&gt;" class="s15" d="m776 294.6l5.3 89.1 3.5-0.1 2.8-89.2z"/>
						<path id="&lt;Path&gt;" class="s15" d="m927.3 292.4l-8.8 89.3-3.4 0.1 0.4-89.2z"/>
						<path id="&lt;Path&gt;" class="s2" d="m759 270.6l7.9 75.1h5l-3.4-55.9z"/>
						<path id="&lt;Path&gt;" class="s15" d="m787.6 296.9l128 5.8-0.1-10.1-127.9 1.8z"/>
						<path id="&lt;Path&gt;" class="s15" d="m877.8 300.6l0.6 43.5h4.2l2.5-45.1z"/>
						<path id="&lt;Path&gt;" class="s16" d="m769.3 294.7l0.5-10.2-19.6-42 0.2 8.1z"/>
						<path id="&lt;Path&gt;" class="s16" d="m802.1 284.2l-9.8 10.1 28.1-0.4-0.2-10.2z"/>
						<path id="&lt;Path&gt;" class="s2" d="m780.8 294.5l2.3 89.1-1.8 0.1-5.3-89.1z"/>
						<g id="&lt;Group&gt;">
							<path id="&lt;Path&gt;" class="s2" d="m829.9 360l10.3 13.1 0.1 6.8-10.4-15.1z"/>
							<g id="&lt;Group&gt;">
								<path id="&lt;Path&gt;" class="s17" d="m820.2 256.4l1.8 44.8 76.2-1.1 1.2-44.9z"/>
								<path id="&lt;Path&gt;" class="s18" d="m822.5 301.2l-0.6-44.8h-2.5l0.6 45.2 78.2-1.5v-0.6z"/>
								<path id="&lt;Path&gt;" class="s19" d="m835.2 300.9c0 0 16.3-16.7 30.2-25.5 13.8-8.8 33.9-14.4 33.9-14.4l0.1-5.8-77.5 1.2 0.6 44.8z"/>
								<path id="&lt;Path&gt;" class="s17" d="m823 334l75.7-1.1-23.3-30.5-64.1 1z"/>
								<path id="&lt;Path&gt;" class="s18" d="m898.7 332.9v4.1l-77.6 1.1-9.8-31.4 0.2-2.7 11.5 30z"/>
								<path id="&lt;Path&gt;" class="s15" d="m824.6 338l1.3 3.3 66.8-1 1.1-3.2z"/>
								<path id="&lt;Path&gt;" class="s2" d="m825.9 341.3l1.5 30h2.6l0.8-30.1z"/>
								<path id="&lt;Path&gt;" class="s2" d="m871.2 340.6l0.4 30.1 2.8-0.1 1.9-30.1z"/>
								<path id="&lt;Path&gt;" class="s20" d="m815.9 315.4c0 0 30.9-0.4 50.2 1.5 19.2 1.9 24.2 5.1 24.2 5.1l-14.9-19.6-64.1 1z"/>
								<path id="&lt;Path&gt;" class="s2" d="m874.4 363.2l6.8 8 0.1 8.1-7.2-13z"/>
								<path id="&lt;Path&gt;" class="s21" d="m894.9 328.2l-42.1-3.5-22.2 7 43.9 1.5 24.2-0.3z"/>
								<path id="&lt;Path&gt;" class="s22" d="m893.2 325.7l-32.4-5.3-5 2.1 38.3 4.4z"/>
								<path id="&lt;Path&gt;" class="s15" d="m840 391.9l-4.1-113.1 8.3-0.1-0.8 113.1z"/>
								<path id="&lt;Path&gt;" class="s15" d="m882.8 391.2l6.9-113.2-7.4 0.1-2.2 113.2z"/>
							</g>
							<path id="&lt;Path&gt;" class="s2" d="m844.2 278.7l-6.2 1.3 2.9 111.8-0.9 0.1-4.1-113.1z"/>
							<path id="&lt;Path&gt;" class="s2" d="m889.7 278l-7.4 0.1-2.2 113.2h1.4l3.5-111.8z"/>
						</g>
					</g>
					<g id="&lt;Group&gt;">
						<path id="&lt;Path&gt;" class="s12" d="m788.7 331.5l200-2.3 58.5 56.1-231.7 3.8z"/>
						<path id="&lt;Path&gt;" class="s6" d="m788.7 331.5l0.1 11.1 26 60.4 232.6-3.4-0.2-14.3-231.7 3.8z"/>
						<path id="&lt;Path&gt;" class="s11" d="m851.5 388.5l143.2-52-6-7.3-200 2.3 26.8 57.6z"/>
						<path id="&lt;Path&gt;" class="s7" d="m1047.2 385.3l-31.9-30.5-106.3 32.5z"/>
						<path id="&lt;Path&gt;" class="s15" d="m823.9 402.8l7.4 122.1h4.7l1.7-53 2.1-69.3z"/>
						<path id="&lt;Path&gt;" class="s15" d="m1031.3 399.9l-12.1 122.4h-4.6l0.6-122.2z"/>
						<path id="&lt;Path&gt;" class="s2" d="m800.6 369.9l10.9 103 6.8-0.1-4.6-76.5z"/>
						<path id="&lt;Path&gt;" class="s15" d="m839.9 406l175.5 7.9-0.2-13.8-175.4 2.5z"/>
						<path id="&lt;Path&gt;" class="s15" d="m963.5 411.1l0.8 59.6h5.8l3.4-61.8z"/>
						<path id="&lt;Path&gt;" class="s16" d="m814.8 403l0.7-13.9-26.8-57.6 0.1 11.1z"/>
						<path id="&lt;Path&gt;" class="s16" d="m859.7 388.6l-13.4 13.9 62.9-0.9-0.2-14.3z"/>
						<path id="&lt;Path&gt;" class="s2" d="m830.6 402.7l3 122.2h-2.3l-7.4-122.1z"/>
						<g id="&lt;Group&gt;">
							<path id="&lt;Path&gt;" class="s2" d="m922.6 492.1l14.1 17.9 0.1 9.4-14.1-20.7z"/>
							<g id="&lt;Group&gt;">
								<path id="&lt;Path&gt;" class="s17" d="m909.4 350.2l2.3 61.4 104.5-1.5 1.7-61.6z"/>
								<path id="&lt;Path&gt;" class="s18" d="m912.5 411.6l-0.9-61.5-3.3 0.1 0.7 62 107.2-2.1v-0.9z"/>
								<path id="&lt;Path&gt;" class="s19" d="m929.8 411.2c0 0 22.5-22.9 41.4-35 19-12 46.5-19.7 46.5-19.7l0.2-8-106.3 1.6 0.9 61.5z"/>
								<path id="&lt;Path&gt;" class="s17" d="m913.2 456.5l103.7-1.5-32-41.9-87.8 1.5z"/>
								<path id="&lt;Path&gt;" class="s18" d="m1016.9 455l0.1 5.6-106.4 1.5-13.5-43 0.3-3.8 15.8 41.2z"/>
								<path id="&lt;Path&gt;" class="s15" d="m915.4 462.1l1.7 4.4 91.6-1.3 1.5-4.5z"/>
								<path id="&lt;Path&gt;" class="s2" d="m917.1 466.5l2.1 41.1h3.6l1-41.2z"/>
								<path id="&lt;Path&gt;" class="s2" d="m979.2 465.6l0.6 41.2 3.8-0.1 2.7-41.2z"/>
								<path id="&lt;Path&gt;" class="s20" d="m903.4 431c0 0 42.4-0.5 68.8 2.1 26.4 2.6 33.3 6.9 33.3 6.9l-20.6-26.9-87.8 1.5z"/>
								<path id="&lt;Path&gt;" class="s2" d="m983.6 496.5l9.3 11 0.2 11.1-9.9-17.8z"/>
								<path id="&lt;Path&gt;" class="s23" d="m1011.7 448.6l-57.7-4.9-30.3 9.6 60 2.1 33.2-0.4z"/>
								<path id="&lt;Path&gt;" class="s24" d="m994.2 334.6l-60.5-4.2-30.3 9.6 60.1 2.1 36.7-1.8z"/>
								<path id="&lt;Path&gt;" class="s25" d="m1003 342.9l-62-0.4-30.4 5 60 0.6 36.8-1.2z"/>
								<path id="&lt;Path&gt;" class="s26" d="m1009.4 445.2l-44.5-7.3-6.8 2.8 52.5 6.1z"/>
								<path id="&lt;Path&gt;" class="s15" d="m936.5 535.8l-5.6-154.9 11.4-0.2-1.2 155z"/>
								<path id="&lt;Path&gt;" class="s15" d="m995.2 535l9.4-155.2-10.2 0.1-3 155.1z"/>
							</g>
							<path id="&lt;Path&gt;" class="s2" d="m942.3 380.7l-8.5 1.8 3.9 153.3h-1.2l-5.6-154.9z"/>
							<path id="&lt;Path&gt;" class="s2" d="m1004.6 379.8l-10.2 0.1-3 155.1h1.9l4.9-153.2z"/>
						</g>
					</g>
					<g id="&lt;Group&gt;">
						<path id="&lt;Path&gt;" class="s12" d="m683.8 213.9l-8.2-36.3-136.5 0.5-20.7 34.6z"/>
						<path id="&lt;Path&gt;" class="s11" d="m526.8 212.6l149.9-30.3-1.1-4.7-136.5 0.5-20.7 34.6z"/>
						<path id="&lt;Path&gt;" class="s7" d="m679.3 193.9l-49.6 19.6 54.1 0.4z"/>
						<path id="&lt;Path&gt;" class="s2" d="m545.2 226.6l1.9 42h3.7l1.1-42.1z"/>
						<path id="&lt;Path&gt;" class="s15" d="m526.3 220.6l4.3 80.5 3.8-0.1 3.1-71 128.4-3 2.8 75.3h3l3.2-80.8z"/>
						<path id="&lt;Path&gt;" class="s2" d="m617.9 269.1l-4.3 19.6 1.1 9.6 3.3-23.1z"/>
						<path id="&lt;Path&gt;" class="s17" d="m627.8 188.2l-0.4 38.5-65.4 0.9-2.1-38.5z"/>
						<path id="&lt;Path&gt;" class="s12" d="m627.4 226.7l-1-38.5h2.1l0.7 38.8-67.2 0.6z"/>
						<path id="&lt;Path&gt;" class="s19" d="m571.6 227c0 0 13.7-13.9 25.6-21.5 11.8-7.5 29.1-12.3 29.1-12.3l0.1-5-66.5 1 2.1 37.9z"/>
						<path id="&lt;Path&gt;" class="s17" d="m628.8 254.8l-69.3 1 14.9-26 56.9-1.4z"/>
						<path id="&lt;Path&gt;" class="s12" d="m562.4 255.7l0.1 3.5 66.7-0.9 2.2-27.2-0.1-2.7-2.5 26.4z"/>
						<path id="&lt;Path&gt;" class="s15" d="m626 258.3l-1 2.8-59.4 0.9-1-2.8z"/>
						<path id="&lt;Path&gt;" class="s2" d="m621 261.2l-0.5 25.8h-2.3l-1.4-25.8z"/>
						<path id="&lt;Path&gt;" class="s2" d="m582.2 261.7l0.3 25.8-2.4 0.1-2.4-25.8z"/>
						<path id="&lt;Path&gt;" class="s20" d="m630 236.6c0 0-23.5 2.5-40 4.6-16.5 2.1-25 5-25 5l9.4-16.4 56.9-1.4z"/>
						<path id="&lt;Path&gt;" class="s2" d="m580.1 272.4l-2.5 10.7 0.1 6.9 2.5-13.5z"/>
						<path id="&lt;Path&gt;" class="s27" d="m623.9 250.7l-36.2-3.1-18.9 6.1 37.6 1.3 20.7-0.3z"/>
						<path id="&lt;Path&gt;" class="s28" d="m622.4 248.5l-27.8-4.5-4.3 1.7 32.9 3.9z"/>
						<path id="&lt;Path&gt;" class="s18" d="m628.8 254.8l0.4 3.5-68.6 1-1.1-3.5z"/>
						<path id="&lt;Path&gt;" class="s2" d="m616.2 304.8l0.8-98-7.2 0.1 3.5 98z"/>
						<path id="&lt;Path&gt;" class="s2" d="m575 305.4l-6.3-96.9 6.4-0.1 3.5 97z"/>
						<path id="&lt;Path&gt;" class="s15" d="m609.8 206.9l5.4 1.1 0.3 96.9 0.7-0.1 0.8-98z"/>
						<path id="&lt;Path&gt;" class="s15" d="m568.7 208.5l6.4-0.1 3.5 97h-1.9l-3.9-95.8z"/>
						<path id="&lt;Path&gt;" class="s20" d="m609.8 206.9l-10.4 19.7 11.1 0.3z"/>
					</g>
					<g id="&lt;Group&gt;">
						<path id="&lt;Path&gt;" class="s12" d="m693.7 293.2l-9.5-46.3-176.6-0.4-27 45.2z"/>
						<path id="&lt;Path&gt;" class="s6" d="m693.7 293.2l0.1 8.7-212.7-0.5-0.5-9.7z"/>
						<path id="&lt;Path&gt;" class="s7" d="m688.3 266.6l-71.6 26.1 77 0.5z"/>
						<path id="&lt;Path&gt;" class="s2" d="m513.4 308.7l2.3 51.4 4.6-0.1 1.3-51.4z"/>
						<path id="&lt;Path&gt;" class="s15" d="m490.2 301.3l5.3 98.5 4.7-0.1 3.7-86.9 167.4-4 1.3 91.7 9.4-0.9 2.5-97.5z"/>
						<path id="&lt;Path&gt;" class="s2" d="m637.9 360.2l-5.2 24 1.3 11.7 4.1-28.2z"/>
						<path id="&lt;Path&gt;" class="s17" d="m650.1 261.2l-0.5 47-80 1.2-2.7-47.1z"/>
						<path id="&lt;Path&gt;" class="s12" d="m649.6 308.2l-1.2-47 2.5-0.1 0.8 47.5-82.1 0.8z"/>
						<path id="&lt;Path&gt;" class="s19" d="m581.3 308.6c0 0 16.8-17 31.3-26.3 14.5-9.2 35.6-15.1 35.6-15.1l0.2-6.1-81.5 1.2 2.7 46.4z"/>
						<path id="&lt;Path&gt;" class="s17" d="m651.3 342.6l-84.7 1.2 10.7-31.6 73.9-1.8z"/>
						<path id="&lt;Path&gt;" class="s12" d="m570.1 343.8v4.3l83.2 0.5-0.9-32.7-1.2-5.5 0.1 32.2z"/>
						<path id="&lt;Path&gt;" class="s15" d="m647.9 347l-1.2 3.4-72.7 1-1.2-3.4z"/>
						<path id="&lt;Path&gt;" class="s2" d="m641.8 350.5l-0.7 31.5h-2.8l-1.6-31.5z"/>
						<path id="&lt;Path&gt;" class="s2" d="m594.3 351.1l0.4 31.6h-2.9l-3-31.5z"/>
						<path id="&lt;Path&gt;" class="s20" d="m651 320.7c0 0-27 2.8-47.2 5.3-20.1 2.6-33.3 6.1-33.3 6.1l5-20.6 75.7-1.1z"/>
						<path id="&lt;Path&gt;" class="s2" d="m591.7 364.2l-3 13.1 0.1 8.5 3-16.6z"/>
						<path id="&lt;Path&gt;" class="s29" d="m645.3 337.6l-44.2-3.7-23.3 7.3 46 1.7 25.5-0.4z"/>
						<path id="&lt;Path&gt;" class="s30" d="m643.5 335l-34.1-5.6-5.2 2.2 40.3 4.6z"/>
						<path id="&lt;Path&gt;" class="s18" d="m651.3 342.6l0.5 4.3-84 1.2-1.2-4.3z"/>
						<path id="&lt;Path&gt;" class="s2" d="m635.9 403.9l1-120-8.9 0.2 4.4 119.8z"/>
						<path id="&lt;Path&gt;" class="s2" d="m585.4 404.6l-7.6-118.7 7.9-0.1 4.2 118.7z"/>
						<path id="&lt;Path&gt;" class="s15" d="m628 284.1l6.6 1.2 0.4 118.6h0.9l1-120z"/>
						<path id="&lt;Path&gt;" class="s15" d="m577.8 285.9l7.9-0.1 4.2 118.7-2.4 0.1-4.7-117.2z"/>
						<path id="&lt;Path&gt;" class="s20" d="m628 284.1l-12.7 24.1 13.6 0.3z"/>
					</g>
					<g id="&lt;Group&gt;">
						<path id="&lt;Path&gt;" class="s15" d="m1174 380.8l4.4 125 5.6-0.3 4.3-110.8 158.3-9.7-1.8 120.4 4.9-0.1 10.4-129.1z"/>
						<path id="&lt;Path&gt;" class="s15" d="m1112.5 338.2l6.8 120.7h3.9l2.8-101.6 49.4 40.4-1.4-16.9-7.9 0.2z"/>
						<path id="&lt;Path&gt;" class="s15" d="m1300 385.7l0.9 59.5 6.2-0.1 5.3-59.6z"/>
						<path id="&lt;Path&gt;" class="s12" d="m1106.8 326l185.3 1.2 76.3 42.8-198 3.6z"/>
						<path id="&lt;Path&gt;" class="s6" d="m1368.4 370v9.2l-199.1 5-58.9-46.7-3.5-10.9 63.5 47z"/>
						<path id="&lt;Path&gt;" class="s11" d="m1194.5 373.2l105.3-41.7-7.7-4.3-185.3-1.2 58.1 44.6z"/>
						<path id="&lt;Path&gt;" class="s7" d="m1315.6 340.3l-39.2 31.4 37-0.7 28.3-16.2z"/>
						<path id="&lt;Path&gt;" class="s7" d="m1347.3 357.9l-18.6 13 34.8-4z"/>
						<path id="&lt;Path&gt;" class="s16" d="m1169.3 384.2l3.8-11-66.3-47.2 3.6 11.5z"/>
						<g id="&lt;Group&gt;">
							<path id="&lt;Path&gt;" class="s2" d="m1216.5 463.9l40.9 30 0.1 6.3-41.2-31.9z"/>
							<g id="&lt;Group&gt;">
								<path id="&lt;Path&gt;" class="s2" d="m1274.5 439.4l0.6 42.3 3.8-0.1 2.6-42.3z"/>
								<path id="&lt;Path&gt;" class="s2" d="m1211.2 418.3l4 62.5h3.4l-0.9-62.6z"/>
								<path id="&lt;Path&gt;" class="s17" d="m1230.5 333.6l2.3 60.5 102.9-1.5 1.7-60.6z"/>
								<path id="&lt;Path&gt;" class="s18" d="m1233.6 394l-0.9-60.4h-3.3l0.7 61 105.6-2v-0.9z"/>
								<path id="&lt;Path&gt;" class="s19" d="m1250.6 393.7c0 0 22.1-22.6 40.8-34.4 18.6-11.9 45.7-19.5 45.7-19.5l0.3-7.8-104.7 1.6 0.9 60.4z"/>
								<path id="&lt;Path&gt;" class="s17" d="m1234.2 438.2l102.1-1.4-53.7-30.2-85.5 1.2z"/>
								<path id="&lt;Path&gt;" class="s18" d="m1336.3 436.8l0.1 5.5-104.7 1.5-34.6-30.9v-5.1l37.1 30.4z"/>
								<path id="&lt;Path&gt;" class="s15" d="m1236.4 443.7l3.5 9 88.4-5.9 1.5-4.4z"/>
								<path id="&lt;Path&gt;" class="s20" d="m1218.8 425.6c0 0 40.5-13.8 66.3-10 13 2 37 12.2 37 12.2l-39.5-21.2-85.5 1.2z"/>
								<path id="&lt;Path&gt;" class="s2" d="m1278.4 468.8l34.4 27 0.1 6.6-34.4-29.7z"/>
								<path id="&lt;Path&gt;" class="s31" d="m1321.2 430.2l-56.8-4.7-29.9 9.4 59.2 2.1 32.6-0.5z"/>
								<path id="&lt;Path&gt;" class="s32" d="m1318.9 426.9l-43.7-7.2-6.8 2.8 51.8 6z"/>
								<path id="&lt;Path&gt;" class="s15" d="m1257.2 516.4l-5.6-152.6 11.3-0.2-1.2 152.7z"/>
								<path id="&lt;Path&gt;" class="s15" d="m1315 515.5l9.2-152.7-10 0.1-2.9 152.7z"/>
							</g>
							<path id="&lt;Path&gt;" class="s2" d="m1262.9 363.6l-8.4 1.9 3.8 150.8-1.1 0.1-5.6-152.6z"/>
							<path id="&lt;Path&gt;" class="s2" d="m1324.2 362.8l-10 0.1-2.9 152.7h1.8l4.8-150.8z"/>
							<path id="&lt;Path&gt;" class="s2" d="m1214.6 430l25.3 22.7-3.5-9-4.7 0.1-17.1-15.3z"/>
						</g>
						<path id="&lt;Path&gt;" class="s2" d="m1180.6 505.9l-1.8-121.9-9.5 0.2-56.7-45 6.7 119.7h3.9l2.8-101.6 48.3 39.5 4.1 109z"/>
						<path id="&lt;Path&gt;" class="s16" d="m1229.8 372.4l0.2 10.2-22.8 1 9.9-11.1z"/>
					</g>
				</g>
			</g>
		</g>
		<path id="&lt;Path&gt;" class="s33" d="m996 288.5l-0.1 0.4-22.5 1.4z"/>
		<path id="&lt;Path&gt;" class="s34" d="m560 731.1l-50-731.1h224l-56.1 731.1z"/>
		<path id="&lt;Path&gt;" class="s35" d="m550.9 597.9l136.7 6.5-9.7 126.7h-117.9z"/>
		<path id="&lt;Path&gt;" class="s35" d="m548.1 557.3l142.4 9.4v8.3l-141.4-3.6z"/>
		<path id="&lt;Path&gt;" class="s36" d="m713.7 264.7l-176.6 132.2 16.3 237.5 143.3-124.4z"/>
		<g id="&lt;Group&gt;">
			<path id="&lt;Path&gt;" class="s37" d="m567.2 84.1l-4.6 6.1 4.6 153.6 92.3 4.1 9.3-6z"/>
			<g id="&lt;Group&gt;">
				<path id="&lt;Path&gt;" class="s38" d="m575.5 238.8l-8.3-154.7h116.9l-15.3 157.8z"/>
				<path id="&lt;Path&gt;" class="s39" d="m583.2 234.5l-13.1-147.3 109 3.5-17.1 143.8z"/>
				<path id="&lt;Path&gt;" class="s40" d="m605.1 211.7l-9.1-93.7 53.6-4-7.1 101.2z"/>
				<path id="&lt;Compound Path&gt;" fill-rule="evenodd" class="s38" d="m663.3 99.3l-11.6 121.5-61.3 2.5-7.2-124zm-3.7 2.4h-73.8l9.2 116.4h54.7z"/>
				<path id="&lt;Path&gt;" class="s41" d="m681.4 111.9l-108.2 84.6 2.3 42.3 93.3 3.1z"/>
				<path id="&lt;Path&gt;" class="s42" d="m682.6 99.3l-109.4 80-1.9-18.4 112.8-76.8z"/>
			</g>
		</g>
		<g id="&lt;Group&gt;">
			<g id="&lt;Group&gt;">
				<path id="&lt;Path&gt;" class="s43" d="m0 900v-186.7h1200v186.7z"/>
				<path id="&lt;Path&gt;" class="s38" d="m1032.7 713.3l167.3 174.7v-14.7l-152.7-160z"/>
				<path id="&lt;Path&gt;" class="s38" d="m741.3 713.3l102 186.7h16l-112.6-186.7z"/>
				<path id="&lt;Path&gt;" class="s38" d="m483.3 713.3l20 186.7h12l-25.3-186.7z"/>
				<path id="&lt;Path&gt;" class="s38" d="m159.3 713.3l-68 186.7h12l65.4-186.7z"/>
				<path id="&lt;Path&gt;" class="s38" d="m0 800.7l1200 23.3v-7l-1200-22z"/>
				<path id="&lt;Path&gt;" class="s44" d="m103.3 900l34.8-99.3 355.5 8.8 9.7 90.5z"/>
				<path id="&lt;Path&gt;" class="s44" d="m535.3 900l-20-81.3 269.4 5.3 37.3 76z"/>
				<path id="&lt;Path&gt;" class="s44" d="m876.7 900l-44-76 296 10.7 65.3 65.3z"/>
				<path id="&lt;Path&gt;" class="s44" d="m746.7 713.3l58 96.2 323.3 6.2-95.3-102.4z"/>
				<path id="&lt;Path&gt;" class="s44" d="m1200 722.7l-124 4.3 70 73.7 54 6z"/>
				<path id="&lt;Path&gt;" class="s44" d="m499.3 722.7h242l38 78-264-5.7z"/>
				<path id="&lt;Path&gt;" class="s44" d="m475 795v-72.3h-298l-29 72.3z"/>
				<path id="&lt;Path&gt;" class="s44" d="m0 722.7h138l-18.7 61.3h-119.3z"/>
				<path id="&lt;Path&gt;" class="s44" d="m0 809.5h114l-30 90.5h-84z"/>
				<path id="&lt;Path&gt;" class="s44" d="m123.3 900l29.4-81.3 314 5.3 16.6 76z"/>
				<path id="&lt;Path&gt;" class="s44" d="m779.3 727l31.7 68 282 5.7-66-73.7z"/>
				<path id="&lt;Path&gt;" class="s45" d="m1200 713.3c0 0-204 24-458.7 68.7-241.7 42.3-503.3 118-503.3 118h962z"/>
			</g>
			<path id="&lt;Path&gt;" class="s46" d="m536.9 734.7l-536.9 89.3v-101.3z"/>
			<path id="&lt;Path&gt;" class="s47" d="m548.1 744l149.2-2.7 6.7 158.7h-134z"/>
			<path id="&lt;Path&gt;" class="s48" d="m1027 727l155 3.5v150.1h-106z"/>
			<path id="&lt;Path&gt;" class="s49" d="m709.3 720.3l91-1.3 3.7 157h-79.3z"/>
		</g>
		<g id="&lt;Group&gt;">
			<path id="&lt;Path&gt;" class="s50" d="m0 33.3l512.7 5.5 2.2 33.2-514.9-19.3z"/>
			<path id="&lt;Path&gt;" class="s51" d="m730 52.7l-216.4-0.7 1.3 20 214-6z"/>
			<path id="&lt;Path&gt;" class="s50" d="m1200 28l-468.6 5.3-1.4 19.4 470-3.4z"/>
			<path id="&lt;Path&gt;" class="s51" d="m512.7 38.8l218.2 1.5-0.5 6.2-217.5-3.9z"/>
			<path id="&lt;Path&gt;" class="s50" d="m1200 21.6l-468 4.1-0.1 2.3 468.1-3.2z"/>
			<path id="&lt;Path&gt;" class="s50" d="m0 24.8h511.7l0.2 3.2h-511.9z"/>
		</g>
		<path id="&lt;Path&gt;" class="s52" d="m1200 749.3l-181.2 32.7-132.8-68.7h161.3l28.7 35z"/>
		<g id="&lt;Group&gt;">
		</g>
		<path id="&lt;Path&gt;" class="s53" d="m980.8 380.4l10.5-122.8-159.2 6.5 8.2 115.8z"/>
		<path id="&lt;Compound Path&gt;" fill-rule="evenodd" class="s53" d="m991.3 257.6l-0.5 5.6-5.3 62.6-2.1 23.6-2.6 31-130.3-0.5h-10.2l-4.3-60.1-2-29.3-0.5-7.5-1.4-18.9 46.6-1.9 38.5-1.6 51-2.1zm-3.9 7.3l0.6-5.1-23.8 1.4-52 3.1-44.2 2.6-29.3 1.8 0.4 11.7 1.1 36.4 1.8 58.6h133l5.3-47.5z"/>
		<g id="&lt;Group&gt;">
			<g id="&lt;Group&gt;">
				<g id="&lt;Group&gt;">
					<path id="&lt;Path&gt;" class="s54" d="m1200 685.2v28.1h-181.9l0.7-8.8 0.7-9.8 0.2-3 8-108.1 1.5-19.4 0.2-3.5 0.5-7 13.4-180.8 1.4-18.6 0.2-3v-0.1l11.1-149.3-15.5 0.9-274.6 15.4 5.4 97.1 13 233.3 0.7 12.1 1 16.7 6.4 114.7v1.2l1.2 20h-793.6v-28.8h0.7l9.8 0.1h7.5l36 0.4 44.6 0.4h1.6l4 0.1 9.8 0.1h5l9.4 0.1h1.4l7.9 0.1 77.9 0.7 7.1 0.1 11.6 0.1 3.4 0.1h9.7 0.2l3.6 0.1 71.9 0.7h3.6l11.1 0.1 7.7 0.1h0.3l10.4 0.1h0.3 4.3l52.9 0.5 2.4 0.1h6l11.1 0.1 3.6 0.1h7.8l20.8 0.2 9.6 0.1 53 0.6h2.3 5.2l21.7 0.2 36.6 0.4h6l81.2 0.8 90.7 0.9-7.9-115-1.2-16.6-0.8-12.2-15.1-218.8-9.7-140.8 349.8-5.9-0.7 7.4-36.1 364.2-1 10.3-2 19.6-10.4 105.7-0.5 5.1 13.1-0.8 29.4-1.7 2.1-0.1h0.1l10.4-0.7 10-0.5 10.6-0.7 67.6-4 5.1-0.3 15.4-0.9z"/>
					<path id="&lt;Path&gt;" class="s55" d="m1068.2 194l-0.1 0.8-23 359.3-0.7 10.3-1.2 19.6-6.8 105.8-0.3 5.1-18 18.4 0.7-8.8 0.7-9.8 0.2-3 8-108.1 1.5-19.4 0.2-3.5 0.5-7 13.4-180.8 1.4-18.6 0.2-2.3v-0.7-0.1l11.1-149.3-16.1 1.1-5.6 0.3-26.6 1.7h-0.1l-0.4 0.1-234.5 15.1 2 46.9 1.9 45.3 6.1 145.2 3.4 79.4 0.5 11.6 0.5 12.1 0.7 16.8 1.8 41.5 3.1 73.1v1.2l0.9 20h-793.6v-15h0.4 10.1 7.6 14.1 9.1l58.8-0.1h4 9.9 14.5l1.4-0.1h8.1l77.5-0.1h7.2 11.7 3.4 9.9 3.6l72.2-0.1h3.7 11.1 8.2 10.5 4.5l54.8-0.1h6.4 10.7 3.5l7.8-0.1h27.1 17.2l39.3-0.1h7.4 22 35.7 6.2l80.9-0.2 100.8-0.1-0.2-4-0.1-1.3-5.9-114.9-0.9-16.6-0.6-12.2-11.7-227.8-5.8-112.3z"/>
				</g>
				<g id="&lt;Group&gt;">
					<path id="&lt;Compound Path&gt;" fill-rule="evenodd" class="s56" d="m1056 201.9l-11.1 149.3v0.8l-0.2 2.3-1.4 18.6-13.4 180.8-0.5 7-0.2 3.5-1.5 19.4-8 108.1-0.2 3-0.7 9.8-225.5 2.9-0.6-14.1v-1.2l-3.1-73.1-1.8-41.5-0.7-16.8-0.5-12.1-0.5-11.6-3.4-79.4-6.1-145.2-1.9-45.3-2-46.9 234.6-15.1h-0.1l-9 0.7 36.1-2.5 5.6-0.3zm-177.2 60.2l-46.6 1.9 1.3 19 0.6 7.4 2 29.3 4.2 60.1h10.3l130.3 0.6 2.6-31.1 2-23.5 5.4-62.7 0.5-5.6-23.1 0.9h-0.1l-50.9 2.1z"/>
					<path id="&lt;Path&gt;" class="s57" d="m789.6 619l218.2-85.8 37.1-182-26.1 353.3-225.5 2.9z"/>
				</g>
				<path id="&lt;Path&gt;" class="s54" d="m558.8 713.3l-10.7 21.4h145.9l-15.3-22z"/>
				<path id="&lt;Path&gt;" class="s55" d="m556 719l102 3 16 12.7h-125.9z"/>
				<path id="&lt;Path&gt;" class="s58" d="m795.5 441.7h16.5l-3.6 70.8-8 0.2z"/>
				<path id="&lt;Path&gt;" class="s59" d="m1056 201.9l-11.1 149.3v0.1l-1.6 21.6-2.6-1-57.3-22.5 7.9-91.8-159.2 6.5 1.9 26.4-59.3-23.4-2-46.9 235-15.2 26.6-1.7z"/>
				<path id="&lt;Path&gt;" class="s59" d="m795.5 441.7l-12.8 15.9 3.4 79.4 22.3-24.5-8 0.2z"/>
			</g>
			<path id="&lt;Path&gt;" class="s53" d="m836 319.8l81.2-59.2 51-2.1-87.7 59 110.3-54.3-5.3 62.6-135 54.1h-10.2z"/>
		</g>
		<g id="&lt;Group&gt;">
			<path id="&lt;Path&gt;" class="s60" d="m1200 261.3v488l-18-0.1-85.6-0.7-15.6-0.1h-4.8v-0.1l0.2-2.9 0.2-1.6 1.2-14.5v-0.6l0.1-0.6 0.1-1.2 1.1-13.6 0.2-2.4 0.1-0.8 1.5-17.8 0.6-7.8 2-23.5 3.1-37.5 3.2-38.3 1.7-20.1 0.8-10 1.1-12.5 3.6-43.6 4.1-49.5 15.4-184.4 83.6-3.8z"/>
			<path id="&lt;Path&gt;" class="s61" d="m1116.3 265.1l-25.3-22 109 2v16.2z"/>
			<path id="&lt;Path&gt;" class="s38" d="m1076 748.4l-28.7-33.9 43.7-471.4 25.3 22z"/>
			<path id="&lt;Compound Path&gt;" fill-rule="evenodd" class="s62" d="m1184.5 277v457.5h-2.5l-83.3 1.2 0.4-7.1 0.1-2.2v-0.2l1.7-0.1h0.1l9.2-0.3-0.1 3.1-0.1 2.1h69.3v-0.6l0.1-7v-10.1-26.9-13.3l0.1-85.6 0.1-21.1v-9.5-0.8l0.3-198.5 0.1-78.4h-50l-6.4 143.9-5.8 132.5-0.5 9.9-0.6 13.7-4.5 6.6-5.5 8-1.5 26.9-3.1 54.3-0.4 7.2-0.5 8.9-0.8 13.4-0.5 8.8-0.7 12.9 1.7-0.1h0.1l9.2-0.3 0.1-0.9 0.5-11.6 1-22.9 0.4-9.5 1-23 2.5-56.6 0.7-15.4 0.3-6.7-4.5 6.6-5.5 8 0.5-8.2 1.1-20.3 0.6-9.9 1.5-25.8 1-17.9 0.9-16.4 0.5-8.5 3.1-54.7 8.8-154.6z"/>
			<path id="&lt;Path&gt;" class="s63" d="m1140.8 303h30.9l1.6 5.4-35.7-2.7z"/>
			<path id="&lt;Path&gt;" class="s63" d="m1137.6 310.8l33.8 1.5 1.9 4.3-37.8-2.9z"/>
			<path id="&lt;Path&gt;" class="s63" d="m1139.2 316.6l-1.6 6.3 34.8-1.5-1.2-3.6z"/>
			<path id="&lt;Path&gt;" class="s63" d="m1120.8 697.4l2.7-5.5h44.5l2.4 5.5z"/>
			<path id="&lt;Path&gt;" class="s63" d="m1123 698.4h45.4l2.8 4.1h-50.4z"/>
			<path id="&lt;Path&gt;" class="s63" d="m1120.8 704.1l48.2 0.8 1.4 3.8-50.6-2.3z"/>
			<path id="&lt;Path&gt;" class="s64" d="m1200 334.1l-99.1 115.4-14.5 174 84-122.7-88.6 162.9-5.8 51.3 124-190.2z"/>
			<path id="&lt;Path&gt;" class="s38" d="m1111.4 486.8h8.4l-4.2 38.8-4.2 1.2z"/>
			<path id="&lt;Path&gt;" class="s46" d="m1111.4 486.8l-20.2 16.9 0.4 40.1 24-18.2z"/>
			<path id="&lt;Path&gt;" class="s65" d="m1098.7 735.7l-22.7 9.8 43-475h71.7l-66 7z"/>
		</g>
		<g id="&lt;Group&gt;">
			<path id="&lt;Path&gt;" class="s66" d="m536.9 734.7l-35.1-0.8-9-0.2-7.3-0.2-10.5-0.2-37.5-0.9h-3.5l-85.3-1.9-8.7-0.2-102-2.3-3.3-0.1-59.3-1.3-11.3-0.3-9.4-0.2-17.6-0.4-18.1-0.4-5-0.1-114-2.5v-446.7l114-2.5 116.7-2.5h0.1l85.2-1.9h1.5l88.6-2 19.2-0.4 96.7-2.1 6.9 216.7 1.9 61.9 0.5 13.8 0.4 13.9 3.8 118.2v0.5l0.1 2.1 0.1 5.9 0.5 15.7 0.3 9.4 0.1 1v0.5l0.1 3.9z"/>
			<path id="&lt;Path&gt;" class="s38" d="m114 725.2v-451.7h5v451.8z"/>
			<path id="&lt;Path&gt;" class="s38" d="m234.7 727.9l-4-456.9h4l3.3 457z"/>
			<path id="&lt;Path&gt;" class="s38" d="m340 730.3l-24-461.2h1.5l31.2 461.4z"/>
			<path id="&lt;Path&gt;" class="s38" d="m434 732.4l-8.7-465.7h4.4l7.8 465.7z"/>
			<path id="&lt;Path&gt;" class="s61" d="m522 264.6l-41-24.6-481-2.7v38.7z"/>
			<path id="&lt;Compound Path&gt;" fill-rule="evenodd" class="s62" d="m422.7 719h-64l-0.4-5.7h4.3l0.1 0.7h53.8v-0.7l-0.2-15.5-0.1-6.8v-0.1l-0.1-2.4v-0.8l-0.9-68.7-0.7-48.8v-2.3l-0.2-12.6-0.2-14.6-1.4-107v-0.1l-2-145.1h-78.4l5.5 76.2 6.8 96.2 3 41.7-4 2.7-2.8-40.3-6.8-96.2-6-84.9h87.3l2.3 132 2.1 125 0.2 14.5 0.2 10.4v2.3l0.9 50.9 1.1 68.7v0.8l0.1 2.4 0.1 6.5v0.4 1.5 0.1l0.3 13.9v0.4zm-61.2-21.1l-0.5-7.3-0.2-2.6v-1l-3.7-51.6-1.2-17.1-3.7-51.9-0.9-11.9-1.1-15-2.6-36.9-4 2.8 2.4 34 1.1 15 0.8 11.9 3.9 55.4 1 14.5 3.6 50.8 0.1 1 0.2 2.5 0.5 7.4 1.1 15.5h4.3z"/>
			<path id="&lt;Compound Path&gt;" class="s62" d="m528.7 713.3l-0.2-8.2-0.2-7.5-0.2-5.9-0.1-2.1v-0.6l-3.5-118.3-0.4-13.8-0.4-13.8-1.6-56.6-3.8-127.7v-0.1l-2.6-89.6-32.5 2.8-45.7 4.1 0.3 17.7 1.2 68.8 0.1 6.5 0.4 23.7 2.6 148.6 0.1 6.9 0.1 7.5 0.2 12.9 2 116.9 0.1 2.5v0.7 2.4l0.1 6.6 0.3 15.6v0.7l38.8 3.9 3 0.3 3.9 0.4 38.3 3.9z"/>
			<path id="&lt;Compound Path&gt;" fill-rule="evenodd" class="s62" d="m328 716.5l-80-2.5v-0.7l-0.1-3.8-0.2-11.5h3.6l0.2 11.5h72.5l-0.5-11.6-0.3-7.7-0.1-2.6-0.1-1.1-1.6-39-0.2-5.2-3.2-76.8-0.5-11.6-0.6-15.2-6.1-144.4-0.3-9.3-1.6-36.6-2.6-62.1-60.8 2.2 1.5 104 0.6 46.2 0.4 21.8v6.1l0.6 36.6-4 3-0.5-34.8v-0.1l-0.2-7.3-2.9-180.1h67.5l2.8 62.8 2 44.8q0 0 0 0l6.7 147.3 0.7 15.2 0.5 11.5 3.4 76.1 0.2 3 1.9 42v1l0.1 2.7 0.4 7.6 0.7 15.4zm-76.8-26.7l-0.1-2.9-0.4-30.9-1.3-92.2-0.2-10.8-0.2-15.7-0.5-34.1-3.9 3.1 0.5 30.9 0.2 15.7 0.2 10.8 1.5 93 0.5 30.2 0.1 2.9 0.1 8.2h3.6z"/>
			<path id="&lt;Path&gt;" class="s38" d="m536.6 723.7l-536.6-7.2v6.2l536.9 12z"/>
			<path id="&lt;Compound Path&gt;" fill-rule="evenodd" class="s62" d="m222.7 283.9v420.6h-92.7l-0.1-6.4v-9.2l7.9 0.1 0.2 9.1h77.5v-0.1l0.1-8.5v-3l0.3-23.8 1-99.8 0.1-10.4 0.1-15.9 0.4-33.2 2.2-214.9-91-2.2 1.9 87.2 0.9 39-4.2 3.4-0.4-39.6-0.9-92.4zm-84.9 401.9l-0.2-7.9-1.9-80.9q0 0 0 0l-0.8-36.2-0.2-9.5-0.4-16.5-0.2-10.3-0.5-20.5-0.8-38.6-0.8-34-0.4-18.9-4.3 3.4 0.2 19.1 0.3 36.7 0.4 36.6 0.2 20.2v6.2l0.2 16.5 0.1 9.4 0.4 43.8 0.7 75 0.1 6.3v3.2l7.9 0.1z"/>
			<path id="&lt;Compound Path&gt;" fill-rule="evenodd" class="s62" d="m107 283.9l-0.7 96.1-1.1 154.2-0.1 16.7v9.1l-0.5 71.1-0.4 53.2v1.2l-0.1 3.2v9.5l-0.1 11.3-71.7-1.9-21.8-0.6v-423.1zm-2.9 97.7l1.2-95.3-87.3 2.2v409.8h0.1l10.1 0.8 11.5 0.8 60.3 4.6 0.1-6.3 0.1-9.5v-3.3-0.3l0.7-50 0.9-75.2 0.2-9.1 0.2-16.6 0.4-34.5z"/>
			<path id="&lt;Path&gt;" class="s38" d="m522 264.6l89.1 8.9-18.8 452.1-61.3-1.6z"/>
			<path id="&lt;Path&gt;" class="s61" d="m592.3 725.6l6.2-1.9 18-452.7-94.5-6.4 89.1 8.9z"/>
			<path id="&lt;Path&gt;" class="s38" d="m475 689l8.2-417.1 32.5-2.8 13.3 453.4z"/>
			<path id="&lt;Path&gt;" class="s67" d="m518.3 358.7l-79.3 3.8 0.1 6.5 79.2-5.1z"/>
			<path id="&lt;Path&gt;" class="s61" d="m518.3 358.7l-37.3-7.5-42 1.4v9.9z"/>
			<path id="&lt;Path&gt;" class="s61" d="m529 722.5l-54-33.5-30.5-3.5 0.5 28.5z"/>
			<path id="&lt;Path&gt;" class="s62" d="m439.5 392.7l28.5 26.6-3.4 268.5 22.2 30.4 42.2 4.3-10.7-358.6-79.2 5.1z"/>
			<path id="&lt;Path&gt;" class="s62" d="m437.5 293.5l28.5 18.5 9 39.2 23 8.5 20.3-1-2.6-89.6-78.2 6.9z"/>
			<path id="&lt;Path&gt;" class="s38" d="m608.7 466.1l7.8 2.9-3.9 35.3-5.6 4.7z"/>
			<path id="&lt;Path&gt;" class="s63" d="m23.3 314.4l5.2-8.4h66l4.5 8.4z"/>
			<path id="&lt;Path&gt;" class="s63" d="m28 317.7h65l3 2.6-69.7 3.4z"/>
			<path id="&lt;Path&gt;" class="s63" d="m23.3 327.7l72.7-1.7 3 7.3h-77.3z"/>
			<path id="&lt;Path&gt;" class="s63" d="m253.7 315.1l3.4-6.3h43.3l3 6.3z"/>
			<path id="&lt;Path&gt;" class="s63" d="m256.8 317.6h42.7l1.9 2-45.7 2.5z"/>
			<path id="&lt;Path&gt;" class="s63" d="m253.7 325.2l47.7-1.3 2 5.5h-50.8z"/>
			<path id="&lt;Path&gt;" class="s63" d="m365.1 663l3.1-6.3h40l2.7 6.3z"/>
			<path id="&lt;Path&gt;" class="s63" d="m367.9 665.5h39.4l1.8 2-42.2 2.5z"/>
			<path id="&lt;Path&gt;" class="s63" d="m365.1 673l44-1.2 1.8 5.5h-46.8z"/>
			<path id="&lt;Path&gt;" class="s63" d="m28.7 647.3l-5.4 8.7h68l-3.3-4.3z"/>
			<path id="&lt;Path&gt;" class="s63" d="m27 658.3l-3.7 6.4 68 2.3-2.6-8.7z"/>
			<path id="&lt;Path&gt;" class="s63" d="m26 667l-4.3 7.3 68-3.6-1.4-2z"/>
			<path id="&lt;Path&gt;" class="s63" d="m143 306.4l-5.3 8.6h68l-3.3-4.3z"/>
			<path id="&lt;Path&gt;" class="s63" d="m141.4 317.4l-3.7 6.3 68 2.3-2.7-8.6z"/>
			<path id="&lt;Path&gt;" class="s63" d="m140.4 326l-4.4 7.4 68-3.7-1.3-2z"/>
			<path id="&lt;Path&gt;" class="s63" d="m256.4 659.3l3.1-6.5h51.1l2.7 6.5z"/>
			<path id="&lt;Path&gt;" class="s63" d="m258.9 660.5h52.1l3.3 4.9h-57.9z"/>
			<path id="&lt;Path&gt;" class="s63" d="m256.4 667.3l55.4 1 1.5 4.4-58.1-2.7z"/>
			<path id="&lt;Path&gt;" class="s63" d="m152.7 651.7h51.8l2.8 5.5-60-2.7z"/>
			<path id="&lt;Path&gt;" class="s63" d="m147.3 659.8l56.7 1.5 3.2 4.5-63.5-3z"/>
			<path id="&lt;Path&gt;" class="s63" d="m150 665.8l-2.8 6.5 58.5-1.6-2-3.7z"/>
			<path id="&lt;Path&gt;" class="s63" d="m347.4 304.8h51.9l2.7 5.6-60-2.8z"/>
			<path id="&lt;Path&gt;" class="s63" d="m342 312.9l56.8 1.5 3.2 4.5-63.5-3z"/>
			<path id="&lt;Path&gt;" class="s63" d="m344.8 318.9l-2.8 6.5 58.5-1.6-2-3.6z"/>
			<path id="&lt;Path&gt;" class="s68" d="m408.7 239.6l-159.7 31 273-6-41-24.6z"/>
			<path id="&lt;Path&gt;" class="s38" d="m136.5 460.5l2 39.7 3-0.8 2.3-38.9z"/>
			<path id="&lt;Path&gt;" class="s38" d="m23.3 460.5v36.2l5.2-0.9 4-35.3z"/>
			<path id="&lt;Path&gt;" class="s38" d="m252.6 456.5h8.4l-4.2 40.2-4.2 1.2z"/>
			<path id="&lt;Path&gt;" class="s38" d="m348.7 456.5h9.3v38.9l-7 1.3z"/>
			<path id="&lt;Path&gt;" class="s46" d="m26.3 460.5l-12.3 11.5-3.5 37 18-13.2z"/>
			<path id="&lt;Path&gt;" class="s46" d="m136.5 460.5l-12.5 16.1-5 38.9 19.5-15.3z"/>
			<path id="&lt;Path&gt;" class="s46" d="m252.6 456.5l-20.2 17.5 0.4 41.5 24-18.8z"/>
			<path id="&lt;Path&gt;" class="s46" d="m348.7 456.5l-20.7 22.1 0.8 36.9 29.2-20.1z"/>
			<path id="&lt;Path&gt;" class="s65" d="m128.7 709.5l-5.4-429.5 96.4-4-100.7-2.5v443z"/>
			<path id="&lt;Path&gt;" class="s65" d="m237.9 719l10-9.5-9.9-431.5 68.7-2-72-3.7z"/>
			<path id="&lt;Path&gt;" class="s65" d="m358.7 719l-11 1.3-29.8-445.6h85.4l-79.3 5.6z"/>
			<path id="&lt;Path&gt;" class="s46" d="m425.5 273.5c0 0-93.8 91.2-194.8 214-91.4 111.2-207.4 229.3-207.4 229.3l410.5 5.5z"/>
			<path id="&lt;Path&gt;" class="s46" d="m434 732.4l-85.3-1.9-8.7-0.2-102-2.3-3.3-0.1-59.3-1.3-11.3-0.3-9.4-0.2-17.6-0.4-18.1-0.4-5-0.1-114-2.5v-18.2h0.2l10.3-2 17.7-3.4 4-0.8 11.2-2.2 38.9-7.5 16.3-3.2 1.6-0.3 4-0.8 9.8-1.9 5-0.9 9.3-1.8 1.5-0.3 7.7-1.5 32.2-6.3 25-4.8 6.8-1.3 4.9-1 9.5-1.8 6.8-1.3 11.4-2.2 3.4-0.7 9.2-1.8h0.4l3.6-0.8 8-1.5 8.4-1.6 54.1-10.5 3.4-0.7 4.6-0.9 6.1-1.1 6.9-1.4h0.2l9.7-1.9 0.7-0.1 4.3-0.9 6.4-23.5 12.4-44.9 3.4-12.1 4-14.7 8-29 17.6-63.9 3.8-13.5v-0.1l4.9-17.7 7.8-28.5 2-7.4 3 161.1 0.3 14.5v1.7l0.2 11.1 2.3 119.5v0.7 2.4l0.2 6.8 0.2 15.5 0.1 1.8 0.1 7.2v0.4z"/>
			<path id="&lt;Path&gt;" class="s69" d="m123.9 418.6l-0.8-39.5 91.2-66.6-1.4 35.5z"/>
			<path id="&lt;Path&gt;" class="s70" d="m128.3 528.5l-0.9-93.5 86.9-69.5-4.3 106.5z"/>
			<path id="&lt;Path&gt;" class="s71" d="m26.3 558v-119.3l80-58.7-3.4 119.4z"/>
			<path id="&lt;Path&gt;" class="s72" d="m247.6 438.7l-0.6-46.2 64.3-45.8 1.4 36.3z"/>
			<path id="&lt;Path&gt;" class="s65" d="m69 278.7l-58.5 5.2-6.1 248.2-0.4 17.3-0.2 8-3.1 127.1-0.1 3.5-0.2 10.3-0.2 6.2-0.2 8.8v-437.3z"/>
			<path id="&lt;Path&gt;" class="s73" d="m425.5 273.5l-40 2.5 8.5 343h31.3z"/>
		</g>
	</g>
</svg>