<svg version="1.2" xmlns="http://www.w3.org/2000/svg" viewBox="0 0 1000 650" width="1000" height="650">
	<title>133977-OS79E7-359-ai</title>
	<style>
		tspan { white-space:pre } 
		.s0 { fill: #ffffff;stroke: #211915;stroke-width: 4 } 
	</style>
	<g id="OBJECTS">
		<path id="&lt;Path&gt;" class="s0" d="m990.9 271.8c4.7-89.8-89.4-175.1-314.7-196.4-170.8-16.2-695.5-108.8-667.1 160.9 28.4 269.7 643.5 189.3 643.5 189.3l-66.3 59.1h82.8l-42.5 59.2 85.1-26.1v78.1l37.9-82.8 34.3 82.8 13-87.5 83.3 56.8-0.2-0.6c23.2 15 55.4 29 100.2 38.4 0 0-98-38-121.6-116.8l77.9 0.9-56.3-49.7 75.2-16.6-92.3-35.5c0 0 122.5-14.2 127.8-113.5z"/>
	</g>
</svg>